<?xml version="1.0" encoding="utf-8"?>
<!-- Generator: Adobe Illustrator 24.1.2, SVG Export Plug-In . SVG Version: 6.00 Build 0)  -->
<svg version="1.1" id="Capa_1" xmlns="http://www.w3.org/2000/svg" xmlns:xlink="http://www.w3.org/1999/xlink" x="0px" y="0px"
	 viewBox="0 0 2000 2000" style="enable-background:new 0 0 2000 2000;" xml:space="preserve">
<style type="text/css">
	.st0{fill:#AA3900;}
	.st1{fill:#FFC19F;}
	.st2{fill:#FF9700;}
	.st3{fill:#F29972;}
	.st4{fill:#5E5D5D;}
	.st5{fill:#F2F2F2;}
	.st6{fill:#FFFFFF;}
	.st7{fill:#1C1C1C;}
	.st8{opacity:0.16;}
	.st9{opacity:0.2;}
	.st10{fill:#961208;}
	.st11{fill:#B5B5B5;}
	.st12{fill:#F95006;}
	.st13{fill:#8E1F09;}
	.st14{opacity:0.3;}
	.st15{opacity:0.19;}
	.st16{fill:#820303;}
	.st17{fill:#F7A981;}
	.st18{fill:#F4898B;}
	.st19{fill:#C4735B;}
	.st20{fill:#E0956C;}
	.st21{fill:#6D1403;}
	.st22{fill:#F9FEFF;}
	.st23{fill:#AD3C23;}
	.st24{fill:#872C04;}
	.st25{fill:#FEFFFE;}
	.st26{fill:#701608;}
	.st27{fill:#DD6B5B;}
	.st28{fill:#F49000;}
	.st29{fill:#FFA10B;}
	.st30{opacity:0.35;}
	.st31{fill:#C12400;}
</style>
<g>
	<g>
		<path class="st0" d="M1275.45,1024.5c-31.41,3.76-63.82-22.3-60.2-49.6c31.72-45.05,19.76-54.93-21.18-141.7
			c-31.07-65.85-41.17-234.11-72.91-294.27c-64.32-155.35-230.88-197.9-399.55-172.17c-155,23.64-278.87,116.89-305.36,271.2
			c-26.42,153.86-26.43,225.29-48.79,277.47c-20.26,47.27,6.14,64.02,12.95,91.37c-12.08,33.63-43.48,58.26-65.29,41.32
			c0.8,21.55,27,29.89,40.99,23.27c6.7-3.17,11.92-10.17,12.95-10.58c-6.98,14.46-21.98,40.58-23.53,59.63
			c-2.79,34.29,20.75,90.69,74.52,117c-20.1-19.19-46.43-51.71-38.7-81.08c14.65,55.07,79.48,93.92,166.7,100.09
			c105.02,7.44,355.67-2.69,426.08-11.11c71.38-8.54,219.9-16.67,252.85-84.1c0.83,16.72-5.87,27.61-12.86,38.22
			c42.11-37.46,48.67-71.72,42.6-107.27c-4.68-27.39-27.08-55.02-37.12-70.27C1242.6,1045.07,1258.34,1052.45,1275.45,1024.5z"/>
	</g>
	<g>
		<path class="st1" d="M1404.86,1100.43c9.24-5.7-31.8-85.05-41.61-80.3c-138.28,66.98-298.3,110.05-372.19,127.89l37.81,117.83
			C1138.95,1229.83,1273.64,1181.31,1404.86,1100.43z"/>
	</g>
	<g>
		<path class="st2" d="M1154.02,1095.67c11.31,37.51,33.32,125.52,34.62,161.33c-82.93,24.96-153.52,47.19-159.61,45.44
			c-63.37-18.17-79.21-157.06-83.03-164.68C991.07,1130.76,1072.55,1117.62,1154.02,1095.67z"/>
	</g>
	<g>
		<path class="st1" d="M274.92,1149.19c-9.66-4.96,25.03-87.28,35.18-83.31c143.11,55.93,306.01,86.33,381.07,98.31l-28.46,120.43
			C550.16,1257.35,412.07,1219.53,274.92,1149.19z"/>
	</g>
	<g>
		<path class="st2" d="M526.76,1121.92c-9.74,37.95-28.06,126.8-27.87,162.63c83.9,21.48,155.36,40.75,161.37,38.75
			c62.55-20.8,80-161.02,83.49-168.78C700.84,1150.36,609.08,1140.45,526.76,1121.92z"/>
	</g>
	<g>
		<path class="st1" d="M121.02,975.56c6.39-14.51,51.93,9.07,105.35,43.69c-34.29-46.97-62.77-89.82-45.78-96.23
			c21.5-4.41,43.64,32.69,92.37,88.8c12.34,8.24,24.54,11.32,30.48-1.98c6.1-13.64,0.5-23.35,10.08-50.84
			c4.47-12.83,24.96-22.05,25.65-11.98c2.83,40.84,7.79,66.67,9.89,133.07c1.4,44.27-41.71,79.75-89.96,77.38
			c-28.2,0.37-84.99-2.86-110.1-5.17c-15.2-1.4-24.07-8.08-17.72-15.95c5.95-7.37,24.73-11.57,37.13-14.75
			c14.32-3.67,23.59-5.72,26.16-11.11c7.23-15.19-93.09-28.83-93.57-46.71c-0.66-24.48,49.25-10.03,97.04-8.95
			C158.96,1023.42,113.47,992.73,121.02,975.56z"/>
	</g>
	<g>
		<g>
			<g>
				<path class="st1" d="M1334.7,1013.09c-0.67,18.44-1.04,37.43,6.48,60.85c10.11,31.53,42.65,46.78,71.6,43.56
					c15.84-1.76,43.11-17.66,74.57-53.39c-13.68-17.81-61.55-70.05-92.06-90.39C1370.64,1000.98,1346.04,1013.44,1334.7,1013.09z"/>
			</g>
			<g>
				<path class="st3" d="M1381.15,1070.11c14.67,18.72,66.84,24.54,85.55-3.1c-7-4.85-30.23-68.19-56.59-82.13
					c-9.61,3-32.49,11.99-38,19.82C1384.06,1015.95,1387.24,1049.54,1381.15,1070.11z"/>
			</g>
		</g>
	</g>
	<g>
		<g>
			<path class="st4" d="M1751.42,686.05l24.31,437.9c0.95,17.08-12.12,31.69-29.2,32.64l-312.64,17.36
				c-17.08,0.95-31.69-12.12-32.64-29.2l-24.31-437.9c-0.95-17.08,12.13-31.69,29.2-32.64l312.64-17.36
				C1735.86,655.9,1750.47,668.98,1751.42,686.05z"/>
		</g>
		<g>
			<path class="st5" d="M1728.13,705.46l22.3,401.78c0.6,10.85-7.7,20.14-18.56,20.74l-286.59,15.91
				c-10.85,0.6-20.13-7.71-20.74-18.56l-22.3-401.78c-0.6-10.85,7.7-20.13,18.56-20.74l286.58-15.91
				C1718.25,686.3,1727.53,694.61,1728.13,705.46z"/>
		</g>
		<g>
			<g>
				<path class="st6" d="M1707.64,683.64l-286.83,19.17l286.58-15.91c10.85-0.6,20.14,7.7,20.74,18.56l22.01,396.41
					c0.18-1.38,0.65-2.84,0.58-4.12l-19.4-394.26C1730.67,691.94,1721.53,682.87,1707.64,683.64z"/>
			</g>
		</g>
		<g>
			<path class="st7" d="M1563.86,688.25c-4.23,0.23-7.85-3-8.08-7.23c-0.23-4.23,3-7.85,7.23-8.08c4.23-0.23,7.84,3,8.08,7.23
				C1571.32,684.4,1568.09,688.02,1563.86,688.25z"/>
		</g>
		<g>
			<path class="st6" d="M1424.56,1125.33c0.26,4.76,2.2,9.03,5.2,12.27l312.71-173.89l-1-18.06l-317.06,176.88L1424.56,1125.33z
				 M1420.59,1053.74l317.06-176.88l-5.48-98.69l-317.06,176.88L1420.59,1053.74z M1724.76,695.53l-314.34,175.02l2.21,39.9
				l317.06-176.88l-1.56-28.1C1727.93,701.76,1726.7,698.38,1724.76,695.53z"/>
		</g>
		<g class="st8">
			<path d="M1748.8,1116.22c-3.37,4.39-8.55,7.35-14.51,7.68l-284.81,14.37c-10.85,0.6-20.14-7.7-20.74-18.56l-24.08-400.24
				c-0.18-3.19,0.43-6.24,1.64-8.97c-2.77,3.6-4.32,8.16-4.04,13.05l22.3,401.78c0.6,10.85,9.89,19.16,20.74,18.56l286.59-15.91
				C1739.54,1127.55,1745.92,1122.79,1748.8,1116.22z"/>
		</g>
	</g>
	<g>
		<g class="st9">
			<path class="st10" d="M1413.33,950.14c16.98,13.81,8.98,32.11-18.27,47.45c-14.18,7.98-18.78,15.01-23.86,17.06
				c-0.1-12.99,0.86-44.95,2.3-51.93C1395.97,952.93,1409.92,947.36,1413.33,950.14z"/>
		</g>
		<g>
			<path class="st1" d="M1419.47,966.85c-1.22,14.8-24.65,21.25-39.38,38.39c-13.92,16.2-33.44,27-45.6,29.46
				c-0.24-9.7-0.51-24.39,1.4-37.81c1.64-11.57,10.33-25.75,34.71-34.45c20.05-7.15,23.94-8.19,34.24-10.79
				C1415.71,948.92,1419.97,960.79,1419.47,966.85z"/>
		</g>
	</g>
	<g>
		<path class="st11" d="M1805.06,582.84c-1.36,3.27-4.91,4.97-8.23,4.08l-0.88-0.29c-3.55-1.49-5.23-5.54-3.77-9.1l24.08-58.14
			c1.48-3.58,5.58-5.15,9.11-3.79c3.55,1.49,5.23,5.54,3.77,9.1L1805.06,582.84z M1751.51,568.26c1.02,3.71-1.16,7.55-4.88,8.58
			c-1.24,0.34-2.48,0.32-3.65,0.01c-2.3-0.62-4.23-2.4-4.92-4.87l-16.73-60.66c-1.03-3.71,1.15-7.55,4.87-8.58
			c3.66-1.05,7.53,1.11,8.56,4.86L1751.51,568.26z M1893.62,602.66l-61.26,14.37c-1.15,0.25-2.31,0.22-3.39-0.07
			c-2.39-0.64-4.37-2.55-4.97-5.14c-0.88-3.76,1.45-7.5,5.19-8.39l61.25-14.38c3.73-0.83,7.5,1.45,8.37,5.2
			C1899.69,598.03,1897.37,601.78,1893.62,602.66z"/>
	</g>
	<g>
		<path class="st12" d="M655.07,1451.49c-0.62-17.55-1.13-214.82-0.27-307.24c101.77,8.02,280.24,0.19,373.77-21.2
			c28.03,116.06,44.72,198.06,64.29,296.98c3.52,17.78,14.58,72.94,28.63,142.86c-86.64,114.78-437.11,82.35-493.45,27.31
			C642.9,1521.81,654.43,1465.23,655.07,1451.49z"/>
	</g>
	<g>
		<path class="st13" d="M978.4,1166.87c-0.19,10.64,8.28,19.41,18.92,19.59c10.64,0.19,19.41-8.28,19.6-18.92
			c0.19-10.63-8.28-19.41-18.92-19.59C987.36,1147.77,978.58,1156.24,978.4,1166.87z"/>
	</g>
	<g>
		<path class="st13" d="M675.1,1186.13c-0.19,10.64,8.28,19.41,18.92,19.6c10.63,0.19,19.41-8.28,19.59-18.92
			c0.19-10.64-8.28-19.41-18.92-19.6C684.06,1167.03,675.29,1175.5,675.1,1186.13z"/>
	</g>
	<g class="st14">
		<path class="st6" d="M883.97,1457.87c-78.09,6.29-155.21,3.79-228.9-6.44c-0.07-1.84-0.16-5.78-0.27-10.85
			c138.97,19.48,290.85,9.02,436.17-30.05c0.63,3.19,1.25,6.27,1.89,9.5c0.05,0.27,0.16,0.78,0.21,1.07
			C1024.19,1439.61,953.87,1452.25,883.97,1457.87z"/>
	</g>
	<g>
		<path class="st1" d="M960.37,1168.62c0.21-6.14-3.35-25.61-8.04-33.64c-52.87,3.8-154.48,7.92-216.79,11.52
			c-1.43,4.56-2.85,15.36-2.94,18.11c-1.59,47.45,49.53,84.49,112.8,86.6C908.66,1253.33,958.78,1216.07,960.37,1168.62z"/>
	</g>
	<g>
		<path class="st1" d="M931.28,1044.05v133.98c0,28.81-36.62,52.17-81.79,52.17s-81.79-23.36-81.79-52.17v-133.98H931.28z"/>
	</g>
	<g class="st15">
		<path class="st16" d="M742.76,1049.69c-15.03,45.17,24.4,98.95,88.06,120.13c63.66,21.18,127.45,1.73,142.47-43.43
			c15.03-45.17-24.4-98.95-88.05-120.13C821.57,985.07,757.79,1004.52,742.76,1049.69z"/>
	</g>
	<g>
		<g>
			<g>
				<path class="st17" d="M1165.18,855.02c-7.17,51.6-41.81,82.39-69.3,75.85c-27.48-6.55-34.77-49.59-32.4-99.55
					c2.38-49.95,26.59-85.27,54.06-78.6C1155.1,761.85,1171.92,806.52,1165.18,855.02z"/>
			</g>
			<g>
				<path class="st0" d="M415.89,696.01c15.23,253.62,236.12,362.34,440.68,327.47c204.57-34.87,323.86-233.99,261.8-472.9
					C1083.9,417.92,948.31,336.24,753.1,370.85C545.32,407.68,404.08,499.41,415.89,696.01z"/>
			</g>
			<g>
				<path class="st1" d="M504.8,620.27c-11.6,43.59,76.91,391.88,127.21,434.49c53.36,45.2,171.68,78.08,294.47,55.84
					c75.84-13.73,158.58-83.16,182.96-146.96c28.84-75.49-14.29-377.14-32.09-413.55c-38.07-77.86-169.89-80.02-317.14-54.99
					C622.46,518.53,534.89,507.16,504.8,620.27z"/>
			</g>
			<g>
				<path class="st0" d="M584.15,808.98c27.5,75.4,41.03,147.19-6.5,154.31c-47.53,7.11-139.05-169.63-155.81-281.66
					c-19.2-128.3,79.79-230.82,213.72-165.04C519.91,594.05,550.23,716,584.15,808.98z"/>
			</g>
			<g>
				<path class="st18" d="M645.02,959.06c1.93,14.65,23.85,23.84,48.97,20.53c25.1-3.31,43.9-17.86,41.98-32.51
					c-1.93-14.65-23.86-23.84-48.96-20.53C661.88,929.86,643.09,944.41,645.02,959.06z"/>
			</g>
			<g>
				<path class="st18" d="M1038.45,893.18c2.99,12.79,20.97,19.52,40.15,15.03c19.17-4.49,32.3-18.5,29.3-31.29
					c-2.99-12.79-20.97-19.52-40.15-15.03C1048.57,866.38,1035.45,880.39,1038.45,893.18z"/>
			</g>
			<g>
				<path class="st19" d="M875.56,894.55c1.6-0.27,2.82-1.66,2.82-3.34c-0.02-11.91,7.88-20.92,20.14-22.97
					c12.32-2.06,22.97,4,26.5,15.09c0.57,1.78,2.48,2.76,4.24,2.2c1.78-0.57,2.76-2.47,2.2-4.25c-4.52-14.2-18.52-22.31-34.05-19.71
					c-15.44,2.59-25.8,14.5-25.78,29.65c0.01,1.87,1.52,3.38,3.38,3.38L875.56,894.55z"/>
			</g>
			<g>
				<g>
					<g>
						<g>
							<path class="st1" d="M471.16,976.6c33.95,55.01,102.44,71.27,141.54,54.11c30.43-13.36,20.51-67.79-1.7-116.45
								c-23.92-52.41-62.01-76.52-104.5-66.93C449.47,860.21,440.94,927.64,471.16,976.6z"/>
						</g>
					</g>
					<g>
						<path class="st20" d="M524.53,959.05c10.44,25.67,48.46,40.9,69.8,26.05c7.18-5-32.78-87.41-45.25-84.96
							C520.72,905.7,514.09,933.38,524.53,959.05z"/>
					</g>
				</g>
			</g>
			<g>
				<path class="st0" d="M472.48,690.48c-7.67-41.29,0.2-149.3,70.64-202.35c90.83-68.4,278.71-129.48,490.38-38
					c-9.21,106.65-197.88,178.51-279.7,184.49c24.59-15.99,56.39-47.43,53.01-67.09C774.3,600.93,490.05,785,472.48,690.48z"/>
			</g>
			<g>
				<path class="st21" d="M615.39,717.21c-2.83,0.75-5.94,0.38-8.55-1.29c-4.87-3.09-6.17-9.46-2.9-14.24
					c23.81-34.72,77.23-56.76,127-52.46c5.85,0.52,10.07,5.52,9.44,11.18c-0.64,5.69-5.89,9.87-11.71,9.35
					c-41.72-3.66-87.77,14.87-107.08,43.11C620.08,715.08,617.85,716.57,615.39,717.21z"/>
			</g>
			<g>
				<path class="st21" d="M1067.24,639.47c2.43-0.14,4.78-1.32,6.4-3.46c3.03-3.98,2.38-9.77-1.46-12.95
					c-27.91-23.05-75.85-27.11-113.97-9.69c-4.48,2.06-6.48,7.49-4.5,12.15c2,4.68,7.24,6.8,11.69,4.74
					c31.94-14.65,73.13-11.55,95.8,7.21C1062.98,638.94,1065.13,639.6,1067.24,639.47z"/>
			</g>
			<g>
				<g>
					<path class="st22" d="M949.79,762.07c-15.12,37.19-6.69,74.21,13.44,85.6c30.35,17.16,95.13,13.2,114.05-21.52
						c18.34-33.63-1.42-86.54-42.71-104.12C998.42,706.64,964.42,726.08,949.79,762.07z"/>
				</g>
				<g>
					<path class="st23" d="M1067.15,733.81c-37.56-48.02-105.16-19.07-117.87,29.52c15.11-37.17,51.26-53.48,84.68-39.27
						c20.65,8.8,37.31,27.63,44.57,50.38c5.78,18.14,5.31,39.58-2.31,53.54C1085.96,818.11,1094.77,769.13,1067.15,733.81z"/>
				</g>
				<g>
					<path class="st24" d="M959.35,781.99c-4.69,24.85,9.44,50.08,31.55,56.34c22.11,6.27,43.83-8.8,48.52-33.65
						c4.69-24.85-9.44-50.08-31.55-56.34C985.76,742.07,964.04,757.14,959.35,781.99z"/>
				</g>
				<g>
					<path class="st25" d="M962.01,777.42c-1.3,6.89,2.62,13.89,8.75,15.63c6.13,1.74,12.16-2.44,13.46-9.34
						c1.3-6.89-2.62-13.89-8.75-15.63C969.33,766.35,963.31,770.53,962.01,777.42z"/>
				</g>
			</g>
			<g>
				<g>
					<path class="st22" d="M792.83,790.22c28.25,30.64,30.71,68.56,12.29,85.77c-27.76,25.93-99.81,42.63-131.44,15.55
						c-30.64-26.23-25.73-82.87,13.86-112.66C722.2,752.8,765.49,760.57,792.83,790.22z"/>
				</g>
				<g>
					<path class="st23" d="M655.65,800.4c25.91-57.61,108.93-51.39,138.13-9.13c-28.23-30.63-72.88-34.74-104.93-10.64
						c-19.8,14.91-32.07,38.11-32.83,62.07c-0.6,19.1,6.68,39.37,19.4,50.27C661.66,886.63,636.6,842.76,655.65,800.4z"/>
				</g>
				<g>
					<path class="st24" d="M776.31,829.53c-3.08-17.87-16.53-33.03-35.29-37.4c-25.02-5.84-50.04,9.72-55.87,34.74
						c-5.84,25.02,9.72,50.04,34.74,55.87c25.02,5.84,50.04-9.72,55.87-34.74C777.21,841.74,777.33,835.49,776.31,829.53z"/>
				</g>
				<g>
					<path class="st25" d="M688.25,822.23c-1.62,6.94,2.69,13.88,9.64,15.5c6.94,1.62,13.88-2.69,15.5-9.64
						c1.62-6.94-2.7-13.88-9.64-15.5C696.81,810.97,689.87,815.28,688.25,822.23z"/>
				</g>
			</g>
			<g>
				<g>
					<path class="st26" d="M790.41,955.33c1.33-26.19,44.6-25.99,101.02-34.04c2.95-0.42,14.44-1.97,17.4-2.35
						c56.52-7.19,88.85-18.1,94.55,7.39c10.29,46.07-31.09,108.59-88.42,116.53c-0.17,0.02-0.82,0.11-0.99,0.13
						C852.29,1051.37,787.86,1005.78,790.41,955.33z"/>
				</g>
				<g>
					<path class="st27" d="M850.94,1033.55c13.79-17.47,33.74-28.78,56.19-31.81c22.15-2.99,43.72,2.53,60.93,15.38
						c-9.49,8.68-20.29,16.01-32.34,20.73c-0.09,0.03-0.17,0.04-0.26,0.08c-6.53,2.53-13.36,4.38-20.45,5.37
						c-0.18,0.02-0.82,0.11-0.99,0.13c-15.28,2.08-30.73,0.77-45.3-3.09c-0.38-0.1-0.75-0.23-1.12-0.34
						c-5.83-1.6-11.4-3.82-16.86-6.2L850.94,1033.55z"/>
				</g>
				<g>
					<path class="st6" d="M903.98,953.23c39.46-5.33,70.69-23.68,72.64-42.72l0.11-1.16c0,0-46.86,5.59-68.07,8.26
						c-22.23,2.8-85.26,12.43-85.26,12.43l0.37,1.1C830.08,949.06,864.56,958.55,903.98,953.23z"/>
				</g>
			</g>
			<g>
				<g>
					<path class="st28" d="M477.55,640.62C504.01,503,622.13,423.3,742.84,392.78c152.99-38.69,275.13,17.02,314.25,67.05
						c-45.88-30.91-123.39-73.38-291.07-32.09C656.49,454.7,529.97,529.46,477.55,640.62z"/>
				</g>
			</g>
			<g>
				<g>
					<path class="st29" d="M532.8,556.32c32.3-7.65,79.38-19.97,92.3-37.35c8.15-10.97-25.93-54.96-64.62-56.27
						c-20.46-0.69-51.12,36.74-51.46,70.37C508.86,550.09,517.43,559.97,532.8,556.32z"/>
				</g>
				<g>
					<path class="st29" d="M523.04,572.91c-1.86,53.7-9.56,90.3-25.29,96.9c-24.86,10.42-84.46-18.6-84.31-48.35
						c0.15-29.81,55.17-71.99,83.97-72.24C515.44,549.05,523.64,555.66,523.04,572.91z"/>
				</g>
				<g class="st30">
					<g>
						<path class="st31" d="M522.5,541.85c1.63-10.2,10.38-37.6,23.32-26.17C562.76,530.62,531.78,541.01,522.5,541.85z"/>
					</g>
				</g>
				<g class="st30">
					<g>
						<path class="st31" d="M505.86,560.29c-10.47,4.77-42.88,21.42-22.76,31.34C504.04,601.94,506.07,571.32,505.86,560.29z"/>
					</g>
				</g>
				<g>
					<path class="st29" d="M527.47,540.83c8.25,7.83,9.89,19.5,3.68,26.07c-6.22,6.56-17.94,5.53-26.19-2.3
						c-8.25-7.83-9.9-19.5-3.68-26.07C507.5,531.96,519.22,532.99,527.47,540.83z"/>
				</g>
			</g>
		</g>
	</g>
</g>
</svg>
