<?xml version="1.0" encoding="utf-8"?>
<!-- Generator: Adobe Illustrator 24.1.2, SVG Export Plug-In . SVG Version: 6.00 Build 0)  -->
<svg version="1.1" id="Capa_1" xmlns="http://www.w3.org/2000/svg" xmlns:xlink="http://www.w3.org/1999/xlink" x="0px" y="0px"
	 viewBox="0 0 2000 2000" style="enable-background:new 0 0 2000 2000;" xml:space="preserve">
<style type="text/css">
	.st0{fill:#E0956C;}
	.st1{fill:#FFC19F;}
	.st2{fill:#FFFFFF;}
	.st3{fill:#BE1E2D;}
	.st4{opacity:0.12;}
	.st5{fill:#664A61;}
	.st6{opacity:0.37;}
	.st7{fill:#02B2BF;}
	.st8{fill:#1390A1;}
	.st9{opacity:0.19;fill:#820303;}
	.st10{fill:#FFFFE3;}
	.st11{fill:#0089A0;}
	.st12{fill:#045360;}
	.st13{fill:#D2DAE5;}
	.st14{opacity:0.4;fill:#FFFFFF;}
	.st15{fill:#F7A981;}
	.st16{fill:#602220;}
	.st17{fill:#660303;}
	.st18{fill:#701608;}
	.st19{fill:#DD6B5B;}
	.st20{fill:#C4735B;}
	.st21{fill:#F4898B;}
	.st22{fill:#F9FEFF;}
	.st23{fill:#773220;}
	.st24{fill:#63190D;}
	.st25{fill:#FEFFFE;}
	.st26{fill:#9E2C46;}
	.st27{fill:#FF523D;}
	.st28{fill:#472331;}
	.st29{opacity:0.16;}
	.st30{fill:#9DCECC;}
	.st31{fill:#2D8F91;}
	.st32{fill:#19555B;}
	.st33{fill:#D3DAE5;}
	.st34{fill:#1B6168;}
	.st35{opacity:0.23;}
	.st36{fill:#EF5A18;}
	.st37{fill:#9E330D;}
	.st38{fill:#F4B18C;}
	.st39{fill:#752912;}
	.st40{fill:#FF9797;}
	.st41{fill:#C67F75;}
	.st42{fill:#8C2F22;}
	.st43{fill:#934341;}
	.st44{opacity:0.24;}
	.st45{opacity:0.4;}
	.st46{opacity:0.17;}
	.st47{fill:#969696;}
	.st48{fill:#9B1E2D;}
	.st49{fill:#ED1C24;}
	.st50{fill:#B27738;}
	.st51{fill:#FF6470;}
	.st52{opacity:0.5;fill:#FF6470;}
</style>
<g>
	<g>
		<path class="st0" d="M1179.41,957.17c-5.03,0.5-9.23,5.37-0.38,11.62c12.57,8.87,41.4,21.19,45.21,33.54
			c3.6,11.7,4.94,23.35,12.81,13.98c6.54-7.79,6.84-41.36,0.31-51.71c-2.34-3.71-23.27-9.81-29.75-10.64
			C1204.03,953.49,1187.72,956.33,1179.41,957.17z"/>
		<path class="st1" d="M1185.41,962.8c7.43-3.18,16.87-4.82,21.63-5.27c5.79-0.55,31.65,6.79,36.59,13.37
			c10.94,14.55,15.05,53.35,16.56,74.65c0.3,4.25-32.32,18.43-37.46,13.99c-10.86-5.18-27.06-9.88-40.31-40.68
			c-0.25-0.59-4.49-17.56-5.4-23.22c5.85-5.92,13.34-6.07,17.77-1.2c6.59,7.26,6.87,14.26,14.13,16.87
			c9.74,3.5,21.01,3.86,19.55-26.67c-0.07-1.46-18.27-11.02-21.08-10.88C1196.49,974.32,1190.38,974.43,1185.41,962.8z"/>
		<g>
			<path class="st2" d="M1290.22,1004.36c1.15-5.3,0.34-10.02-1.8-10.54l-0.44-0.05l-15.26-3.72l-4.16,19.19l15.71,3.83
				C1286.38,1013.5,1289.08,1009.6,1290.22,1004.36z"/>
			<path class="st3" d="M1130,967.96l13.81,10.95l9.93,2.42l5.68-18.82l-11.45-2.78l-16.63,3.41
				C1130.9,964.7,1130.53,966.36,1130,967.96z"/>
			<path class="st2" d="M1132.66,970.07l1.64-7.54c0,0-6.59,0.37-7.04,2.3C1126.8,966.79,1132.66,970.07,1132.66,970.07z"/>
			<path class="st3" d="M1274.16,990.48l-126.19-30.76l4.26,6.08l-6.34,3.51l4.26,6.09l-6.34,3.51l126.19,30.76L1274.16,990.48z"/>
		</g>
		<g>
			<path class="st1" d="M1182.95,962.17c-4.55,3.48,3.77,9.41,7.35,11.14c4.67,2.24,14.48,1.02,15.96,0.41
				c1.36-0.56-1.44-15.38-0.13-16.1C1206.14,957.61,1185.76,960.02,1182.95,962.17z"/>
			<path class="st1" d="M1181.57,983.72c-4.16-1.07-22.78-0.73-10.27,12.63c3.61,3.86,10.45,20.19,10.45,20.19l15.42-18.94
				C1196.99,996.01,1187.58,985.27,1181.57,983.72z"/>
		</g>
	</g>
	<path class="st4" d="M1301.23,1799.01c0,9.58,107.28,17.34,239.63,17.34s239.63-7.76,239.63-17.34s-107.28-17.34-239.63-17.34
		S1301.23,1789.43,1301.23,1799.01z"/>
	<path class="st1" d="M1491.64,1727.79c-0.09,6.73-60.06,13.42-60.73,6.71c-6.48-65.22-35.44-243.62-39.47-269.44l92.75,5.39
		C1483.09,1534.8,1492.27,1681.14,1491.64,1727.79z"/>
	<path class="st1" d="M1589.98,1726.09c1.7,6.51,61.85-1.88,60.9-8.56c-9.27-64.88-34.65-239.22-36.89-265.26l-87.02,23.46
		C1543.42,1537.96,1578.21,1680.95,1589.98,1726.09z"/>
	<path class="st5" d="M1606.1,1344.25c10.47,58.43,29.77,180.03,36.55,212.11c-20.48,9.25-88.72,15.24-108.37,15.29
		c-9.53-33.25-19.67-79.85-25.59-94.46c-0.92-2.26-2.93-7.94-8.19-8.37c-4.73-0.38-6.95,4.25-7,7.26
		c-0.47,31.31-2.09,72.42-1.38,97.28c-25.32,2.92-86.63,2.67-108.3-1.47c-2.19-28-7.79-137.88-10.12-213.69L1606.1,1344.25z"/>
	<path class="st6" d="M1618.53,1407.89c-53.61-8.23-190.18-20.54-242.8-19.77l1.13,34.01c72.08,17.65,160.7,19.6,242.84,1.81
		L1618.53,1407.89z"/>
	<path class="st1" d="M1649.8,1369.12c-2.44,2.66-35.02-23.97-32.8-26.82c33.25-42.63,76.13-112.98,83.71-126.39
		c0,0,33.91,19.04,32.26,48.23C1731.65,1287.39,1682.08,1333.97,1649.8,1369.12z"/>
	<path class="st7" d="M1712.37,1217.13c-13.43,16.74-38.42,51.75-53.83,65.7c-15.16-7.48-44.86-22.59-47.57-24.15
		c-23.27-35.53-51.26-121.22-51.81-123.27c26.48,4.73,58.48,10.59,66.81,14.01C1644.04,1163.19,1681.66,1191.85,1712.37,1217.13z"/>
	<path class="st1" d="M1219.48,1055.45c-2.16-2.91,33.07-27.36,35.59-24.77c40.71,41.86,151.51,119.63,164.38,128.16
		c0,0-71.24,3.01-101.23-3.17C1294.41,1150.76,1245.04,1089.89,1219.48,1055.45z"/>
	<path class="st7" d="M1348.15,1098.77c-6.93,19.74-20.07,65.93-23.9,84.59c38.03,13.73,81.55,29.21,84.84,28.42
		c34.23-8.18,50.76-81.69,52.98-85.66C1439.42,1121.93,1391.07,1112.43,1348.15,1098.77z"/>
	<path class="st7" d="M1629.25,1421.24c-88.64,19.75-195.48,15.35-264.13-16.79c0,0,33.12-222.92,46.17-274.2
		c40.41-4.38,62.2-7.34,101.73-2.57c39.89,4.81,81.49,15.4,106.56,23.56C1623.19,1217.77,1620.47,1325.41,1629.25,1421.24z"/>
	<path class="st8" d="M1454.16,1141.4c0.03-3.28,3.34-13.05,4.3-16.1c36.53-0.34,80.84,3.8,116.05,13.36
		c0.2,1.43,0.72,2.78,0.71,4.24c-0.27,25.35-27.88,45.61-61.67,45.25C1479.76,1187.8,1453.9,1166.75,1454.16,1141.4z"/>
	<path class="st1" d="M1472.33,1074.2l-2.55,71.49c-0.55,15.37,18.55,28.53,42.64,29.39c24.1,0.86,44.08-10.91,44.63-26.28
		l2.55-71.49L1472.33,1074.2z"/>
	<path class="st9" d="M1471.61,1094.36l-1.69,47.55c12.09,5.55,26.9,8.05,42.63,5.92c18.99-2.58,34.99-11.2,45.36-22.65l1.36-38.02
		C1532.25,1087.94,1499.81,1090.83,1471.61,1094.36z"/>
	<path class="st10" d="M1500.43,1763.88c-0.07,1.9-74.69,4.87-74.87,2.57c-1.46-18.5-4.14-44.07-5.02-55.74l79.6-2.03
		C1499.47,1729.8,1500.91,1751.72,1500.43,1763.88z"/>
	<g>
		<path class="st11" d="M1404.02,1742.35c1.1-4.16,3.41-9.45,5.19-14.27c1.32-3.58,36.26-3.3,36.43,5.28c0.04,2.2-0.03,4.14-0.2,5.9
			c5.98,0.01,12.46-0.12,19.3-0.42c14.88-0.66,28.21-1.98,37.56-3.55c0.72,13.57-0.27,37.08,0.4,52.16c0,0-155.62,30.47-180.37,8.07
			C1315.36,1789.19,1354.26,1760.56,1404.02,1742.35z"/>
		<path class="st12" d="M1502.49,1777.98c0.03,3.35,0.09,6.59,0.21,9.46c0,0-155.62,30.47-180.37,8.07
			c-0.98-0.89-1.04-2.23-0.3-3.92C1365.12,1800.56,1463.79,1784.82,1502.49,1777.98z"/>
		<path class="st13" d="M1393.14,1746.82c-1.19,0.25-2.35-0.47-2.61-1.64c-0.27-1.17,0.47-2.35,1.64-2.61
			c9.04-2.04,19.62,2.06,25.74,10.03c0.73,0.96,0.55,2.33-0.4,3.06c-0.37,0.28-0.8,0.43-1.23,0.45c-0.69,0.03-1.38-0.26-1.83-0.85
			C1409.32,1748.59,1400.56,1745.09,1393.14,1746.82z M1381.2,1752.44c-1.18,0.23-2.29-0.7-2.43-1.9c-0.15-1.2,0.7-2.28,1.9-2.43
			c9.53-1.2,18.98,2.3,25.95,9.54c0.83,0.87,0.81,2.25-0.06,3.09c-0.4,0.38-0.9,0.58-1.41,0.61c-0.6,0.03-1.22-0.2-1.67-0.67
			C1395.25,1752.13,1386,1751.84,1381.2,1752.44z M1368.05,1754.29c8.59-1.56,19.68,2.3,27.02,9.36c0.87,0.83,0.9,2.22,0.06,3.08
			c-0.4,0.42-0.94,0.64-1.48,0.67c-0.57,0.03-1.16-0.17-1.61-0.61c-6.4-6.15-15.98-9.63-23.23-8.21c-1.22,0.24-2.32-0.57-2.54-1.76
			C1366.08,1755.63,1366.87,1754.5,1368.05,1754.29z"/>
	</g>
	<path class="st10" d="M1588.84,1765c0.41,1.86,71.39-7.81,71.31-10.11c-0.66-18.15-1.9-40.52-1.95-50.34l-78.82,6.07
		C1583.76,1731.29,1586.22,1753.12,1588.84,1765z"/>
	<g>
		<path class="st11" d="M1675.94,1742.35c-1.1-4.16-3.41-9.45-5.19-14.27c-1.32-3.58-36.26-3.3-36.43,5.28
			c-0.04,2.2,0.03,4.14,0.2,5.9c-5.98,0.01-12.46-0.12-19.3-0.42c-14.88-0.66-28.21-1.98-37.56-3.55
			c-0.72,13.57,0.27,37.08-0.4,52.16c0,0,155.62,30.47,180.37,8.07C1764.59,1789.19,1725.7,1760.56,1675.94,1742.35z"/>
		<path class="st12" d="M1577.47,1777.98c-0.03,3.35-0.09,6.59-0.22,9.46c0,0,155.62,30.47,180.37,8.07
			c0.98-0.89,1.04-2.23,0.3-3.92C1714.84,1800.56,1616.16,1784.82,1577.47,1777.98z"/>
		<path class="st13" d="M1665.52,1755.26c-0.45,0.59-1.14,0.88-1.83,0.85c-0.43-0.02-0.86-0.17-1.23-0.45
			c-0.96-0.73-1.14-2.1-0.4-3.06c6.12-7.97,16.7-12.08,25.74-10.03c1.17,0.27,1.91,1.44,1.64,2.61c-0.27,1.17-1.43,1.89-2.61,1.64
			C1679.4,1745.09,1670.64,1748.59,1665.52,1755.26z M1676.49,1760.68c-0.45,0.47-1.06,0.69-1.67,0.67
			c-0.51-0.02-1.02-0.23-1.41-0.61c-0.87-0.83-0.89-2.22-0.06-3.09c6.96-7.24,16.41-10.74,25.94-9.54c1.2,0.15,2.05,1.23,1.9,2.43
			c-0.15,1.2-1.25,2.13-2.43,1.9C1693.96,1751.84,1684.71,1752.13,1676.49,1760.68z M1713.67,1756.82c-0.21,1.18-1.32,2-2.54,1.76
			c-7.24-1.41-16.83,2.07-23.22,8.21c-0.45,0.43-1.04,0.63-1.61,0.61c-0.54-0.02-1.07-0.25-1.48-0.67
			c-0.84-0.87-0.81-2.25,0.06-3.08c7.35-7.06,18.44-10.92,27.03-9.36C1713.09,1754.5,1713.88,1755.63,1713.67,1756.82z"/>
	</g>
	<path class="st14" d="M1504.1,1212.84c-36.09-3.2-71.88-9.45-105.49-18.3c0.7-3.96,1.38-7.8,2.06-11.56
		c68.46,17.81,148.85,25.45,220.57,18.48c0.08,3.62,0.16,7.19,0.23,10.92C1584.03,1216.16,1544.03,1216.38,1504.1,1212.84z
		 M1501.47,1257.67c-37.8-3.35-75.32-10-110.29-19.55l1.93-11.58c70.55,19.02,154.63,27.17,228.89,19.44l0.18,10.9
		C1583.82,1261.02,1542.59,1261.31,1501.47,1257.67z M1496.81,1300.59c-38.6-3.42-76.93-10.25-112.52-20.13l1.87-11.62
		c72.7,19.91,160.28,28.35,236.61,19.56c0.08,3.62,0.16,7.24,0.25,10.89C1583.14,1304.01,1539.88,1304.4,1496.81,1300.59z
		 M1494,1345.83c-40.09-3.55-79.96-10.69-116.69-21.2l1.81-11.6c74.8,21.11,166.18,29.89,244.91,20.12
		c0.13,3.63,0.23,7.25,0.37,10.89C1583.38,1349.25,1538.59,1349.78,1494,1345.83z M1372.37,1356.6
		c77.05,22.41,172.46,31.59,253.7,20.67c0.21,3.62,0.41,7.22,0.64,10.83c-42.37,5.83-88.92,6.67-135.34,2.56
		c-41.6-3.69-82.91-11.3-120.78-22.47L1372.37,1356.6z"/>
	<path class="st1" d="M1557.73,1321.8c7.77,2.48,24.53-1.01,32.61,2.6c0,0,0.47,0.34,0.72,0.64c-17.01,0.5-31.31,7.21-44.83,10.34
		c-4.73,18.46,20.2,7.38,45.96,4.41c-15.33,4.11-25.13,8.7-35.74,11.02c-8.28,7.49-4.83,13.23,5.92,12.01
		c8.31-0.95,22.84-5.16,37.83-7.25c1.31,0.4-31.06,12.85-34.3,19.93c0.89,3.77,7.37,6.42,17.29,2.63
		c5.36-2.05,10.98-5.47,23.24-8.47c10.42,1.49,19.24,7.76,23.36,9.52c15.58,4.58,24.18-16.62,24.44-21.15
		c0.69-11.77-19.41-35.09-32.18-39.92c-21.39-8.1-31.93-12.74-67.09-5.77C1548.69,1315.96,1553.94,1320.59,1557.73,1321.8z"/>
	<g>
		<path class="st15" d="M1335.33,982.31c5.9,27.18,25.58,42.18,39.94,37.59c14.37-4.59,16.52-27.8,13.24-54.3
			c-3.28-26.5-17.59-44.33-31.94-39.67C1336.95,932.3,1329.79,956.76,1335.33,982.31z"/>
		<path class="st16" d="M1733.71,775.98c-15.37-26.74-49.74-52.38-90.76-56.28c-22.89-7.13-128.35-19.36-151.58-17.94
			c-41.63-7.96-89.39,14.21-108.5,34.98c-25.73,27.96-30.75,50.62-33.68,68.65c-4.02,24.77-7.23,66.99-2.41,97.62l0.1-0.28
			c12.69,90.55,82.97,139.54,179.4,150.58c103.02,11.79,185.1-25.47,212.88-124.56C1747.07,902.14,1762.75,826.52,1733.71,775.98z"
			/>
		<path class="st1" d="M1694.76,860.48c7.53,22.52-23.42,185.91-46.51,212.04c-29.43,33.32-87.52,61.19-163.85,52.06
			c-59.63-7.13-108.22-48.73-119.8-99.65c-6.45-28.36-3.1-143.78,15.76-199.7c17.59-52.15,83.1-50.24,163.05-40.78
			C1618.19,793.29,1675.23,802.05,1694.76,860.48z"/>
		<path class="st16" d="M1667.2,902.73c-6.56,62-17.18,94.53-1.18,100.09c20.06,2.5,71.45-63.92,79.16-125.8
			c8.82-70.86-5.22-100.55-49.66-117.2C1676.36,752.64,1674.65,832.26,1667.2,902.73z"/>
		<g>
			<path class="st1" d="M1724.96,1035.27c-16.15,28.41-51.43,38.57-72.45,29.75c-21.02-8.83-18.34-34.97-6.41-63.32
				c11.93-28.35,36.94-40.37,59.65-35.36C1736.22,973.07,1740.14,1008.57,1724.96,1035.27z"/>
			<path class="st0" d="M1698.19,1026.61c-4.55,14.08-24.2,23.68-36.14,16.61c-4.02-2.38,14.02-47.83,20.76-47.02
				C1698.13,998.06,1702.75,1012.53,1698.19,1026.61z"/>
		</g>
		<path class="st17" d="M1392.73,868.98c-1.44-0.04-2.86-0.74-3.83-2.06c-1.76-2.38-1.4-5.88,0.79-7.8
			c15.96-14.02,43.51-16.68,65.53-6.34c2.58,1.22,3.76,4.48,2.63,7.3c-1.12,2.82-4.14,4.1-6.7,2.9
			c-18.43-8.66-42.12-6.63-55.08,4.76C1395.08,868.61,1393.9,869.01,1392.73,868.98z"/>
		<path class="st17" d="M1626.17,897.54c-1.44-0.18-2.79-0.87-3.78-2.07c-12.19-14.68-38.38-22.17-60.97-17.4
			c-3.26,0.68-6.26-1.36-6.93-4.52c-0.67-3.16,1.36-6.26,4.51-6.93c26.93-5.71,57.4,3.3,72.39,21.37c2.07,2.49,1.72,6.17-0.76,8.24
			C1629.33,897.31,1627.71,897.73,1626.17,897.54z"/>
		<g>
			<path class="st18" d="M1552.43,1030.93c-0.66-14.2-25.42-14.14-57.66-18.57c-1.69-0.23-8.26-1.08-9.95-1.29
				c-32.31-3.96-50.76-9.92-54.12,3.9c-6.06,24.97,17.38,58.91,50.15,63.28l0.57,0.07
				C1516.68,1082.93,1553.71,1058.28,1552.43,1030.93z"/>
			<path class="st19" d="M1517.63,1073.41c-7.82-9.49-19.31-15.77-32.14-17.44c-12.66-1.65-25.02,1.32-34.92,8.27
				c5.4,4.72,11.62,8.73,18.5,11.3c3.72,1.39,7.7,2.41,11.75,2.95l0.57,0.07c8.74,1.14,17.58,0.45,25.93-1.62
				c0.21-0.05,0.43-0.12,0.64-0.18C1511.3,1075.88,1514.5,1074.69,1517.63,1073.41z"/>
			<path class="st2" d="M1487.47,1029.66c-22.56-2.93-40.35-12.92-41.4-23.24l-0.06-0.63c0,0,26.79,3.08,38.91,4.56
				c12.71,1.55,48.73,6.83,48.73,6.83l-0.22,0.59C1529.76,1027.48,1510,1032.59,1487.47,1029.66z"/>
		</g>
		<path class="st20" d="M1471.97,988.64c0.82,0.1,1.61-0.4,1.85-1.22c1.71-5.79,6.86-9.04,13.11-8.26
			c6.29,0.78,10.59,5.27,10.7,11.17c0.02,0.94,0.81,1.7,1.75,1.68c0.95-0.02,1.7-0.8,1.68-1.75c-0.14-7.56-5.78-13.53-13.71-14.5
			c-7.88-0.97-14.64,3.32-16.82,10.69c-0.27,0.91,0.25,1.86,1.16,2.13L1471.97,988.64z"/>
		<path class="st21" d="M1637.85,1023.09c-0.56,8.55-13.62,14.65-29.17,13.62c-15.54-1.03-27.69-8.79-27.13-17.33
			c0.56-8.55,13.63-14.65,29.17-13.62C1626.27,1006.78,1638.41,1014.54,1637.85,1023.09z"/>
		<path class="st21" d="M1414.23,997.55c-1.55,7.44-12.8,11.38-25.12,8.81c-12.31-2.57-21.04-10.69-19.49-18.13
			c1.55-7.44,12.8-11.38,25.11-8.81C1407.06,981.99,1415.78,990.11,1414.23,997.55z"/>
		<path class="st16" d="M1385.48,830.32c-4.85,14.66-7.93,19.7-17.57,35.74c1.81-11.91,10.51-81.05,12.99-99.02
			c7.35-0.5,32.99-3.75,37.57-3.26C1389.34,777.82,1392.71,808.45,1385.48,830.32z"/>
		<path class="st16" d="M1649.9,861.57c3.89,12.52,12.4,26.09,21.47,51.77c0.97-12.01,10.63-92.68,12.46-110.72
			c-10.68-2.54-55.36-13.74-62.25-14.56C1660.2,809.78,1642.76,838.59,1649.9,861.57z"/>
		<path class="st16" d="M1571.57,671.65c75.81,13.66,92.35,58.8,95.16,85.26c-12.63-0.58-26.78-1.33-33.27-2.19
			C1638.25,725.29,1623.87,695.73,1571.57,671.65z"/>
		<path class="st16" d="M1371.19,719.92c85.1-61.82,220.95-61.49,274.9,22.43c-18.14,16.21-78.54,25.7-84.92,27.46
			C1486.68,719.82,1406.62,715.05,1371.19,719.92z"/>
		<path class="st16" d="M1383.82,799.06c84.3,56.88,241.94,2.51,239.64-19.74c-2.3-22.26-70.23-41.94-138.05-34.94
			C1417.59,751.38,1386.85,790.08,1383.82,799.06z"/>
		<g>
			<path class="st22" d="M1452.35,976.87c0,0-48.69,12.07-62.77-19.09c-17.16-37.97,19.37-61.97,40.12-53.96
				C1448.88,911.23,1464.34,933.77,1452.35,976.87z"/>
			<path class="st23" d="M1391.73,912.19c10.22-11.83,22.31-14.49,34.68-11.5c12.65,3.06,24.31,15.41,26.59,27
				c-5.34-13.38-16.67-19.4-23.84-22.17c-11.42-4.43-27.69,0.01-36.23,11.84c-7.6,10.52-9.18,27.47-2.88,41.41
				C1381.79,948.82,1381.07,924.51,1391.73,912.19z"/>
			<path class="st24" d="M1445.54,938.05c2.68,13.23-4.35,27.02-15.71,30.8c-11.35,3.78-22.73-3.87-25.41-17.1
				c-2.68-13.23,4.35-27.02,15.71-30.8S1442.86,924.82,1445.54,938.05z"/>
			<path class="st25" d="M1444.34,933.9c0.74,3.67-1.21,7.5-4.36,8.55c-3.15,1.05-6.31-1.08-7.05-4.75s1.21-7.5,4.36-8.55
				C1440.44,928.11,1443.6,930.23,1444.34,933.9z"/>
		</g>
		<g>
			<path class="st22" d="M1535.44,987.27c0,0,53.02,24.37,77.59-2.11c29.94-32.27-5.85-65.03-31.94-62.68
				C1556.94,924.65,1533.08,942.43,1535.44,987.27z"/>
			<path class="st23" d="M1622.7,940.48c-8.65-14.11-21.9-19.84-36.99-20.17c-15.43-0.34-32.18,8.58-37.91,19.2
				c9.73-11.56,24.42-14.43,33.45-15.24c14.38-1.31,31.97,7.23,38.69,20.9c5.97,12.16,3.28,28.98-7.71,40.82
				C1624.41,978.51,1631.72,955.18,1622.7,940.48z"/>
			<path class="st24" d="M1605.29,957.41c3.51,13.34-4.47,27-17.81,30.51c-13.34,3.51-27-4.47-30.51-17.81
				c-3.51-13.34,4.47-27,17.81-30.51C1588.12,936.09,1601.78,944.07,1605.29,957.41z"/>
			<path class="st25" d="M1603.76,953.22c0.97,3.7-1.24,7.49-4.94,8.47c-3.7,0.97-7.49-1.24-8.47-4.94
				c-0.97-3.7,1.24-7.49,4.94-8.47C1599,947.3,1602.79,949.52,1603.76,953.22z"/>
		</g>
	</g>
</g>
<g>
	<path class="st26" d="M1160.2,587.11l19.21-19.21l-339.6-339.6l-19.21,19.21c-93.78,93.78-93.78,245.83,0,339.6
		S1066.42,680.89,1160.2,587.11z"/>
	<circle class="st27" cx="1009.61" cy="397.14" r="240.14"/>
	<circle class="st2" cx="1009.61" cy="397.14" r="192.11"/>
	<circle class="st27" cx="1009.61" cy="397.14" r="144.08"/>
	<circle class="st2" cx="1009.61" cy="397.14" r="96.05"/>
	<circle class="st27" cx="1009.61" cy="397.14" r="48.03"/>
	<circle class="st28" cx="1009.61" cy="397.14" r="14.41"/>
</g>
<g>
	<path class="st29" d="M282.82,1801.02c0,16.56,95.4,29.98,213.08,29.98c117.68,0,213.08-13.42,213.08-29.98
		c0-16.56-95.4-29.98-213.08-29.98C378.22,1771.04,282.82,1784.46,282.82,1801.02z"/>
	<path class="st1" d="M442.11,1771.11c-2.23,6.23-38.64-2.83-38.14-9.48c6.39-86.32,20.29-289.87,22.28-311.44l85.06,15.56
		C511.31,1465.75,452.95,1740.78,442.11,1771.11z"/>
	<g>
		<path class="st30" d="M453.21,1764.61c-0.37,1.64-56.7-5.73-56.8-7.76c-0.82-16.95,0.24-55.35-0.11-62.85l68.51,8.2
			C461.37,1719.46,455.57,1754.14,453.21,1764.61z"/>
		<g>
			<path class="st31" d="M374.61,1743.59c1-3.67,3.08-8.31,4.68-12.56c1.19-3.15,32.01-2.64,32.1,4.93c0.02,1.94-0.06,3.65-0.22,5.2
				c5.27,0.05,10.99-0.01,17.03-0.23c13.13-0.48,24.9-1.55,33.16-2.86c0.54,11.98-0.51,32.71-0.03,46.02c0,0-137.5,25.74-159.17,5.8
				C296.06,1784.27,330.59,1759.3,374.61,1743.59z"/>
			<path class="st32" d="M461.22,1775.74c0,2.96,0.03,5.81,0.12,8.35c0,0-137.5,25.74-159.17,5.8c-0.86-0.79-0.9-1.97-0.24-3.46
				C339.88,1794.67,427.03,1781.5,461.22,1775.74z"/>
			<path class="st33" d="M383.71,1755.06c0.39,0.53,1,0.79,1.61,0.76c0.38-0.01,0.76-0.14,1.09-0.38c0.85-0.64,1.02-1.85,0.38-2.7
				c-5.34-7.08-14.64-10.78-22.63-9.04c-1.04,0.23-1.69,1.26-1.46,2.3c0.23,1.04,1.25,1.67,2.29,1.47
				C371.54,1745.99,379.25,1749.14,383.71,1755.06z M373.99,1759.76c0.39,0.42,0.94,0.62,1.47,0.6c0.45-0.02,0.9-0.19,1.25-0.52
				c0.77-0.73,0.81-1.95,0.08-2.72c-6.09-6.44-14.4-9.6-22.82-8.61c-1.05,0.12-1.81,1.07-1.69,2.13c0.12,1.06,1.09,1.89,2.13,1.69
				C358.65,1751.84,366.81,1752.16,373.99,1759.76z M341.23,1756.09c0.18,1.05,1.14,1.77,2.22,1.57c6.4-1.19,14.83,1.95,20.43,7.41
				c0.39,0.39,0.91,0.56,1.41,0.55c0.48-0.02,0.95-0.21,1.31-0.58c0.74-0.76,0.73-1.98-0.03-2.72c-6.43-6.28-16.19-9.77-23.77-8.45
				C341.75,1754.04,341.05,1755.04,341.23,1756.09z"/>
		</g>
	</g>
	<path class="st1" d="M538.56,1775.6c0.7,6.58,38.22,6.31,39.3-0.27c14.04-85.41,48.28-286.54,51.4-307.98l-86.34-4.83
		C542.93,1462.52,535.14,1743.57,538.56,1775.6z"/>
	<path class="st34" d="M415.65,1383.54c0,0-22.71,116.86-36.33,173.63c21.71,11.42,85.37,29.59,118.09,19.07
		c1.59-6.67,12.04-72.08,29.37-68.67c6.18,1.21-0.39,58.68,0.89,71.24c30.01,7.26,81.58,0.21,110.84-14.36
		c-0.61-27.72,2.7-146.89,0-180.9H415.65z"/>
	<path class="st35" d="M639.57,1431.41c-9.65-25.44-19.07-46.48-19.07-46.48l-204.79,4.96c-0.22,0.44-0.56,1.09-0.81,1.6
		c-1.26,11.86-10.74,36.45-13.91,65.84c81.21,28.99,196.43,31.08,238.36,9.09C639.48,1454.43,639.57,1442.54,639.57,1431.41z"/>
	<g>
		<path class="st30" d="M534.08,1764.29c0.15,1.67,56.97,1.61,57.32-0.39c3-16.7,6.89-54.92,8.19-62.32l-69-0.69
			C531.79,1718.47,533.09,1753.61,534.08,1764.29z"/>
		<g>
			<path class="st31" d="M616.89,1747.07c-0.99-3.67-3.06-8.32-4.65-12.57c-1.18-3.15-32.01-2.73-32.11,4.85
				c-0.03,1.94,0.05,3.65,0.2,5.2c-5.27,0.04-10.99-0.04-17.03-0.27c-13.13-0.51-24.9-1.61-33.15-2.94
				c-0.56,11.97,0.43,32.71-0.09,46.02c0,0,137.43,26.08,159.15,6.19C695.33,1787.94,660.87,1762.88,616.89,1747.07z"/>
			<path class="st32" d="M530.2,1779c-0.01,2.96-0.04,5.81-0.14,8.35c0,0,137.43,26.08,159.15,6.19c0.86-0.79,0.91-1.97,0.24-3.45
				C651.49,1798.23,564.37,1784.84,530.2,1779z"/>
			<path class="st33" d="M626.5,1750.96c1.05,0.21,2.07-0.42,2.3-1.46c0.23-1.04-0.42-2.07-1.46-2.3
				c-7.98-1.76-17.3,1.92-22.65,8.98c-0.64,0.85-0.48,2.05,0.37,2.7c0.32,0.25,0.71,0.37,1.09,0.39c0.61,0.02,1.21-0.24,1.61-0.76
				C612.24,1752.6,619.94,1749.47,626.5,1750.96z M637.07,1755.85c1.04,0.2,2.01-0.63,2.14-1.68c0.12-1.05-0.63-2.01-1.69-2.13
				c-8.42-1.01-16.74,2.13-22.84,8.55c-0.73,0.77-0.7,1.99,0.07,2.72c0.35,0.33,0.8,0.51,1.25,0.53c0.53,0.02,1.07-0.18,1.47-0.6
				C624.66,1755.66,632.83,1755.35,637.07,1755.85z M648.67,1757.42c-7.58-1.34-17.35,2.13-23.79,8.39
				c-0.76,0.74-0.78,1.96-0.04,2.72c0.36,0.37,0.83,0.56,1.31,0.58c0.51,0.02,1.02-0.16,1.42-0.54c5.61-5.45,14.05-8.57,20.45-7.36
				c1.08,0.2,2.05-0.52,2.23-1.57C650.42,1758.59,649.72,1757.6,648.67,1757.42z"/>
		</g>
	</g>
	<path class="st36" d="M389.5,1432.76c140.75,53.66,256.25,5.31,269.54-9.54c-23.72-120.27-48.69-218.35-91.97-251.55
		c-59.65-2.11-154.72,25.8-187.64,45.43C450.59,1315.58,405.49,1391.65,389.5,1432.76z"/>
	<path class="st37" d="M550.93,1188.45l-3.29-16.45c-31.28,1.73-68.16,9.28-100.46,18.68l3.56,17.81
		c2.84,14.18,27.56,21.2,55.23,15.66C533.64,1218.61,553.76,1202.63,550.93,1188.45z"/>
	<path class="st0" d="M450.59,1150.41l10.29,51.44c2.21,11.06,21.5,16.53,43.08,12.22c21.58-4.31,37.28-16.78,35.06-27.84
		l-10.29-51.44L450.59,1150.41z"/>
	<g>
		<path class="st38" d="M674.99,987.58c1.69,40.39-26.44,73.84-53.91,77.46c-27.47,3.62-41.62-25.98-47.65-63.67
			c-6.02-37.69,11.35-71.28,38.83-74.8C649.82,921.75,673.4,949.62,674.99,987.58z"/>
		<path class="st39" d="M229.17,944.92c24.77,142.53,160.86,207.13,277.02,173.28c116.17-33.86,172.66-154.82,121.71-285.79
			c-28.29-72.72-131.98-123.89-242.75-90.83C267.25,776.76,209.97,834.43,229.17,944.92z"/>
		<path class="st1" d="M277.51,903.63c-3.73,26.36,72.51,228.62,104.59,250.34c34.03,23.04,147.79,17.34,169.29,11.08
			c23.03-6.71,91.36-56.87,101.1-95.92c11.52-46.22-31.83-225.77-45.52-245.38c-46.26-66.23-110.89-50.08-194.5-25.72
			C334.27,820.83,287.17,835.25,277.51,903.63z"/>
		<path class="st40" d="M378.02,1103.58c2.16,8.46,15.68,12.32,30.19,8.61c14.51-3.71,24.52-13.58,22.36-22.04
			c-2.16-8.46-15.69-12.32-30.19-8.61C385.87,1085.25,375.86,1095.12,378.02,1103.58z"/>
		<path class="st40" d="M600.89,1035.72c2.66,7.3,13.68,9.99,24.63,6c10.94-3.98,17.66-13.13,15-20.43c-2.66-7.3-13.69-9.99-24.63-6
			C604.95,1019.27,598.23,1028.42,600.89,1035.72z"/>
		<path class="st41" d="M499.33,1042.03c0.92-0.27,1.54-1.17,1.42-2.15c-0.84-6.99,3.18-12.83,10.23-14.89
			c7.09-2.07,13.76,0.75,16.61,7.02c0.46,1,1.65,1.45,2.64,0.99c1.01-0.46,1.45-1.64,0.99-2.64c-3.64-8.03-12.43-11.81-21.36-9.21
			c-8.89,2.59-14.14,10.31-13.08,19.2c0.13,1.1,1.13,1.88,2.22,1.75L499.33,1042.03z"/>
		<path class="st42" d="M404.03,922.46c-1.15,0.7-2.05,1.81-2.47,3.2c-5.34,17.66-25.86,34.21-47.8,38.47
			c-3.05,0.58-5.07,3.55-4.47,6.64c0.59,3.06,3.56,5.07,6.64,4.48c26.17-5.1,49.93-24.58,56.47-46.33c0.9-2.99-0.8-6.15-3.79-7.05
			C407.01,921.38,405.35,921.65,404.03,922.46z"/>
		<path class="st42" d="M599.43,874.61c1.48-0.26,2.84-1.12,3.68-2.49c1.59-2.56,0.81-5.92-1.75-7.5
			c-18.59-11.54-48.17-10.48-70.32,2.5c-2.6,1.53-3.47,4.87-1.94,7.46c1.53,2.61,4.88,3.47,7.46,1.95
			c18.56-10.91,43.95-12.05,59.05-2.65C596.79,874.6,598.15,874.83,599.43,874.61z"/>
		<g>
			<path class="st22" d="M553.89,1014.22c0,0,54.48,4.12,63.95-31.9c11.54-43.89-32.06-63.05-52.88-50.67
				C545.7,943.1,533.19,970.11,553.89,1014.22z"/>
			<path class="st23" d="M607.26,933.75c-13.12-10.85-26.59-11.51-39.33-6.06c-13.03,5.58-23.31,20.97-23.66,33.82
				c3.3-15.34,14.38-23.86,21.58-28.14c11.47-6.83,29.74-5.01,41.06,6.14c10.07,9.92,14.85,27.84,10.61,43.95
				C624.58,971.29,620.93,945.06,607.26,933.75z"/>
			<path class="st24" d="M569.45,960.84c-0.48,14.69,9.58,28.23,22.46,30.23c12.88,2,23.71-8.29,24.18-22.98
				c0.48-14.69-9.58-28.23-22.46-30.23C580.75,935.86,569.92,946.14,569.45,960.84z"/>
			<path class="st25" d="M569.98,956.17c-0.13,4.08,2.66,7.83,6.23,8.39c3.57,0.56,6.58-2.3,6.71-6.38
				c0.13-4.08-2.66-7.83-6.23-8.39C573.12,949.24,570.11,952.1,569.98,956.17z"/>
		</g>
		<g>
			<path class="st22" d="M466.54,1040.47c0,0-52.52,35.8-83.72,11.81c-38.02-29.23-5.52-70.9,22.93-73.11
				C432.07,977.13,460.93,991.89,466.54,1040.47z"/>
			<path class="st23" d="M364.32,1006.06c6.73-16.72,19.92-25.28,36.07-28.38c16.51-3.16,36.12,3.38,44.2,13.74
				c-12.55-10.65-28.85-11.06-38.69-10.29c-15.68,1.2-33.03,13.56-37.76,29.47c-4.2,14.15,1.74,31.72,15.69,42.45
				C369.39,1047.22,357.31,1023.48,364.32,1006.06z"/>
			<path class="st24" d="M396.69,1012.24c-1.35,14.97,9.7,28.19,24.67,29.54s28.19-9.7,29.54-24.67
				c1.34-14.97-9.7-28.19-24.67-29.54C411.26,986.23,398.04,997.28,396.69,1012.24z"/>
			<path class="st25" d="M397.57,1007.47c-0.37,4.15,2.69,7.82,6.84,8.2c4.15,0.37,7.82-2.69,8.2-6.84c0.37-4.15-2.69-7.82-6.84-8.2
				C401.61,1000.25,397.94,1003.32,397.57,1007.47z"/>
		</g>
		<path class="st1" d="M272.27,1113.99c22.19,36.72,68.33,50.21,96.27,37.66c27.94-12.55-10.72-129.78-66.24-124.46
			C256.06,1031.61,251.41,1079.47,272.27,1113.99z"/>
		<path class="st0" d="M304.1,1102.73c7.25,16.15,30.32,24.77,43.17,15.92c5.01-3.45-21.67-59.34-30.52-56.73
			C301.78,1066.33,296.85,1086.59,304.1,1102.73z"/>
		<path class="st43" d="M510.03,1067.84c-0.42,0-0.83,0.01-1.23,0.04c-9.43,0.81-17.38,9.55-19.41,25.04
			c-0.28,2.19,0.56,4.3,1.88,4.71c1.33,0.45,2.63-1.01,2.92-3.19c1.55-11.86,7.65-20.56,14.82-21.18
			c7.41-0.39,13.26,4.86,15.69,19.07c0.37,2.14,1.69,3.3,3.01,2.68c1.31-0.64,2.06-2.89,1.7-5.01
			C526,1069.93,515.82,1067.86,510.03,1067.84z"/>
	</g>
	<path class="st44" d="M556.21,1247.13c-2.89-3.31-20.64-1.61-36.84-11.54c-15.81,40.81-22.07,65.79-44.96,69.07
		c-26.49,3.79-58.49-39.91-91.17-75.92c-4,10.77-1.86,36.7,4.85,58.4c14.53,47.02,64.4,72.52,94.28,68.81
		C525.17,1350.63,555.91,1300.56,556.21,1247.13z"/>
	<path class="st1" d="M550.91,1245.59c-2.94-3.45-20.31-8.82-36.88-19.02c-17.03,43.34-21.81,57.97-45.52,61.81
		c-27.44,4.45-53.43-28.15-86.58-65.59c-4.31,11.43-3.54,39.12,4.01,61.55c15.48,46.05,65.17,65.92,96.19,62.59
		C519.25,1342.94,541.23,1295.61,550.91,1245.59z"/>
	<path class="st1" d="M556.87,1405.71c-13.29,1.88-13.02-13.9-20.65-27.71c52.82-22.05,70.87-38.56,75.74-55.73
		c5.84-20.59,7.66-82.09-6.23-130.14c11.97,2.47,28.38,17.62,36.46,30.96c22.12,36.46,27.32,73.73,21.74,107.63
		C657.87,1367.55,612.83,1401.04,556.87,1405.71z"/>
	<path class="st36" d="M605.42,1288.82c23.84-2,60.58-18.26,71.57-24.86c-10.99-21.08-43.59-73.67-57.7-83.42
		c-14.64-10.12-46.42-9.78-58.21-8.73C571.6,1212.08,605.42,1288.82,605.42,1288.82z"/>
	<path class="st44" d="M586.08,1212.45c5.17-5.87,6.63-17.68-5.25-19.09c0.58-10.2-0.17-15.98-7.5-17.89
		c16.83-15.96,28.54-40.41,16.96-51.92c-4.22-4.19-54.85,43.13-60.32,43.84c-6.5,0.84-15.31-21.72-28.92-21.96
		c-5.19-0.09-7.67,45.44,0.8,66.52c5.77,14.35,40.99,38.7,56.8,36.03C578.67,1244.6,606.47,1219.39,586.08,1212.45z"/>
	<path class="st1" d="M592.25,1210.83c-1.71-2.82-5.53-3.93-10.16-3.5c4.83-5.49,6.78-11.4,4.31-15.21
		c-2.18-3.37-7.26-4.28-13.22-2.96c4.21-5.07,5.85-10.29,3.67-13.66c-2.19-3.37-7.64-3.99-13.99-2.21
		c15.79-14.85,38.05-39.16,26.66-50.42c-4.15-4.1-40.39,34.82-55.5,48.81c-5.97,4.25-11.59,4.84-14.83-5.43
		c-5.18-13.03-11.07-19.02-18.15-20.83c-4.88-1.24,0.47,36.8,3.27,58.43c-0.12,3.87,0.37,7.9,1.56,12.37
		c4.86,18.16,17.34,30.98,32.72,32.59c8.03,0.84,21.02-2.9,41.74-17.73l0.24-0.13C590.22,1225.1,595.45,1216.08,592.25,1210.83z"/>
	<path class="st36" d="M382.35,1334.16c32.31,7.17,76.67-27.19,80.26-45.39c-12.02-23.09-34.18-63.93-83.37-71.57
		C364.14,1248.93,382.35,1334.16,382.35,1334.16z"/>
	<g class="st45">
		<path class="st2" d="M524.15,1407.58c65.75-0.15,101.76-14.73,125.8-28.79c-0.81-3.79-1.63-7.48-2.45-11.21
			c-22.92,13.89-57.59,28.95-123.38,29.09c-53.84,0.24-90.2-9.54-113.59-18.93c-1.04,3.56-2.12,7.02-3.26,10.39
			c21.38,8.48,52.89,17.17,97.8,19.07C511.18,1407.46,517.55,1407.58,524.15,1407.58z"/>
		<path class="st2" d="M523.01,1440.3c71.31-0.15,108.5-16.97,133.02-32.13c-1.56-7.72-3.12-15.33-4.7-22.83
			c-22.16,14.63-56.05,33.02-128.37,33.18c-59.08,0.04-96.55-11.75-118.79-21.65c-2.74,7.27-5.54,14.01-8.18,20.23
			c21.66,9.59,56.02,20.65,107.62,22.83C509.82,1440.19,516.29,1440.34,523.01,1440.3z"/>
	</g>
	<path class="st46" d="M467.44,1392.16c1.01,1.77,2.02,6.48,9.45,7.97c2.3,0.46-2.44,0.28-1.64,2.1
		c2.99,6.8,19.46,11.53,36.83,12.89c34.37,2.68,39.44-19.15,40.3-29.42c0.87-10.34,9.16-41.75-49.78-41.75
		c-3.35,7.71,15.36,18.05,11.98,17.86c-7.15-0.42-10.29-1.34-19.96,0.82c-21.47,4.81-33.55,16.95-27.3,22.2
		c2.16,1.81,32.85,0.54,33.36,1.87C501.18,1388.01,466.68,1390.83,467.44,1392.16z"/>
	<path class="st1" d="M476.42,1395.94c1,1.65,2.75,5.21,16.67,4.18c2.3-0.17-10.22,2.75-7.78,4.29c6.79,4.28,18.55,8.57,35.91,9.84
		c34.35,2.51,56.34-12.6,57.01-22.2c0.47-6.76-39.2-45.74-66.44-41.03c-2.74,0.47,15.56,13.57,13.21,15.55
		c-3.21,2.71-11.6-0.16-21.29,1.85c-21.5,4.48-36.41,12.2-30.18,17.08c2.14,1.69,39.75-1.24,40.26-0.01
		C514.31,1386.73,475.67,1394.7,476.42,1395.94z"/>
	<path class="st47" d="M675.64,708.88c-4.15-0.14-8.86-1.05-14.14-2.78c-5.29-1.71-9.48-3.91-12.6-6.57
		c-3.57-2.85-4.97-6.15-3.99-9.82c2.3-8.67,7.45-15.98,14.93-22.07c7.49-6.1,15.71-9.57,24.66-10.41
		c10.7-0.91,20.43,0.87,29.23,5.35c8.78,4.47,15.78,10.44,21.01,17.89c5.21,7.46,8.23,15.79,9.05,25
		c0.81,9.21-1.41,18.02-6.66,26.45c-5.39,8.76-14.95,14.96-28.7,18.49c-3.31,0.85-4.8,3.66-4.48,8.46c0.2,1.87-1.62,3.29-5.44,4.23
		c-3.83,0.95-8.06,1.46-12.7,1.55c-4.63,0.11-8.85-0.24-12.64-1.02c-3.79-0.78-5.52-2-5.21-3.69c-1.36-8.3-1.44-15.1-0.24-20.42
		c1.2-5.31,3.39-9.86,6.57-13.61c4.02-4.73,9.27-7.96,15.76-9.68c6.48-1.71,10.39-3.75,11.66-6.17c2.58-4.9,0.12-8.18-7.25-9.77
		c-7.35-1.59-11.48-0.15-12.4,4.32C681.35,707.71,679.21,709.13,675.64,708.88z M690.33,818.67c-6.88,0.65-12.8-1.48-17.8-6.38
		c-4.99-4.9-6.91-10.78-5.74-17.65c0.9-5.64,3.67-10.22,8.31-13.72c4.63-3.5,9.87-4.77,15.71-3.79c4.28,0.78,8.06,2.4,11.33,4.87
		c3.28,2.46,5.41,5.9,6.37,10.3c1.43,6.23,0.32,12.01-3.31,17.32C701.58,814.94,696.62,817.96,690.33,818.67z"/>
	<path class="st39" d="M222.62,1026.57c22.45-14.55,33.97-34.15,25.82-74.84c-14.19,0.48-14.4-107.88,47.26-156.14
		c103.22-70.06,194.72-67.51,228.66-57.02c62.56,19.33,100.11,69.72,115.6,117.53c18.03,42.36,20.21,63.97,40.4,61.6
		c-5.29,13.23-17.36,12.11-25.93,6.67c6.84,19.11,10.11,36.05,27.21,40.86c-28.39,15.26-35.85,1.53-44.52-26.77
		c-10.33-33.72-29.84-92.58-37.56-103.61c-4.47-6.38-50.52-36.66-61.19-34.48c-23.26,4.76-29.45,91.77-111.52,109.71
		c28.76-25.71,40.76-55.34,50.36-95.8c-5.5,5.37-10.82,11.57-15.84,18.77c-52.9,75.82-111.23,105.45-170.09,114.01
		c23.82,59.1,50.68,134.91-13.73,153.06c4.66-9.82,11.54-55.11-13.51-82.9C257.37,1023.93,244.08,1031.57,222.62,1026.57z"/>
</g>
<g>
	<g>
		
			<rect x="1136.95" y="974.85" transform="matrix(-0.9741 -0.2262 0.2262 -0.9741 2128.6033 2204.6372)" class="st3" width="107.29" height="11.08"/>
		
			<rect x="1135.89" y="984.01" transform="matrix(-0.9741 -0.2262 0.2262 -0.9741 2125.5063 2213.3313)" class="st3" width="107.29" height="1.79"/>
		
			<rect x="1137.87" y="974.95" transform="matrix(-0.9741 -0.2262 0.2262 -0.9741 2131.3223 2197.0044)" class="st3" width="107.29" height="2.92"/>
	</g>
	<path class="st3" d="M1301.97,1011.93c11.59,12.32,3.94,32.01-19.77,24.55c-11.34-4.51-31.67-26.51-40.61-38.56L1301.97,1011.93z"
		/>
	<path class="st48" d="M1304.47,1001.14c15.83-5.95,17.64-27-6.93-30.74c-12.17-0.95-40.11,9.85-53.44,16.73L1304.47,1001.14z"/>
	<path class="st48" d="M1310.9,997.04c-0.93-24.35-63.43-10.51-66.8-9.92L1310.9,997.04z"/>
	<path class="st49" d="M1241.6,997.91l60.37,14.02c55.18-8.49-17.82-24.83-57.87-24.81L1241.6,997.91z"/>
	<g>
		<path class="st50" d="M1136.59,975.76l-24.6-5.71c-5.86-1.32-2.58-8.21-1.91-11.91c0.53-2.27,2.96-3.67,5.4-3.1l24.6,5.71
			L1136.59,975.76z"/>
		<path class="st50" d="M1111.99,970.04l24.6,5.71l0.89-3.85l-29.01-6.74C1108.14,967.35,1109.65,969.5,1111.99,970.04z"/>
		<path class="st50" d="M1140.08,960.74l-24.6-5.71c-2.83-0.66-5.31,1.26-5.59,3.93l29.04,6.74L1140.08,960.74z"/>
	</g>
	<g>
		<polygon class="st50" points="1109.89,958.96 1064.85,951.19 1108.7,964.06 		"/>
		<polygon class="st50" points="1108.7,964.06 1109.04,962.59 1072.89,953.55 		"/>
		<polygon class="st50" points="1109.89,958.96 1109.62,960.09 1064.85,951.19 		"/>
	</g>
	<g>
		<path class="st51" d="M1302.25,1011.9c-0.22,0.02-0.28,0.03-0.28,0.03S1302.07,1011.92,1302.25,1011.9z"/>
		<path class="st52" d="M1322.54,1003.11c-2.74-6.16-44.72-15.66-78.44-15.99c12.42,1.42,72.88,9.83,74.51,18.36
			c-1.79,2.62-16.64,6.44-16.64,6.44C1304.68,1011.58,1325.01,1008.99,1322.54,1003.11z"/>
	</g>
</g>
</svg>
