<?xml version="1.0" encoding="utf-8"?>
<!-- Generator: Adobe Illustrator 24.1.2, SVG Export Plug-In . SVG Version: 6.00 Build 0)  -->
<svg version="1.1" id="Capa_1" xmlns="http://www.w3.org/2000/svg" xmlns:xlink="http://www.w3.org/1999/xlink" x="0px" y="0px"
	 viewBox="0 0 2000 2000" style="enable-background:new 0 0 2000 2000;" xml:space="preserve">
<style type="text/css">
	.st0{fill:#AE5D4A;}
	.st1{opacity:0.12;}
	.st2{fill:#FAC09F;}
	.st3{fill:#68295F;}
	.st4{opacity:0.5;fill:#190E27;}
	.st5{opacity:0.22;}
	.st6{fill:#EE457D;}
	.st7{fill:#FFF8B3;}
	.st8{fill:#EE4078;}
	.st9{fill:#B52553;}
	.st10{fill:#FFC19F;}
	.st11{fill:#EE3D61;}
	.st12{opacity:0.39;fill:#FFFFFF;}
	.st13{opacity:0.19;fill:#811517;}
	.st14{fill:#F7E5D5;}
	.st15{fill:#92479A;}
	.st16{fill:#F3D5B0;}
	.st17{fill:#AF75B1;}
	.st18{opacity:0.11;fill:#D65427;}
	.st19{fill:#FFF2E9;}
	.st20{fill:#C491C1;}
	.st21{fill:#722F80;}
	.st22{fill:#E4A68D;}
	.st23{fill:#F4898B;}
	.st24{fill:#701608;}
	.st25{fill:#DD6B5B;}
	.st26{fill:#FFFFFF;}
	.st27{fill:#C4735B;}
	.st28{fill:#F9FEFF;}
	.st29{fill:#853A23;}
	.st30{fill:#451E15;}
	.st31{fill:#FEFFFE;}
	.st32{fill:#F19020;}
	.st33{fill:#F9A11B;}
	.st34{opacity:0.28;fill:#6D0D2B;}
	.st35{fill:#5D2014;}
	.st36{fill:#E0956C;}
</style>
<g>
	<path class="st0" d="M698.4,487.34c15.06-40.92,42.75-48.42,67.1-98.21c29.48-60.27-0.3-110.37,61.91-213.92
		c69.12-4.65,430.56,38.07,607.26,78.27c78.9,154.67,6.61,189.33,73.87,291.28c49.68,75.29,1.28,173.89-53.93,202.15
		c-7.56,3.87,17.86-33.39,0.78-73.64c-7.76,49.93-23.8,84.08-42.5,92.37c-104.87,46.52-307.94,39.58-405.71,26.19
		c-123.08-16.85-191.35-50.4-230.45-90.06c-8.94-9.06-12.58-52.28-14.96-85.75c-12.51,12.29-14.68,47.98-9.46,72.81
		C714.47,674.26,664.39,579.79,698.4,487.34z"/>
	<path class="st1" d="M757.71,1932.68c0,16.19,171.24,29.32,382.47,29.32s382.47-13.13,382.47-29.32
		c0-16.2-171.24-29.32-382.47-29.32S757.71,1916.48,757.71,1932.68z"/>
	<path class="st2" d="M1056.95,1812.23c-0.16,11.38-101.57,22.7-102.7,11.34c-10.97-110.29-59.93-411.97-66.75-455.64l156.84,9.12
		C1042.5,1485.88,1058.02,1733.36,1056.95,1812.23z"/>
	<path class="st2" d="M1209.25,1809.37c2.87,11.01,104.6-3.17,102.98-14.47c-15.69-109.72-58.59-404.54-62.39-448.57L1102.69,1386
		C1130.51,1491.23,1189.35,1733.03,1209.25,1809.37z"/>
	<g>
		<path class="st3" d="M1378.79,1419.86c-5.79,6.01-51.44,30.64-55.12,32.94c1.03,1.86,3.35,11.23,5.41,15.31
			c-59.39,34.82-153.45,53.08-239.88,56.08c-128.3,4.46-188.59-12.36-285.92-55.45c0.97-2,5.8-14.27,6.01-15.49
			c-2.38-0.48-45.47-19.82-51.43-23.11c0,0,99.75-172.05,113.7-195.31c106.95,12.92,303.29,8.46,387.45-15.48
			C1280.24,1262.03,1358.84,1384.75,1378.79,1419.86z"/>
		<polygon class="st4" points="1343.32,1441.81 1323.68,1452.8 1280.67,1329.86 		"/>
		<polygon class="st4" points="809.44,1453.95 792.66,1446.18 862.53,1315.33 		"/>
		<path class="st5" d="M871.57,1234.84c106.95,12.92,303.29,8.46,387.45-15.48c5.97,12.01,15.78,30.62,27.16,51.82
			c-123.07,34.1-308.15,35-434.35-2.71C861.19,1252.43,868.51,1239.94,871.57,1234.84z"/>
	</g>
	<g>
		<path class="st6" d="M1182.74,1741.17c1.11,4.22,2.06,7.91,2.67,10.38l14.81-2.28c-0.95-6.6-7.08-11.3-13.69-10.35
			C1184.96,1739.15,1184.04,1740.42,1182.74,1741.17z M1271.92,1738.91l23.9-3.46c-0.95-6.6-7.07-11.2-13.67-10.25
			C1275.54,1726.14,1270.97,1732.31,1271.92,1738.91z M1295.82,1735.45l19.74-2.85l-0.61-8.56c-2.47-1.83-5.62-2.75-8.9-2.28
			C1299.45,1722.71,1294.87,1728.85,1295.82,1735.45z M1248.02,1742.37l23.9-3.46c-0.95-6.6-7.07-11.23-13.68-10.28
			C1251.64,1729.58,1247.07,1735.76,1248.02,1742.37z M1224.12,1745.82l23.9-3.45c-0.95-6.61-7.08-11.25-13.68-10.3
			C1227.74,1733.01,1223.17,1739.22,1224.12,1745.82z M1200.22,1749.27l23.9-3.46c-0.95-6.6-7.08-11.27-13.68-10.33
			C1203.84,1736.44,1199.27,1742.67,1200.22,1749.27z"/>
		<path class="st7" d="M1215.26,1875.32c0.93,3.41,112.76-17.1,112.66-21.37c-0.91-35.66-11-108.07-12.36-121.35l-130.15,18.95
			C1194.37,1787.56,1209.31,1853.51,1215.26,1875.32z"/>
		<path class="st7" d="M1304.48,1801.03c-1.83-8.37-80.09,5.71-94.33,3.21c-0.38,19.36-11.54,50.56-11,76.87
			c0.37,18.31,15.6,31.7,32.34,34.73c64.63,11.72,235.46,47.01,242.95-0.45C1480.58,1876.45,1378.63,1846.87,1304.48,1801.03z"/>
		<path class="st8" d="M1199.4,1834.83c1.16-1.45,4.38-1.58,6.78,0.76c15.78,9.18,40.84,18.61,61.51,25
			c7.04,2.18,14.02,3.84,20.88,5.06c6.72-20.32,24.11-44.63,40.1-54.59c3.35-2.1,7.61-0.89,9.57,2.64
			c1.95,3.53,0.82,8.09-2.52,10.16c-12.33,7.67-26.49,27.11-32.84,43.47c43.02,5.34,75.92,4.86,91.85-22.73
			c49.92,29.17,102.08,39.05,100.71,72.41c-1.69,40.98-297.11,2.11-297.11,2.11C1198.9,1894.5,1198.69,1857,1199.4,1834.83z"/>
		<path class="st9" d="M1197.84,1904.24c0.07,5.47,0.09,10.76-0.02,15.45c0,0,255.51,46.32,295.19,9.71
			c1.42-1.31,3.04-7.85,2.32-9.95C1423.85,1935.55,1262.58,1914.09,1197.84,1904.24z"/>
		<path class="st6" d="M1317.87,1751.62c-52.64,10.03-75.27,12.69-127.94,18.51l-1.32-5.45c53.14-5.87,75.63-8.48,128.57-18.57
			L1317.87,1751.62z"/>
	</g>
	<g>
		<path class="st6" d="M932.98,1738.42c0.64,4.32,1.18,8.09,1.52,10.61l14.97-0.64c-0.22-6.66-5.8-12.01-12.47-11.78
			C935.4,1736.65,934.35,1737.82,932.98,1738.42z M1021.87,1745.91l24.13-0.82c-0.22-6.66-5.8-11.91-12.47-11.69
			C1026.87,1733.62,1021.65,1739.25,1021.87,1745.91z M1046,1745.09l19.94-0.68l0.33-8.57c-2.25-2.09-5.29-3.34-8.6-3.24
			C1051,1732.82,1045.78,1738.43,1046,1745.09z M997.73,1746.74l24.14-0.82c-0.22-6.67-5.8-11.93-12.47-11.72
			C1002.73,1734.42,997.51,1740.07,997.73,1746.74z M973.6,1747.56l24.13-0.82c-0.22-6.67-5.8-11.96-12.47-11.74
			C978.6,1735.22,973.38,1740.89,973.6,1747.56z M949.46,1748.38l24.14-0.82c-0.22-6.67-5.81-11.98-12.47-11.77
			C954.46,1736.02,949.25,1741.72,949.46,1748.38z"/>
		<path class="st7" d="M950.65,1875.32c0.55,3.49,113.96-4.68,114.32-8.94c2.99-35.55,0.88-108.63,0.97-121.98l-131.45,4.62
			C939.47,1785.8,947.12,1852.99,950.65,1875.32z"/>
		<path class="st7" d="M965.59,1801.03c1.84-8.37,80.09,5.71,94.34,3.21c0.38,19.36,11.54,50.56,11,76.87
			c-0.38,18.31-15.61,31.7-32.34,34.73c-64.63,11.72-235.46,47.01-242.95-0.45C789.48,1876.45,891.43,1846.87,965.59,1801.03z"/>
		<path class="st8" d="M1070.67,1834.83c-1.16-1.45-4.39-1.58-6.78,0.76c-15.78,9.18-40.84,18.61-61.51,25
			c-7.04,2.18-14.02,3.84-20.88,5.06c-6.72-20.32-24.11-44.63-40.1-54.59c-3.35-2.1-7.61-0.89-9.57,2.64
			c-1.95,3.53-0.82,8.09,2.51,10.16c12.33,7.67,26.49,27.11,32.84,43.47c-43.02,5.34-75.91,4.86-91.84-22.73
			c-49.92,29.17-102.08,39.05-100.71,72.41c1.69,40.98,297.11,2.11,297.11,2.11C1071.16,1894.5,1071.38,1857,1070.67,1834.83z"/>
		<path class="st9" d="M1072.22,1904.24c-0.07,5.47-0.09,10.76,0.02,15.45c0,0-255.5,46.32-295.19,9.71
			c-1.42-1.31-3.04-7.85-2.32-9.95C846.21,1935.55,1007.48,1914.09,1072.22,1904.24z"/>
		<path class="st6" d="M1066.16,1763.56c-53.42,4.22-76.21,4.39-129.19,4.42l-0.71-5.56c53.46-0.03,76.1-0.17,129.82-4.42
			L1066.16,1763.56z"/>
	</g>
	<path class="st10" d="M579.03,1005.31c-5.91-20.59,8.28-55.47,15.24-72.84c82.41,18.43,159.44,35.62,309.64,7.2
		c0,0-20.76,91.96-71.68,112.28C792.68,1067.74,673.87,1036.81,579.03,1005.31z"/>
	<path class="st11" d="M765.4,960.1c13.49-31.48,90.84-147.18,103.96-161.65c4.92-5.43,47.79-16.19,112.41-20.53
		c-7.2,37.38-59.88,240.26-67.62,261.78C892.27,1036.89,791.99,981.83,765.4,960.1z"/>
	<path class="st11" d="M1292.04,1263.44c-149.08,36.84-329.88,33.57-447.2-18.09c0,0,45.39-372.1,65.44-459.31
		c68.15-8.99,104.48-14.87,172.76-12.4c76.04,2.76,139.15,15.05,181.85,27.87C1273.59,913.87,1273.47,1101.78,1292.04,1263.44z"/>
	<path class="st12" d="M988.86,964.54c3.15-24.45,21.61-36.03,43.29-33.83c15.41,1.57,27.28,17.16,32.29,32.42
		c7.98-13.94,22.74-26.83,38.16-25.27c21.68,2.2,37.34,17.25,35.6,41.84c-2.52,35.7-84.02,84.45-84.02,84.45
		S983.62,1005.32,988.86,964.54z"/>
	<path class="st10" d="M974.13,805.29c-0.46-5.53,3.57-22.49,4.71-27.79c61.45-6.32,136.71-6.33,197.5,4.22
		c0.56,2.37,1.66,4.56,1.86,7.03c3.54,42.72-39.76,81.18-96.71,85.91C1024.53,879.39,977.67,848.02,974.13,805.29z"/>
	<path class="st10" d="M1000.35,682.14l-2.54,120.94c-0.54,26,32.06,47.78,72.84,48.64c40.78,0.85,74.27-19.54,74.81-45.55
		l2.54-120.94L1000.35,682.14z"/>
	<path class="st13" d="M999.63,698.68l-1.69,80.45c20.58,9.09,45.69,12.94,72.22,8.94c32.05-4.83,58.89-19.81,76.13-39.43
		l1.35-64.32C1102,686.33,1047.22,692.01,999.63,698.68z"/>
	<g>
		<polygon class="st14" points="961.49,1101.12 1014.62,1044.63 773.76,763.57 720.64,820.07 		"/>
		<g>
			<polygon class="st15" points="584.87,1016.41 454.4,883.17 533.71,724.31 664.18,857.55 			"/>
			<polygon class="st16" points="600.58,1008.37 470.11,875.13 558.71,732.17 689.14,865.46 			"/>
			<polygon class="st14" points="473.17,874.34 631.86,703.08 746.79,820.45 585.04,992.5 			"/>
			<path class="st14" d="M486.65,859.55c-6.59,7.49-20.49,21.62-23.82,24.67l-2.34-3.38l68.41-133.91l29.81-14.76
				c0,0-34.76,70.99-49.36,97.25C506.84,833.94,496.63,848.2,486.65,859.55z"/>
			<polygon class="st17" points="449.03,885.18 458.69,876 535.23,722.86 528.34,726.32 			"/>
		</g>
		<path class="st18" d="M571.73,812.51c24.96-7.27,90.79-23.45,133.83-34.36l38.22,39.03l-24.25,11.38l-235.91,60.37l-13.51-13.8
			C493.05,847.98,542.32,821.07,571.73,812.51z"/>
		<path class="st19" d="M460.94,883.37c0,0,12.04-13.39,28.82-25.78c25.73-18.99,57.08-35.52,80.69-42
			c51.62-14.15,203.31-52.02,203.31-52.02l-53.12,56.49l-232.17,59.41C485.71,880.18,458.69,885.77,460.94,883.37z"/>
		<path class="st20" d="M458.69,876c-1.56,2.68-2.3,5.38,2.27,5.79c6.52,0.58,23.14-6.28,31.14-11.14l2.9,5.77l-29.24,21.18
			l-16.6-12.82L458.69,876z"/>
		<path class="st21" d="M452.13,879.06c-2.7,3.72-1.36,8.29,2.14,9.01c5.83,1.21,20.1-3.35,28.1-8.2l268.14,277.36
			c-7.51,1.85-16.2,4.74-24.79,5.64c-5.95,0.62-12.5-0.99-14.11-2.54c-35.02-33.88-240.55-249.2-260.4-269.82
			C445.69,887.19,448.02,884.37,452.13,879.06z"/>
		<polygon class="st20" points="482.36,879.87 492.11,870.65 743.08,805.15 984.66,1095.2 975.01,1104.4 		"/>
		<polygon class="st15" points="750.49,1157.23 482.36,879.87 733.42,814.35 975.01,1104.4 		"/>
	</g>
	<g>
		<path class="st2" d="M583.4,1015.01c16.78-10.58,33.99-12.92,38.45-5.22c4.46,7.7-5.52,22.52-22.3,33.11
			c-16.78,10.58-33.99,12.92-38.45,5.22C556.64,1040.41,566.62,1025.59,583.4,1015.01z"/>
		<path class="st2" d="M569.1,988.36c17.85-8.32,34.89-8.26,38.06,0.15c3.16,8.41-8.74,21.97-26.6,30.29
			c-17.85,8.32-34.89,8.26-38.05-0.15C539.34,1010.25,551.25,996.69,569.1,988.36z"/>
		<path class="st2" d="M600.02,1036.92c13.92-11.23,29.98-14.38,35.85-7.03c5.88,7.34-0.65,22.4-14.57,33.63
			c-13.92,11.23-29.98,14.37-35.85,7.03C579.57,1063.21,586.09,1048.15,600.02,1036.92z"/>
		<path class="st2" d="M616.25,1060.65c9.38-11.96,22.87-17.41,30.11-12.19c7.24,5.23,5.51,19.15-3.87,31.11
			c-9.39,11.96-22.87,17.42-30.11,12.19C605.13,1086.54,606.87,1072.61,616.25,1060.65z"/>
	</g>
	<path class="st11" d="M1413.93,1004.89c-36.17,27.54-119.91,63.98-158.62,64.42c-14.16-40.52-29.51-270.67-29.08-276.65
		c19.54,3.54,56.67,12.37,69.8,20.63C1318.13,846.61,1379.76,946.02,1413.93,1004.89z"/>
	<path class="st10" d="M1244.98,867.84c-0.94-6.19,67.4-17.07,69.22-11.08c27.26,89.6,85.23,180.29,85.96,204.41
		c1.5,48.97-67.51,84.61-106.12,23.05C1272.56,1049.98,1256.7,945.16,1244.98,867.84z"/>
	<g>
		<path class="st22" d="M1234.85,805.84c-4.21,7.2,1.02,18.09,11.69,24.32c10.66,6.24,22.72,5.45,26.93-1.75
			c4.21-7.2-1.02-18.09-11.68-24.32C1251.12,797.86,1239.06,798.64,1234.85,805.84z"/>
		<path class="st2" d="M1272.4,768.57c5.22,1.35,20.11,11.23,30.45,20.28c-19.13-30.95-42.77-19.38-41.05-26.06
			c1.81-7,15.11-16.55,24.47-14.13c6.6,1.71,27.45,15.05,38.56,25.23c-12.43-25.42-37.81-25.19-34.33-30.94
			c3.75-6.18,15.82-9.32,24.85-5.87c12.5,4.78,41.52,38.46,41.15,48.05c-0.43,10.98-16.67,47.16-34.51,75.01
			c-20.75,32.39-49.48,63.5-70.19,51.39c-41.51-24.28-1.56-53.99,18.59-76.64c-17.04-36.12-32.23-27.52-36.3-27.77
			c0.45-7.21,12.76-20,28.1-15.95c4.01,1.06,13.77,7.16,22.76,14.04c-16.55-26.6-36.91-15.59-35.24-22.04
			C1251.51,776.16,1263.89,766.38,1272.4,768.57z"/>
	</g>
	<g>
		<path class="st0" d="M1446.99,370c-34.27,229.54-132.31,311.94-324.69,319.19c-186.67,7.03-369.09-202.83-323.24-424.71
			c22.88-110.72,136.3-192.2,313.93-175.02C1302.06,107.75,1474.72,184.26,1446.99,370z"/>
		<path class="st10" d="M1354.81,311.08c5.47,30.28-60.56,317.7-110.19,368.62c-43.56,44.7-136.87,91.11-273.21,81.5
			c-100.77-7.1-183.62-95.72-187.83-168.73c-3.56-61.71,8.84-83.07,12.07-124.66c4.37-56.15,6.31-82.1,7.33-108.05
			c1.29-33.03-5.03-96.21,14.58-138.03c33.83-72.15,165.34-96.28,299.91-84.18C1243.36,148.87,1334.99,201.44,1354.81,311.08z"/>
		<path class="st0" d="M1253.69,416.36c-8.37,58.56,4.49,133.37,32.25,174.16c43.18,4.3,101.3-133.24,111.43-235
			c11.59-116.55-63.21-206.21-181.06-140.93C1306.49,284.3,1266.33,327.9,1253.69,416.36z"/>
		<path class="st23" d="M1188.07,600.25c0.31,13.56-18.27,24.99-41.52,25.53c-23.24,0.54-42.35-10.01-42.66-23.57
			c-0.31-13.56,18.28-24.99,41.52-25.53C1168.65,576.13,1187.76,586.69,1188.07,600.25z"/>
		<g>
			<path class="st24" d="M1054.27,605.29c-3.1-23.71-37.39-21.42-84.25-25.83c-2.45-0.23-11.99-1.05-14.45-1.24
				c-46.93-3.61-73.9-11.9-78.16,11.71c-7.71,42.65,23.41,91.37,70.74,98.18C995.3,694.89,1060.35,651.89,1054.27,605.29z"/>
			<path class="st25" d="M907.93,669.35c11.23,9.52,24.72,16.53,40.2,18.76c16.7,2.4,35.58-1.66,52.81-9.69
				c-11.64-14.93-30.61-24.2-49.15-25.38C934.87,651.95,918.31,657.64,907.93,669.35z"/>
			<path class="st26" d="M1025.55,585.11l0.3-1.02c0,0-56.07-5.4-75.6-6.92c-17.9-1.39-47.54-5.54-58.19-2.39l0.12,1.06
				c2.15,17.32,29.05,29.93,63.73,32.9C990.56,611.7,1020.45,601.81,1025.55,585.11z"/>
		</g>
		<path class="st23" d="M840.75,572.65c-1.81,11.92-14.73,19.85-28.85,17.7c-14.12-2.14-24.1-13.55-22.29-25.47
			c1.81-11.92,14.73-19.85,28.85-17.71C832.59,549.32,842.56,560.73,840.75,572.65z"/>
		<path class="st27" d="M979.94,547.68c-1.48-0.14-2.69-1.32-2.81-2.86c-0.81-10.9-8.68-18.6-20.04-19.62
			c-11.42-1.03-20.74,5.27-23.2,15.66c-0.4,1.66-2.07,2.7-3.73,2.31c-1.67-0.4-2.7-2.07-2.31-3.73
			c3.15-13.32,15.4-21.71,29.79-20.42c14.32,1.29,24.63,11.47,25.67,25.34c0.13,1.71-1.16,3.2-2.86,3.33L979.94,547.68z"/>
		<g>
			<path class="st28" d="M902.72,445.42c12.47,32.3,7.56,66.21-6.89,77.95c-21.77,17.7-69.67,19.01-84.85-10.79
				c-14.71-28.86-2.01-77.9,27.81-96.81C864.9,399.24,890.66,414.16,902.72,445.42z"/>
			<path class="st29" d="M815.19,428.82c25.99-45.99,76.86-25.03,87.95,17.69c-12.46-32.28-39.68-44.23-63.82-28.95
				c-14.92,9.46-26.53,27.64-31.08,48.63c-3.62,16.74-2.51,35.97,3.6,47.96C804.3,506.02,796.08,462.64,815.19,428.82z"/>
			<path class="st30" d="M872.36,460.8c4.33,21.99-5.19,45.72-21.27,53.02c-16.08,7.29-32.63-4.62-36.96-26.61
				c-4.34-21.99,5.19-45.72,21.26-53.02C851.48,426.9,868.03,438.81,872.36,460.8z"/>
			<path class="st31" d="M870.24,456.89c1.2,6.1-1.44,12.69-5.9,14.71c-4.46,2.03-9.05-1.28-10.25-7.38
				c-1.2-6.1,1.44-12.69,5.9-14.71C864.45,447.49,869.04,450.79,870.24,456.89z"/>
		</g>
		<g>
			<path class="st28" d="M1049.3,458.96c-21.58,29.51-21.78,63.8-5.95,78.03c23.86,21.44,83.39,31.55,107.9,5.02
				c23.73-25.71,17.04-76.34-16.65-100.45C1105.1,420.45,1070.18,430.4,1049.3,458.96z"/>
			<path class="st29" d="M1161.62,458.75c-23.86-50.08-91.25-38.82-113.05,1.21c21.57-29.5,57.77-36.24,85.04-16.74
				c16.85,12.07,27.96,32.11,29.71,53.62c1.4,17.15-3.57,35.89-13.43,46.57C1160.81,536.77,1179.16,495.58,1161.62,458.75z"/>
			<path class="st30" d="M1117.75,481.59c5.95,22.12-5.55,45.7-25.67,52.66c-20.12,6.96-41.25-5.33-47.2-27.45
				c-5.94-22.12,5.55-45.7,25.67-52.65C1090.67,447.18,1111.8,459.47,1117.75,481.59z"/>
			<path class="st31" d="M1114.99,477.63c1.65,6.14-1.54,12.68-7.12,14.61c-5.58,1.93-11.44-1.48-13.1-7.61
				c-1.65-6.14,1.54-12.68,7.12-14.61C1107.48,468.09,1113.35,471.5,1114.99,477.63z"/>
		</g>
		<path class="st32" d="M1388.48,309.43c-18.71-104.79-100.11-195.24-249.95-221.76c-116.54-20.62-245.35,11.26-307.47,76.28
			c82.63-48.27,201.94-45.95,291.41-33.31C1213.43,143.49,1337.48,227.82,1388.48,309.43z"/>
		<path class="st0" d="M1279.69,319.41c25.55,0.36,51.73,0.15,77.29,3.48c2.38-27.01-24.21-65.48-51.63-101.5
			c-83.43-109.58-320.88-137.08-444.03-83.22c-71.74,31.37-95.94,138.64-94.2,175.71c33.63-15,85.62-27.83,154.39-25.01
			c13.07-15.07,27.23-68.44,27.23-68.44s6.47,50.57-5.26,70.77c32.77,4.56,119.31,14.84,159.57,21.69
			c13.5-16.09,26.63-58.54,26.63-58.54s2.04,42.62-5.92,62.77c9.16,2.35,34.73,4.83,46.06,6.2c45.75-16.83,38.75-66.98,76.76-66.04
			C1274.05,263.1,1279.56,287.27,1279.69,319.41z"/>
		<g>
			<path class="st33" d="M1350.45,237.5c-19.18,63.6,92.3,160.44,201.59,85.15C1479.98,209.97,1418.35,212.24,1350.45,237.5z"/>
			<path class="st34" d="M1362.49,240.8c4.66-14.34,61.62-3.54,89.34,35.93C1404.07,303.5,1348.47,283.91,1362.49,240.8z"/>
			<path class="st33" d="M1369.97,223.95c-81.9,22.12-166.34-93.89-17.76-185.95C1380.66,144.86,1406.89,178.9,1369.97,223.95z"/>
			<path class="st34" d="M1354.77,215.56c13.07-20.23-24.8-48.45-28.06-87.77C1309.51,147.94,1307.63,226.43,1354.77,215.56z"/>
			<path class="st33" d="M1327.18,246.07c8.4,13.96,27.32,18.5,42.25,10.12c14.93-8.37,20.23-26.48,11.83-40.44
				c-8.4-13.97-27.32-18.5-42.25-10.13C1324.08,213.99,1318.79,232.1,1327.18,246.07z"/>
		</g>
		<path class="st35" d="M816.58,352.87c2.7,0.04,5.44-0.87,7.65-2.78c17.24-14.96,49.78-18.6,75.76-8.47
			c5.82,2.3,12.48-0.63,14.78-6.49c2.29-5.87-0.63-12.49-6.49-14.78c-33.8-13.21-75.44-7.9-99,12.49
			c-4.76,4.14-5.26,11.35-1.15,16.11C810.34,351.49,813.44,352.82,816.58,352.87z"/>
		<path class="st35" d="M1187.33,386.16c3.41,0.48,7-0.43,9.85-2.83c5.28-4.46,5.95-12.38,1.49-17.68
			c-22.08-26.13-79.81-41.98-118.82-33.41c-6.75,1.49-11.04,8.17-9.56,14.94c1.47,6.75,8.22,11.02,14.94,9.56
			c29.95-6.62,78.12,5.95,94.27,25.1C1181.58,384.29,1184.39,385.74,1187.33,386.16z"/>
		<g>
			<path class="st10" d="M1381.77,609.08c-26.59,51.96-87.06,71.52-123.48,58.89c-28.35-9.83-23.34-59.53-6.86-104.93
				c17.75-48.89,50.29-73.34,89.22-67.76C1392.9,502.77,1405.44,562.84,1381.77,609.08z"/>
			<path class="st36" d="M1332.47,597.13c-7.55,23.85-40.67,40.3-60.94,28.47c-6.82-3.98,23.21-81.03,34.61-79.73
				C1332.06,548.84,1340.02,573.28,1332.47,597.13z"/>
		</g>
	</g>
</g>
</svg>
