<?xml version="1.0" encoding="utf-8"?>
<!-- Generator: Adobe Illustrator 24.1.2, SVG Export Plug-In . SVG Version: 6.00 Build 0)  -->
<svg version="1.1" id="Capa_1" xmlns="http://www.w3.org/2000/svg" xmlns:xlink="http://www.w3.org/1999/xlink" x="0px" y="0px"
	 viewBox="0 0 2000 2000" style="enable-background:new 0 0 2000 2000;" xml:space="preserve">
<style type="text/css">
	.st0{opacity:0.11;}
	.st1{fill:#BBBBBC;}
	.st2{fill:#FFFFFF;}
	.st3{fill:#4F5656;}
	.st4{fill:#FFC19F;}
	.st5{fill:#992805;}
	.st6{fill:#FC4210;}
	.st7{fill:#E0956C;}
	.st8{opacity:0.37;}
	.st9{fill:#B73406;}
	.st10{fill:#BF2B08;}
	.st11{opacity:0.16;fill:#420000;}
	.st12{fill:#F4B18C;}
	.st13{fill:#752912;}
	.st14{fill:#FF9797;}
	.st15{fill:#F9FEFF;}
	.st16{fill:#723C27;}
	.st17{fill:#FEFFFE;}
	.st18{fill:#C4735B;}
	.st19{fill:#701608;}
	.st20{fill:#DD6B5B;}
	.st21{opacity:0.74;}
	.st22{fill:#8BE8D9;}
	.st23{fill:#075957;}
	.st24{fill:#059696;}
	.st25{fill:#D3DAE5;}
</style>
<g>
	<g>
		<path class="st0" d="M516.17,1945.66c0,11.78-60.84,21.34-135.89,21.34c-75.05,0-135.89-9.55-135.89-21.34
			c0-11.78,60.84-21.34,135.89-21.34C455.33,1924.32,516.17,1933.88,516.17,1945.66z"/>
		<g>
			<path class="st1" d="M169.37,1696.43c-27.52,114.3,42.82,229.28,157.13,256.8c114.3,27.53,229.27-42.82,256.8-157.12
				c27.52-114.3-42.82-229.28-157.12-256.8C311.87,1511.78,196.9,1582.13,169.37,1696.43z"/>
			<path class="st2" d="M173.57,1697.44c-26.96,111.99,41.96,224.63,153.94,251.59C439.5,1976,552.14,1907.08,579.1,1795.1
				c26.97-111.99-41.96-224.63-153.94-251.6S200.53,1585.46,173.57,1697.44z"/>
			<polygon class="st3" points="436.52,1776.06 342.9,1797.91 295.49,1722 359.68,1656.52 440.6,1687.25 			"/>
			<path class="st3" d="M229.64,1717.88l-16.7-64.91l-36.14,32.67c-1.17,3.89-2.27,7.81-3.24,11.8
				c-5.65,23.45-7.03,46.92-4.76,69.64l31.51,22.25L229.64,1717.88z"/>
			<path class="st3" d="M318.33,1869.8l-73.93,4.33l10.22,41.51c21.29,15.31,45.82,26.87,72.89,33.39
				c6.12,1.48,12.24,2.61,18.35,3.52l25.84-27.23L318.33,1869.8z"/>
			<path class="st3" d="M488.42,1830.11l-24.66,73.73l34.29,11.72c25.93-18.62,47.7-43.19,62.98-72.35l-9.47-45.93L488.42,1830.11z"
				/>
			<path class="st3" d="M500.46,1653.64l59.74,52.21l17.11-15.33c-10.32-37.07-30.76-70.67-58.89-96.9l-33.17-5.17L500.46,1653.64z"
				/>
			<path class="st3" d="M337.35,1591.13l70.35-37.82l-38.98-15.45c-29.78,1.07-58.54,8.5-84.54,21.33l-14.88,27.46L337.35,1591.13z"
				/>
		</g>
		<g>
			<path class="st0" d="M1021.37,1929.15c0,20.9-106.19,37.85-237.19,37.85S547,1950.05,547,1929.15
				c0-20.91,106.19-37.85,237.19-37.85S1021.37,1908.24,1021.37,1929.15z"/>
			<g>
				<path class="st4" d="M1015.16,1182.93c-152.71-30.64-240.03-33.06-271.13-21.25c-72.61,27.57-48.52,123.03-1.84,359.06
					c28.79-1.3,84.22-2.04,112.57-5.69c-5.55-127.87-11.53-204.35-3.82-206.62c13.05-3.84,180.19,13.17,202.99,21.07l13.34,48.46
					c-49.4,168.7-212.94,316.69-267.9,378.96c36.45,36.6,42.44,42.74,82.23,74.78c142.69-133.47,271.2-231.77,381.51-419.13
					C1318.53,1190.28,1022.09,1191.24,1015.16,1182.93z"/>
				<path class="st5" d="M1317.75,1215.08c-7.94-24.31-264.03-39.79-271.05-47.73c-150.14-17.12-310.88-23.38-304.31-6.2
					c121.96-7.68,110.2,138.23,111.21,184.65c33.85-0.82,85.34-3.65,163.12-1.18c17.48,0.56,40.62,24.23,31.73,49.57
					c-10.56,30.09-28.53,64.78-67.44,131.37c17.22,21.89,113.17,87.4,155.21,104.89c57.44-80.38,106.15-146.83,167.02-256.04
					C1326.29,1312.09,1325.2,1237.85,1317.75,1215.08z"/>
				<path class="st4" d="M672.5,804.49c-6.04,1.35-0.54,75.41,5.65,75.3c60.29-1.07,107.15-11.98,162.97-8.88
					c12.8,0.71,95.38,38.12,95.38,38.12c44.14-7.99,38.04-83.08,51.99-85.08c0,0-50.13-27.73-95.19-47.16
					C855.62,760.55,769.66,782.67,672.5,804.49z"/>
				<path class="st6" d="M841.64,918.56c11.29-32.37,47.24-111.17,59.14-147.12c76.7,28.33,147.59,47.43,209.41,71.77
					c56.17,22.12-108.86,145.21-109.56,153.12C964.72,980.52,904.95,951.85,841.64,918.56z"/>
				<g>
					<path class="st7" d="M533.72,846.49c23.2-0.79,57.74-5.8,123.84-5.98c7.55-0.02,20.34,30.25,12.75,29.17
						C626.21,863.43,540.53,878.78,533.72,846.49z"/>
					<path class="st7" d="M517.74,815.77c23.21-0.79,78.37-13.84,139.68,3.23c7.56,2.11,16.59,32.37,9,31.3
						C622.31,844.05,523.95,842.25,517.74,815.77z"/>
					<path class="st4" d="M516.19,774.88c23.2-0.79,150.37,14.48,211.68,31.56c7.56,2.11-0.74,57.07-11.98,62.58
						c-16.53,24.6-73.79,22.88-126.22,54.67c-9.06,5.49-1.22-16.38,0.39-21.03c4.14-12,9.07-13.09,28.33-37.77
						c11.74-15.04,0.2-33.28-10.5-40.17C557.62,802.72,519.54,796.9,516.19,774.88z"/>
				</g>
				<path class="st4" d="M1682.28,947.47c4.91,3.77-31.16,68.68-36.73,65.98c-54.27-26.27-92.23-55.84-144.21-76.45
					c-11.91-4.72-65.86,20.36-65.86,20.36c-36.71-25.78-28.5-86.82-40.32-94.49c0,0,49.25-34.46,98.3-33.19
					C1534.51,830.74,1603.25,886.89,1682.28,947.47z"/>
				<path class="st6" d="M1501,978.88c-5.28-33.87-26.99-118.98-32.23-156.48c-80.54,14.06-153.18,21.21-218.37,34.03
					c-59.23,11.65,80.94,162.44,80.21,170.34C1368.78,1017.68,1432.74,1000.23,1501,978.88z"/>
				<path class="st8" d="M894.34,1153.47c33.96,0.17,76.03,30.73,87,11.98c65.1,53.81,233.66,61.54,347.1,19.14
					c2.18,26.7,0.22,134.27-25.19,189.81C1079.74,1405.49,1020.43,1224.69,894.34,1153.47z"/>
				<path class="st6" d="M1320.04,1341.03c-76.13,23.34-198.03-1.23-268.82-44.34c-52.73-32.11-89.67-126.12-150.6-142.49
					c8.29-18.47,22.57,9.48,23.93-17.21c0.46-9.04,19.35-2.68,17.27-12.58c-1.89-8.99,7.85-10.61,11-17.43
					c37.02-79.98,63.54-166.09,68.26-274.62c97.72,2.89,241.57,11.45,338.9,59.13C1390.24,1019.7,1357.25,1168.91,1320.04,1341.03z"
					/>
				<path class="st9" d="M1260.29,891.77l-5.54-36.8c34.8-5.27,171.44-28.69,216.41-37.22l6.92,36.57
					C1432.84,862.91,1295.82,886.39,1260.29,891.77z"/>
				<path class="st9" d="M889.65,801.87l12.02-35.22c33.32,11.33,165.41,53.43,209.26,66.54l-10.69,35.65
					C1056.12,855.66,923.66,813.44,889.65,801.87z"/>
				<path class="st10" d="M1292.19,878.23c0.41-2.13-0.51-7.84-1-12.17c-61.91-17.72-131.4-26.12-194.02-30.2
					c-0.45,1.45-1.3,2.72-1.6,4.24c-7.9,40.73,29.51,85.73,83.81,96.27C1233.67,946.89,1284.28,918.96,1292.19,878.23z"/>
				<path class="st4" d="M1131.61,741.02l-10.22,121.38c-2.2,26.1,29.2,50.06,70.12,53.51c40.92,3.44,75.88-14.93,78.07-41.03
					l10.22-121.39L1131.61,741.02z"/>
				<path class="st11" d="M1043.9,808.48c-0.85-6.58-0.28-13.03,0.79-19.42c67.37-10.28,169.02-20.3,242.09-20.62
					c0.8,2.8,2.23,5.36,2.61,8.3c6.57,50.85-43.05,99.17-110.84,107.93C1110.75,893.44,1050.47,859.33,1043.9,808.48z"/>
				<g>
					<path class="st12" d="M825.98,605.4c7.78,63.88,56.8,110.06,97.32,109.5c40.51-0.58,53.44-50.34,52.58-110.98
						c-0.86-60.64-34.4-109.48-74.91-108.75C845.6,496.16,818.67,545.35,825.98,605.4z"/>
					<path class="st13" d="M830.56,428.09c-1.81,216.24,140.34,314.68,340.54,316.36c200.21,1.67,347.84-94.35,349.65-310.58
						c1.81-216.23-144.6-267.67-344.8-269.35C975.75,162.84,832.37,211.86,830.56,428.09z"/>
					<path class="st4" d="M889.42,705.58c17.16,92.48,127.02,162.09,213.34,161.68c181.41-0.86,370.28-105.22,372.4-358.62
						c2.12-253.39-128.23-261.17-306.02-262.66c-118.72-0.99-217.82,0.54-267.53,78.62C870.95,372.79,878.88,648.76,889.42,705.58z"
						/>
					<path class="st14" d="M1353.45,677.53c0.72,12.92-16.65,24.4-38.8,25.65c-22.14,1.24-40.69-8.23-41.42-21.15
						c-0.72-12.92,16.65-24.4,38.8-25.64C1334.18,655.14,1352.73,664.61,1353.45,677.53z"/>
					<path class="st14" d="M974.66,675.41c-1.09,12.9-19.89,21.84-42,19.98c-22.1-1.86-39.15-13.82-38.06-26.72
						c1.09-12.9,19.89-21.84,42-19.98C958.71,650.55,975.75,662.51,974.66,675.41z"/>
					<path class="st13" d="M924.73,97.84c-5.91,29.61,8.49,54.68,34,76.12C941.72,137.41,941.29,90.54,981.08,33
						c26.82,21.85,55.31,44.96,83.8,67.89c-2.5-15.33-2.07-31.94,2.31-49.99c45.18,59.81,92.62,57.99,248.56,95.5
						c106.68,25.67,127.64,96.26,114.13,136.07c-72.29-16.94-177.8,20.37-256.43,19.72c-98.57-0.82-173.49-18.68-212.31-46.76
						C914.04,221.36,877.25,154.63,924.73,97.84z"/>
					<g>
						<path class="st15" d="M1035.24,538.56c17.68,31.95,14.07,66.3-2.88,78.76c-25.55,18.78-84.48,22.2-105.33-7.11
							c-20.2-28.39-8.08-78.31,27.31-98.65C985.33,493.75,1018.13,507.63,1035.24,538.56z"/>
						<path class="st16" d="M926.2,525.73c28.73-47.43,92.91-28.59,109.64,13.92c-17.67-31.94-52.08-42.76-80.72-26.31
							c-17.7,10.18-30.71,28.99-34.8,50.32c-3.26,17-0.51,36.32,7.87,48.1C918.32,603.89,905.07,560.61,926.2,525.73z"/>
						<path class="st13" d="M1013.31,569.1c6.92,21.94-3.11,46.25-22.4,54.29c-19.29,8.05-40.53-3.2-47.45-25.14
							c-6.92-21.94,3.11-46.25,22.4-54.3C985.15,535.91,1006.39,547.16,1013.31,569.1z"/>
						<path class="st17" d="M1010.42,565.26c1.92,6.09-0.86,12.83-6.21,15.06c-5.35,2.23-11.25-0.89-13.17-6.98
							c-1.92-6.09,0.86-12.83,6.22-15.06C1002.61,556.05,1008.5,559.17,1010.42,565.26z"/>
					</g>
					<g>
						<path class="st15" d="M1185.2,543.14c-22.2,30.73-20.32,65.24-1.82,78.79c27.87,20.42,94.75,27.71,120.39-0.17
							c24.83-27.01,14.27-77.62-24.7-100.25C1244.94,501.7,1206.69,513.4,1185.2,543.14z"/>
						<path class="st16" d="M1310.19,537.5c-29.63-49.22-103.93-34.64-125.73,6.69c22.18-30.71,62.06-39.25,93.61-20.96
							c19.5,11.32,33.09,30.95,36.36,52.5c2.61,17.18-1.77,36.28-12.09,47.49C1314.08,616.03,1331.98,573.7,1310.19,537.5z"/>
						<path class="st13" d="M1270.97,576.11c7.97,21.96-3.37,46.24-25.33,54.22c-21.97,7.97-46.24-3.37-54.22-25.33
							c-7.98-21.97,3.36-46.24,25.33-54.22C1238.72,542.8,1263,554.14,1270.97,576.11z"/>
						<path class="st17" d="M1267.67,572.25c2.21,6.09-0.93,12.83-7.03,15.04c-6.1,2.21-12.83-0.93-15.04-7.03
							c-2.21-6.09,0.93-12.83,7.03-15.04C1258.72,563.01,1265.45,566.16,1267.67,572.25z"/>
					</g>
					<path class="st13" d="M926.55,423.06c3.08-0.13,6.13-1.35,8.53-3.68c18.64-18.18,55.44-24.5,85.71-14.68
						c6.78,2.23,14.17-1.55,16.4-8.38c2.21-6.83-1.55-14.18-8.38-16.4c-39.37-12.8-86.44-3.99-111.91,20.8
						c-5.14,5.02-5.24,13.27-0.23,18.42C919.36,421.91,922.98,423.22,926.55,423.06z"/>
					<path class="st13" d="M1317.12,427.87c3.57,0.2,7.21-1.06,9.94-3.79c5.07-5.08,5.07-13.33-0.01-18.42
						c-25.14-25.09-72.07-34.46-111.67-22.16c-6.86,2.13-10.71,9.42-8.58,16.3c2.11,6.86,9.47,10.68,16.3,8.58
						c30.4-9.48,67.15-2.67,85.55,15.71C1311.01,426.44,1314.04,427.69,1317.12,427.87z"/>
					<path class="st18" d="M1080.67,644.76c1.43,0.01,2.71-1.01,2.96-2.47c1.81-10.36,10.06-17,21.04-16.91
						c11.04,0.09,19.37,7,20.74,17.19c0.22,1.63,1.73,2.78,3.36,2.56c1.63-0.22,2.78-1.72,2.56-3.36
						c-1.76-13.05-12.7-22.24-26.61-22.36c-13.83-0.12-24.67,8.66-26.97,21.85c-0.28,1.63,0.8,3.17,2.43,3.46L1080.67,644.76z"/>
					<path class="st13" d="M1374.05,455.54c1.97,106.17,40.78,174,85.83,174.25c45.05,0.25,79.25-127,79.84-233.19
						c0.67-121.6-63.21-170.84-108.38-178.43C1386.92,210.7,1371.81,334.86,1374.05,455.54z"/>
					<path class="st4" d="M1547.19,654.3c-21.49,68.3-90.99,108.36-141.23,99.04c-50.25-9.32-33.83-214.65,58.3-227.94
						C1540.98,514.33,1567.39,590.11,1547.19,654.3z"/>
					<path class="st7" d="M1491.14,648.61c-5.39,29.04-39.38,52.12-63.72,42.85c-9.49-3.62,11.72-104.77,27.1-104.03
						C1480.54,588.68,1496.53,619.57,1491.14,648.61z"/>
					<g>
						<path class="st19" d="M1010.13,695.67c-8.74,45.25,45.87,104.87,114.61,100.61c62.59-3.87,114.68-57.15,105.13-104.24
							c-5.07-25-47.95-17.72-109.71-18.16C1058.48,673.45,1015.45,668.15,1010.13,695.67z"/>
						<path class="st20" d="M1117.3,754.9c28.99,0.01,53.07,7.7,67.51,21.28c-16.25,11.18-40.04,19.9-64.24,20.29
							c-29.56,0.48-58.22-11.63-70.34-21.78C1057.29,761.55,1091.36,754.88,1117.3,754.9z"/>
						<path class="st2" d="M1031.96,676.32c21.33-6.47,53.94-3.79,84.69-3.57c34.69,0.24,60.13-4.06,81.81,0.84
							c-8.24,18.85-41.54,23.42-81.47,23.61C1070.9,697.43,1038.18,696.57,1031.96,676.32z"/>
					</g>
				</g>
				<g>
					<path class="st7" d="M1790.63,1043.82c-20.73-10.46-49.98-29.49-109.9-57.39c-6.84-3.19-31.16,18.92-23.81,21.13
						C1699.57,1020.4,1770.9,1070.28,1790.63,1043.82z"/>
					<path class="st7" d="M1818.02,1022.66c-20.73-10.46-65.33-45.45-128.14-55.68c-7.75-1.26-28.64,22.42-21.3,24.63
						C1711.24,1004.44,1801.28,1044.08,1818.02,1022.66z"/>
					<path class="st4" d="M1836.59,986.19c-20.73-10.46-142.56-49.95-205.38-60.18c-7.75-1.26-23.28,52.11-15.38,61.82
						c4.68,29.27,57.38,51.74,91.63,102.6c5.92,8.78,7.98-14.35,8.47-19.25c1.28-12.63-2.74-15.69-9.86-46.17
						c-4.35-18.58,13.78-30.29,26.39-32.05C1787.3,994.07,1824.3,1004.77,1836.59,986.19z"/>
				</g>
				<g class="st21">
					<path class="st2" d="M1105.35,940.26l0.13,0.5l0.1,0.65l-0.01,0.86l-0.04,0.94c-0.03,0.41-0.17,1.14-0.17,1.14
						s-0.07,0.75-0.15,1.15c-0.08,0.41-0.14,0.84-0.18,1.3c-0.08,0.41-0.17,0.83-0.26,1.28c-0.09,0.45-0.22,0.9-0.36,1.34
						c-0.09,0.41-0.17,0.83-0.26,1.28c-0.14,0.44-0.27,0.89-0.36,1.34c-0.14,0.45-0.25,0.87-0.33,1.27c-0.14,0.44-1.53,4.4-1.53,4.4
						l-0.4,0.79l-0.36,0.63l-0.32,0.41l-0.46,0.3l-0.64,0.03l-2.26-0.47l-0.96-0.27c0,0-5.34-1.83-5.72-1.96
						c-0.44-0.14-0.88-0.32-1.32-0.51c-0.39-0.13-0.81-0.27-1.25-0.42c-0.39-0.13-0.8-0.29-1.23-0.49c-0.4-0.13-5.49-1.91-5.49-1.91
						l-1.62-0.49l-1.14-0.23l-0.39,0l-0.51,0.92l-0.41,0.85c-0.17,0.34-0.49,0.92-0.49,0.92c-0.17,0.33-0.43,0.93-0.43,0.93
						l-1.3,2.87c-0.17,0.33-0.36,1.02-0.36,1.02l-0.43,0.93c-0.31,0.41-0.35,0.95-0.35,0.95s0.35,0.2,0.84,0.1l0.74,0.15l1.77,0.2
						l1.66,0.34l0.92,0.11l1.8,0.37l0.89,0.26l0.91,0.19l2.66,0.78l0.88,0.33l0.88,0.26l0.86,0.41l0.88,0.33l1.71,0.82l0.85,0.49
						l0.76,0.47l0.85,0.49l0.75,0.55l2.2,1.86l0.64,0.68c0.26,0.27,0.72,0.77,0.72,0.77l0.62,0.76l0.56,0.74l0.59,0.91
						c0,0,0.33,0.54,0.52,0.9l0.45,0.87c0.13,0.35,0.51,0.98,0.51,0.98l0.33,1.01c0.15,0.34,0.28,0.71,0.42,1.11
						c0,0,0.24,0.7,0.32,1.08c0.07,0.39,0.18,0.77,0.32,1.16c0.07,0.39,0.14,0.79,0.2,1.22c0.08,0.43,0.15,0.87,0.21,1.3
						c0.01,0.42,0.06,0.85,0.12,1.28c0.03,0.43,0.06,0.87,0.13,1.36c0,0.48,0.01,0.94,0.01,1.41c-0.01,0.52-0.02,1.02-0.07,1.47
						c-0.01,0.52-0.03,1.05-0.08,1.56c-0.01,0.52-0.03,1.04-0.09,1.56c-0.06,0.56-0.13,1.12-0.19,1.69
						c-0.06,0.56-0.15,1.12-0.26,1.68c-0.07,0.61-0.16,1.22-0.29,1.82c-0.13,0.61-0.25,1.21-0.37,1.81c-0.09,0.41-0.2,0.8-0.33,1.19
						c0,0-0.15,0.73-0.23,1.13l-0.36,1.02c0,0-0.23,0.71-0.31,1.11c0,0-0.28,0.68-0.45,1.02l-0.36,1.02l-0.86,1.86l-1.5,2.68
						l-0.54,0.75l-0.49,0.84l-0.61,0.74l-0.56,0.75l-0.61,0.74l-0.69,0.64l-0.61,0.66l-0.67,0.65l-0.67,0.56l-0.66,0.58l-0.74,0.55
						l-0.74,0.48l-0.74,0.55l-2.22,1.27l-0.79,0.39l-0.85,0.38l-0.78,0.31l-0.84,0.3l-0.77,0.32l-2.49,0.66l-3.5,0.54l-2.56,0.17
						l-2.66-0.07l-0.84-0.1l-0.92-0.03l-0.84-0.1l-1.73-0.36l-0.92-0.12l-0.81-0.24l-0.91-0.19l-1.7-0.51l-4.13-1.63l-0.78-0.39
						l-0.76-0.47l-0.78-0.39l-2.31-1.42l-0.75-0.54l-0.67-0.54l-0.75-0.54l-0.69-0.53l-1.97-1.83l-0.64-0.68l-0.57-0.67l-0.65-0.68
						l-0.56-0.66l-0.56-0.74l-0.48-0.73l-0.56-0.75l-0.46-0.8l-0.48-0.72l-1.68-3.33l-0.28-0.92l-0.36-0.86l-0.57-1.85l-0.8-3.77
						l0.04-0.54l0.11-0.53l0.29-0.64l0.38-0.71l0.45-0.69l1.82-2.37c0.28-0.26,0.71-0.72,0.71-0.72c0.26-0.27,0.79-0.78,0.79-0.78
						l1.54-1.41l0.76-0.63l0.76-0.55l0.73-0.48l0.69-0.33l0.6-0.27l0.5-0.13l0.47,0.02l0.45,0.1c0.18,0.35,0.64,1.07,0.89,1.43
						c0.18,0.36,0.39,0.71,0.64,1.08c0.24,0.31,0.49,0.65,0.72,1.01c0.26,0.32,0.51,0.63,0.76,0.94c0.26,0.32,0.5,0.6,0.77,0.86
						c0.24,0.31,0.5,0.6,0.77,0.87l0.77,0.79c0,0,0.53,0.45,0.8,0.71c0.32,0.23,0.88,0.66,0.88,0.66l0.82,0.64
						c0.33,0.22,0.9,0.57,0.9,0.57s0.59,0.33,0.93,0.5l0.85,0.49l1.79,0.84l0.86,0.34l1.79,0.52l1.8,0.37l1.76,0.21h0.78l0.87,0.03
						l1.59-0.15l0.73-0.09l0.82-0.14l0.66-0.18l1.35-0.51l0.61-0.27l0.61-0.34l0.55-0.36l0.47-0.38l0.48-0.45l0.83-0.93l0.51-0.99
						l0.27-0.57l0.34-1.65l0.13-2.1l-0.24-1.86l-0.23-0.83l-0.28-0.84l-0.4-0.79l-0.48-0.73l-0.49-0.65l-0.59-0.59l-0.65-0.61
						l-0.69-0.53l-0.75-0.55l-0.77-0.47l-0.84-0.49l-0.84-0.41l-2.86-1.05l-2-0.57l-3.08-0.63l-1.07-0.15l-1.06-0.22l-2.07-0.26
						l-1.01-0.06l-1.07-0.13l-1-0.06l-0.93-0.1l-0.94-0.04l-0.92-0.12l-1.78-0.04l-0.78-0.08l-0.78-0.01l-2.01-0.18l-0.54-0.03
						l-0.45-0.09l-0.47-0.02l-0.48-0.14l-0.17-2.43l1.19-3.92l1.47-4.02c0.13-0.39,0.28-0.78,0.46-1.16c0,0,0.26-0.7,0.39-1.09
						c0.13-0.39,0.29-0.8,0.49-1.24c0.13-0.39,0.26-0.78,0.39-1.17c0.19-0.44,0.36-0.85,0.49-1.24c0.19-0.44,0.36-0.85,0.49-1.24
						c0.19-0.44,0.36-0.87,0.51-1.31c0.18-0.39,0.35-0.79,0.49-1.24c0.19-0.44,0.35-0.87,0.51-1.31c0.19-0.43,0.38-0.87,0.57-1.3
						c0.13-0.39,0.3-0.8,0.49-1.22c0.19-0.44,0.36-0.87,0.51-1.32c0.19-0.43,0.38-0.84,0.57-1.21c0.14-0.45,0.3-0.89,0.51-1.32
						c0.18-0.38,0.33-0.79,0.47-1.23c0.2-0.38,0.38-0.79,0.57-1.22c0.13-0.39,0.29-0.77,0.48-1.16c0.19-0.44,0.36-0.84,0.49-1.24
						c0.18-0.38,0.34-0.77,0.47-1.15c0.17-0.34,0.35-0.69,0.52-1.08c0,0,0.28-0.7,0.46-1.08l1.3-2.87l0.35-0.95l0.4-0.78l0.38-0.71
						l0.61-1.37l0.51-0.99l0.49-0.8l1.09-0.36l0.47,0.02l0.61,0.04l3.39,0.38l1.06,0.22l1.07,0.15c0.39,0.08,1.12,0.23,1.12,0.23
						c0.41,0.08,0.82,0.14,1.23,0.17c0.39,0.08,4.74,0.98,5.19,1.07c0.47,0.04,0.92,0.1,1.38,0.2c0.44,0.09,0.89,0.21,1.33,0.36
						c0.45,0.09,5.05,1.03,5.5,1.13c0.45,0.09,0.9,0.21,1.35,0.35c0.41,0.09,2.16,0.44,2.56,0.53c0.43,0.14,0.86,0.25,1.27,0.34
						c0.39,0.08,0.79,0.16,1.2,0.25c0.4,0.13,1.12,0.31,1.12,0.31c0.39,0.08,1.11,0.31,1.11,0.31l1.05,0.22l3.41,1.01l0.6,0.12
						l0.58,0.2l0.58,0.24L1105.35,940.26z"/>
				</g>
				<path class="st22" d="M793.15,1765.99c-1.27,1.52,73.41,81.77,75.34,80.34c16.76-12.44,189.34-171.08,198.78-178.59
					l-105.56-98.71C947.23,1586.34,802.31,1755,793.15,1765.99z"/>
				<g>
					<path class="st9" d="M924.99,1612.06c2.07-2.42,4.21-4.92,6.16-7.2c25.25,28.98,69.85,69.95,99.57,95.71
						c-2.24,2.03-4.52,4.11-6.89,6.26C996.44,1682.99,951.59,1642.44,924.99,1612.06z"/>
					<path class="st9" d="M1052.71,1680.67c-2.18,1.97-4.34,3.91-6.91,6.24c-24.42-20.98-72.32-63.54-102.27-96.51
						c2.17-2.54,4.26-4.98,6.12-7.15C978.07,1614.61,1025.35,1657.36,1052.71,1680.67z"/>
				</g>
				<g>
					<path class="st23" d="M691.21,1854.46c-5.97,61.72,42.32,105.32,75.41,102.19c23.79-2.24,50.81-9.71,79.42-70.89
						c-2.22-30.82-111.37-54.18-135.66-51.87C705.84,1838.26,698.32,1846.06,691.21,1854.46z"/>
					<path class="st24" d="M707.92,1836.3c-3.38,70.54,49.91,120.72,106.91,91.76c25.87-13.15,20.93-22.42,65.75-83.42
						c5.26-4.97,16.32-17.24,31.05-30.19c-8-39.47-67.96-93.19-97.11-86.17C798.53,1750.24,741.18,1803.88,707.92,1836.3z"/>
					<path class="st2" d="M853.05,1843.28c1.88,0.21,3.37-1.1,3.32-2.91c-0.31-9.79-7.69-23.18-19.19-34.97l-1.16-1.15
						c-11.6-11.48-24.61-18.63-35.85-19.64c-1.87-0.15-3.33,1.19-3.23,2.99c0.07,0.93,0.48,1.79,1.14,2.44
						c0.65,0.64,1.53,1.07,2.43,1.16c9.36,0.93,20.88,7.27,31.05,17.33c0.35,0.34,0.69,0.69,0.99,1.04
						c10.11,10.3,16.76,22.11,17,30.07C849.64,1841.44,851.25,1843.09,853.05,1843.28z M839.48,1860.3c1.88,0.18,3.33-1.19,3.22-3
						c-1.06-20.37-32.47-54.99-58.24-57.77c-1.88-0.21-3.36,1.1-3.32,2.91c0.07,1.83,1.67,3.48,3.5,3.64
						c21.56,2.37,50.34,33.42,51.27,50.65c0.06,0.91,0.47,1.77,1.13,2.42C837.69,1859.79,838.58,1860.22,839.48,1860.3z
						 M763.57,1818.95c0,0.96,0.43,1.9,1.12,2.59c0.61,0.61,1.41,1.01,2.29,1.14c22.15,2.9,52.57,35.63,54,53.35
						c0.11,1.82,1.75,3.38,3.65,3.5c1.86,0.13,3.28-1.24,3.12-3.04c-1.61-20.91-34.52-56.96-60.83-60.35
						C765.06,1815.88,763.54,1817.16,763.57,1818.95z"/>
				</g>
				<path class="st22" d="M863.13,1567.34c0.05,1.98-115.47,19.71-116.13,17.4c-5.79-20.1-45.09-251.3-48.02-263.03l153.54-13.42
					C853.18,1330.84,862.75,1553.03,863.13,1567.34z"/>
				<g>
					<path class="st9" d="M854.76,1364.82c-0.13-3.18-0.26-6.47-0.39-9.47c-40.28,7.46-104.67,12.55-146.55,14.72
						c0.52,2.97,1.06,6.02,1.62,9.17C748.11,1377.16,812.43,1372.55,854.76,1364.82z"/>
					<path class="st9" d="M702.61,1340.87c0.52,2.89,1.04,5.75,1.65,9.16c34.29-1.63,102.49-5.96,149.33-13.7
						c-0.13-3.34-0.26-6.55-0.38-9.41C808.71,1334.33,740.9,1339.18,702.61,1340.87z"/>
				</g>
				<g>
					<path class="st24" d="M705.22,1532.47c0.92-8.26,3.62-18.92,5.53-28.59c1.42-7.18,60.35-13.33,62.56,3.23
						c0.57,4.24,0.88,8.01,0.99,11.44c10.08-1.13,20.97-2.61,32.43-4.51c24.92-4.14,47.08-9.25,62.48-14.07
						c4.26,26.1,7.87,71.74,12.39,100.78c0,0-255.33,88.73-302.05,50.16C566.39,1640.03,625.49,1577.22,705.22,1532.47z"/>
					<path class="st23" d="M879.12,1582.49c0.8,6.48,1.63,12.72,2.49,18.25c0,0-255.33,88.73-302.05,50.16
						c-1.86-1.53-2.25-4.11-1.38-7.51C652.77,1652.48,815.46,1603.14,879.12,1582.49z"/>
					<path class="st25" d="M725.68,1555.44c0.89,1.06,2.12,1.49,3.27,1.3c0.72-0.12,1.41-0.49,1.97-1.1
						c1.44-1.6,1.44-4.28-0.01-5.99c-12.1-14.25-30.84-20.15-45.61-14.47c-1.92,0.74-2.89,3.15-2.17,5.37
						c0.71,2.22,2.83,3.37,4.77,2.67C700.02,1538.44,715.56,1543.53,725.68,1555.44z M708.41,1568.02c0.87,0.82,1.95,1.14,2.96,0.97
						c0.86-0.14,1.66-0.63,2.25-1.44c1.28-1.78,1.01-4.46-0.59-5.98c-13.35-12.67-30.06-17.63-45.85-13.47
						c-1.98,0.51-3.17,2.78-2.65,5.06c0.51,2.29,2.58,3.87,4.52,3.2C677,1554.29,692.65,1553.08,708.41,1568.02z M644.92,1567.68
						c0.63,2.25,2.67,3.61,4.67,2.92c11.88-4.12,28.81,0.77,40.97,11.43c0.86,0.75,1.89,1.02,2.85,0.86
						c0.91-0.15,1.75-0.69,2.34-1.57c1.21-1.84,0.86-4.5-0.8-5.95c-13.96-12.23-33.52-17.58-47.63-12.91
						C645.36,1563.09,644.3,1565.43,644.92,1567.68z"/>
				</g>
			</g>
		</g>
	</g>
</g>
</svg>
