<?xml version="1.0" encoding="utf-8"?>
<!-- Generator: Adobe Illustrator 24.1.2, SVG Export Plug-In . SVG Version: 6.00 Build 0)  -->
<svg version="1.1" id="Capa_1" xmlns="http://www.w3.org/2000/svg" xmlns:xlink="http://www.w3.org/1999/xlink" x="0px" y="0px"
	 viewBox="0 0 2000 2000" style="enable-background:new 0 0 2000 2000;" xml:space="preserve">
<style type="text/css">
	.st0{fill:#FFC19F;}
	.st1{fill:#0F86B5;}
	.st2{fill:#23B3E5;}
	.st3{fill:#234666;}
	.st4{opacity:0.36;}
	.st5{fill:#2D0808;}
	.st6{fill:#706969;}
	.st7{fill:#163260;}
	.st8{opacity:0.2;}
	.st9{fill:#203E7A;}
	.st10{opacity:0.39;fill:#C3F1FC;}
	.st11{opacity:0.5;}
	.st12{opacity:0.23;fill:#822020;}
	.st13{fill:#E0956C;}
	.st14{fill:#84220F;}
	.st15{fill:#C4735B;}
	.st16{fill:#701608;}
	.st17{fill:#DD6B5B;}
	.st18{fill:#FFFFFF;}
	.st19{fill-rule:evenodd;clip-rule:evenodd;fill:#FBFDFF;}
	.st20{fill-rule:evenodd;clip-rule:evenodd;fill:#6C1E19;}
	.st21{fill-rule:evenodd;clip-rule:evenodd;fill:#FFFFFF;}
	.st22{fill:#4C0B00;}
	.st23{opacity:0.14;fill:#6B1808;}
	.st24{opacity:0.21;fill:#541000;}
	.st25{opacity:0.23;fill:#20397F;}
	.st26{fill:#2DBEEA;}
</style>
<g>
	<path class="st0" d="M1473.03,1279.37c-21.66-2.89-63.54-13.36-88.44-20.21c-2.81-0.77,3.88-36.39,5.31-38.93
		c89.21-157.44,204.66-262.74,280.97-437.23c11.06,1.12,111.74,31.39,115.31,39.75c-32.8,97.46-89.05,264.08-184.06,415.16
		C1585.27,1264.71,1538.48,1288.1,1473.03,1279.37z"/>
	<path class="st1" d="M945.66,920.48H706.47c0,0-6.59-79.7-0.38-101.95c8.46-11.09,233.65-8.34,239.63,1.99
		C958.26,842.17,945.66,920.48,945.66,920.48z"/>
	<path class="st2" d="M231.06,1385.14c5.49-22.04,134.6-377.43,159.11-400.61c21.72-20.55,151.4-60.68,199.87-77.37
		c-0.67,31.75-19,315.54-43.47,391.43c-1.91,5.92-92.38,157.59-103.81,171.99C398.05,1453.39,244.18,1395.21,231.06,1385.14z"/>
	<path class="st3" d="M1148.52,1791.33l-626.93,14.2c-3.64,45.81-13.24,136.76-17.32,194.47h661.81
		C1159.29,1920.46,1153.27,1849.21,1148.52,1791.33z"/>
	<g>
		<path class="st4" d="M524.79,1764.26c0.29,59.03-16.57,194.53-16.5,211.78c48.1-18.7,84.69-67.97,79.01-119.72
			C582.59,1813.39,563.7,1779.79,524.79,1764.26z"/>
		<path class="st4" d="M1148.26,1764.26c-0.29,59.03,16.57,194.53,16.5,211.78c-48.1-18.7-84.69-67.97-79.01-119.72
			C1090.45,1813.39,1109.34,1779.79,1148.26,1764.26z"/>
		<path class="st5" d="M770.27,1879.25c-90.95-0.87-182.78-7.07-258.43-26.46l4.4-68.46c243.74,62.47,608.66,0.88,635.31-18.82
			l5.29,69.44C1131.63,1851.13,967.7,1881.13,770.27,1879.25z"/>
		<path class="st6" d="M902.67,1893.42l-136.14,1.73l-1.1-86.4l136.15-1.73L902.67,1893.42z M783.61,1878.32l101.56-1.29
			l-0.67-53.18l-101.56,1.29L783.61,1878.32z"/>
		<path class="st3" d="M628.95,1880.82c-2.95,0.12-29.41-1.83-29.41-1.83c-9.51-27.88,0.06-77.75,13.96-87.34
			c4.44,0.05,23.94,1.19,27.16,1.52C626.47,1813.37,623.11,1859.52,628.95,1880.82z"/>
		<path class="st3" d="M1005.32,1795.95c2.87-0.71,29.2-4.07,29.2-4.07c14.99,25.4,15.76,76.14,4.1,88.29
			c-4.36,0.84-23.7,3.61-26.93,3.92C1021.47,1861.48,1015.37,1815.64,1005.32,1795.95z"/>
	</g>
	<path class="st2" d="M1642.76,826.82c0,0-156.81,234.28-165.58,246.32c-207.75-85.66-306.55-127.54-332.37-134.06
		c-17.5,4.61-27.96,294.67-27.96,294.67c43.32,12.52,311.42,54.39,383.5,55.47c54.37,0.81,93.02-22.19,108.65-46.99
		c81.37-129.4,166.4-359.42,166.4-359.42L1642.76,826.82z"/>
	<path class="st2" d="M1146.45,1730.38c-7.76-152.95,37.82-645.9,32.3-780.32c-16.41-5.9-146.9-49.38-240.95-84.23
		c-44.46-16.48-169.46-14.04-218.76,0.72c-98.49,29.5-205.41,67.87-256.09,83.51c15.28,177.82,46.17,682.66,46,792.41
		c-0.05,28.75-32.88,41.47,2.58,64.33c79.68,19.99,196.97,24.16,287.42,22.6c171.38-2.96,345.14-31.2,357-46.52
		C1177.5,1759.69,1147.06,1742.43,1146.45,1730.38z"/>
	<path class="st0" d="M964.03,877.22c-15.74-5.95-19.7-7.61-33.57-12.75c-40.65-15.07-172.65-9.16-217.73,4.34
		c-9.6,2.87-19.67,6.02-29.93,9.3c-0.2,2.45,64.86,87.15,146.04,87.15C910.02,965.27,964.1,878.62,964.03,877.22z"/>
	<path class="st0" d="M826.03,951.53c-60.7,0-109.91-32.04-109.91-71.56V684.73h219.82v195.24
		C935.94,919.49,886.73,951.53,826.03,951.53z"/>
	<g>
		<polygon class="st7" points="923.27,955.21 838.84,978.71 824.41,964.53 878.3,928.18 		"/>
		<path class="st8" d="M946.39,1015.48c27.29-46.12,40.21-95.27,26.85-130.98L966,870.81c0,0-45.58,37.95-87.71,57.37
			c-7.33,4.06-43.26,30.06-50.17,34.02C880.18,989.46,915.69,1001.83,946.39,1015.48z"/>
		<path class="st2" d="M935.78,1003.99c37.24-56.93,41.26-103.76,35.29-122.24l-25.34-61.22c8.16,53.5-12.98,81.25-67.94,103.47
			c-7.56,3.06-22.22,17.23-49.65,38.21c29.19-15.4,45.12-30.34,51.41-27.78C891.57,939.31,911.33,968.03,935.78,1003.99z"/>
	</g>
	<g>
		<polygon class="st7" points="729.93,955.21 816.05,978.71 830.76,964.53 775.8,928.18 		"/>
		<path class="st8" d="M706.35,1015.48c-27.83-46.12-41.42-94.16-27.79-129.86l10.54-2.83c0,0,43.74,25.98,86.71,45.4
			c7.48,4.06,44.13,30.06,51.16,34.02C773.88,989.46,737.66,1001.83,706.35,1015.48z"/>
		<path class="st2" d="M717.17,1003.99c-37.98-56.93-42.49-102.64-36.4-121.12l25.32-64.33c-8.32,53.5,14.17,83.24,70.22,105.46
			c7.72,3.06,22.67,17.23,50.65,38.21c-29.77-15.4-46.01-30.34-52.43-27.78C762.26,939.31,742.11,968.03,717.17,1003.99z"/>
	</g>
	<g>
		<polygon class="st9" points="850.15,1041.06 803.22,1041.06 768.72,1579.99 828.21,1679.31 892.07,1579.99 		"/>
		<path class="st10" d="M869.67,1292c-28.59,29.34-65.72,67.07-88.24,89.47l-1.24,19.47c23.18-22.94,61.38-61.72,90.81-91.88
			L869.67,1292z M861.83,1191.16c-23.52,24.64-49.32,50.73-72.93,73.65l-1.24,19.39c23.94-23.05,50.81-50.16,75.5-75.93
			L861.83,1191.16z M854.62,1098.38c-16.96,17.95-39.76,41.21-58.93,60.43l-1.25,19.58c19.82-19.75,43.52-43.83,61.52-62.79
			L854.62,1098.38z M877.8,1396.45c-35.15,35.92-81.39,82.74-104.06,105.17l-1.25,19.45c23.37-23.01,70.67-70.85,106.63-107.56
			L877.8,1396.45z M885.4,1494.24c-35.74,36.36-80.83,81.89-104.77,105.64l6.85,11.43c25.79-25.65,66.4-66.63,99.24-100.02
			L885.4,1494.24z"/>
		<path class="st11" d="M849.75,1037.07c-1.11-10.78-45.3-10.21-45.96,0.73l-3.9,35.22l51.78-19.02L849.75,1037.07z"/>
		<path class="st9" d="M849.3,1046.58c-10.91,2.72-35.75,2.69-44.29,0.87c-3.1,0.06-5.87-1.94-6.8-4.91l-20.32-64.76
			c-1.4-4.47,1.94-8.29,6.53-9.13c6.96-1.28,14.13-3.78,42.67-4.43c22.02-0.5,29.29,1.02,40.42,2.81c4.63,0.75,8.14,4.4,6.86,8.94
			l-18.49,65.52C855.04,1044.44,852.28,1045.83,849.3,1046.58z"/>
	</g>
	<path class="st12" d="M716.12,856.91c28.25,14.65,72.28,18.88,119.23,8.69c43.89-9.52,79.97-29.5,100.59-52.49v-76.07
		c-26.29-21.15-77.25-28.92-132.15-17.01c-35.72,7.75-66.32,22.45-87.67,40.03V856.91z"/>
	<g>
		<g>
			<path class="st0" d="M547.62,494.62c29.31-3.35,52.46,22.84,65.31,66.12c14.43,48.6-2.7,75.93-14.3,81.9
				c-22.03,11.36-65.34-12.16-83.59-58.24C498.6,542.89,513.06,498.57,547.62,494.62z"/>
			<path class="st13" d="M561.65,538.17c14.69-7.04,33.42,3.99,41.83,24.62c8.41,20.64,3.33,43.08-11.36,50.12
				c-14.69,7.04-33.42-3.99-41.83-24.62C541.87,567.64,546.96,545.2,561.65,538.17z"/>
		</g>
		<g>
			<path class="st0" d="M1092.13,494.62c-29.31-3.35-52.46,22.84-65.31,66.12c-14.43,48.6,2.7,75.93,14.3,81.9
				c22.03,11.36,65.34-12.16,83.59-58.24C1141.15,542.89,1126.69,498.57,1092.13,494.62z"/>
			<path class="st13" d="M1078.1,538.17c-14.69-7.04-33.42,3.99-41.83,24.62c-8.42,20.64-3.33,43.08,11.36,50.12
				c14.69,7.04,33.42-3.99,41.83-24.62C1097.87,567.64,1092.78,545.2,1078.1,538.17z"/>
		</g>
		<path class="st14" d="M1025.38,417.64c-80.36-2.52-387.03-12.61-460-15.11c-9.06-64.77-14.56-115.14-12.62-122.7
			c34.48-134.55,185.39-178.8,270.71-176.46c93.17,2.56,225.81,41.83,263.16,176.46c2.26,8.14-4.37,66.75-14.84,139.53
			C1056.32,418.81,1040.85,418.12,1025.38,417.64z"/>
		<path class="st0" d="M1090.7,358.15c-37.93-109.09-157.1-187-270.86-185.07c-106.19,1.8-236.16,76.05-271.17,185.07
			c-5.57,17.35,49.41,313,75.82,364.98c10.12,19.92,42.13,50.13,62.86,63.54c34.24,22.14,59.28,40.83,101.99,50.54
			c2.59,0.59,58.09,0.59,60.68,0c42.72-9.71,67.75-28.4,101.99-50.54c20.73-13.4,52.74-43.62,62.86-63.54
			C1041.29,671.14,1096.68,375.36,1090.7,358.15z"/>
		<path class="st15" d="M822.53,626.1c-6.14,0-12.09-1.09-15.92-2.78c-1.61-0.73-2.37-2.64-1.64-4.27c0.73-1.63,2.63-2.37,4.3-1.65
			c8.2,3.69,25.35,2.86,29.21-2.72c2.5-3.63-0.09-12.38-3.07-22.51c-1.96-6.65-4.18-14.16-5.63-22.27
			c-0.32-1.76,0.85-3.45,2.63-3.77c1.77-0.2,3.45,0.87,3.77,2.63c1.36,7.75,3.55,15.1,5.44,21.57c3.61,12.21,6.46,21.85,2.18,28.01
			C839.97,623.98,831.07,626.1,822.53,626.1z"/>
		<path class="st14" d="M1038.26,192.81c-9.75-35.98-62.69-73.34-166.17-84.9c-5.44,27.91,13.27,117.48,12.14,134.09
			c11.87-0.82,92.33,12.88,106.38,15.78c-9.02,78.34,13,93.86,37.91,125.63c12.69,16.18,25.42,38.51,29.65,86.31
			c-0.5,16.92-5.12,112.9-4.96,115.46c7.79-13.45,26.53-84.45,37.37-90.22c6.5-39.96,26.64-112.98,26.53-193.85
			C1117.08,278.96,1094.58,212.54,1038.26,192.81z"/>
		<g>
			<path class="st16" d="M725.16,671.72c2.32-21.37,36.99-15.32,87.63-15.68c2.65-0.02,12.95-0.02,15.61,0
				c50.64,0.36,80.9-4.82,85.51,16.19c4.45,20.25-16.28,52.35-46.17,70.9c-14.09,8.74-30.22,11.78-46.7,11.83h-0.89
				c-16.48-0.05-32.54-2.82-46.61-11.34C743.71,725.56,722.76,693.88,725.16,671.72z"/>
			<path class="st17" d="M820.24,756.28h0.82c15.26-0.06,31.07-2.8,45.79-12.08l0.9-0.55l-0.76-0.77
				c-12.22-12.56-28.69-19.49-46.35-19.49c-17.64,0-34.11,6.93-46.36,19.49l-0.74,0.74l0.88,0.58
				C789.17,753.48,805.02,756.22,820.24,756.28z"/>
			<path class="st18" d="M895.27,657.25c-6.24,18.86-37.14,27.88-74.68,27.88c-38.1,0-67.99-7.87-75.02-28.63
				c15.46-2.18,38.65-0.26,67.23-0.46c2.65-0.02,12.95-0.02,15.61,0C858.16,656.25,880.66,654.44,895.27,657.25z"/>
		</g>
		<g>
			<path class="st19" d="M970.73,477.94c33.95,14.72,43.16,56.41,22.32,76.7c-12.22,11.9-31.5,14.6-51.48,14.44
				c-29.37-0.24-55-14.72-58.49-28.36c-1.71-6.7-2.93-20.19,10.67-41.28C909.23,475.45,940.89,465.01,970.73,477.94z"/>
			<path class="st20" d="M995.82,486.69c21.9,21.41,11.34,58.71-3.43,68.6c10.12-12.4,11.99-28.86,8.32-41.64
				c-3.86-13.4-15.83-29.99-40.63-36.85c-25.3-7-54.33,2.23-69.67,27.44C910.65,465.79,964.98,456.54,995.82,486.69z"/>
			<path class="st20" d="M952.3,493.78c16.91,7.67,24.51,27.65,16.65,44.94C961.1,556,941.31,563.54,924.34,556
				c-16.97-7.54-24.33-27.71-16.66-44.94C915.41,493.72,935.28,486.05,952.3,493.78z"/>
			<path class="st21" d="M961.37,503.21c4.68,2.27,6.92,7.86,4.71,12.57c-1.88,4.71-7.54,6.91-12.25,4.71
				c-4.71-2.2-6.91-7.86-4.71-12.57C951.31,503.21,956.94,501.07,961.37,503.21z"/>
		</g>
		<g>
			<path class="st19" d="M746.14,499.45c13.6,21.09,12.38,34.58,10.67,41.28c-3.49,13.63-29.13,28.12-58.49,28.36
				c-19.98,0.16-39.25-2.54-51.48-14.44c-20.85-20.29-11.63-61.99,22.32-76.7C698.99,465.01,730.66,475.45,746.14,499.45z"/>
			<path class="st20" d="M749.46,504.23c-15.34-25.2-44.36-34.44-69.67-27.44c-24.8,6.86-36.77,23.45-40.63,36.85
				c-3.67,12.77-1.79,29.23,8.32,41.64c-14.77-9.89-25.32-47.19-3.43-68.6C674.9,456.54,729.24,465.79,749.46,504.23z"/>
			<path class="st20" d="M715.41,493.78c16.91,7.67,24.51,27.65,16.66,44.94c-7.86,17.28-27.65,24.83-44.62,17.28
				c-16.97-7.54-24.33-27.71-16.66-44.94C678.52,493.72,698.38,486.05,715.41,493.78z"/>
			<path class="st21" d="M724.48,503.21c4.68,2.27,6.91,7.86,4.71,12.57c-1.88,4.71-7.54,6.91-12.25,4.71
				c-4.71-2.2-6.91-7.86-4.71-12.57C714.42,503.21,720.05,501.07,724.48,503.21z"/>
		</g>
		<g>
			<path class="st14" d="M581.03,210.5c9.75-35.98,36.67-68.23,146.41-93.5c5.43,27.9,2.27,134.28,3.4,150.89
				c-55.73-21.18-94.59-14.22-108.55,10.81c9.63,36.1-6.25,78.82-14.67,99.42c-7.78,19.03-22.62,43.8-26.85,91.6
				c0.5,16.92,5.12,112.9,4.95,115.46c-7.79-13.45-26.53-84.45-37.37-90.22c-6.5-39.96-26.64-112.98-26.53-193.85
				C521.86,278.96,547.82,217.72,581.03,210.5z"/>
			<path class="st14" d="M690.49,208.94c-6.85,50.98,59.08,101.92,147.27,113.78c88.19,11.86,165.24-19.85,172.1-70.83
				c6.85-50.98-59.08-101.92-147.27-113.78C774.4,126.25,697.35,157.96,690.49,208.94z"/>
		</g>
	</g>
	<g>
		<path class="st22" d="M1027.86,404.88c-10.35-10.82-25.81-24.62-39.51-29.8c-27.14-10.25-61.32-9.44-83.42-7.4
			c-7.16,0.66-13.99,21.53-12.97,23.41c1.2,2.2,4.17,2.88,9.17,2.84c25.88-0.21,50.7-5.98,84.37,4.38
			c12.23,3.77,26.13,12.84,33.07,16.27c2.68,1.32,10.28,5.43,11.08,4.82C1031.59,417.9,1031.59,408.78,1027.86,404.88z"/>
		<path class="st22" d="M615.76,404.88c10.35-10.82,25.81-24.62,39.51-29.8c27.14-10.25,61.32-9.44,83.42-7.4
			c7.16,0.66,13.99,21.53,12.97,23.41c-1.2,2.2-4.17,2.88-9.18,2.84c-25.88-0.21-50.7-5.98-84.37,4.38
			c-12.23,3.77-26.13,12.84-33.07,16.27c-2.68,1.32-10.28,5.43-11.08,4.82C612.02,417.9,612.03,408.78,615.76,404.88z"/>
	</g>
	<g>
		<path class="st0" d="M1647.99,662.23c15.42-88.78,15.77-210.28,30.05-209.11c42.19,3.45,37.82,105.63,30.46,172.17
			c-0.75,6.76-1.51,12.84-2.23,18.59c52.58,20.13,107.32,58.26,136.72,63.12c-17.51,77.98-44.17,109.49-62.61,123.16
			c-33.69,25-79.52,29.37-114.81-7.62c-26.22-27.49-39.32-53.64-51.51-122.54C1622.64,691.22,1639.26,678.85,1647.99,662.23z"/>
		<path class="st23" d="M1714.94,786.67c56.2,27.07,104.73-13.5,113.42-66.16c-12.2-1.83-93.69-60.9-116.27-122.41
			c-41.18,12.99-37.7,110.77-52.5,110.47C1690.38,716.9,1716.38,745.65,1714.94,786.67z"/>
		<path class="st0" d="M1686.17,651.78c5.43-34.29,22.7-59.84,38.57-57.06c14.3,2.5,22.48,27.17,20.02,57.1
			c10.76-22.63,26.61-36.4,39.62-32.14c13.98,4.58,19.93,28.39,15.34,56.16c12.83-12.41,26.68-17.52,35.95-11.38
			c13.69,9.07,12.15,38.86-3.44,66.52c-15.59,27.66-39.32,42.73-53.01,33.65c-7.51-4.98-10.27-16.27-8.82-29.93
			c-6.91,5.61-14.08,8.04-20.53,5.93c-12.04-3.94-18.13-22.15-16.67-44.85c-7.78,15.56-18.22,24.85-28.12,23.12
			C1689.2,716.12,1680.74,686.07,1686.17,651.78z"/>
		<path class="st24" d="M1723.06,644.85c6.76,18.15-1.53,64.21-28.16,73.89c-24.64,8.95-61.83,2.32-68.6-15.83
			c-6.76-18.15,8.06-44.97,33.97-56.8C1686.19,634.3,1716.3,626.71,1723.06,644.85z"/>
		<path class="st0" d="M1714.11,642.27c17.96,34.29-23.3,63.54-51.01,79.37c-26.12,14.91-41.97,0.12-48.19-16.62
			c-6.22-16.73,10.94-40.39,38.31-52.85C1680.6,639.73,1709.37,633.24,1714.11,642.27z"/>
	</g>
	<path class="st8" d="M507.44,1678.89c71.42,9.04,135.36,16.43,187.52,18.53c2.66,0.11,8.81-37.61,10.06-39.95
		c12.03-22.51,47.8-104.29,46.5-115.67c-92.84-17.63-174.27-42.87-254.02-69.35C501.95,1553.07,505.54,1626.09,507.44,1678.89z"/>
	<path class="st0" d="M214.85,1480.42c2.64-20.42,14.67-54.22,26.47-88.06c177.61,45.49,309.73,131.4,499.78,160.65
		c1.76,10.98-1.66,116.06-8.83,121.65c-102.61-6.69-278.09-18.29-448.5-71.34C253.55,1593.92,206.4,1545.9,214.85,1480.42z"/>
	<g>
		<path class="st0" d="M982.53,1475.59c12.92,2.15,3.8,23.38-17.76,29.17c-11.66,3.13-67.95,2.36-91.33,9.97
			c-26.14,2.13-117.9,29.44-119.05,15.31c4.69-4.8,72.43-55.89,102.38-61.52C883.77,1463.45,961.87,1472.15,982.53,1475.59z"/>
		<path class="st12" d="M951.54,1506.39c-11.96,2.17-58.35,2.54-89.51,9.06c-31.87,6.67-68.23,0.38-58.04-3.48
			c21.89-8.3,49.73-16.91,82.13-20.07C893.56,1491.17,951.54,1495.49,951.54,1506.39z"/>
		<path class="st0" d="M934.69,1653.89c-3.9-5.35-40.53-3.54-57.17-5.08c11.68-0.67,56.26-1.9,67.95-6.79
			c7.6-3.18,10.04-14.75,10.87-22.29c1.04-9.44-52.33-10.71-69.2-13.67c11.61,0.5,70.59,1.28,82.67-3.25
			c8.7-3.26,14.86-17.03,10.96-26.46c-1.95-4.72-66.81-15.13-85.33-20.47c11.11,2,75.91,9.36,88.8,9.03
			c9.91-0.26,31.48-31.05,15.88-36.1c-32.44-10.51-86.28-25.27-116.6-29.96c-16.07-2.49-106.07,19.46-123.34,27.07
			c-7.8,3.44-68.82,45.46-75.23,69.32c-9.7,36.07,12.38,60.07,27.77,73.51c16.48,14.39,67.25,21.79,147.8,17.54
			c13.49-0.71,40.04-3.11,54.77-7.22C928.08,1675.52,938.06,1658.53,934.69,1653.89z"/>
	</g>
	<path class="st2" d="M202.7,1480.19c2.99-21.99,15.79-58.5,28.36-95.06c213.86,49.33,316.75,125.5,470.89,155.94
		c1.65,11.78-13.51,137.56-20.94,143.68c-105.09-5.77-235.42-18.71-409.37-73.37C240.79,1601.69,193.13,1550.72,202.7,1480.19z"/>
	<path class="st25" d="M1771.2,893.09c-20.34-17.45-105.82-57.51-134.76-62.83c-0.79-0.15-18.58,31.81-32.82,54.45
		c30.87,15.6,123.59,55.59,144.93,64.06c0.33,0.13,0.87-0.55,1.32-0.85c9.73-23.73,17.23-42.65,21.45-53.49
		C1771.26,894.04,1771.2,893.09,1771.2,893.09z"/>
	<path class="st26" d="M1644.43,821.71c27.99,7.17,111.67,44.94,133.07,60.16c1.8,1.28-23.45,63.14-26.21,61.79
		c-21.8-10.75-117.54-51.93-144.83-63.57C1603.02,878.61,1639.48,820.43,1644.43,821.71z"/>
	<path class="st25" d="M679.62,1684.75c10.42-24.69,22.18-115.61,18.42-144.8c-0.1-0.8-35.52-8.01-61.43-14.68
		c-5.45,34.16-15.47,132.48-17.03,155.39C628.19,1682.38,679.62,1684.75,679.62,1684.75z"/>
	<path class="st26" d="M708.92,1540.14c1.69,28.84-8.71,122.18-16.68,147.2c-0.67,2.1-67.29-3.1-66.83-6.14
		c3.6-24.04,13.52-125.84,16.29-155.38C642.04,1522.09,708.62,1535.03,708.92,1540.14z"/>
</g>
</svg>
