<?xml version="1.0" encoding="utf-8"?>
<!-- Generator: Adobe Illustrator 24.1.2, SVG Export Plug-In . SVG Version: 6.00 Build 0)  -->
<svg version="1.1" id="Capa_1" xmlns="http://www.w3.org/2000/svg" xmlns:xlink="http://www.w3.org/1999/xlink" x="0px" y="0px"
	 viewBox="0 0 2000 2000" style="enable-background:new 0 0 2000 2000;" xml:space="preserve">
<style type="text/css">
	.st0{fill:#5B2821;}
	.st1{opacity:0.45;}
	.st2{fill:#128ECC;}
	.st3{fill:#FFC19F;}
	.st4{fill:#009BD1;}
	.st5{fill:#2D0808;}
	.st6{fill:#846B69;}
	.st7{opacity:0.2;fill:#05293F;}
	.st8{fill:#0C69A3;}
	.st9{opacity:0.23;fill:#822020;}
	.st10{fill-rule:evenodd;clip-rule:evenodd;fill:#F4AF88;}
	.st11{fill-rule:evenodd;clip-rule:evenodd;fill:#AD5334;}
	.st12{fill-rule:evenodd;clip-rule:evenodd;fill:#F6BE9D;}
	.st13{fill-rule:evenodd;clip-rule:evenodd;fill:#FBFDFF;}
	.st14{fill-rule:evenodd;clip-rule:evenodd;fill:#6C1E19;}
	.st15{fill-rule:evenodd;clip-rule:evenodd;fill:#FFFFFF;}
	.st16{fill-rule:evenodd;clip-rule:evenodd;fill:#882C22;}
	.st17{fill-rule:evenodd;clip-rule:evenodd;fill:#C36F54;}
	.st18{fill-rule:evenodd;clip-rule:evenodd;fill:#621115;}
	.st19{fill-rule:evenodd;clip-rule:evenodd;fill:#DD6454;}
	.st20{fill-rule:evenodd;clip-rule:evenodd;fill:#DF9267;}
	.st21{opacity:0.18;fill:#6B1808;}
	.st22{opacity:0.21;fill:#541000;}
	.st23{fill:#919191;}
	.st24{opacity:0.2;fill:#6D261D;}
	.st25{fill:#EF0000;}
	.st26{fill:#161616;}
	.st27{opacity:0.3;}
	.st28{fill:#210004;}
	.st29{fill:#CECECE;}
	.st30{fill:#B7B7B7;}
	.st31{opacity:0.2;}
	.st32{fill:#FF3939;}
	.st33{opacity:0.33;fill:#FFFFFF;}
	.st34{fill:#E2E2E2;}
	.st35{opacity:0.05;}
	.st36{fill:#3A3A3A;}
	.st37{fill:#EFEFEF;}
	.st38{fill:#C5C7C9;}
	.st39{fill:#424242;}
	.st40{fill:#636363;}
	.st41{opacity:0.8;fill:#FFFFFF;}
	.st42{fill:#777777;}
	.st43{fill:#FFFFFF;}
	.st44{opacity:0.13;}
</style>
<g>
	<g>
		<path class="st0" d="M751.66,2000c16.08-119.94,31.61-232.18,42.01-299.01c5.63-26.68,42.43-25.38,44.68,0
			c6.89,77.94,15.99,186.24,25.32,299.01h214.66c-7.32-220.2-15.15-460.45-20.18-620.82l-505.91,28.09
			c-8.75,170.06-20.25,391.48-30.05,592.73H751.66z"/>
		<path class="st1" d="M1056.16,1378.13c0.22,47.12,6.33,155.79,6.41,169.55c-38.18-14.56-67.48-53.6-63.38-94.95
			C1002.58,1418.44,1025.5,1390.83,1056.16,1378.13z"/>
		<path class="st1" d="M553.22,1375.59c-0.22,47.12-7.31,156.61-8.32,169.86c38.18-14.56,67.48-53.6,63.38-94.95
			C604.88,1416.22,583.88,1388.29,553.22,1375.59z"/>
		
			<rect x="704.86" y="710.73" transform="matrix(0.9971 -0.076 0.076 0.9971 -54.4062 63.0477)" class="st2" width="192.01" height="70.72"/>
		<path class="st3" d="M292.75,908.68c-3.01-44.3,20.17-95.76,25.95-121.97c42.43-1.55,202.83,9.14,289.88,6.27
			c6.7,2.42,9.79,143.36-10.67,163.18C538.99,953.31,330.66,915.53,292.75,908.68z"/>
		<path class="st3" d="M1089.23,1205.79c43.47-9.05,88.85-33.8,112.52-46.43c-9.95-41.28-42.25-158.38-63.23-235.44
			c-4.13-5.8-159.85-15.38-173.42,9.67C983.74,989.57,1072.4,1171.14,1089.23,1205.79z"/>
		<path class="st4" d="M1019.7,1162.76c46.36-20.79,175.21-90.71,198.05-110.3c-22.86-36.25-116.63-191.64-161.14-256.05
			c-0.87-0.69-19.33-4.46-23.07-5.07c-33.38,25.9-127.26,150.47-133.77,176.73C938.37,1023.4,989.82,1129.86,1019.7,1162.76z"/>
		<path class="st5" d="M867.87,1454.56c71.75-4.73,137.49-9.15,196.35-27.72v-58.03c-189.63,59.85-480.42,27.81-502.33,13.55
			l-1.11,54.69C581.41,1448.62,712.12,1464.83,867.87,1454.56z"/>
		<path class="st6" d="M791.73,1403.6l102.67-2.83l1.87,67.84l-102.67,2.84L791.73,1403.6z M881.72,1414.17l-76.59,2.11l1.15,41.76
			l76.59-2.12L881.72,1414.17z"/>
		<path class="st0" d="M973.77,1450.9c2.23,0.05,22.16-1.91,22.16-1.91c6.78-22.05-1.13-61.06-11.75-68.36
			c-3.34,0.11-18.04,1.31-20.46,1.63C974.69,1397.9,977.87,1434.08,973.77,1450.9z"/>
		<path class="st0" d="M680.06,1397.23c2.22-0.26,22.24-0.21,22.24-0.21c8.86,21.3,4.7,60.89-5.17,69.17
			c-3.34,0.21-18.09,0.41-20.53,0.33C686.04,1449.9,685.75,1413.58,680.06,1397.23z"/>
		<polygon class="st7" points="1022.41,1160.05 1083.25,1134.09 1046.02,900.66 932.68,898.45 		"/>
		<path class="st4" d="M551.28,1343.44c-16.85-17.47,3.16-24.56,2.97-33.88c-2.35-113.97-23.67-401.65-14.21-505.11
			c16.66-4.06,175.36-41.21,250.68-41.48c87.01-0.31,211.72,20.72,255.93,29.62c0,0,11.2,455.27,16.65,539.89
			c1.43,22.17,32.66,22.8,2.82,42.38c-68.56,19.82-149.67,35.36-228.67,39.15c-149.7,7.19-271.11-8.61-282.2-19.77
			C535.31,1377.54,576.71,1369.8,551.28,1343.44z"/>
		<path class="st3" d="M719.16,682.11l1.42,111.95c0.31,24.07,63.17,34.9,100.66,41.55c11.74-6.71,53.43-26.88,53.13-50.95
			l-1.72-104.5L719.16,682.11z"/>
		<path class="st3" d="M110.1,550.04c11.6-12.77,69.04-23.51,102.24,1.99c61.32,112.22,178.18,307.15,191.47,340.6
			c-32.09,13.98-100.32,34.86-138.6,3.79C224.2,863.12,140.48,636.53,110.1,550.04z"/>
		<path class="st4" d="M365.7,969.63c1.21-35.42-0.92-164.72,4.8-188.17c48.51,2.43,248.57-7.81,316.59-4.59
			c5.13,3.36-104.67,188.88-135.43,200.18C539.52,978.04,381.17,969.68,365.7,969.63z"/>
		<g>
			<path class="st8" d="M812.14,915.63c0.43,6.55,6.09,11.51,12.64,11.08c6.55-0.43,11.51-6.09,11.08-12.65
				c-0.43-6.55-6.09-11.51-12.65-11.08C816.67,903.42,811.71,909.08,812.14,915.63z"/>
			<path class="st8" d="M820.1,1053.25c0.43,6.55,6.09,11.51,12.65,11.08c6.55-0.43,11.51-6.09,11.08-12.64
				c-0.43-6.55-6.09-11.51-12.65-11.08C824.63,1041.04,819.67,1046.7,820.1,1053.25z"/>
			<path class="st8" d="M826.73,1191.45c0.43,6.55,6.09,11.51,12.65,11.08c6.55-0.43,11.51-6.09,11.08-12.65
				c-0.43-6.55-6.09-11.51-12.65-11.08S826.3,1184.9,826.73,1191.45z"/>
			<path class="st8" d="M843.02,1311.29c-6.57,0.04-11.85,5.41-11.8,11.97c0.04,6.56,5.41,11.85,11.97,11.8
				c6.56-0.05,11.85-5.41,11.8-11.97C854.95,1316.53,849.59,1311.25,843.02,1311.29z"/>
		</g>
		<g>
			<path class="st7" d="M927.86,871.66l-21.78-100.65l-16.16-20.42c0,0-9.93,63.82-68.68,85.02
				C857.59,852.04,927.86,871.66,927.86,871.66z"/>
			<path class="st4" d="M915.66,867.59l-9.08-90.41l-13.25-67.38c0,0-16.18,95.79-72.08,125.81c8.77-3.15,28.68-14.77,33.83-13.19
				C877.92,838.86,915.66,867.59,915.66,867.59z"/>
			<path class="st7" d="M684.32,895.2l2.77-118.33l19.05-27.15c0,0-0.43,63.37,116.65,85.52
				C777.46,862.16,684.32,895.2,684.32,895.2z"/>
			<path class="st4" d="M705.54,887.65l-18.45-110.78l15.36-58.74c11.1,89.6,67.47,98.94,118.8,117.47
				c-26.45-4.19-45.82-9.99-50.82-6.68C755.44,838.85,734.31,859.46,705.54,887.65z"/>
		</g>
		<path class="st9" d="M709.83,662.85c-12.56,28.67,18.16,69.83,68.62,91.93c50.46,22.1,101.54,16.78,114.1-11.89
			c12.56-28.67-18.16-69.83-68.62-91.93C773.47,628.86,722.38,634.18,709.83,662.85z"/>
		<g>
			<path class="st10" d="M1030.82,522.19c-8,39.11-43.71,65.13-71.63,62.67c-27.92-2.46-34.78-33.91-31.69-71.37
				c3.09-37.46,28.24-65.93,56.14-63.38C1021.78,453.6,1038.34,485.43,1030.82,522.19z"/>
			<path class="st11" d="M535.58,348.28c-4.8,200.39,120.97,323.12,276.24,310.41c155.31-12.72,245.38-158.71,214.19-350.92
				c-17.32-106.73-102.37-191.73-250.64-178.55C620.16,143,539,205.74,535.58,348.28z"/>
			<path class="st12" d="M558.95,304.26c-11.48,34.09,48.28,315.5,82.23,361.98c33.45,45.81,165.29,84.64,214.37,79.42
				c38.81-4.13,133.25-72.75,142.86-104.27c3.75-12.3,7.54-39.06,10.38-68.67c1.74-18.08-3.08-35.48-1.43-56.74
				c7.76-99.76,13.12-221.42,2.92-242.06c-41.34-83.64-122.06-82.45-227.25-76.87l-4.59,0.25l-4.58,0.37
				C668.89,206.23,588.72,215.85,558.95,304.26z"/>
			<g>
				<path class="st13" d="M776.28,477c54.68,56.81-59.66,77.87-85.37,51.66c-17.47-17.8-9.48-51.14,18.56-66
					C734.01,449.64,761.21,457.38,776.28,477z"/>
				<path class="st14" d="M687.1,473.15c21.59-32.38,74.52-22.7,89.69,4.54c-15.54-20.25-43.97-25.93-66.64-13.9
					c-14,7.43-23.9,20.35-26.43,34.54c-2.02,11.32,0.93,23.89,8.19,31.29C683.6,524.86,671.22,496.97,687.1,473.15z"/>
				<path class="st14" d="M705.62,490.46c-5.55,15.09,1.97,31.81,16.82,37.37c14.81,5.54,31.36-2.18,36.93-17.28
					c5.57-15.09-1.95-31.82-16.79-37.36C727.74,467.64,711.18,475.37,705.62,490.46z"/>
				<path class="st15" d="M707.9,487.82c-1.54,4.18,0.56,8.83,4.67,10.37c4.11,1.54,8.7-0.61,10.24-4.79
					c1.54-4.19-0.53-8.83-4.64-10.37C714.03,481.48,709.44,483.63,707.9,487.82z"/>
			</g>
			<path class="st11" d="M685.7,242.14c-154.76-66.82-170.78,37.88-155.84,127.51c8.06,48.38,32.61,112.9,50.59,166.7
				c11.71-43.76-5.63-89.96-11.54-143.46C555.61,272.47,652.1,289.57,685.7,242.14z M880.89,229.03
				c33.63,46,137.51,12.96,135.87,133.76c-0.86,63.15-6.61,101.75-9.39,153.2c10.61-55.72,31.18-123.05,32.71-172.07
				C1042.91,253.1,1025.31,142.1,880.89,229.03z"/>
			<path class="st16" d="M989.01,412.34c-1.71-0.01-3.43-0.77-4.81-2.3c-17.73-19.57-51.02-25.07-77.18-12.74
				c-3.63,1.71-7.81-0.65-9.31-5.29c-1.49-4.63,0.29-9.78,3.95-11.49c31.25-14.64,69.91-7.8,91.79,16.24c3,3.3,3.35,8.94,0.82,12.62
				C992.91,411.34,990.98,412.34,989.01,412.34z"/>
			<path class="st16" d="M672.69,431.1c2.16-0.15,4.26-1.06,5.86-2.7c20.49-21.01,61.95-29.29,96.23-19.23
				c4.76,1.4,9.81-1.31,11.24-6.06c1.42-4.74-1.32-9.72-6.13-11.12c-40.92-11.95-89.09-1.88-114.33,23.95
				c-3.46,3.54-3.36,9.19,0.22,12.65C667.67,430.43,670.2,431.27,672.69,431.1z"/>
			<g>
				<path class="st13" d="M906.37,468.25c-41.53,63.27,63.09,69.62,82.68,40.37c13.31-19.87,1.95-51.91-24.94-63.08
					C940.58,435.76,917.31,446.89,906.37,468.25z"/>
				<path class="st14" d="M985.39,453.1c-23.36-29.36-69.32-13.04-79.37,15.9c11.28-22.05,35.9-31.3,57.64-22.25
					c13.43,5.59,23.9,17.14,27.96,30.89c3.24,10.96,2.21,23.81-3.33,32.06C995.09,503.93,1002.58,474.7,985.39,453.1z"/>
				<path class="st14" d="M912.78,477.34c-4.9,15.04,1.99,31.81,15.39,37.46c13.38,5.64,28.23-1.97,33.14-17.02
					c4.91-15.05-1.96-31.82-15.36-37.46C932.54,454.68,917.69,462.3,912.78,477.34z"/>
				<path class="st15" d="M914.81,474.72c-1.36,4.17,0.57,8.83,4.28,10.4c3.71,1.57,7.83-0.55,9.19-4.72
					c1.36-4.18-0.53-8.84-4.24-10.4C920.3,468.42,916.18,470.54,914.81,474.72z"/>
			</g>
			<path class="st17" d="M843.47,558.56c-1.68-1.26-4.07-0.93-5.33,0.75c-1.26,1.68-0.93,4.07,0.75,5.33
				c2.57,1.94,4.95,3.22,7.67,3.9c2.69,0.67,5.58,0.71,9.22,0.21c2.57-0.36,5.04-1.41,7.19-2.91c2.58-1.8,4.76-4.27,6.19-6.99
				c1.5-2.86,2.22-6.07,1.79-9.15c-0.26-1.86-0.94-3.67-2.09-5.33c-6.19-8.9-8.03-12.99-10.65-18.82c-1.19-2.65-2.55-5.67-4.61-9.82
				c-0.93-1.88-3.22-2.65-5.11-1.72c-1.88,0.93-2.65,3.22-1.72,5.1c1.9,3.82,3.27,6.86,4.46,9.53c2.77,6.18,4.73,10.49,11.36,20.06
				c0.43,0.62,0.7,1.32,0.79,2.04c0.2,1.44-0.2,3.06-0.99,4.58c-0.87,1.66-2.2,3.18-3.77,4.27c-1.21,0.84-2.55,1.43-3.91,1.62
				c-2.66,0.37-4.65,0.36-6.33-0.05C846.77,560.73,845.22,559.88,843.47,558.56z"/>
			<path class="st11" d="M1009.79,107.82c4.6,22.47-5.8,41.58-24.41,57.98c12.23-27.84,12.15-63.46-17.69-107.01
				c-19.57,16.72-40.37,34.4-61.14,51.94c1.7-11.66,1.22-24.28-2.14-37.97c-15.68,30.24-27.82,59.25-186.16,96.55
				c-78.78,18.56-103.84,87.07-86.65,95.05c56.48,26.22,137.52,29.75,195.48,28.92c72.62-1.04,118.26-13.68,157.2-41.08
				C1019.66,227.29,1055.2,160.48,1009.79,107.82z"/>
			<g>
				<path class="st18" d="M919.65,604.72c-4.52-17.8-29.72-11.36-71.45-8.48c-2.19,0.15-10.67,0.78-12.86,0.96
					c-41.69,3.38-67.57,0.59-69.43,18.87c-3.57,35.2,39.5,70.21,81.87,67.21l0.74-0.05C890.88,679.97,928.37,639.02,919.65,604.72z"
					/>
				<path class="st19" d="M848.79,683.94l-0.74,0.05c-13.73,0.97-28.29-2.21-42.14-9.15l-0.85-0.41l0.63-0.71
					c10.21-11.52,24.61-18.53,40.52-19.7c15.89-1.17,31.15,3.64,42.98,13.55l0.74,0.6l-0.78,0.54
					C876.47,677.58,862.5,682.87,848.79,683.94z"/>
				<path class="st15" d="M843.7,619.89c-29.14,2.15-54.13-5.88-58.14-18.67l-0.23-0.8l113.27-8.36l-0.13,0.81
					C896.37,606.14,872.83,617.74,843.7,619.89z"/>
			</g>
			<path class="st12" d="M524.5,555.65c13.18,38.06,52.07,59.29,79.41,53.08c27.34-6.21,29.91-38.61,21.81-75.68
				s-36.84-62.18-64.15-55.87C524.24,485.8,512.11,519.87,524.5,555.65z"/>
			<path class="st20" d="M549.57,555.08c8.05,20.88,36.88,33.4,53.99,23.17c6.68-3.99-15.46-67.21-26.99-64.56
				C557.08,518.18,541.53,534.21,549.57,555.08z"/>
			<path class="st11" d="M544.88,388.82c9.78,47.12,35.87,100.49,90.16,156.15c-3.09-74.2-12-107.44-23.48-168.34
				c-21.96-116.49,123.31-110.56,190.69-131.93C645.98,130.81,530.34,268.46,544.88,388.82z"/>
		</g>
		<path class="st3" d="M1302.3,840.15c1.89-6.95-89.12-14.54-91.35-7.68c-39.4,121.18-123.91,311.55-135.48,348.58
			c19.64,62.23,80.15,69.48,115.44,33.46C1228.71,1175.92,1277.33,931.93,1302.3,840.15z"/>
		<g>
			<path class="st3" d="M226.95,445.93c-3.94-49.07-10.62-171.59-22.41-170.98c-34.84,1.8-30.62,95.44-26.41,141.99
				c0.46,5.11,0.89,9.7,1.33,14.06c-43.85,14.18-89.96,41.88-114.29,44.99c12.3,59.11,37.23,96.56,51.67,107.72
				c22.1,17.09,69.66,17.76,93.84-3.3c22.72-19.79,18.71-58.65,43.19-105.37C247.04,468.26,233.68,458.62,226.95,445.93z"/>
			<path class="st21" d="M168.44,538.46c-47.02,19.34-85.88-12.16-91.6-52.02c10.09-1.15,78.8-44.13,99.06-90.07
				c33.56,10.57,28.03,84.21,40.23,84.26C190.55,486.34,168.37,507.51,168.44,538.46z"/>
			<path class="st3" d="M195.79,437.33c-3.54-25.95-17.07-45.54-30.21-43.74c-11.84,1.61-19.25,20.06-18.03,42.66
				c-8.24-17.26-20.93-27.94-31.75-24.98c-11.64,3.19-17.19,21.03-14.16,42.04c-10.23-9.6-21.5-13.71-29.3-9.25
				c-11.52,6.58-11.06,29.06,1.03,50.21c12.09,21.15,31.22,32.95,42.74,26.37c6.31-3.61,8.9-12.06,8.07-22.39
				c5.54,4.36,11.38,6.33,16.75,4.86c10.03-2.74,15.53-16.36,14.95-33.49c5.98,11.87,14.33,19.08,22.52,17.96
				C191.55,485.77,199.33,463.28,195.79,437.33z"/>
			<path class="st22" d="M162.6,436.17c-6.06,13.55,2.52,43.68,24.18,51.47c20.04,7.21,50.85,2.92,56.91-10.63
				c6.06-13.55-18.93-33.26-39.95-42.66C182.73,424.95,168.66,422.61,162.6,436.17z"/>
			<path class="st3" d="M168.63,436.17c-6.94,20.72,1.38,34.96,33.39,48.77c22.33,9.63,44.86,7.53,50.62-5.36
				c5.77-12.89-8.04-28.36-30.43-37.85C193.53,429.58,173.12,422.78,168.63,436.17z"/>
		</g>
		<path class="st23" d="M185.28,196.49c-0.14,2.99,1.96,5.56,4.82,6.07l0.78,0.1c3.24,0.14,5.99-2.35,6.16-5.59l2.54-53.08
			c0.16-3.26-2.4-5.94-5.59-6.17c-3.25-0.14-5.99,2.35-6.16,5.59L185.28,196.49z M231.42,204.63c-2.11,2.47-1.83,6.18,0.64,8.31
			c0.82,0.71,1.78,1.14,2.78,1.32c1.98,0.36,4.1-0.31,5.51-1.95L274.97,172c2.12-2.46,1.84-6.18-0.63-8.31
			c-2.42-2.12-6.15-1.86-8.29,0.63L231.42,204.63z M110.5,179.75l41.61,33.03c0.79,0.61,1.69,1,2.61,1.17
			c2.06,0.37,4.26-0.38,5.65-2.13c2.03-2.55,1.59-6.25-0.94-8.27l-41.61-33.03c-2.55-1.98-6.25-1.59-8.27,0.96
			C107.53,174.03,107.96,177.73,110.5,179.75z"/>
		<g>
			<g>
				<path class="st3" d="M1200.45,776.25c-4.02,23.06-4.13,57.86,0.16,78.01c4.2,19.75,24.34,44.99,53.58,46.46
					c31.47,1.58,57-13.62,92.83-53.32c-9.37-16.34-58.46-84.77-81.01-107C1257.52,760.25,1213.35,774.42,1200.45,776.25z"/>
				<path class="st24" d="M1253.58,846.66c23.85,15.97,44.89,17.04,73.79-8.8c0.47-10.02-22.07-58.67-46.75-75.67
					c-29.04-9.24-33.41,24.7-41.94,18.82C1253.46,797.19,1260.44,827.54,1253.58,846.66z"/>
			</g>
			<g>
				<g>
					<path d="M1177.51,702.7l-0.95-4.43c24.87-5.79,35.49-55.24,23.66-110.21c-11.83-54.98-41.69-94.99-66.57-89.2l-0.95-4.43
						c26.98-6.28,58.98,35.32,71.33,92.74C1216.38,644.59,1204.49,696.42,1177.51,702.7z"/>
					<path class="st25" d="M1052.87,536.18c-12.78,11.12-17.99,47.1-9.13,88.31c8.87,41.22,28.87,69.19,44.45,75.84l57.7-5.25
						l-38.68-179.75L1052.87,536.18z"/>
					<g>
						<path class="st26" d="M1100.34,608.14l-42.53,9.9c-1.36,0.32-2.11,1.92-1.72,3.73c0.39,1.81,1.71,2.92,3.08,2.61l42.53-9.9
							c1.36-0.32,2.1-1.92,1.71-3.72C1103.03,608.95,1101.7,607.83,1100.34,608.14z"/>
						<path class="st26" d="M1108.13,633.58l-42.53,9.9c-1.36,0.32-2.1,1.92-1.72,3.72c0.39,1.81,1.72,2.93,3.08,2.61l42.53-9.9
							c1.36-0.32,2.11-1.92,1.71-3.73C1110.82,634.38,1109.49,633.26,1108.13,633.58z"/>
						<path class="st26" d="M1121.32,657.75l-42.53,9.9c-1.34,0.31-2.1,1.95-1.72,3.73c0.38,1.78,1.74,2.92,3.08,2.61l42.53-9.9
							c1.35-0.31,2.1-1.95,1.72-3.73C1124.03,658.59,1122.67,657.44,1121.32,657.75z"/>
						<path class="st26" d="M1098.99,553.96l-42.53,9.9c-1.34,0.31-2.1,1.95-1.72,3.73c0.38,1.77,1.74,2.92,3.08,2.61l42.53-9.9
							c1.35-0.31,2.1-1.95,1.72-3.73C1101.69,554.79,1100.34,553.65,1098.99,553.96z"/>
						<path class="st26" d="M1096.96,581.68l-42.53,9.9c-1.36,0.32-2.1,1.92-1.71,3.73c0.39,1.8,1.71,2.92,3.08,2.61l42.53-9.9
							c1.36-0.32,2.11-1.92,1.72-3.72C1099.65,582.48,1098.33,581.36,1096.96,581.68z"/>
					</g>
					<g class="st27">
						<path class="st28" d="M1085.71,619.2c7.07,32.87,20.3,60.65,35.5,78.15l33.85-3.07l-39.22-182.28l-26.2,10.05
							C1079.61,544.83,1077.44,580.76,1085.71,619.2z"/>
					</g>
					<path class="st25" d="M1245.23,472.89l-129.09,30.06c-26.1,6.08-37.67,55.64-25.82,110.7c11.85,55.06,42.61,94.76,68.72,88.69
						l129.09-30.06L1245.23,472.89z"/>
					<path class="st26" d="M1177.51,702.7c-26.98,6.28-58.98-35.32-71.33-92.75c-12.35-57.42-0.46-109.24,26.52-115.52l0.95,4.43
						c-24.87,5.79-35.49,55.23-23.66,110.21c11.83,54.98,41.69,95,66.57,89.21L1177.51,702.7z"/>
					<path class="st29" d="M1288.97,746.48l-0.83-26.09l-13.78-36.89l-16.86,6.01l13.43,39.87l-0.37,27.01
						c14.39,37.28,59.48,107.9,59.48,107.9l10.03-21.06C1340.08,843.25,1308.11,788.67,1288.97,746.48z"/>
					<path class="st30" d="M1272.04,729.18l-14.53-39.66l-7.99,1.87c-2.53-5.57-4-8.82-4-8.82l-45.29,10.63c0,0,0.96,3.37,2.67,9.14
						l-1.4,0.33l15.62,42.54c1.22,3.24,3.81,5.15,6.21,4.59l5.37-1.26c18.25,56.19,46.78,134.19,72.72,152.72
						c8.68,0.35,19.54-15.89,28.63-36.95c-12.35-23.75-34.45-60.43-55.73-106.88C1272,752.36,1273.68,733.53,1272.04,729.18z"/>
					<g class="st31">
						<polygon points="1259.57,695.16 1205.06,712.39 1201.33,701.93 1257.53,688.73 						"/>
					</g>
					<path class="st30" d="M1202.29,689l-22.59,5.3c8.69,8.27,17.51,12.22,25.65,10.48l57.73-13.52l-3.4-15.73L1202.29,689z"/>
					<path class="st29" d="M1262.43,691.37c10.07-2.35,18.31-10.39,24.32-22.18l-55.41,12.9
						C1241.61,690.09,1252.36,693.72,1262.43,691.37z"/>
					<path class="st25" d="M1245.23,472.89l-23.84,5.55c-26.11,6.08-37.67,55.64-25.82,110.7c11.85,55.06,42.61,94.77,68.72,88.69
						l23.84-5.55L1245.23,472.89z"/>
					<path class="st32" d="M1313.95,561.57c11.85,55.06,0.29,104.62-25.82,110.7c-26.1,6.08-56.87-33.63-68.72-88.69
						c-11.85-55.06-0.29-104.62,25.82-110.7C1271.34,466.81,1302.11,506.51,1313.95,561.57z"/>
					<g class="st31">
						<path d="M1158.96,655.64c-30.88,7.19-67.87,13.06-98.22,15.13c8.73,15.53,18.77,25.86,27.45,29.56l46.63-4.21
							c8.07,5.65,16.36,8.04,24.23,6.21l3.42-0.8c4.21,1.51,13.49,3.9,23.12-2.27c-1.19-0.82-3.8-2.81-5.89-4.96l72.64-16.73
							c4.15,1.12,7.95,1.18,11.96,0.25l23.84-5.55c0,0,10.38-3.22,11.05-6.59c2.17-10.99-20.76-38.55-20.76-38.55
							C1241.95,637.37,1201.75,645.68,1158.96,655.64z"/>
					</g>
					<path class="st33" d="M1277.02,485.46c-73.69,20.51-157.01,38.79-165.23,40.41c-1.54,0.3-6.79,26.58-4.38,26.09
						c25.17-5.14,71.5-16.58,186.88-43.47C1289,499.2,1283.14,491.43,1277.02,485.46z"/>
					<path class="st34" d="M1526.84,286.59c-69.49,93.88-216.78,173.76-275.66,187.47c-25.47,5.93-36.74,54.28-25.19,107.99
						c11.56,53.71,41.57,92.45,67.04,86.52c58.89-13.71,224.85-6.76,326.19,47.34C1618.74,710.66,1528.56,291.55,1526.84,286.59z"/>
					<g class="st35">
						<path d="M1293.03,668.57c58.89-13.71,224.85-6.76,326.19,47.34c-0.23-2.61-91.56-426.98-92.38-429.33
							c-15.45,20.87-34.75,41.03-56.05,59.94c-32.37,92.79,5.89,197.51-14.49,230.42c-23.85,38.53-126.88,40.24-210.14,58.59
							C1259.92,658.87,1277.33,672.23,1293.03,668.57z"/>
					</g>
					
						<ellipse transform="matrix(0.9785 -0.2064 0.2064 0.9785 -69.5886 335.4843)" class="st36" cx="1573.03" cy="501.25" rx="101.76" ry="231.43"/>
					<path class="st37" d="M1665.31,479.76c25.51,118.56,5.44,224.15-44.82,235.85c-50.26,11.7-111.69-74.92-137.19-193.47
						c-25.51-118.56-5.45-224.15,44.82-235.85C1578.37,274.59,1639.8,361.21,1665.31,479.76z"/>
					<path class="st38" d="M1657.68,481.54c24.3,112.93,6.67,213.18-39.39,223.9c-46.05,10.72-103.09-72.13-127.39-185.07
						c-24.3-112.94-6.66-213.18,39.39-223.9C1576.35,285.75,1633.39,368.6,1657.68,481.54z"/>
					<g>
						<path class="st39" d="M1226.15,722.4c0.93,3.56-0.34,7.02-2.83,7.72c-2.49,0.7-5.27-1.62-6.2-5.19
							c-0.93-3.56,0.34-7.02,2.83-7.72C1222.45,716.51,1225.22,718.84,1226.15,722.4z"/>
						<path class="st40" d="M1224.57,722.84c0.6,2.32-0.22,4.56-1.84,5.02c-1.62,0.46-3.42-1.05-4.03-3.37
							c-0.6-2.32,0.22-4.56,1.84-5.02C1222.16,719.02,1223.96,720.53,1224.57,722.84z"/>
					</g>
					<g>
						<path class="st39" d="M1254.85,714.34c0.93,3.56-0.34,7.02-2.83,7.72c-2.49,0.7-5.27-1.63-6.19-5.19
							c-0.93-3.56,0.34-7.02,2.83-7.72C1251.15,708.45,1253.93,710.78,1254.85,714.34z"/>
						<path class="st40" d="M1253.28,714.79c0.6,2.32-0.22,4.56-1.84,5.02c-1.62,0.45-3.42-1.06-4.03-3.37
							c-0.6-2.32,0.22-4.56,1.84-5.02C1250.87,710.96,1252.67,712.47,1253.28,714.79z"/>
					</g>
					<path class="st41" d="M1228.34,498.4c-2.99,7.69-5.08,16.79-6.11,26.97c22.36-5.26,48.68-11.44,79.91-18.71
						c69.31-16.14,138.29-37.74,155.33-49.5c-1-12.71-0.83-43.63-0.1-51.63c-14.71,8.43-64.18,45.94-157.83,73.49
						C1276.77,485.72,1252.1,492.34,1228.34,498.4z"/>
					<g class="st35">
						<path d="M1519.64,376.2c-30.5,8.53-43.07,73.45-27.42,149.93c15.18,74.19,47.45,134.1,79.53,162.53
							c9.53,6.22,18.89,8.54,27.52,6.13c33.97-9.5,43.68-88.53,21.69-176.5C1598.96,430.31,1553.6,366.69,1519.64,376.2z"/>
					</g>
					<g>
						<path class="st42" d="M1490.91,520.37c4.72,21.95,10.69,42.74,17.57,61.95l48.46-17.71l-24.43-113.53l-51.09,5.47
							C1483.07,476.97,1486.19,498.42,1490.91,520.37z"/>
						<path class="st43" d="M1567.87,502.45c6.74,31.35,1.85,59.18-10.93,62.16c-12.78,2.98-28.62-20.02-35.36-51.38
							c-6.75-31.35-1.85-59.18,10.93-62.16C1545.29,448.1,1561.12,471.1,1567.87,502.45z"/>
						<path class="st25" d="M1558.22,504.7c4.63,21.52,2.56,40.31-4.62,41.99c-7.18,1.67-16.76-14.41-21.39-35.93
							c-4.63-21.52-2.56-40.31,4.62-41.99C1544.02,467.09,1553.59,483.18,1558.22,504.7z"/>
						<g class="st44">
							<path d="M1496.08,541.85c3.68,14.09,7.81,27.66,12.4,40.47l48.46-17.71c9.66-2.25,14.81-18.71,13.84-40.15L1496.08,541.85z"
								/>
						</g>
					</g>
				</g>
				<g>
					<polygon class="st30" points="1683.16,345.25 1716.64,278.73 1695.69,272.43 1751.6,207.82 1725.21,260.19 1745.65,266.15 
											"/>
					<polygon class="st30" points="1727.65,442.53 1839.06,373.25 1817.21,350.6 1920.83,317.44 1859.74,358.24 1881.15,380.13 
											"/>
					<polygon class="st30" points="1747.46,521.61 1854.23,514.91 1845.82,488.35 1936,513.73 1875.24,513.73 1883.59,539.74 					
						"/>
					<polygon class="st30" points="1759.92,635.09 1811.18,659.55 1812.07,639.94 1865.71,684.96 1825.34,665.68 1824.59,684.78 
											"/>
				</g>
			</g>
			<path class="st3" d="M1300.97,759.21c-19.69,19.9-28.91,41.85-20.58,49.01c8.33,7.16,31.04-3.17,50.73-23.08
				c19.69-19.91,28.91-41.85,20.58-49.01C1343.38,728.97,1320.66,739.3,1300.97,759.21z"/>
			<path class="st3" d="M1270.39,743.42c-16.89,20.74-23.28,42.22-14.26,47.96c9.02,5.74,30.03-6.42,46.92-27.17
				c16.89-20.74,23.28-42.22,14.26-47.96C1308.29,710.51,1287.28,722.67,1270.39,743.42z"/>
			<path class="st3" d="M1325.97,783.68c-19.69,15.82-30.26,35.1-23.6,43.05c6.66,7.95,28.03,1.57,47.72-14.25
				c19.7-15.82,30.26-35.1,23.6-43.05C1367.03,761.47,1345.67,767.85,1325.97,783.68z"/>
			<path class="st3" d="M1341.72,813.3c-19.12,12.54-30.69,29.5-25.84,37.88c4.85,8.38,24.28,5.01,43.4-7.52
				c19.12-12.54,30.69-29.5,25.84-37.88C1380.27,797.4,1360.84,800.76,1341.72,813.3z"/>
			<path class="st22" d="M1298.06,775.82c-0.57,12.31-15.45,32.54-40.14,31.22c-22.84-1.22-50.63-14.77-50.06-27.07
				c0.57-12.31,21.16-22.38,45.98-22.5C1278.66,757.35,1298.63,763.51,1298.06,775.82z"/>
			<path class="st3" d="M1291.45,777.77c-0.64,11.71-21.65,21.48-46.94,21.8c-25.29,0.33-45.27-8.9-44.63-20.62
				c0.64-11.71,21.65-21.48,46.94-21.8C1272.11,756.83,1292.09,766.06,1291.45,777.77z"/>
		</g>
	</g>
</g>
</svg>
