<?xml version="1.0" encoding="utf-8"?>
<!-- Generator: Adobe Illustrator 24.1.2, SVG Export Plug-In . SVG Version: 6.00 Build 0)  -->
<svg version="1.1" id="Capa_1" xmlns="http://www.w3.org/2000/svg" xmlns:xlink="http://www.w3.org/1999/xlink" x="0px" y="0px"
	 viewBox="0 0 2000 2000" style="enable-background:new 0 0 2000 2000;" xml:space="preserve">
<style type="text/css">
	.st0{fill:#4D4D4D;}
	.st1{fill:#666666;}
	.st2{fill:#333333;}
	.st3{opacity:0;fill:#FFFFFF;}
	.st4{opacity:0.0169;fill:#FBFBFB;}
	.st5{opacity:0.0339;fill:#F7F7F7;}
	.st6{opacity:0.0508;fill:#F3F3F3;}
	.st7{opacity:0.0678;fill:#EFEFEF;}
	.st8{opacity:0.0847;fill:#ECECEC;}
	.st9{opacity:0.1017;fill:#E8E8E8;}
	.st10{opacity:0.1186;fill:#E4E4E4;}
	.st11{opacity:0.1356;fill:#E0E0E0;}
	.st12{opacity:0.1525;fill:#DCDCDC;}
	.st13{opacity:0.1695;fill:#D8D8D8;}
	.st14{opacity:0.1864;fill:#D4D4D4;}
	.st15{opacity:0.2034;fill:#D0D0D0;}
	.st16{opacity:0.2203;fill:#CDCDCD;}
	.st17{opacity:0.2373;fill:#C9C9C9;}
	.st18{opacity:0.2542;fill:#C5C5C5;}
	.st19{opacity:0.2712;fill:#C1C1C1;}
	.st20{opacity:0.2881;fill:#BDBDBD;}
	.st21{opacity:0.3051;fill:#B9B9B9;}
	.st22{opacity:0.322;fill:#B5B5B5;}
	.st23{opacity:0.339;fill:#B1B1B1;}
	.st24{opacity:0.3559;fill:#ADADAD;}
	.st25{opacity:0.3729;fill:#AAAAAA;}
	.st26{opacity:0.3898;fill:#A6A6A6;}
	.st27{opacity:0.4068;fill:#A2A2A2;}
	.st28{opacity:0.4237;fill:#9E9E9E;}
	.st29{opacity:0.4407;fill:#9A9A9A;}
	.st30{opacity:0.4576;fill:#969696;}
	.st31{opacity:0.4746;fill:#929292;}
	.st32{opacity:0.4915;fill:#8E8E8E;}
	.st33{opacity:0.5085;fill:#8B8B8B;}
	.st34{opacity:0.5254;fill:#878787;}
	.st35{opacity:0.5424;fill:#838383;}
	.st36{opacity:0.5593;fill:#7F7F7F;}
	.st37{opacity:0.5763;fill:#7B7B7B;}
	.st38{opacity:0.5932;fill:#777777;}
	.st39{opacity:0.6102;fill:#737373;}
	.st40{opacity:0.6271;fill:#6F6F6F;}
	.st41{opacity:0.6441;fill:#6C6C6C;}
	.st42{opacity:0.661;fill:#686868;}
	.st43{opacity:0.678;fill:#646464;}
	.st44{opacity:0.6949;fill:#606060;}
	.st45{opacity:0.7119;fill:#5C5C5C;}
	.st46{opacity:0.7288;fill:#585858;}
	.st47{opacity:0.7458;fill:#545454;}
	.st48{opacity:0.7627;fill:#505050;}
	.st49{opacity:0.7797;fill:#4C4C4C;}
	.st50{opacity:0.7966;fill:#494949;}
	.st51{opacity:0.8136;fill:#454545;}
	.st52{opacity:0.8305;fill:#414141;}
	.st53{opacity:0.8475;fill:#3D3D3D;}
	.st54{opacity:0.8644;fill:#393939;}
	.st55{opacity:0.8814;fill:#353535;}
	.st56{opacity:0.8983;fill:#313131;}
	.st57{opacity:0.9153;fill:#2D2D2D;}
	.st58{opacity:0.9322;fill:#2A2A2A;}
	.st59{opacity:0.9492;fill:#262626;}
	.st60{opacity:0.9661;fill:#222222;}
	.st61{opacity:0.9831;fill:#1E1E1E;}
	.st62{fill:#1A1A1A;}
	.st63{opacity:0.0169;fill:#FCFCFC;}
	.st64{opacity:0.0339;fill:#F8F8F8;}
	.st65{opacity:0.0508;fill:#F5F5F5;}
	.st66{opacity:0.0678;fill:#F1F1F1;}
	.st67{opacity:0.0847;fill:#EEEEEE;}
	.st68{opacity:0.1017;fill:#EAEAEA;}
	.st69{opacity:0.1186;fill:#E7E7E7;}
	.st70{opacity:0.1356;fill:#E3E3E3;}
	.st71{opacity:0.1525;fill:#E0E0E0;}
	.st72{opacity:0.1695;fill:#DCDCDC;}
	.st73{opacity:0.1864;fill:#D9D9D9;}
	.st74{opacity:0.2034;fill:#D6D6D6;}
	.st75{opacity:0.2203;fill:#D2D2D2;}
	.st76{opacity:0.2373;fill:#CFCFCF;}
	.st77{opacity:0.2542;fill:#CBCBCB;}
	.st78{opacity:0.2712;fill:#C8C8C8;}
	.st79{opacity:0.2881;fill:#C4C4C4;}
	.st80{opacity:0.3051;fill:#C1C1C1;}
	.st81{opacity:0.322;fill:#BDBDBD;}
	.st82{opacity:0.339;fill:#BABABA;}
	.st83{opacity:0.3559;fill:#B6B6B6;}
	.st84{opacity:0.3729;fill:#B3B3B3;}
	.st85{opacity:0.3898;fill:#AFAFAF;}
	.st86{opacity:0.4068;fill:#ACACAC;}
	.st87{opacity:0.4237;fill:#A9A9A9;}
	.st88{opacity:0.4407;fill:#A5A5A5;}
	.st89{opacity:0.4576;fill:#A2A2A2;}
	.st90{opacity:0.4746;fill:#9E9E9E;}
	.st91{opacity:0.4915;fill:#9B9B9B;}
	.st92{opacity:0.5085;fill:#979797;}
	.st93{opacity:0.5254;fill:#949494;}
	.st94{opacity:0.5424;fill:#909090;}
	.st95{opacity:0.5593;fill:#8D8D8D;}
	.st96{opacity:0.5763;fill:#898989;}
	.st97{opacity:0.5932;fill:#868686;}
	.st98{opacity:0.6102;fill:#838383;}
	.st99{opacity:0.6271;fill:#7F7F7F;}
	.st100{opacity:0.6441;fill:#7C7C7C;}
	.st101{opacity:0.661;fill:#787878;}
	.st102{opacity:0.678;fill:#757575;}
	.st103{opacity:0.6949;fill:#717171;}
	.st104{opacity:0.7119;fill:#6E6E6E;}
	.st105{opacity:0.7288;fill:#6A6A6A;}
	.st106{opacity:0.7458;fill:#676767;}
	.st107{opacity:0.7627;fill:#636363;}
	.st108{opacity:0.7797;fill:#606060;}
	.st109{opacity:0.7966;fill:#5C5C5C;}
	.st110{opacity:0.8136;fill:#595959;}
	.st111{opacity:0.8305;fill:#565656;}
	.st112{opacity:0.8475;fill:#525252;}
	.st113{opacity:0.8644;fill:#4F4F4F;}
	.st114{opacity:0.8814;fill:#4B4B4B;}
	.st115{opacity:0.8983;fill:#484848;}
	.st116{opacity:0.9153;fill:#444444;}
	.st117{opacity:0.9322;fill:#414141;}
	.st118{opacity:0.9492;fill:#3D3D3D;}
	.st119{opacity:0.9661;fill:#3A3A3A;}
	.st120{opacity:0.9831;fill:#363636;}
	.st121{fill:url(#SVGID_1_);}
	.st122{fill:url(#SVGID_2_);}
</style>
<g>
	<g>
		<path class="st0" d="M629.19,329.06l-28.57-49.85l-22.91,13.13l28.59,49.88C613.84,337.7,621.47,333.32,629.19,329.06z"/>
		<path class="st1" d="M554.57,376l-33.53-46.46l-8.57,6.18l33.56,46.51C548.87,380.14,551.7,378.04,554.57,376z"/>
		<path class="st1" d="M694.1,297.16l-23.2-52.55l-9.67,4.27l23.18,52.52C687.63,299.95,690.87,298.56,694.1,297.16z"/>
		<path class="st1" d="M926.32,237.57l-5.88-57.68l-10.51,1.07l5.87,57.66C919.3,238.24,922.81,237.89,926.32,237.57z"/>
		<path class="st1" d="M769.27,269.11l-17.6-54.77l-10.06,3.23l17.61,54.8C762.57,271.28,765.91,270.17,769.27,269.11z"/>
		<path class="st1" d="M846.97,249.19l-11.82-56.5l-10.34,2.16l11.82,56.52C840.08,250.63,843.51,249.89,846.97,249.19z"/>
		<path class="st1" d="M383.33,544.03l-46.04-33.67l-6.24,8.53l46.05,33.68C379.17,549.71,381.24,546.86,383.33,544.03z"/>
		<path class="st1" d="M250.89,834.21l-55.46-11.97l-2.23,10.33l55.44,11.97C249.36,841.08,250.13,837.65,250.89,834.21z"/>
		<path class="st1" d="M237.74,913.43l-56.48-6.12l-1.14,10.5l56.47,6.12C236.94,920.42,237.35,916.92,237.74,913.43z"/>
		<path class="st1" d="M272.29,756.8l-53.86-17.69l-3.3,10.04l53.89,17.7C270.1,763.49,271.17,760.14,272.29,756.8z"/>
		<path class="st0" d="M342.98,604.11l-49.25-28.64l-13.28,22.83l49.28,28.66C334.03,619.26,338.43,611.63,342.98,604.11z"/>
		<path class="st0" d="M998.68,234.14c5.23,0,10.45,0.09,15.66,0.2l0.19-58.25L988.12,176l-0.19,58.28
			C991.51,234.23,995.09,234.14,998.68,234.14z"/>
		<path class="st1" d="M434.48,482.16l-42.37-38.39l-7.09,7.83l42.38,38.4C429.74,487.38,432.09,484.76,434.48,482.16z"/>
		<path class="st1" d="M301.76,682.1l-51.78-23.25l-4.33,9.63l51.81,23.27C298.88,688.52,300.3,685.3,301.76,682.1z"/>
		<path class="st1" d="M1242.69,273.85l18.21-55.43l-10.04-3.3l-18.22,55.46C1235.99,271.66,1239.35,272.73,1242.69,273.85z"/>
		<path class="st0" d="M1669.37,630.09l51.42-29.47l-13.13-22.91l-51.46,29.49C1660.72,614.74,1665.11,622.38,1669.37,630.09z"/>
		<path class="st1" d="M1572.64,493.02l44.08-39.44l-7.05-7.87l-44.05,39.41C1568,487.73,1570.31,490.38,1572.64,493.02z"/>
		<path class="st1" d="M1622.5,555.65l47.96-34.61l-6.18-8.57l-48.01,34.64C1618.36,549.96,1620.46,552.79,1622.5,555.65z"/>
		<path class="st1" d="M1701.24,694.81l54.15-23.9l-4.26-9.67l-54.13,23.89C1698.45,688.34,1699.83,691.58,1701.24,694.81z"/>
		<path class="st1" d="M1760.99,926.46l59.14-6.02l-1.07-10.51l-59.14,6.02C1760.29,919.45,1760.65,922.95,1760.99,926.46z"/>
		<path class="st1" d="M1749.27,847.29l58.04-12.14l-2.17-10.34l-58.08,12.15C1747.81,840.4,1748.57,843.83,1749.27,847.29z"/>
		<path class="st1" d="M1729.29,769.78l56.36-18.11l-3.23-10.06l-56.4,18.12C1727.13,763.08,1728.23,766.42,1729.29,769.78z"/>
		<path class="st1" d="M1317.19,303.35l23.97-53.37l-9.64-4.33l-23.97,53.39C1310.77,300.46,1313.99,301.89,1317.19,303.35z"/>
		<path class="st1" d="M1086.42,239.17l6.27-57.91l-10.5-1.14l-6.27,57.88C1079.43,238.35,1082.92,238.77,1086.42,239.17z"/>
		<path class="st0" d="M232.84,999.97c0-4.79,0.09-9.55,0.18-14.32l-56.94-0.18l-0.08,26.41l57,0.18
			C232.94,1008.04,232.84,1004.02,232.84,999.97z"/>
		<path class="st1" d="M1165.46,252.41l12.3-56.97l-10.33-2.23l-12.3,56.95C1158.59,250.88,1162.03,251.64,1165.46,252.41z"/>
		<path class="st1" d="M1516.58,435.86l39.65-43.75l-7.83-7.09l-39.65,43.76C1511.37,431.12,1513.99,433.48,1516.58,435.86z"/>
		<path class="st1" d="M1454.88,384.82l34.76-47.52l-8.53-6.24l-34.77,47.53C1449.2,380.65,1452.05,382.72,1454.88,384.82z"/>
		<path class="st0" d="M1394.99,344.53l29.55-50.8l-22.83-13.28l-29.56,50.83C1379.83,335.58,1387.46,339.98,1394.99,344.53z"/>
		<path class="st1" d="M491.77,425.97l-38.19-42.69l-7.87,7.04l38.17,42.66C486.48,430.61,489.14,428.3,491.77,425.97z"/>
		<path class="st1" d="M1444.5,1622.7l34.46,47.76l8.56-6.18l-34.5-47.8C1450.2,1618.57,1447.36,1620.65,1444.5,1622.7z"/>
		<path class="st0" d="M1370.15,1669.79l29.23,51.01l22.91-13.13l-29.28-51.09C1385.48,1661.11,1377.85,1665.51,1370.15,1669.79z"/>
		<path class="st1" d="M1507.03,1572.7l39.39,44.03l7.87-7.05l-39.39-44.03C1512.3,1568.03,1509.66,1570.36,1507.03,1572.7z"/>
		<path class="st1" d="M1305.45,1701.83l23.64,53.56l9.67-4.26l-23.64-53.57C1311.91,1699.02,1308.68,1700.42,1305.45,1701.83z"/>
		<path class="st1" d="M1564.06,1516.52l43.82,39.71l7.1-7.83l-43.87-39.75C1568.78,1511.28,1566.44,1513.92,1564.06,1516.52z"/>
		<path class="st1" d="M1152.92,1750.27l11.93,57.04l10.34-2.17l-11.95-57.12C1159.8,1748.78,1156.37,1749.56,1152.92,1750.27z"/>
		<path class="st1" d="M1230.47,1730.06l17.87,55.59l10.06-3.23l-17.88-55.62C1237.18,1727.91,1233.83,1729,1230.47,1730.06z"/>
		<path class="st1" d="M1614.92,1454.69l47.78,34.95l6.24-8.53l-47.79-34.96C1619.09,1449.01,1617.01,1451.86,1614.92,1454.69z"/>
		<path class="st1" d="M1746.58,1165.24l57.99,12.52l2.23-10.33l-57.97-12.52C1748.11,1158.38,1747.33,1161.81,1746.58,1165.24z"/>
		<path class="st1" d="M1759.65,1086.29l59.09,6.4l1.13-10.5l-59.09-6.4C1760.44,1079.3,1760.04,1082.79,1759.65,1086.29z"/>
		<path class="st0" d="M1764.36,987.93c0.06,4.01,0.15,8.02,0.15,12.05c0,4.8-0.09,9.58-0.18,14.36l59.58,0.19l0.08-26.41
			L1764.36,987.93z"/>
		<path class="st1" d="M1696.04,1316.92l53.99,24.24l4.33-9.63l-54.04-24.27C1698.9,1310.48,1697.49,1313.71,1696.04,1316.92z"/>
		<path class="st0" d="M1655.03,1394.73l51.24,29.8l13.28-22.83l-51.3-29.84C1663.97,1379.57,1659.57,1387.2,1655.03,1394.73z"/>
		<path class="st1" d="M1725.31,1242.41l56.26,18.48l3.3-10.04l-56.3-18.49C1727.5,1235.72,1726.42,1239.07,1725.31,1242.41z"/>
		<path class="st1" d="M1073.65,1762.15l5.9,57.96l10.51-1.07l-5.91-58.01C1080.66,1761.42,1077.17,1761.81,1073.65,1762.15z"/>
		<path class="st1" d="M236.4,1073.8l-56.52,5.76l1.07,10.51l56.53-5.76C237.1,1080.81,236.74,1077.31,236.4,1073.8z"/>
		<path class="st1" d="M375.79,1445.58l-46.26,33.38l6.18,8.56l46.3-33.41C379.93,1451.28,377.85,1448.44,375.79,1445.58z"/>
		<path class="st0" d="M328.65,1371.05l-49.44,28.33l13.13,22.91l49.51-28.37C337.31,1386.38,332.92,1378.75,328.65,1371.05z"/>
		<path class="st1" d="M425.91,1508.28l-42.64,38.15l7.04,7.87l42.64-38.14C430.58,1513.55,428.25,1510.91,425.91,1508.28z"/>
		<path class="st1" d="M268.34,1230.98l-53.99,17.35l3.23,10.06l54.02-17.36C270.49,1237.69,269.4,1234.34,268.34,1230.98z"/>
		<path class="st1" d="M248.2,1153.24l-55.51,11.61l2.16,10.34l55.56-11.62C249.67,1160.12,248.9,1156.69,248.2,1153.24z"/>
		<path class="st1" d="M296.57,1306.16l-51.96,22.93l4.27,9.67l51.95-22.93C299.37,1312.63,297.98,1309.39,296.57,1306.16z"/>
		<path class="st1" d="M482.23,1565.45l-38.46,42.44l7.83,7.1l38.5-42.49C487.47,1570.16,484.83,1567.82,482.23,1565.45z"/>
		<path class="st0" d="M604.36,1656.59l-28.9,49.68l22.83,13.28l28.94-49.75C619.53,1665.51,611.9,1661.12,604.36,1656.59z"/>
		<path class="st1" d="M834.43,1748.09l-12.19,56.47l10.33,2.23l12.19-56.46C841.3,1749.62,837.87,1748.84,834.43,1748.09z"/>
		<path class="st1" d="M757.07,1726.88l-17.97,54.7l10.04,3.3l17.98-54.73C763.76,1729.07,760.41,1727.99,757.07,1726.88z"/>
		<path class="st1" d="M544.22,1616.4l-33.86,46.3l8.53,6.24l33.87-46.31C549.9,1620.58,547.06,1618.49,544.22,1616.4z"/>
		<path class="st1" d="M913.56,1761.08l-6.25,57.66l10.5,1.13l6.25-57.69C920.55,1761.84,917.05,1761.46,913.56,1761.08z"/>
		<path class="st0" d="M998.68,1765.81c-4.35,0-8.68-0.09-13.02-0.16l-0.19,58.27l26.41,0.08l0.19-58.36
			C1007.61,1765.72,1003.16,1765.81,998.68,1765.81z"/>
		<path class="st1" d="M682.37,1697.63l-23.53,52.4l9.64,4.32l23.56-52.46C688.81,1700.48,685.58,1699.08,682.37,1697.63z"/>
	</g>
	<g>
		<path class="st2" d="M1356.25,504.26h-23.91v-90.13c-8.74,8.17-19.03,14.21-30.89,18.13v-21.7c6.24-2.04,13.02-5.91,20.34-11.62
			c7.32-5.7,12.34-12.35,15.06-19.96h19.4V504.26z"/>
		<path class="st2" d="M1595.13,717.61v22.21h-83.83c0.91-8.4,3.63-16.35,8.17-23.87c4.53-7.52,13.5-17.49,26.9-29.92
			c10.77-10.04,17.38-16.85,19.83-20.42c3.29-4.94,4.93-9.82,4.93-14.64c0-5.33-1.43-9.43-4.29-12.3c-2.87-2.87-6.83-4.3-11.87-4.3
			c-4.99,0-8.96,1.5-11.91,4.51c-2.95,3.01-4.65,8-5.11,14.98l-23.83-2.38c1.42-13.16,5.87-22.61,13.36-28.34
			c7.49-5.73,16.86-8.6,28.09-8.6c12.31,0,21.98,3.32,29.02,9.96c7.04,6.64,10.55,14.89,10.55,24.76c0,5.62-1.01,10.97-3.02,16.04
			c-2.01,5.08-5.21,10.4-9.57,15.96c-2.9,3.69-8.12,8.99-15.66,15.91c-7.55,6.92-12.33,11.52-14.34,13.79
			c-2.02,2.27-3.65,4.48-4.9,6.64H1595.13z"/>
		<path class="st2" d="M1600.77,1028.44l23.15-2.81c0.74,5.9,2.72,10.41,5.96,13.53c3.23,3.12,7.15,4.68,11.74,4.68
			c4.94,0,9.09-1.87,12.47-5.62c3.37-3.74,5.06-8.79,5.06-15.15c0-6.01-1.62-10.78-4.85-14.3c-3.23-3.52-7.18-5.28-11.83-5.28
			c-3.06,0-6.73,0.6-10.98,1.79l2.64-19.49c6.47,0.17,11.41-1.23,14.81-4.21c3.4-2.98,5.11-6.93,5.11-11.87
			c0-4.2-1.25-7.55-3.74-10.04c-2.5-2.5-5.82-3.74-9.96-3.74c-4.08,0-7.58,1.42-10.47,4.25c-2.9,2.84-4.66,6.98-5.28,12.43
			l-22.04-3.74c1.53-7.55,3.84-13.57,6.94-18.09c3.09-4.51,7.4-8.05,12.94-10.64c5.53-2.58,11.73-3.87,18.59-3.87
			c11.74,0,21.16,3.74,28.25,11.23c5.84,6.13,8.76,13.05,8.76,20.77c0,10.95-5.98,19.69-17.95,26.21
			c7.15,1.53,12.86,4.96,17.15,10.3c4.28,5.33,6.43,11.77,6.43,19.32c0,10.95-4,20.28-12,28c-8,7.72-17.95,11.57-29.87,11.57
			c-11.3,0-20.66-3.25-28.09-9.75C1606.28,1047.44,1601.97,1038.94,1600.77,1028.44z"/>
		<path class="st2" d="M1561.49,1392.12v-25.11h-51.06v-20.94l54.13-79.23h20.09V1346h15.49v21.02h-15.49v25.11H1561.49z
			 M1561.49,1346v-42.64L1532.8,1346H1561.49z"/>
		<path class="st2" d="M1285.3,1588.7l23.83-2.47c0.68,5.39,2.69,9.66,6.04,12.81c3.35,3.15,7.21,4.72,11.57,4.72
			c4.99,0,9.22-2.03,12.68-6.09c3.46-4.05,5.19-10.17,5.19-18.34c0-7.66-1.72-13.4-5.15-17.23c-3.44-3.83-7.9-5.74-13.4-5.74
			c-6.87,0-13.02,3.04-18.47,9.11l-19.4-2.81l12.25-64.93h63.23v22.38h-45.1l-3.74,21.19c5.33-2.67,10.78-4,16.34-4
			c10.61,0,19.6,3.86,26.98,11.57c7.37,7.72,11.06,17.73,11.06,30.04c0,10.27-2.98,19.43-8.93,27.49
			c-8.11,11.01-19.38,16.51-33.78,16.51c-11.52,0-20.91-3.09-28.17-9.28C1291.06,1607.46,1286.71,1599.14,1285.3,1588.7z"/>
		<path class="st2" d="M1038.04,1624.82l-23.15,2.55c-0.57-4.77-2.04-8.28-4.43-10.55c-2.38-2.27-5.48-3.4-9.28-3.4
			c-5.05,0-9.32,2.27-12.81,6.81c-3.49,4.54-5.69,13.99-6.6,28.34c5.96-7.04,13.36-10.55,22.21-10.55c9.98,0,18.54,3.8,25.65,11.4
			c7.12,7.6,10.68,17.42,10.68,29.45c0,12.77-3.74,23.01-11.23,30.72c-7.49,7.72-17.11,11.57-28.85,11.57
			c-12.59,0-22.95-4.89-31.07-14.68c-8.11-9.78-12.17-25.83-12.17-48.13c0-22.86,4.22-39.35,12.68-49.45
			c8.45-10.1,19.43-15.15,32.94-15.15c9.47,0,17.32,2.65,23.53,7.96C1032.38,1607.02,1036.34,1614.72,1038.04,1624.82z
			 M983.83,1676.99c0,7.77,1.79,13.77,5.36,18c3.58,4.23,7.66,6.34,12.26,6.34c4.43,0,8.11-1.73,11.07-5.19
			c2.95-3.46,4.42-9.13,4.42-17.02c0-8.11-1.59-14.05-4.77-17.83c-3.18-3.77-7.15-5.66-11.91-5.66c-4.6,0-8.48,1.8-11.66,5.4
			C985.42,1664.64,983.83,1669.95,983.83,1676.99z"/>
		<path class="st2" d="M635.55,1521v-22.21h81.78v17.36c-6.75,6.64-13.62,16.17-20.59,28.59c-6.98,12.43-12.3,25.63-15.96,39.62
			c-3.66,13.99-5.46,26.48-5.4,37.49h-23.07c0.4-17.25,3.96-34.84,10.68-52.77c6.72-17.93,15.7-33.96,26.93-48.08H635.55z"/>
		<path class="st2" d="M421.14,1323.7c-6.18-2.61-10.68-6.2-13.49-10.77c-2.81-4.56-4.21-9.57-4.21-15.02
			c0-9.3,3.25-16.99,9.74-23.06c6.5-6.07,15.73-9.11,27.7-9.11c11.86,0,21.06,3.04,27.62,9.11c6.56,6.07,9.83,13.76,9.83,23.06
			c0,5.79-1.51,10.93-4.51,15.45c-3.01,4.51-7.24,7.96-12.68,10.34c6.92,2.78,12.18,6.84,15.79,12.17
			c3.6,5.33,5.41,11.49,5.41,18.47c0,11.52-3.68,20.88-11.02,28.08c-7.35,7.21-17.12,10.81-29.32,10.81
			c-11.35,0-20.79-2.98-28.34-8.94c-8.91-7.04-13.36-16.68-13.36-28.94c0-6.75,1.67-12.95,5.02-18.6
			C408.65,1331.12,413.93,1326.76,421.14,1323.7z M423.86,1353.06c0,6.58,1.69,11.72,5.07,15.4c3.37,3.69,7.59,5.53,12.64,5.53
			c4.94,0,9.02-1.77,12.26-5.32c3.23-3.55,4.85-8.67,4.85-15.36c0-5.84-1.65-10.54-4.93-14.08c-3.3-3.55-7.46-5.32-12.51-5.32
			c-5.84,0-10.2,2.01-13.06,6.04C425.29,1343.98,423.86,1348.35,423.86,1353.06z M426.07,1299.61c0,4.77,1.35,8.48,4.04,11.15
			c2.69,2.67,6.28,4,10.76,4c4.54,0,8.17-1.35,10.89-4.04c2.72-2.69,4.08-6.42,4.08-11.19c0-4.48-1.35-8.07-4.04-10.77
			c-2.69-2.69-6.25-4.04-10.68-4.04c-4.6,0-8.26,1.36-10.98,4.09S426.07,1295.13,426.07,1299.61z"/>
		<path class="st2" d="M314.1,1032.65l23.15-2.55c0.57,4.71,2.04,8.2,4.43,10.47c2.38,2.27,5.53,3.4,9.45,3.4
			c4.94,0,9.13-2.27,12.6-6.81c3.46-4.54,5.67-13.96,6.64-28.25c-6.01,6.98-13.53,10.47-22.56,10.47c-9.82,0-18.28-3.79-25.4-11.36
			c-7.12-7.58-10.68-17.43-10.68-29.58c0-12.65,3.76-22.85,11.28-30.6c7.52-7.74,17.09-11.62,28.72-11.62
			c12.65,0,23.03,4.89,31.14,14.68c8.11,9.79,12.17,25.89,12.17,48.3c0,22.81-4.23,39.26-12.68,49.36
			c-8.46,10.1-19.47,15.15-33.02,15.15c-9.76,0-17.65-2.59-23.66-7.79C319.66,1050.74,315.8,1042.98,314.1,1032.65z M368.23,980.4
			c0-7.72-1.77-13.7-5.32-17.96c-3.54-4.25-7.64-6.38-12.3-6.38c-4.43,0-8.1,1.75-11.02,5.23c-2.92,3.49-4.38,9.21-4.38,17.15
			c0,8.06,1.59,13.97,4.77,17.74c3.18,3.78,7.15,5.66,11.91,5.66c4.6,0,8.47-1.82,11.62-5.45
			C366.65,992.77,368.23,987.44,368.23,980.4z"/>
		<g>
			<path class="st2" d="M419.79,738.76h-23.92v-90.13c-8.74,8.17-19.03,14.21-30.89,18.13v-21.7c6.24-2.04,13.02-5.91,20.34-11.62
				c7.32-5.7,12.34-12.35,15.07-19.96h19.4V738.76z"/>
			<path class="st2" d="M485.39,613.48c12.08,0,21.53,4.31,28.34,12.94c8.11,10.21,12.17,27.15,12.17,50.81
				c0,23.6-4.08,40.57-12.25,50.89c-6.75,8.51-16.17,12.77-28.25,12.77c-12.14,0-21.93-4.67-29.36-14
				c-7.43-9.33-11.15-25.97-11.15-49.91c0-23.49,4.08-40.4,12.26-50.72C463.89,617.74,473.31,613.48,485.39,613.48z M485.39,633.31
				c-2.89,0-5.48,0.92-7.74,2.77c-2.27,1.84-4.03,5.15-5.28,9.91c-1.65,6.18-2.47,16.6-2.47,31.23c0,14.64,0.74,24.7,2.21,30.17
				c1.48,5.48,3.33,9.12,5.58,10.93c2.24,1.82,4.81,2.72,7.7,2.72c2.89,0,5.47-0.92,7.74-2.76c2.27-1.84,4.03-5.15,5.28-9.92
				c1.64-6.13,2.47-16.51,2.47-31.15c0-14.64-0.74-24.69-2.21-30.17c-1.47-5.47-3.33-9.13-5.58-10.98
				C490.85,634.24,488.29,633.31,485.39,633.31z"/>
		</g>
		<g>
			<path class="st2" d="M651.52,504.26H627.6v-90.13c-8.74,8.17-19.03,14.21-30.89,18.13v-21.7c6.24-2.04,13.02-5.91,20.34-11.62
				c7.32-5.7,12.34-12.35,15.07-19.96h19.4V504.26z"/>
			<path class="st2" d="M728.27,504.26h-23.92v-90.13c-8.74,8.17-19.03,14.21-30.89,18.13v-21.7c6.24-2.04,13.02-5.91,20.34-11.62
				c7.32-5.7,12.34-12.35,15.07-19.96h19.4V504.26z"/>
		</g>
		<g>
			<path class="st2" d="M973.11,414.47h-23.92v-90.13c-8.74,8.17-19.03,14.21-30.89,18.13v-21.7c6.24-2.04,13.02-5.91,20.34-11.62
				c7.32-5.7,12.34-12.35,15.07-19.96h19.4V414.47z"/>
			<path class="st2" d="M1079.06,392.26v22.21h-83.83c0.9-8.4,3.63-16.35,8.17-23.87c4.53-7.52,13.5-17.49,26.89-29.92
				c10.78-10.04,17.39-16.85,19.83-20.42c3.29-4.94,4.94-9.82,4.94-14.64c0-5.33-1.43-9.43-4.3-12.3c-2.87-2.87-6.82-4.3-11.87-4.3
				c-4.99,0-8.96,1.5-11.91,4.51c-2.95,3.01-4.65,8-5.11,14.98l-23.83-2.38c1.42-13.16,5.87-22.61,13.36-28.34
				c7.49-5.73,16.86-8.6,28.09-8.6c12.31,0,21.98,3.32,29.02,9.96c7.04,6.64,10.55,14.89,10.55,24.76c0,5.62-1.01,10.97-3.02,16.04
				c-2.01,5.08-5.2,10.4-9.57,15.96c-2.89,3.69-8.11,8.99-15.66,15.91c-7.55,6.92-12.33,11.52-14.34,13.79
				c-2.02,2.27-3.65,4.48-4.89,6.64H1079.06z"/>
		</g>
	</g>
</g>
<g>
	<g>
		<path class="st3" d="M1039.21,1011.58c-3.86,9.19-10.4,16.82-18.9,22.05l-370.8,228.05c-10.81,6.65-23.57,8.69-35.93,5.75
			c-12.35-2.94-22.81-10.52-29.47-21.34c-8.01-13.03-9.26-29.23-3.33-43.34c3.86-9.19,10.4-16.82,18.92-22.05l370.79-228.05
			c22.33-13.73,51.67-6.74,65.4,15.59C1043.9,981.27,1045.14,997.47,1039.21,1011.58z"/>
		<path class="st4" d="M1038.8,1011.41c-3.83,9.11-10.3,16.66-18.73,21.84l-370.8,228.05c-10.71,6.59-23.35,8.61-35.59,5.69
			c-12.23-2.91-22.6-10.42-29.19-21.14c-7.94-12.9-9.17-28.95-3.3-42.93c3.83-9.11,10.31-16.66,18.74-21.84l370.79-228.05
			c22.12-13.6,51.18-6.68,64.78,15.44C1043.44,981.38,1044.67,997.43,1038.8,1011.41z"/>
		<path class="st5" d="M1038.38,1011.24c-3.79,9.02-10.2,16.5-18.55,21.63l-370.8,228.05c-10.61,6.53-23.13,8.53-35.25,5.64
			c-12.12-2.89-22.39-10.32-28.91-20.93c-7.86-12.78-9.08-28.68-3.26-42.52c3.79-9.02,10.21-16.5,18.56-21.64l370.79-228.05
			c21.91-13.47,50.7-6.61,64.16,15.29C1042.98,981.49,1044.2,997.39,1038.38,1011.24z"/>
		<path class="st6" d="M1037.97,1011.06c-3.75,8.93-10.11,16.34-18.37,21.43l-370.8,228.05c-10.51,6.46-22.91,8.45-34.91,5.59
			c-12-2.86-22.17-10.22-28.63-20.73c-7.79-12.66-9-28.4-3.23-42.12c3.75-8.93,10.11-16.34,18.38-21.43L971.19,953.8
			c21.7-13.34,50.21-6.55,63.55,15.15C1042.53,981.6,1043.73,997.35,1037.97,1011.06z"/>
		<path class="st7" d="M1037.56,1010.89c-3.72,8.85-10.01,16.18-18.19,21.22l-370.8,228.05c-10.41,6.4-22.69,8.37-34.57,5.53
			c-11.89-2.83-21.96-10.12-28.36-20.53c-7.71-12.53-8.91-28.13-3.2-41.71c3.72-8.85,10.01-16.18,18.2-21.22l370.79-228.05
			c21.49-13.21,49.72-6.49,62.93,15C1042.07,981.71,1043.27,997.31,1037.56,1010.89z"/>
		<path class="st8" d="M1037.15,1010.72c-3.68,8.76-9.91,16.02-18.01,21.01l-370.8,228.05c-10.3,6.34-22.46,8.29-34.23,5.48
			c-11.77-2.8-21.74-10.02-28.08-20.33c-7.64-12.41-8.82-27.85-3.17-41.3c3.68-8.76,9.91-16.03,18.02-21.01l370.79-228.05
			c21.28-13.08,49.24-6.42,62.32,14.85C1041.61,981.83,1042.8,997.27,1037.15,1010.72z"/>
		<path class="st9" d="M1036.73,1010.54c-3.64,8.67-9.81,15.87-17.84,20.8L648.1,1259.4c-10.2,6.28-22.24,8.2-33.9,5.42
			c-11.65-2.78-21.53-9.93-27.8-20.13c-7.56-12.29-8.73-27.58-3.14-40.89c3.64-8.67,9.82-15.87,17.85-20.8L971.9,954.95
			c21.07-12.95,48.75-6.36,61.7,14.71C1041.16,981.94,1042.33,997.23,1036.73,1010.54z"/>
		<path class="st10" d="M1036.32,1010.37c-3.61,8.59-9.71,15.71-17.66,20.6l-370.8,228.05c-10.1,6.21-22.02,8.12-33.56,5.37
			c-11.54-2.75-21.31-9.83-27.52-19.93c-7.49-12.17-8.65-27.3-3.11-40.49c3.61-8.59,9.72-15.71,17.67-20.6l370.79-228.05
			c20.86-12.82,48.26-6.3,61.08,14.56C1040.7,982.05,1041.86,997.19,1036.32,1010.37z"/>
		<path class="st11" d="M1035.91,1010.2c-3.57,8.5-9.62,15.55-17.48,20.39l-370.8,228.05c-10,6.15-21.8,8.04-33.22,5.32
			c-11.42-2.72-21.1-9.73-27.25-19.73c-7.41-12.04-8.56-27.03-3.08-40.08c3.57-8.5,9.62-15.55,17.49-20.39l370.79-228.05
			c20.65-12.7,47.78-6.23,60.47,14.41C1040.24,982.16,1041.39,997.15,1035.91,1010.2z"/>
		<path class="st12" d="M1035.5,1010.02c-3.53,8.41-9.52,15.39-17.3,20.18l-370.8,228.05c-9.9,6.09-21.58,7.96-32.88,5.26
			c-11.3-2.69-20.88-9.63-26.97-19.53c-7.33-11.92-8.47-26.75-3.05-39.67c3.53-8.41,9.52-15.39,17.31-20.18L972.6,956.09
			c20.44-12.57,47.29-6.17,59.85,14.26C1039.79,982.27,1040.92,997.11,1035.5,1010.02z"/>
		<path class="st13" d="M1035.08,1009.85c-3.5,8.32-9.42,15.23-17.12,19.97l-370.8,228.05c-9.8,6.02-21.35,7.88-32.54,5.21
			c-11.19-2.67-20.67-9.53-26.69-19.33c-7.26-11.8-8.39-26.48-3.01-39.26c3.5-8.33,9.42-15.23,17.13-19.97l370.79-228.05
			c20.23-12.44,46.8-6.11,59.24,14.12C1039.33,982.39,1040.45,997.06,1035.08,1009.85z"/>
		<path class="st14" d="M1034.67,1009.68c-3.46,8.24-9.32,15.07-16.94,19.76l-370.8,228.05c-9.69,5.96-21.13,7.79-32.2,5.15
			c-11.07-2.64-20.45-9.43-26.41-19.13c-7.18-11.68-8.3-26.2-2.98-38.85c3.46-8.24,9.32-15.07,16.95-19.76l370.79-228.05
			c20.02-12.31,46.32-6.04,58.62,13.97C1038.87,982.5,1039.99,997.02,1034.67,1009.68z"/>
		<path class="st15" d="M1034.26,1009.5c-3.42,8.15-9.22,14.91-16.77,19.56l-370.8,228.05c-9.59,5.9-20.91,7.71-31.87,5.1
			c-10.95-2.61-20.24-9.33-26.14-18.93c-7.11-11.55-8.21-25.93-2.95-38.45c3.43-8.15,9.23-14.91,16.78-19.56L973.3,957.23
			c19.81-12.18,45.83-5.98,58.01,13.82C1038.42,982.61,1039.52,996.98,1034.26,1009.5z"/>
		<path class="st16" d="M1033.85,1009.33c-3.39,8.06-9.13,14.76-16.59,19.35l-370.8,228.05c-9.49,5.84-20.69,7.63-31.53,5.04
			c-10.84-2.58-20.02-9.23-25.86-18.72c-7.03-11.43-8.12-25.65-2.92-38.04c3.39-8.07,9.13-14.76,16.6-19.35l370.79-228.05
			c19.6-12.05,45.34-5.92,57.39,13.68C1037.96,982.72,1039.05,996.94,1033.85,1009.33z"/>
		<path class="st17" d="M1033.43,1009.16c-3.35,7.98-9.03,14.6-16.41,19.14l-370.8,228.05c-9.39,5.77-20.47,7.55-31.19,4.99
			c-10.72-2.55-19.81-9.13-25.58-18.52c-6.96-11.31-8.04-25.38-2.89-37.63c3.35-7.98,9.03-14.6,16.42-19.14L973.77,958
			c19.39-11.92,44.86-5.85,56.77,13.53C1037.5,982.83,1038.58,996.9,1033.43,1009.16z"/>
		<path class="st18" d="M1033.02,1008.98c-3.32,7.89-8.93,14.44-16.23,18.93l-370.8,228.05c-9.29,5.71-20.24,7.47-30.85,4.94
			c-10.61-2.53-19.59-9.03-25.3-18.32c-6.88-11.19-7.95-25.1-2.86-37.22c3.32-7.89,8.93-14.44,16.24-18.93l370.79-228.05
			c19.18-11.79,44.37-5.79,56.16,13.38C1037.05,982.94,1038.11,996.86,1033.02,1008.98z"/>
		<path class="st19" d="M1032.61,1008.81c-3.28,7.8-8.83,14.28-16.05,18.73l-370.8,228.05c-9.18,5.65-20.02,7.38-30.51,4.88
			c-10.49-2.5-19.38-8.93-25.03-18.12c-6.81-11.06-7.86-24.83-2.83-36.82c3.28-7.81,8.83-14.28,16.06-18.72l370.79-228.05
			c18.97-11.66,43.89-5.72,55.54,13.24C1036.59,983.06,1037.64,996.82,1032.61,1008.81z"/>
		<path class="st20" d="M1032.19,1008.64c-3.24,7.72-8.73,14.12-15.88,18.52l-370.8,228.05c-9.08,5.59-19.8,7.3-30.17,4.83
			c-10.37-2.47-19.16-8.84-24.75-17.92c-6.73-10.94-7.78-24.55-2.79-36.41c3.24-7.72,8.74-14.12,15.88-18.52l370.79-228.05
			c18.76-11.53,43.4-5.66,54.93,13.09C1036.13,983.17,1037.18,996.78,1032.19,1008.64z"/>
		<path class="st21" d="M1031.78,1008.46c-3.21,7.63-8.64,13.96-15.7,18.31l-370.8,228.05c-8.98,5.52-19.58,7.22-29.84,4.77
			c-10.26-2.44-18.95-8.74-24.47-17.72c-6.66-10.82-7.69-24.28-2.76-36c3.21-7.63,8.64-13.96,15.71-18.31l370.79-228.05
			c18.55-11.4,42.91-5.6,54.31,12.94C1035.68,983.28,1036.71,996.74,1031.78,1008.46z"/>
		<path class="st22" d="M1031.37,1008.29c-3.17,7.54-8.54,13.81-15.52,18.1l-370.8,228.05c-8.88,5.46-19.36,7.14-29.5,4.72
			c-10.14-2.42-18.73-8.64-24.19-17.52c-6.58-10.7-7.6-24-2.73-35.59c3.17-7.55,8.54-13.8,15.53-18.1L974.94,959.9
			c18.34-11.27,42.43-5.53,53.7,12.8C1035.22,983.39,1036.24,996.7,1031.37,1008.29z"/>
		<path class="st23" d="M1030.96,1008.12c-3.13,7.46-8.44,13.65-15.34,17.89l-370.8,228.05c-8.78,5.4-19.13,7.06-29.16,4.67
			c-10.02-2.39-18.52-8.54-23.92-17.32c-6.5-10.57-7.51-23.72-2.7-35.18c3.13-7.46,8.44-13.65,15.35-17.89l370.79-228.05
			c18.13-11.14,41.94-5.47,53.08,12.65C1034.76,983.5,1035.77,996.66,1030.96,1008.12z"/>
		<path class="st24" d="M1030.54,1007.94c-3.1,7.37-8.34,13.49-15.16,17.69l-370.8,228.05c-8.68,5.34-18.91,6.97-28.82,4.61
			c-9.91-2.36-18.3-8.44-23.64-17.12c-6.43-10.45-7.43-23.45-2.67-34.78c3.1-7.37,8.34-13.49,15.17-17.68l370.79-228.05
			c17.92-11.01,41.45-5.41,52.46,12.5C1034.3,983.62,1035.3,996.62,1030.54,1007.94z"/>
		<path class="st25" d="M1030.13,1007.77c-3.06,7.28-8.24,13.33-14.99,17.48l-370.8,228.05c-8.57,5.27-18.69,6.89-28.48,4.56
			c-9.79-2.33-18.09-8.34-23.36-16.92c-6.35-10.33-7.34-23.17-2.64-34.37c3.06-7.29,8.25-13.33,14.99-17.48l370.79-228.05
			c17.71-10.89,40.97-5.34,51.85,12.36C1033.85,983.73,1034.83,996.58,1030.13,1007.77z"/>
		<path class="st26" d="M1029.72,1007.6c-3.02,7.2-8.15,13.17-14.81,17.27l-370.8,228.05c-8.47,5.21-18.47,6.81-28.15,4.5
			c-9.68-2.31-17.87-8.24-23.08-16.71c-6.28-10.2-7.25-22.9-2.61-33.96c3.02-7.2,8.15-13.17,14.82-17.27l370.79-228.05
			c17.49-10.76,40.48-5.28,51.23,12.21C1033.39,983.84,1034.37,996.54,1029.72,1007.6z"/>
		<path class="st27" d="M1029.31,1007.42c-2.99,7.11-8.05,13.01-14.63,17.06l-370.8,228.05c-8.37,5.15-18.25,6.73-27.81,4.45
			c-9.56-2.28-17.66-8.14-22.81-16.51c-6.2-10.08-7.17-22.62-2.57-33.55c2.99-7.11,8.05-13.01,14.64-17.06l370.79-228.05
			c17.28-10.63,39.99-5.22,50.62,12.06C1032.93,983.95,1033.9,996.5,1029.31,1007.42z"/>
		<path class="st28" d="M1028.89,1007.25c-2.95,7.02-7.95,12.85-14.45,16.86l-370.8,228.05c-8.27,5.09-18.02,6.65-27.47,4.4
			c-9.44-2.25-17.44-8.04-22.53-16.31c-6.13-9.96-7.08-22.35-2.54-33.14c2.95-7.03,7.95-12.85,14.46-16.85l370.79-228.05
			c17.07-10.5,39.51-5.15,50,11.92C1032.48,984.06,1033.43,996.46,1028.89,1007.25z"/>
		<path class="st29" d="M1028.48,1007.08c-2.91,6.94-7.85,12.7-14.27,16.65l-370.8,228.05c-8.17,5.02-17.8,6.56-27.13,4.34
			c-9.33-2.22-17.23-7.94-22.25-16.11c-6.05-9.84-6.99-22.07-2.51-32.74c2.91-6.94,7.85-12.69,14.28-16.65l370.79-228.05
			c16.86-10.37,39.02-5.09,49.38,11.77C1032.02,984.18,1032.96,996.41,1028.48,1007.08z"/>
		<path class="st30" d="M1028.07,1006.9c-2.88,6.85-7.75,12.54-14.1,16.44l-370.8,228.05c-8.06,4.96-17.58,6.48-26.79,4.29
			c-9.21-2.19-17.01-7.84-21.97-15.91c-5.98-9.71-6.9-21.8-2.48-32.33c2.88-6.85,7.76-12.53,14.1-16.44l370.79-228.05
			c16.65-10.24,38.53-5.03,48.77,11.62C1031.56,984.29,1032.49,996.37,1028.07,1006.9z"/>
		<path class="st31" d="M1027.66,1006.73c-2.84,6.76-7.66,12.38-13.92,16.23l-370.8,228.05c-7.96,4.9-17.36,6.4-26.45,4.23
			c-9.09-2.17-16.8-7.75-21.7-15.71c-5.9-9.59-6.82-21.52-2.45-31.92c2.84-6.76,7.66-12.38,13.92-16.23l370.79-228.05
			c16.44-10.11,38.05-4.96,48.15,11.48C1031.11,984.4,1032.02,996.33,1027.66,1006.73z"/>
		<path class="st32" d="M1027.24,1006.56c-2.81,6.68-7.56,12.22-13.74,16.02l-370.8,228.05c-7.86,4.83-17.14,6.32-26.12,4.18
			c-8.98-2.14-16.58-7.65-21.42-15.51c-5.83-9.47-6.73-21.25-2.42-31.51c2.81-6.68,7.56-12.22,13.75-16.02l370.79-228.05
			c16.23-9.98,37.56-4.9,47.54,11.33C1030.65,984.51,1031.55,996.29,1027.24,1006.56z"/>
		<path class="st33" d="M1026.83,1006.38c-2.77,6.59-7.46,12.06-13.56,15.82l-370.8,228.05c-7.76,4.77-16.91,6.24-25.78,4.12
			c-8.86-2.11-16.37-7.55-21.14-15.31c-5.75-9.35-6.64-20.97-2.39-31.11c2.77-6.59,7.46-12.06,13.57-15.81L977.52,964.1
			c16.02-9.85,37.07-4.84,46.92,11.18C1030.19,984.62,1031.09,996.25,1026.83,1006.38z"/>
		<path class="st34" d="M1026.42,1006.21c-2.73,6.5-7.36,11.9-13.38,15.61l-370.8,228.05c-7.66,4.71-16.69,6.16-25.44,4.07
			c-8.75-2.08-16.16-7.45-20.86-15.11c-5.67-9.22-6.56-20.7-2.35-30.7c2.73-6.5,7.36-11.9,13.39-15.61l370.79-228.05
			c15.81-9.72,36.59-4.77,46.31,11.03C1029.74,984.73,1030.62,996.21,1026.42,1006.21z"/>
		<path class="st35" d="M1026,1006.04c-2.7,6.42-7.26,11.74-13.21,15.4L642,1249.49c-7.55,4.65-16.47,6.07-25.1,4.02
			c-8.63-2.06-15.94-7.35-20.59-14.91c-5.6-9.1-6.47-20.42-2.32-30.29c2.7-6.42,7.27-11.74,13.21-15.4l370.79-228.05
			c15.6-9.59,36.1-4.71,45.69,10.89C1029.28,984.85,1030.15,996.17,1026,1006.04z"/>
		<path class="st36" d="M1025.59,1005.86c-2.66,6.33-7.17,11.59-13.03,15.19l-370.8,228.05c-7.45,4.58-16.25,5.99-24.76,3.96
			c-8.51-2.03-15.73-7.25-20.31-14.71c-5.52-8.98-6.38-20.15-2.29-29.88c2.66-6.33,7.17-11.58,13.03-15.19l370.79-228.05
			c15.39-9.46,35.61-4.65,45.07,10.74C1028.82,984.96,1029.68,996.13,1025.59,1005.86z"/>
		<path class="st37" d="M1025.18,1005.69c-2.62,6.24-7.07,11.43-12.85,14.99l-370.8,228.05c-7.35,4.52-16.03,5.91-24.42,3.91
			c-8.4-2-15.51-7.15-20.03-14.5c-5.45-8.86-6.29-19.87-2.26-29.47c2.62-6.24,7.07-11.42,12.85-14.98l370.79-228.05
			c15.18-9.33,35.13-4.58,44.46,10.59C1028.37,985.07,1029.21,996.09,1025.18,1005.69z"/>
		<path class="st38" d="M1024.77,1005.52c-2.59,6.16-6.97,11.27-12.67,14.78l-370.8,228.05c-7.25,4.46-15.8,5.83-24.09,3.85
			c-8.28-1.97-15.3-7.05-19.75-14.3c-5.37-8.73-6.21-19.6-2.23-29.07c2.59-6.16,6.97-11.27,12.68-14.77L978.7,966
			c14.97-9.2,34.64-4.52,43.84,10.45C1027.91,985.18,1028.74,996.05,1024.77,1005.52z"/>
		<path class="st39" d="M1024.35,1005.34c-2.55,6.07-6.87,11.11-12.49,14.57l-370.8,228.05c-7.15,4.4-15.58,5.75-23.75,3.8
			c-8.16-1.95-15.08-6.95-19.48-14.1c-5.3-8.61-6.12-19.32-2.2-28.66c2.55-6.07,6.87-11.11,12.5-14.57l370.79-228.05
			c14.76-9.08,34.16-4.46,43.23,10.3C1027.45,985.29,1028.28,996.01,1024.35,1005.34z"/>
		<path class="st40" d="M1023.94,1005.17c-2.51,5.98-6.77,10.95-12.32,14.36l-370.8,228.05c-7.05,4.33-15.36,5.66-23.41,3.75
			c-8.05-1.92-14.87-6.85-19.2-13.9c-5.22-8.49-6.03-19.05-2.17-28.25c2.51-5.98,6.78-10.95,12.32-14.36l370.79-228.05
			c14.55-8.95,33.67-4.39,42.61,10.15C1027,985.41,1027.81,995.97,1023.94,1005.17z"/>
		<path class="st41" d="M1023.53,1005c-2.48,5.9-6.68,10.79-12.14,14.16l-370.8,228.05c-6.94,4.27-15.14,5.58-23.07,3.69
			c-7.93-1.89-14.65-6.75-18.92-13.7c-5.15-8.37-5.95-18.77-2.13-27.84c2.48-5.9,6.68-10.79,12.14-14.15L979.4,967.15
			c14.34-8.82,33.18-4.33,42,10.01C1026.54,985.52,1027.34,995.93,1023.53,1005z"/>
		<path class="st42" d="M1023.12,1004.82c-2.44,5.81-6.58,10.63-11.96,13.95l-370.8,228.05c-6.84,4.21-14.92,5.5-22.73,3.64
			c-7.82-1.86-14.44-6.66-18.64-13.5c-5.07-8.24-5.86-18.5-2.1-27.44c2.44-5.81,6.58-10.63,11.96-13.94l370.79-228.05
			c14.13-8.69,32.7-4.26,41.38,9.86C1026.08,985.63,1026.87,995.89,1023.12,1004.82z"/>
		<path class="st43" d="M1022.7,1004.65c-2.4,5.72-6.48,10.48-11.78,13.74l-370.8,228.05c-6.74,4.15-14.69,5.42-22.39,3.58
			c-7.7-1.83-14.22-6.56-18.37-13.3c-5-8.12-5.77-18.22-2.07-27.03c2.4-5.72,6.48-10.47,11.79-13.73l370.79-228.05
			c13.92-8.56,32.21-4.2,40.76,9.71C1025.63,985.74,1026.4,995.85,1022.7,1004.65z"/>
		<path class="st44" d="M1022.29,1004.48c-2.37,5.64-6.38,10.32-11.6,13.53l-370.8,228.05c-6.64,4.08-14.47,5.34-22.06,3.53
			c-7.58-1.81-14.01-6.46-18.09-13.1c-4.92-8-5.68-17.95-2.04-26.62c2.37-5.64,6.38-10.31,11.61-13.53L980.1,968.29
			c13.71-8.43,31.72-4.14,40.15,9.57C1025.17,985.85,1025.93,995.81,1022.29,1004.48z"/>
		<path class="st45" d="M1021.88,1004.3c-2.33,5.55-6.28,10.16-11.43,13.32l-370.8,228.05c-6.54,4.02-14.25,5.25-21.72,3.47
			c-7.47-1.78-13.79-6.36-17.81-12.9c-4.84-7.88-5.6-17.67-2.01-26.21c2.33-5.55,6.29-10.16,11.43-13.32l370.79-228.05
			c13.5-8.3,31.24-4.07,39.53,9.42C1024.71,985.96,1025.47,995.76,1021.88,1004.3z"/>
		<path class="st46" d="M1021.47,1004.13c-2.3,5.46-6.19,10-11.25,13.12l-370.8,228.05c-6.43,3.96-14.03,5.17-21.38,3.42
			c-7.35-1.75-13.58-6.26-17.53-12.7c-4.77-7.75-5.51-17.4-1.98-25.8c2.3-5.46,6.19-10,11.25-13.11l370.79-228.05
			c13.29-8.17,30.75-4.01,38.92,9.27C1024.26,986.08,1025,995.72,1021.47,1004.13z"/>
		<path class="st47" d="M1021.05,1003.96c-2.26,5.38-6.09,9.84-11.07,12.91l-370.8,228.05c-6.33,3.89-13.81,5.09-21.04,3.37
			c-7.23-1.72-13.36-6.16-17.26-12.5c-4.69-7.63-5.42-17.12-1.95-25.4c2.26-5.38,6.09-9.84,11.07-12.9l370.79-228.05
			c13.08-8.04,30.26-3.95,38.3,9.13C1023.8,986.19,1024.53,995.68,1021.05,1003.96z"/>
		<path class="st48" d="M1020.64,1003.78c-2.22,5.29-5.99,9.68-10.89,12.7l-370.8,228.05c-6.23,3.83-13.58,5.01-20.7,3.31
			c-7.12-1.7-13.15-6.06-16.98-12.29c-4.62-7.51-5.34-16.85-1.92-24.99c2.22-5.29,5.99-9.68,10.89-12.69l370.79-228.05
			c12.87-7.91,29.78-3.88,37.68,8.98C1023.34,986.3,1024.06,995.64,1020.64,1003.78z"/>
		<path class="st49" d="M1020.23,1003.61c-2.19,5.2-5.89,9.53-10.71,12.49l-370.8,228.05c-6.13,3.77-13.36,4.93-20.36,3.26
			c-7-1.67-12.93-5.96-16.7-12.09c-4.54-7.38-5.25-16.57-1.88-24.58c2.19-5.2,5.89-9.52,10.72-12.49L981.28,970.2
			c12.66-7.78,29.29-3.82,37.07,8.83C1022.89,986.41,1023.59,995.6,1020.23,1003.61z"/>
		<path class="st50" d="M1019.81,1003.44c-2.15,5.12-5.79,9.37-10.54,12.29l-370.8,228.05c-6.03,3.71-13.14,4.84-20.03,3.2
			c-6.89-1.64-12.72-5.86-16.42-11.89c-4.47-7.26-5.16-16.3-1.85-24.17c2.15-5.12,5.8-9.36,10.54-12.28l370.79-228.05
			c12.45-7.65,28.8-3.76,36.45,8.69C1022.43,986.52,1023.12,995.56,1019.81,1003.44z"/>
		<path class="st51" d="M1019.4,1003.26c-2.11,5.03-5.7,9.21-10.36,12.08l-370.8,228.05c-5.93,3.64-12.92,4.76-19.69,3.15
			c-6.77-1.61-12.5-5.76-16.15-11.69c-4.39-7.14-5.07-16.02-1.82-23.76c2.11-5.03,5.7-9.2,10.36-12.07l370.79-228.05
			c12.24-7.52,28.32-3.69,35.84,8.54C1021.97,986.64,1022.65,995.52,1019.4,1003.26z"/>
		<path class="st52" d="M1018.99,1003.09c-2.08,4.94-5.6,9.05-10.18,11.87l-370.8,228.05c-5.82,3.58-12.7,4.68-19.35,3.1
			c-6.65-1.58-12.29-5.67-15.87-11.49c-4.32-7.02-4.99-15.75-1.79-23.36c2.08-4.94,5.6-9.04,10.18-11.86l370.79-228.05
			c12.03-7.39,27.83-3.63,35.22,8.39C1021.52,986.75,1022.19,995.48,1018.99,1003.09z"/>
		<path class="st53" d="M1018.58,1002.92c-2.04,4.86-5.5,8.89-10,11.66l-370.8,228.05c-5.72,3.52-12.47,4.6-19.01,3.04
			c-6.54-1.56-12.07-5.57-15.59-11.29c-4.24-6.89-4.9-15.47-1.76-22.95c2.04-4.86,5.5-8.89,10-11.65l370.79-228.05
			c11.82-7.26,27.34-3.57,34.61,8.25C1021.06,986.86,1021.72,995.44,1018.58,1002.92z"/>
		<path class="st54" d="M1018.16,1002.74c-2,4.77-5.4,8.73-9.82,11.45l-370.8,228.05c-5.62,3.46-12.25,4.52-18.67,2.99
			c-6.42-1.53-11.86-5.47-15.31-11.09c-4.17-6.77-4.81-15.2-1.73-22.54c2-4.77,5.4-8.73,9.82-11.45L982.45,972.1
			c11.61-7.14,26.86-3.5,33.99,8.1C1020.6,986.97,1021.25,995.4,1018.16,1002.74z"/>
		<path class="st55" d="M1017.75,1002.57c-1.97,4.68-5.3,8.57-9.65,11.25l-370.8,228.05c-5.52,3.39-12.03,4.44-18.33,2.93
			c-6.3-1.5-11.64-5.37-15.04-10.89c-4.09-6.65-4.73-14.92-1.7-22.13c1.97-4.68,5.31-8.57,9.65-11.24l370.79-228.05
			c11.4-7.01,26.37-3.44,33.37,7.95C1020.15,987.08,1020.78,995.36,1017.75,1002.57z"/>
		<path class="st56" d="M1017.34,1002.4c-1.93,4.6-5.21,8.42-9.47,11.04l-370.8,228.05c-5.42,3.33-11.81,4.35-18,2.88
			c-6.19-1.47-11.43-5.27-14.76-10.69c-4.01-6.53-4.64-14.65-1.66-21.73c1.93-4.6,5.21-8.41,9.47-11.03l370.79-228.05
			c11.19-6.88,25.88-3.38,32.76,7.8C1019.69,987.19,1020.31,995.32,1017.34,1002.4z"/>
		<path class="st57" d="M1016.93,1002.22c-1.89,4.51-5.11,8.26-9.29,10.83l-370.8,228.05c-5.31,3.27-11.59,4.27-17.66,2.82
			c-6.07-1.45-11.21-5.17-14.48-10.49c-3.94-6.4-4.55-14.37-1.63-21.32c1.89-4.51,5.11-8.25,9.29-10.82l370.79-228.05
			c10.98-6.75,25.4-3.31,32.14,7.66C1019.23,987.31,1019.84,995.28,1016.93,1002.22z"/>
		<path class="st58" d="M1016.51,1002.05c-1.86,4.42-5.01,8.1-9.11,10.62l-370.8,228.05c-5.21,3.21-11.36,4.19-17.32,2.77
			c-5.95-1.42-11-5.07-14.2-10.29c-3.86-6.28-4.46-14.1-1.6-20.91c1.86-4.42,5.01-8.09,9.11-10.62l370.79-228.05
			c10.77-6.62,24.91-3.25,31.53,7.51C1018.78,987.42,1019.38,995.24,1016.51,1002.05z"/>
		<path class="st59" d="M1016.1,1001.88c-1.82,4.34-4.91,7.94-8.93,10.42l-370.8,228.05c-5.11,3.14-11.14,4.11-16.98,2.72
			c-5.84-1.39-10.78-4.97-13.93-10.08c-3.79-6.16-4.38-13.82-1.57-20.5c1.82-4.34,4.91-7.93,8.93-10.41l370.79-228.05
			c10.56-6.49,24.42-3.19,30.91,7.36C1018.32,987.53,1018.91,995.2,1016.1,1001.88z"/>
		<path class="st60" d="M1015.69,1001.7c-1.79,4.25-4.81,7.78-8.75,10.21l-370.8,228.05c-5.01,3.08-10.92,4.03-16.64,2.66
			c-5.72-1.36-10.57-4.87-13.65-9.88c-3.71-6.04-4.29-13.55-1.54-20.09c1.78-4.25,4.82-7.78,8.75-10.2l370.79-228.05
			c10.35-6.36,23.94-3.12,30.3,7.22C1017.86,987.64,1018.44,995.16,1015.69,1001.7z"/>
		<path class="st61" d="M1015.28,1001.53c-1.75,4.16-4.72,7.62-8.58,10l-370.8,228.05c-4.91,3.02-10.7,3.94-16.3,2.61
			c-5.61-1.34-10.35-4.77-13.37-9.68c-3.64-5.91-4.2-13.27-1.51-19.69c1.75-4.16,4.72-7.62,8.58-9.99l370.79-228.05
			c10.14-6.23,23.45-3.06,29.68,7.07C1017.41,987.75,1017.97,995.11,1015.28,1001.53z"/>
		<path class="st62" d="M1014.86,1001.36c-1.71,4.08-4.62,7.46-8.4,9.79l-370.8,228.05c-4.81,2.96-10.48,3.86-15.97,2.55
			c-5.49-1.31-10.14-4.67-13.09-9.48c-3.56-5.79-4.12-13-1.48-19.28c1.71-4.08,4.62-7.46,8.4-9.78l370.79-228.05
			c9.93-6.1,22.97-3,29.06,6.92C1016.95,987.87,1017.5,995.07,1014.86,1001.36z"/>
	</g>
	<g>
		<path class="st2" d="M1024.6,1005.45c-2.48,5.89-6.75,11.09-12.6,14.69l-370.8,228.05c-14.91,9.17-34.43,4.52-43.59-10.39
			c-9.17-14.91-4.51-34.43,10.39-43.59l370.79-228.05c14.91-9.17,34.43-4.52,43.6,10.39
			C1027.96,985.6,1028.43,996.35,1024.6,1005.45z"/>
	</g>
</g>
<g>
	<g>
		<path class="st3" d="M1032.21,1172.02c-6.56,11.49-18.85,18.63-32.07,18.65c-20.39,0.02-36.99-16.54-37.02-36.93l-0.78-669.51
			c0-6.45,1.67-12.8,4.86-18.37c6.56-11.49,18.86-18.63,32.08-18.64c9.87-0.02,19.16,3.81,26.15,10.79
			c6.99,6.97,10.85,16.26,10.86,26.13l0.77,669.52C1037.07,1160.09,1035.4,1166.44,1032.21,1172.02z"/>
		<path class="st63" d="M967.59,466.08c6.48-11.35,18.63-18.41,31.69-18.42c9.75-0.02,18.93,3.77,25.83,10.66
			c2.1,2.09,3.9,4.4,5.39,6.87c3.47,5.65,5.33,12.48,5.34,19.27l0.77,668.98c0.01,4.42-0.8,9.03-2.36,13.15
			c-0.67,1.8-1.48,3.54-2.44,5.21c-6.48,11.35-18.62,18.41-31.68,18.42c-20.09,0.02-36.46-16.28-36.51-36.36
			c-0.03-0.03-0.06-8.26-0.06-8.31l-0.77-661.1c0-4.51,0.83-9.2,2.44-13.38C965.89,469.36,966.67,467.68,967.59,466.08z"/>
		<path class="st64" d="M967.98,466.3c6.4-11.21,18.4-18.18,31.3-18.19c9.63-0.02,18.69,3.72,25.52,10.53
			c2.1,2.09,3.89,4.4,5.35,6.88c3.41,5.55,5.24,12.6,5.25,19.27l0.77,668.44c0.01,4.35-0.78,9.09-2.31,13.14
			c-0.66,1.8-1.46,3.54-2.42,5.21c-6.4,11.21-18.4,18.18-31.3,18.2c-19.8,0.02-35.93-16.02-36.01-35.78
			c-0.07-0.07-0.11-8.2-0.11-8.29l-0.77-661.01c0-4.43,0.82-9.28,2.4-13.38C966.28,469.58,967.06,467.91,967.98,466.3z"/>
		<path class="st65" d="M968.37,466.52c6.32-11.07,18.17-17.96,30.91-17.96c9.51-0.02,18.46,3.68,25.2,10.4
			c2.09,2.09,3.87,4.41,5.31,6.89c3.35,5.45,5.15,12.71,5.16,19.27l0.77,667.89c0.01,4.27-0.77,9.16-2.27,13.13
			c-0.64,1.8-1.45,3.54-2.4,5.21c-6.32,11.07-18.17,17.96-30.91,17.97c-19.5,0.02-35.39-15.76-35.51-35.21
			c-0.1-0.1-0.17-8.14-0.17-8.28l-0.77-660.92c0-4.36,0.8-9.35,2.36-13.38C966.68,469.8,967.45,468.13,968.37,466.52z"/>
		<path class="st66" d="M968.76,466.74c6.24-10.93,17.94-17.73,30.53-17.74c9.39-0.02,18.23,3.63,24.88,10.27
			c2.09,2.09,3.86,4.41,5.27,6.9c3.29,5.35,5.06,12.83,5.06,19.27l0.77,667.35c0.01,4.2-0.76,9.22-2.23,13.13
			c-0.63,1.8-1.43,3.55-2.38,5.21c-6.24,10.93-17.94,17.73-30.52,17.75c-19.2,0.02-34.86-15.5-35.01-34.64
			c-0.14-0.14-0.22-8.07-0.22-8.27l-0.77-660.84c0-4.28,0.79-9.43,2.32-13.39C967.07,470.03,967.84,468.35,968.76,466.74z"/>
		<path class="st67" d="M969.15,466.97c6.16-10.79,17.71-17.51,30.14-17.51c9.27-0.02,18,3.58,24.57,10.14
			c2.09,2.09,3.85,4.42,5.23,6.91c3.23,5.26,4.96,12.95,4.97,19.27l0.77,666.81c0.01,4.12-0.74,9.29-2.19,13.12
			c-0.62,1.8-1.41,3.55-2.36,5.21c-6.16,10.79-17.71,17.51-30.13,17.52c-18.9,0.02-34.32-15.24-34.51-34.06
			c-0.17-0.17-0.27-8.01-0.27-8.25l-0.77-660.75c0-4.2,0.77-9.5,2.27-13.39C967.46,470.25,968.23,468.57,969.15,466.97z"/>
		<path class="st68" d="M969.53,467.19c6.09-10.65,17.49-17.28,29.75-17.29c9.15-0.02,17.77,3.54,24.25,10.01
			c2.09,2.08,3.83,4.42,5.19,6.92c3.17,5.16,4.87,13.06,4.88,19.27l0.77,666.26c0.01,4.04-0.73,9.35-2.15,13.11
			c-0.61,1.8-1.39,3.55-2.35,5.21c-6.08,10.65-17.48,17.28-29.74,17.3c-18.6,0.02-33.79-14.97-34.01-33.49
			c-0.2-0.2-0.32-7.95-0.32-8.24l-0.77-660.66c0-4.12,0.76-9.58,2.23-13.39C967.86,470.47,968.62,468.79,969.53,467.19z"/>
		<path class="st69" d="M969.92,467.41c6.01-10.52,17.26-17.05,29.36-17.06c9.03-0.02,17.54,3.49,23.93,9.88
			c2.09,2.08,3.82,4.43,5.15,6.93c3.11,5.06,4.78,13.18,4.79,19.27l0.77,665.72c0.01,3.97-0.71,9.42-2.11,13.11
			c-0.6,1.8-1.38,3.55-2.33,5.21c-6.01,10.51-17.25,17.05-29.36,17.07c-18.31,0.02-33.25-14.71-33.51-32.92
			c-0.24-0.24-0.38-7.89-0.38-8.22l-0.77-660.57c0-4.04,0.74-9.65,2.19-13.39C968.25,470.7,969.01,469.02,969.92,467.41z"/>
		<path class="st70" d="M970.31,467.63c5.93-10.38,17.03-16.83,28.97-16.84c8.91-0.02,17.3,3.45,23.62,9.74
			c2.08,2.08,3.8,4.43,5.11,6.94c3.05,4.96,4.69,13.3,4.7,19.27l0.77,665.18c0.01,3.89-0.7,9.48-2.07,13.1
			c-0.59,1.8-1.36,3.55-2.31,5.21c-5.93,10.37-17.03,16.83-28.97,16.85c-18.01,0.02-32.72-14.45-33.01-32.34
			c-0.27-0.27-0.43-7.82-0.43-8.21l-0.77-660.48c0-3.97,0.73-9.73,2.15-13.4C968.65,470.92,969.39,469.24,970.31,467.63z"/>
		<path class="st71" d="M970.7,467.85c5.85-10.24,16.8-16.6,28.58-16.61c8.79-0.02,17.07,3.4,23.3,9.61
			c2.08,2.08,3.79,4.43,5.07,6.95c2.99,4.87,4.6,13.41,4.61,19.27l0.77,664.64c0.01,3.81-0.69,9.55-2.03,13.09
			c-0.58,1.8-1.34,3.56-2.29,5.21c-5.85,10.24-16.8,16.6-28.58,16.62c-17.71,0.02-32.19-14.19-32.51-31.77
			c-0.3-0.3-0.48-7.76-0.48-8.19l-0.77-660.39c0-3.89,0.72-9.8,2.1-13.4C969.04,471.14,969.78,469.46,970.7,467.85z"/>
		<path class="st72" d="M971.09,468.08c5.77-10.1,16.57-16.38,28.2-16.38c8.67-0.02,16.84,3.35,22.99,9.48
			c2.08,2.08,3.78,4.44,5.03,6.96c2.93,4.77,4.51,13.53,4.51,19.27l0.77,664.09c0.01,3.74-0.67,9.61-1.99,13.09
			c-0.56,1.8-1.33,3.56-2.27,5.22c-5.77,10.1-16.57,16.38-28.19,16.39c-17.41,0.02-31.65-13.93-32.01-31.19
			c-0.34-0.34-0.53-7.7-0.53-8.18l-0.77-660.31c0-3.81,0.7-9.88,2.06-13.4C969.43,471.37,970.17,469.68,971.09,468.08z"/>
		<path class="st73" d="M971.48,468.3c5.69-9.96,16.35-16.15,27.81-16.16c8.56-0.02,16.61,3.31,22.67,9.35
			c2.08,2.08,3.76,4.44,5,6.97c2.87,4.67,4.41,13.65,4.42,19.27l0.76,663.55c0.01,3.66-0.66,9.67-1.95,13.08
			c-0.55,1.8-1.31,3.56-2.25,5.22c-5.69,9.96-16.34,16.15-27.8,16.17c-17.12,0.02-31.12-13.66-31.51-30.62
			c-0.37-0.37-0.59-7.64-0.59-8.16l-0.77-660.22c0-3.73,0.69-9.95,2.02-13.41C969.83,471.59,970.56,469.9,971.48,468.3z"/>
		<path class="st74" d="M971.87,468.52c5.61-9.82,16.12-15.93,27.42-15.93c8.44-0.02,16.38,3.26,22.35,9.22
			c2.08,2.07,3.75,4.45,4.96,6.98c2.81,4.57,4.32,13.77,4.33,19.27l0.76,663.01c0.01,3.58-0.64,9.74-1.91,13.07
			c-0.54,1.81-1.29,3.56-2.24,5.22c-5.61,9.82-16.11,15.93-27.42,15.94c-16.82,0.02-30.58-13.4-31.01-30.05
			c-0.41-0.41-0.64-7.58-0.64-8.15l-0.77-660.13c0-3.66,0.67-10.03,1.98-13.41C970.22,471.82,970.95,470.13,971.87,468.52z"/>
		<path class="st75" d="M972.26,468.74c5.53-9.68,15.89-15.7,27.03-15.71c8.32-0.02,16.14,3.21,22.04,9.09
			c2.08,2.07,3.73,4.45,4.92,6.99c2.75,4.48,4.23,13.88,4.24,19.27l0.76,662.46c0.01,3.51-0.63,9.8-1.87,13.07
			c-0.53,1.81-1.27,3.56-2.22,5.22c-5.53,9.68-15.89,15.7-27.03,15.72c-16.52,0.02-30.05-13.14-30.51-29.47
			c-0.44-0.44-0.69-7.51-0.69-8.13l-0.77-660.04c0-3.58,0.66-10.1,1.93-13.41C970.62,472.04,971.34,470.35,972.26,468.74z"/>
		<path class="st76" d="M972.64,468.96c5.45-9.54,15.66-15.48,26.64-15.48c8.2-0.02,15.91,3.17,21.72,8.96
			c2.07,2.07,3.72,4.46,4.88,7c2.69,4.38,4.14,14,4.15,19.27l0.76,661.92c0.01,3.43-0.62,9.87-1.82,13.06
			c-0.52,1.81-1.26,3.57-2.2,5.22c-5.45,9.54-15.66,15.48-26.64,15.49c-16.22,0.02-29.51-12.88-30.01-28.9
			c-0.47-0.47-0.74-7.45-0.74-8.12l-0.77-659.95c0-3.5,0.64-10.18,1.89-13.41C971.01,472.26,971.73,470.57,972.64,468.96z"/>
		<path class="st77" d="M973.03,469.19c5.37-9.4,15.43-15.25,26.25-15.26c8.08-0.02,15.68,3.12,21.4,8.83
			c2.07,2.07,3.71,4.46,4.84,7.01c2.63,4.28,4.05,14.12,4.06,19.27l0.76,661.38c0.01,3.36-0.6,9.93-1.78,13.05
			c-0.51,1.81-1.24,3.57-2.18,5.22c-5.37,9.4-15.43,15.25-26.25,15.27c-15.92,0.02-28.98-12.62-29.5-28.33
			c-0.51-0.51-0.79-7.39-0.8-8.11l-0.77-659.86c0-3.42,0.63-10.25,1.85-13.42C971.41,472.49,972.11,470.79,973.03,469.19z"/>
		<path class="st78" d="M973.42,469.41c5.29-9.26,15.2-15.03,25.87-15.03c7.96-0.01,15.45,3.08,21.09,8.7
			c2.07,2.07,3.69,4.46,4.8,7.02c2.57,4.19,3.96,14.23,3.96,19.27l0.76,660.83c0.01,3.28-0.59,10-1.74,13.05
			c-0.49,1.81-1.22,3.57-2.16,5.22c-5.29,9.26-15.2,15.03-25.86,15.04c-15.63,0.02-28.45-12.35-29-27.75
			c-0.54-0.54-0.85-7.33-0.85-8.09l-0.77-659.78c0-3.34,0.61-10.33,1.81-13.42C971.8,472.71,972.5,471.01,973.42,469.41z"/>
		<path class="st79" d="M973.81,469.63c5.21-9.13,14.98-14.8,25.48-14.81c7.84-0.01,15.22,3.03,20.77,8.57
			c2.07,2.07,3.68,4.47,4.76,7.03c2.51,4.09,3.87,14.35,3.87,19.27l0.76,660.29c0.01,3.2-0.57,10.06-1.7,13.04
			c-0.48,1.81-1.2,3.57-2.14,5.22c-5.21,9.12-14.97,14.8-25.48,14.82c-15.33,0.02-27.91-12.09-28.5-27.18
			c-0.58-0.57-0.9-7.26-0.9-8.08l-0.77-659.69c0-3.27,0.6-10.4,1.76-13.42C972.19,472.93,972.89,471.24,973.81,469.63z"/>
		<path class="st80" d="M974.2,469.85c5.13-8.99,14.75-14.57,25.09-14.58c7.72-0.01,14.99,2.98,20.45,8.44
			c2.07,2.06,3.67,4.47,4.72,7.05c2.45,3.99,3.77,14.47,3.78,19.27l0.76,659.75c0,3.13-0.56,10.13-1.66,13.04
			c-0.47,1.81-1.19,3.57-2.13,5.22c-5.13,8.99-14.75,14.58-25.09,14.59c-15.03,0.02-27.38-11.83-28-26.61
			c-0.61-0.61-0.95-7.2-0.95-8.06l-0.77-659.6c0-3.19,0.58-10.47,1.72-13.43C972.59,473.16,973.28,471.46,974.2,469.85z"/>
		<path class="st81" d="M974.59,470.07c5.05-8.85,14.52-14.35,24.7-14.35c7.6-0.01,14.75,2.94,20.14,8.31
			c2.07,2.06,3.65,4.48,4.68,7.06c2.39,3.89,3.68,14.58,3.69,19.27l0.76,659.21c0,3.05-0.55,10.19-1.62,13.03
			c-0.46,1.81-1.17,3.58-2.11,5.22c-5.05,8.85-14.52,14.35-24.7,14.36c-14.73,0.02-26.84-11.57-27.5-26.03
			c-0.64-0.64-1-7.14-1.01-8.05l-0.77-659.51c0-3.11,0.57-10.55,1.68-13.43C972.98,473.38,973.67,471.68,974.59,470.07z"/>
		<path class="st82" d="M974.98,470.3c4.97-8.71,14.29-14.12,24.31-14.13c7.48-0.01,14.52,2.89,19.82,8.18
			c2.06,2.06,3.64,4.48,4.64,7.07c2.33,3.8,3.59,14.7,3.6,19.27l0.76,658.66c0,2.97-0.53,10.25-1.58,13.02
			c-0.45,1.81-1.15,3.58-2.09,5.22c-4.97,8.71-14.29,14.12-24.31,14.14c-14.43,0.02-26.31-11.31-27-25.46
			c-0.68-0.68-1.06-7.08-1.06-8.03l-0.77-659.42c0-3.03,0.55-10.62,1.64-13.43C973.38,473.6,974.06,471.9,974.98,470.3z"/>
		<path class="st83" d="M975.36,470.52c4.89-8.57,14.06-13.9,23.92-13.9c7.36-0.01,14.29,2.84,19.5,8.05
			c2.06,2.06,3.62,4.48,4.6,7.08c2.27,3.7,3.5,14.82,3.51,19.27l0.76,658.12c0,2.9-0.52,10.32-1.54,13.02
			c-0.44,1.81-1.13,3.58-2.07,5.22c-4.89,8.57-14.06,13.9-23.92,13.91c-14.14,0.02-25.78-11.05-26.5-24.88
			c-0.71-0.71-1.11-7.01-1.11-8.02l-0.77-659.33c0-2.96,0.54-10.7,1.6-13.43C973.77,473.83,974.45,472.12,975.36,470.52z"/>
		<path class="st84" d="M975.75,470.74c4.82-8.43,13.83-13.67,23.54-13.68c7.24-0.01,14.06,2.8,19.19,7.91
			c2.06,2.06,3.61,4.49,4.56,7.09c2.21,3.6,3.41,14.93,3.41,19.27l0.76,657.58c0,2.82-0.5,10.38-1.5,13.01
			c-0.43,1.81-1.12,3.58-2.05,5.22c-4.81,8.43-13.83,13.67-23.53,13.69c-13.84,0.01-25.24-10.78-26-24.31
			c-0.74-0.74-1.16-6.95-1.16-8l-0.77-659.25c0-2.88,0.53-10.77,1.55-13.44C974.17,474.05,974.84,472.35,975.75,470.74z"/>
		<path class="st85" d="M976.14,470.96c4.74-8.29,13.61-13.45,23.15-13.45c7.12-0.01,13.83,2.75,18.87,7.78
			c2.06,2.06,3.6,4.49,4.52,7.1c2.15,3.5,3.32,15.05,3.32,19.27l0.76,657.03c0,2.75-0.49,10.45-1.46,13
			c-0.41,1.81-1.1,3.58-2.03,5.22c-4.74,8.29-13.61,13.45-23.15,13.46c-13.54,0.01-24.71-10.52-25.5-23.74
			c-0.78-0.78-1.21-6.89-1.22-7.99l-0.77-659.16c0-2.8,0.51-10.85,1.51-13.44C974.56,474.27,975.22,472.57,976.14,470.96z"/>
		<path class="st86" d="M976.53,471.18c4.66-8.15,13.38-13.22,22.76-13.23c7.01-0.01,13.6,2.71,18.56,7.65
			c2.06,2.05,3.58,4.5,4.48,7.11c2.09,3.41,3.23,15.17,3.23,19.27l0.76,656.49c0,2.67-0.48,10.51-1.42,13
			c-0.4,1.82-1.08,3.59-2.02,5.22c-4.66,8.15-13.38,13.22-22.76,13.24c-13.24,0.01-24.17-10.26-25-23.16
			c-0.81-0.81-1.27-6.83-1.27-7.97l-0.77-659.07c0-2.72,0.5-10.92,1.47-13.44C974.95,474.5,975.61,472.79,976.53,471.18z"/>
		<path class="st87" d="M976.92,471.41c4.58-8.01,13.15-13,22.37-13c6.89-0.01,13.36,2.66,18.24,7.52c2.06,2.05,3.57,4.5,4.44,7.12
			c2.03,3.31,3.13,15.29,3.14,19.27l0.76,655.95c0,2.59-0.46,10.58-1.37,12.99c-0.39,1.82-1.06,3.59-2,5.22
			c-4.58,8.01-13.15,13-22.37,13.01c-12.95,0.01-23.64-10-24.5-22.59c-0.85-0.84-1.32-6.76-1.32-7.96l-0.77-658.98
			c0-2.64,0.48-11,1.43-13.45C975.35,474.72,976,473.01,976.92,471.41z"/>
		<path class="st88" d="M977.31,471.63c4.5-7.87,12.92-12.77,21.98-12.78c6.77-0.01,13.13,2.61,17.92,7.39
			c2.05,2.05,3.56,4.51,4.4,7.13c1.97,3.21,3.04,15.4,3.05,19.27l0.76,655.4c0,2.52-0.45,10.64-1.33,12.98
			c-0.38,1.82-1.05,3.59-1.98,5.22c-4.5,7.87-12.92,12.77-21.98,12.78c-12.65,0.01-23.1-9.74-24-22.02
			c-0.88-0.88-1.37-6.7-1.37-7.95l-0.77-658.89c0-2.57,0.47-11.07,1.38-13.45C975.74,474.95,976.39,473.23,977.31,471.63z"/>
		<path class="st89" d="M977.7,471.85c4.42-7.74,12.69-12.55,21.59-12.55c6.65-0.01,12.9,2.57,17.61,7.26
			c2.05,2.05,3.54,4.51,4.36,7.14c1.91,3.11,2.95,15.52,2.96,19.27l0.75,654.86c0,2.44-0.43,10.71-1.29,12.98
			c-0.37,1.82-1.03,3.59-1.96,5.22c-4.42,7.73-12.69,12.55-21.59,12.56c-12.35,0.01-22.57-9.47-23.5-21.44
			c-0.91-0.91-1.42-6.64-1.42-7.93l-0.77-658.8c0-2.49,0.45-11.15,1.34-13.45C976.14,475.17,976.78,473.46,977.7,471.85z"/>
		<path class="st90" d="M978.09,472.07c4.34-7.6,12.47-12.32,21.21-12.32c6.53-0.01,12.67,2.52,17.29,7.13
			c2.05,2.05,3.53,4.51,4.32,7.15c1.85,3.02,2.86,15.64,2.86,19.27l0.75,654.32c0,2.36-0.42,10.77-1.25,12.97
			c-0.36,1.82-1.01,3.59-1.94,5.22c-4.34,7.6-12.46,12.32-21.21,12.33c-12.05,0.01-22.04-9.21-23-20.87
			c-0.95-0.95-1.47-6.58-1.48-7.92l-0.77-658.72c0-2.41,0.44-11.22,1.3-13.45C976.53,475.39,977.17,473.68,978.09,472.07z"/>
		<path class="st91" d="M978.47,472.29c4.26-7.46,12.24-12.09,20.82-12.1c6.41-0.01,12.44,2.48,16.97,7
			c2.05,2.05,3.51,4.52,4.29,7.16c1.8,2.92,2.77,15.75,2.77,19.27l0.75,653.78c0,2.29-0.41,10.84-1.21,12.96
			c-0.34,1.82-0.99,3.6-1.92,5.22c-4.26,7.46-12.24,12.1-20.82,12.11c-11.75,0.01-21.5-8.95-22.49-20.3
			c-0.98-0.98-1.53-6.52-1.53-7.9l-0.76-658.63c0-2.33,0.42-11.3,1.26-13.46C976.93,475.62,977.56,473.9,978.47,472.29z"/>
		<path class="st92" d="M978.86,472.52c4.18-7.32,12.01-11.87,20.43-11.87c6.29-0.01,12.2,2.43,16.66,6.87
			c2.05,2.04,3.5,4.52,4.25,7.17c1.74,2.82,2.68,15.87,2.68,19.27l0.75,653.23c0,2.21-0.39,10.9-1.17,12.96
			c-0.33,1.82-0.98,3.6-1.91,5.22c-4.18,7.32-12.01,11.87-20.43,11.88c-11.46,0.01-20.97-8.69-21.99-19.72
			c-1.02-1.01-1.58-6.45-1.58-7.89l-0.76-658.54c0-2.26,0.41-11.37,1.21-13.46C977.32,475.84,977.94,474.12,978.86,472.52z"/>
		<path class="st93" d="M979.25,472.74c4.1-7.18,11.78-11.64,20.04-11.65c6.17-0.01,11.97,2.38,16.34,6.74
			c2.04,2.04,3.49,4.53,4.21,7.18c1.68,2.73,2.58,15.99,2.59,19.27l0.75,652.69c0,2.14-0.38,10.96-1.13,12.95
			c-0.32,1.82-0.96,3.6-1.89,5.22c-4.1,7.18-11.78,11.65-20.04,11.66c-11.16,0.01-20.43-8.43-21.49-19.15
			c-1.05-1.05-1.63-6.39-1.63-7.87l-0.76-658.45c0-2.18,0.39-11.45,1.17-13.46C977.71,476.06,978.33,474.34,979.25,472.74z"/>
		<path class="st94" d="M979.64,472.96c4.02-7.04,11.55-11.42,19.65-11.42c6.05-0.01,11.74,2.34,16.02,6.61
			c2.04,2.04,3.47,4.53,4.17,7.19c1.62,2.63,2.49,16.1,2.5,19.27l0.75,652.15c0,2.06-0.36,11.03-1.09,12.94
			c-0.31,1.82-0.94,3.6-1.87,5.22c-4.02,7.04-11.55,11.42-19.65,11.43c-10.86,0.01-19.9-8.17-20.99-18.57
			c-1.08-1.08-1.68-6.33-1.69-7.86l-0.76-658.36c0-2.1,0.38-11.52,1.13-13.47C978.11,476.29,978.72,474.57,979.64,472.96z"/>
		<path class="st95" d="M980.03,473.18c3.94-6.9,11.32-11.19,19.26-11.2c5.93-0.01,11.51,2.29,15.71,6.48
			c2.04,2.04,3.46,4.54,4.13,7.2c1.56,2.53,2.4,16.22,2.41,19.27l0.75,651.6c0,1.98-0.35,11.09-1.05,12.94
			c-0.3,1.82-0.92,3.6-1.85,5.22c-3.94,6.9-11.32,11.2-19.27,11.21c-10.56,0.01-19.36-7.9-20.49-18c-1.12-1.12-1.74-6.27-1.74-7.84
			l-0.76-658.27c0-2.02,0.36-11.6,1.09-13.47C978.5,476.51,979.11,474.79,980.03,473.18z"/>
		<path class="st96" d="M980.42,473.4c3.86-6.76,11.1-10.97,18.88-10.97c5.81-0.01,11.28,2.24,15.39,6.35
			c2.04,2.04,3.44,4.54,4.09,7.21c1.5,2.43,2.31,16.34,2.31,19.27l0.75,651.06c0,1.91-0.34,11.16-1.01,12.93
			c-0.29,1.82-0.91,3.61-1.83,5.23c-3.86,6.76-11.1,10.97-18.88,10.98c-10.26,0.01-18.83-7.64-19.99-17.43
			c-1.15-1.15-1.79-6.2-1.79-7.83l-0.76-658.19c0-1.94,0.35-11.67,1.04-13.47C978.9,476.73,979.5,475.01,980.42,473.4z"/>
		<path class="st97" d="M980.81,473.63c3.78-6.62,10.87-10.74,18.49-10.75c5.69-0.01,11.05,2.2,15.07,6.22
			c2.04,2.04,3.43,4.54,4.05,7.22c1.44,2.34,2.22,16.45,2.22,19.26l0.75,650.52c0,1.83-0.32,11.22-0.97,12.93
			c-0.27,1.83-0.89,3.61-1.81,5.23c-3.78,6.62-10.87,10.74-18.49,10.75c-9.97,0.01-18.3-7.38-19.49-16.85
			c-1.18-1.18-1.84-6.14-1.84-7.81l-0.76-658.1c0-1.87,0.34-11.75,1-13.47C979.29,476.96,979.89,475.23,980.81,473.63z"/>
		<path class="st98" d="M981.19,473.85c3.7-6.48,10.64-10.52,18.1-10.52c5.57-0.01,10.81,2.15,14.76,6.09
			c2.04,2.03,3.42,4.55,4.01,7.23c1.38,2.24,2.13,16.57,2.13,19.26l0.75,649.98c0,1.75-0.31,11.29-0.93,12.92
			c-0.26,1.83-0.87,3.61-1.8,5.23c-3.7,6.48-10.64,10.52-18.1,10.53c-9.67,0.01-17.76-7.12-18.99-16.28
			c-1.22-1.22-1.89-6.08-1.9-7.8l-0.76-658.01c0-1.79,0.32-11.82,0.96-13.48C979.69,477.18,980.28,475.45,981.19,473.85z"/>
		<path class="st99" d="M981.58,474.07c3.62-6.35,10.41-10.29,17.71-10.29c5.45-0.01,10.58,2.11,14.44,5.95
			c2.03,2.03,3.4,4.55,3.97,7.24c1.32,2.14,2.04,16.69,2.04,19.26l0.75,649.43c0,1.68-0.29,11.35-0.88,12.91
			c-0.25,1.83-0.85,3.61-1.78,5.23c-3.62,6.35-10.41,10.29-17.71,10.3c-9.37,0.01-17.23-6.86-18.49-15.71
			c-1.25-1.25-1.95-6.02-1.95-7.79l-0.76-657.92c0-1.71,0.31-11.9,0.92-13.48C980.08,477.4,980.67,475.68,981.58,474.07z"/>
		<path class="st100" d="M981.97,474.29c3.55-6.21,10.18-10.07,17.32-10.07c5.34-0.01,10.35,2.06,14.13,5.82
			c2.03,2.03,3.39,4.56,3.93,7.25c1.26,2.04,1.94,16.81,1.95,19.26l0.75,648.89c0,1.6-0.28,11.42-0.84,12.91
			c-0.24,1.83-0.84,3.61-1.76,5.23c-3.55,6.21-10.18,10.07-17.33,10.08c-9.07,0.01-16.69-6.59-17.99-15.13c-1.29-1.28-2-5.95-2-7.77
			l-0.76-657.83c0-1.63,0.29-11.97,0.87-13.48C980.47,477.63,981.05,475.9,981.97,474.29z"/>
		<path class="st101" d="M982.36,474.51c3.47-6.07,9.96-9.84,16.93-9.84c5.22-0.01,10.12,2.01,13.81,5.69
			c2.03,2.03,3.38,4.56,3.89,7.26c1.2,1.95,1.85,16.92,1.86,19.26l0.75,648.35c0,1.53-0.27,11.48-0.8,12.9
			c-0.23,1.83-0.82,3.61-1.74,5.23c-3.47,6.07-9.96,9.84-16.94,9.85c-8.77,0.01-16.16-6.33-17.49-14.56
			c-1.32-1.32-2.05-5.89-2.05-7.76l-0.76-657.74c0-1.56,0.28-12.05,0.83-13.48C980.87,477.85,981.44,476.12,982.36,474.51z"/>
		<path class="st102" d="M982.75,474.74c3.39-5.93,9.73-9.61,16.55-9.62c5.1-0.01,9.89,1.97,13.49,5.56
			c2.03,2.03,3.36,4.57,3.85,7.27c1.14,1.85,1.76,17.04,1.76,19.26l0.75,647.8c0,1.45-0.25,11.54-0.76,12.89
			c-0.22,1.83-0.8,3.62-1.72,5.23c-3.39,5.93-9.73,9.62-16.55,9.63c-8.48,0.01-15.62-6.07-16.99-13.99
			c-1.35-1.35-2.1-5.83-2.11-7.74l-0.76-657.66c0-1.48,0.26-12.12,0.79-13.49C981.26,478.08,981.83,476.34,982.75,474.74z"/>
		<path class="st103" d="M983.14,474.96c3.31-5.79,9.5-9.39,16.16-9.39c4.98-0.01,9.66,1.92,13.18,5.43
			c2.03,2.03,3.35,4.57,3.81,7.28c1.08,1.75,1.67,17.16,1.67,19.26l0.75,647.26c0,1.37-0.24,11.61-0.72,12.89
			c-0.21,1.83-0.79,3.62-1.7,5.23c-3.31,5.79-9.5,9.39-16.16,9.4c-8.18,0.01-15.09-5.81-16.49-13.41c-1.39-1.39-2.16-5.77-2.16-7.73
			l-0.76-657.57c0-1.4,0.25-12.2,0.75-13.49C981.66,478.3,982.22,476.56,983.14,474.96z"/>
		<path class="st104" d="M983.53,475.18c3.23-5.65,9.27-9.16,15.77-9.17c4.86-0.01,9.42,1.87,12.86,5.3
			c2.03,2.02,3.33,4.57,3.77,7.29c1.02,1.65,1.58,17.27,1.58,19.26l0.75,646.72c0,1.3-0.22,11.67-0.68,12.88
			c-0.19,1.83-0.77,3.62-1.69,5.23c-3.23,5.65-9.27,9.17-15.77,9.18c-7.88,0.01-14.56-5.55-15.99-12.84
			c-1.42-1.42-2.21-5.7-2.21-7.71l-0.76-657.48c0-1.32,0.23-12.27,0.71-13.49C982.05,478.52,982.61,476.79,983.53,475.18z"/>
		<path class="st105" d="M983.92,475.4c3.15-5.51,9.04-8.94,15.38-8.94c4.74-0.01,9.19,1.83,12.54,5.17
			c2.02,2.02,3.32,4.58,3.73,7.3c0.96,1.56,1.49,17.39,1.49,19.26l0.74,646.17c0,1.22-0.21,11.74-0.64,12.87
			c-0.18,1.83-0.75,3.62-1.67,5.23c-3.15,5.51-9.04,8.94-15.38,8.95c-7.58,0.01-14.02-5.28-15.48-12.26
			c-1.46-1.45-2.26-5.64-2.26-7.7l-0.76-657.39c0-1.24,0.22-12.34,0.66-13.5C982.45,478.75,983,477.01,983.92,475.4z"/>
		<path class="st106" d="M984.3,475.62c3.07-5.37,8.81-8.71,14.99-8.72c4.62-0.01,8.96,1.78,12.23,5.04
			c2.02,2.02,3.31,4.58,3.69,7.31c0.9,1.46,1.39,17.51,1.4,19.26l0.74,645.63c0,1.14-0.2,11.8-0.6,12.87
			c-0.17,1.83-0.73,3.62-1.65,5.23c-3.07,5.37-8.82,8.72-15,8.72c-7.29,0.01-13.49-5.02-14.98-11.69c-1.49-1.49-2.31-5.58-2.32-7.68
			l-0.76-657.3c0-1.17,0.2-12.42,0.62-13.5C982.84,478.97,983.39,477.23,984.3,475.62z"/>
		<path class="st107" d="M984.69,475.85c2.99-5.23,8.59-8.49,14.6-8.49c4.5-0.01,8.73,1.74,11.91,4.91
			c2.02,2.02,3.29,4.59,3.65,7.32c0.84,1.36,1.3,17.62,1.31,19.26l0.74,645.09c0,1.07-0.18,11.87-0.56,12.86
			c-0.16,1.83-0.72,3.63-1.63,5.23c-2.99,5.23-8.59,8.49-14.61,8.5c-6.99,0.01-12.95-4.76-14.48-11.12
			c-1.52-1.52-2.36-5.52-2.37-7.67l-0.76-657.21c0-1.09,0.19-12.49,0.58-13.5C983.23,479.19,983.77,477.45,984.69,475.85z"/>
		<path class="st108" d="M985.08,476.07c2.91-5.09,8.36-8.26,14.22-8.26c4.38-0.01,8.5,1.69,11.59,4.78
			c2.02,2.02,3.28,4.59,3.61,7.33c0.78,1.27,1.21,17.74,1.21,19.26l0.74,644.55c0,0.99-0.17,11.93-0.52,12.85
			c-0.15,1.83-0.7,3.63-1.61,5.23c-2.91,5.1-8.36,8.27-14.22,8.27c-6.69,0.01-12.42-4.5-13.98-10.54c-1.56-1.55-2.42-5.46-2.42-7.65
			l-0.76-657.12c0-1.01,0.17-12.57,0.54-13.5C983.63,479.42,984.16,477.67,985.08,476.07z"/>
		<path class="st109" d="M985.47,476.29c2.83-4.96,8.13-8.04,13.83-8.04c4.26-0.01,8.27,1.64,11.28,4.65
			c2.02,2.02,3.27,4.59,3.58,7.34c0.72,1.17,1.12,17.86,1.12,19.26l0.74,644c0,0.92-0.15,12-0.48,12.85
			c-0.14,1.84-0.68,3.63-1.59,5.23c-2.83,4.96-8.13,8.04-13.83,8.05c-6.39,0.01-11.89-4.24-13.48-9.97
			c-1.59-1.59-2.47-5.39-2.47-7.64l-0.76-657.04c0-0.93,0.16-12.64,0.49-13.51C984.02,479.64,984.55,477.9,985.47,476.29z"/>
		<path class="st110" d="M985.86,476.51c2.75-4.82,7.9-7.81,13.44-7.81c4.14-0.01,8.03,1.6,10.96,4.52c2.02,2.01,3.25,4.6,3.54,7.36
			c0.66,1.07,1.03,17.97,1.03,19.26l0.74,643.46c0,0.84-0.14,12.06-0.43,12.84c-0.12,1.84-0.66,3.63-1.58,5.23
			c-2.75,4.82-7.9,7.81-13.44,7.82c-6.09,0.01-11.35-3.98-12.98-9.4c-1.62-1.62-2.52-5.33-2.53-7.63l-0.76-656.95
			c0-0.86,0.15-12.72,0.45-13.51C984.42,479.86,984.94,478.12,985.86,476.51z"/>
		<path class="st111" d="M986.25,476.73c2.67-4.68,7.67-7.59,13.05-7.59c4.02-0.01,7.8,1.55,10.64,4.39c2.01,2.01,3.24,4.6,3.5,7.37
			c0.6,0.97,0.94,18.09,0.94,19.26l0.74,642.92c0,0.76-0.13,12.12-0.39,12.83c-0.11,1.84-0.65,3.63-1.56,5.23
			c-2.67,4.68-7.68,7.59-13.06,7.6c-5.8,0.01-10.82-3.71-12.48-8.82c-1.66-1.66-2.57-5.27-2.58-7.61l-0.76-656.86
			c0-0.78,0.13-12.79,0.41-13.51C984.81,480.09,985.33,478.34,986.25,476.73z"/>
		<path class="st112" d="M986.64,476.96c2.59-4.54,7.45-7.36,12.66-7.36c3.9-0.01,7.57,1.51,10.33,4.26
			c2.01,2.01,3.22,4.61,3.46,7.38c0.54,0.88,0.85,18.21,0.85,19.26l0.74,642.37c0,0.69-0.11,12.19-0.35,12.83
			c-0.1,1.84-0.63,3.64-1.54,5.23c-2.59,4.54-7.45,7.36-12.67,7.37c-5.5,0.01-10.28-3.45-11.98-8.25c-1.69-1.69-2.63-5.21-2.63-7.6
			l-0.76-656.77c0-0.7,0.12-12.87,0.37-13.52C985.21,480.31,985.72,478.56,986.64,476.96z"/>
		<path class="st113" d="M987.02,477.18c2.51-4.4,7.22-7.13,12.27-7.14c3.78-0.01,7.34,1.46,10.01,4.12
			c2.01,2.01,3.21,4.61,3.42,7.39c0.48,0.78,0.75,18.32,0.76,19.26l0.74,641.83c0,0.61-0.1,12.25-0.31,12.82
			c-0.09,1.84-0.61,3.64-1.52,5.23c-2.51,4.4-7.22,7.14-12.28,7.15c-5.2,0.01-9.75-3.19-11.48-7.68c-1.73-1.72-2.68-5.14-2.68-7.58
			l-0.76-656.68c0-0.62,0.1-12.94,0.32-13.52C985.6,480.53,986.11,478.79,987.02,477.18z"/>
		<path class="st114" d="M987.41,477.4c2.43-4.26,6.99-6.91,11.89-6.91c3.67-0.01,7.11,1.41,9.7,3.99c2.01,2.01,3.2,4.62,3.38,7.4
			c0.42,0.68,0.66,18.44,0.66,19.26l0.74,641.29c0,0.53-0.08,12.32-0.27,12.81c-0.08,1.84-0.59,3.64-1.5,5.23
			c-2.43,4.26-6.99,6.91-11.89,6.92c-4.9,0.01-9.21-2.93-10.98-7.1c-1.76-1.76-2.73-5.08-2.73-7.57l-0.76-656.59
			c0-0.54,0.09-13.02,0.28-13.52C985.99,480.76,986.49,479.01,987.41,477.4z"/>
		<path class="st115" d="M987.8,477.62c2.35-4.12,6.76-6.68,11.5-6.68c3.55-0.01,6.87,1.37,9.38,3.86c2.01,2.01,3.18,4.62,3.34,7.41
			c0.36,0.58,0.57,18.56,0.57,19.26l0.74,640.75c0,0.46-0.07,12.38-0.23,12.81c-0.07,1.84-0.58,3.64-1.48,5.23
			c-2.36,4.12-6.76,6.69-11.5,6.69c-4.6,0.01-8.68-2.67-10.48-6.53c-1.79-1.79-2.78-5.02-2.79-7.55l-0.76-656.51
			c0-0.47,0.07-13.09,0.24-13.52C986.39,480.98,986.88,479.23,987.8,477.62z"/>
		<path class="st116" d="M988.19,477.84c2.27-3.98,6.53-6.46,11.11-6.46c3.43-0.01,6.64,1.32,9.06,3.73c2,2,3.17,4.62,3.3,7.42
			c0.3,0.49,0.48,18.68,0.48,19.26l0.74,640.2c0,0.38-0.06,12.45-0.19,12.8c-0.06,1.84-0.56,3.64-1.47,5.23
			c-2.28,3.98-6.53,6.46-11.12,6.47c-4.31,0.01-8.15-2.4-9.98-5.95c-1.83-1.82-2.84-4.96-2.84-7.54l-0.76-656.42
			c0-0.39,0.06-13.17,0.2-13.53C986.78,481.2,987.27,479.45,988.19,477.84z"/>
		<path class="st117" d="M988.58,478.07c2.2-3.84,6.3-6.23,10.72-6.23c3.31-0.01,6.41,1.27,8.75,3.6c2,2,3.15,4.63,3.26,7.43
			c0.24,0.39,0.39,18.79,0.39,19.26l0.74,639.66c0,0.31-0.04,12.51-0.15,12.8c-0.04,1.84-0.54,3.65-1.45,5.23
			c-2.2,3.85-6.31,6.24-10.73,6.24c-4.01,0.01-7.61-2.14-9.48-5.38c-1.86-1.86-2.89-4.89-2.89-7.52l-0.76-656.33
			c0-0.31,0.04-13.24,0.15-13.53C987.18,481.43,987.66,479.67,988.58,478.07z"/>
		<path class="st118" d="M988.97,478.29c2.12-3.7,6.08-6.01,10.33-6.01c3.19-0.01,6.18,1.23,8.43,3.47c2,2,3.14,4.63,3.22,7.44
			c0.18,0.29,0.3,18.91,0.3,19.26l0.74,639.12c0,0.23-0.03,12.58-0.11,12.79c-0.03,1.84-0.52,3.65-1.43,5.23
			c-2.12,3.71-6.08,6.01-10.34,6.02c-3.71,0-7.08-1.88-8.98-4.81c-1.9-1.89-2.94-4.83-2.94-7.51l-0.76-656.24
			c0-0.23,0.03-13.32,0.11-13.53C987.57,481.65,988.05,479.9,988.97,478.29z"/>
		<path class="st119" d="M989.36,478.51c2.04-3.57,5.85-5.78,9.94-5.78c3.07-0.01,5.95,1.18,8.11,3.34c2,2,3.13,4.64,3.18,7.45
			c0.12,0.19,0.21,19.03,0.21,19.26l0.74,638.57c0,0.15-0.01,12.64-0.07,12.78c-0.02,1.84-0.51,3.65-1.41,5.23
			c-2.04,3.57-5.85,5.79-9.95,5.79c-3.41,0-6.54-1.62-8.47-4.23c-1.93-1.93-2.99-4.77-3-7.49l-0.76-656.15
			c0-0.16,0.01-13.39,0.07-13.54C987.96,481.88,988.44,480.12,989.36,478.51z"/>
		<path class="st120" d="M989.75,478.73c1.96-3.43,5.62-5.56,9.56-5.56c2.95-0.01,5.72,1.14,7.8,3.21c2,2,3.11,4.64,3.14,7.46
			c0.06,0.1,0.11,19.14,0.11,19.26l0.74,638.03c0,0.08,0,12.71-0.03,12.78c-0.01,1.85-0.49,3.65-1.39,5.23
			c-1.96,3.43-5.62,5.56-9.56,5.57c-3.12,0-6.01-1.36-7.97-3.66c-1.96-1.96-3.04-4.71-3.05-7.48l-0.76-656.06
			c0-0.08,0-13.47,0.03-13.54C988.36,482.1,988.83,480.34,989.75,478.73z"/>
		<path class="st2" d="M1009.28,1158.92c-1.88,3.29-5.39,5.34-9.18,5.34c-2.82,0-5.47-1.1-7.47-3.09c-2-1.99-3.1-4.64-3.1-7.47
			l-0.78-669.52c0-1.87,0.46-3.63,1.38-5.24c1.88-3.29,5.39-5.33,9.17-5.33c2.83,0,5.48,1.09,7.48,3.08c2,2,3.1,4.65,3.1,7.47
			l0.77,669.52C1010.66,1155.53,1010.18,1157.34,1009.28,1158.92z"/>
	</g>
	<path class="st2" d="M1018.45,1164.16c-3.64,6.36-10.48,10.65-18.33,10.66c-11.67,0.01-21.14-9.44-21.15-21.1l-0.78-669.52
		c-0.01-11.68,9.44-21.14,21.1-21.15c11.67-0.02,21.14,9.43,21.15,21.1l0.77,669.52
		C1021.22,1157.49,1020.22,1161.07,1018.45,1164.16z"/>
</g>
<linearGradient id="SVGID_1_" gradientUnits="userSpaceOnUse" x1="1728.5082" y1="836.1541" x2="1728.5082" y2="762.2113" gradientTransform="matrix(0.496 -0.8683 0.8683 0.496 -551.8723 2091.9292)">
	<stop  offset="0" style="stop-color:#4D4D4D"/>
	<stop  offset="1" style="stop-color:#CCCCCC"/>
</linearGradient>
<circle class="st121" cx="999.4" cy="987.39" r="36.97"/>
<radialGradient id="SVGID_2_" cx="1728.5082" cy="799.1827" r="26.4081" gradientTransform="matrix(0.496 -0.8683 0.8683 0.496 -551.8723 2091.9292)" gradientUnits="userSpaceOnUse">
	<stop  offset="0" style="stop-color:#B3B3B3"/>
	<stop  offset="0.2325" style="stop-color:#858585"/>
	<stop  offset="0.4555" style="stop-color:#626262"/>
	<stop  offset="0.6635" style="stop-color:#484848"/>
	<stop  offset="0.851" style="stop-color:#383838"/>
	<stop  offset="1" style="stop-color:#333333"/>
</radialGradient>
<path class="st122" d="M1012.49,964.46c12.66,7.23,17.07,23.36,9.83,36.03c-7.23,12.66-23.36,17.07-36.03,9.83
	c-12.66-7.23-17.07-23.36-9.83-36.03S999.83,957.23,1012.49,964.46z"/>
</svg>
