<?xml version="1.0" encoding="utf-8"?>
<!-- Generator: Adobe Illustrator 24.1.2, SVG Export Plug-In . SVG Version: 6.00 Build 0)  -->
<svg version="1.1" id="Capa_1" xmlns="http://www.w3.org/2000/svg" xmlns:xlink="http://www.w3.org/1999/xlink" x="0px" y="0px"
	 viewBox="0 0 2000 2000" style="enable-background:new 0 0 2000 2000;" xml:space="preserve">
<style type="text/css">
	.st0{fill:#0EA815;}
	.st1{fill:#D1D3D4;}
	.st2{fill:#231F20;}
	.st3{fill:#6D6E71;}
</style>
<g>
	<path class="st0" d="M1000,226.33c206.65,0,400.94,80.47,547.06,226.6c146.13,146.13,226.6,340.41,226.6,547.06
		s-80.47,400.94-226.6,547.06c-146.12,146.13-340.41,226.6-547.06,226.6c-206.65,0-400.94-80.48-547.06-226.6
		c-146.13-146.13-226.6-340.41-226.6-547.06s80.47-400.94,226.6-547.06C599.06,306.81,793.35,226.33,1000,226.33L1000,226.33z
		 M1000,156c-466.13,0-844,377.87-844,844c0,466.13,377.87,844,844,844c466.13,0,844-377.87,844-844
		C1844,533.87,1466.13,156,1000,156L1000,156z"/>
	<path class="st1" d="M1000,296.67c187.87,0,364.49,73.16,497.33,206c132.84,132.84,206,309.47,206,497.33
		c0,187.86-73.16,364.49-206,497.33c-132.84,132.84-309.46,206-497.33,206c-187.87,0-364.49-73.16-497.33-206
		c-132.84-132.85-206-309.47-206-497.33c0-187.87,73.16-364.49,206-497.33C635.51,369.83,812.13,296.67,1000,296.67L1000,296.67z
		 M1000,226.33c-427.28,0-773.67,346.38-773.67,773.67s346.38,773.67,773.67,773.67c427.28,0,773.67-346.38,773.67-773.67
		S1427.28,226.33,1000,226.33L1000,226.33z"/>
	<g>
		<g>
			<path class="st2" d="M1339.3,532.39v20.51h-68.83v-20.51h24.07v-51.37c-1.02,1.36-2.63,2.74-4.83,4.15
				c-2.2,1.41-4.61,2.74-7.2,3.98c-2.6,1.24-5.28,2.26-8.06,3.05c-2.77,0.79-5.23,1.19-7.37,1.19v-21.19c2.03,0,4.52-0.65,7.46-1.95
				c2.93-1.3,5.82-2.85,8.64-4.66c2.82-1.81,5.28-3.59,7.37-5.34c2.09-1.75,3.42-3.13,3.98-4.15h23.23v76.29H1339.3z"/>
		</g>
		<g>
			<path class="st2" d="M1474.72,771.04c0-5.09,0.39-9.69,1.19-13.82c0.79-4.12,2.17-7.94,4.15-11.44c1.97-3.5,4.69-6.78,8.14-9.83
				c3.44-3.05,7.83-6.04,13.14-8.98c4.63-2.49,8.73-4.66,12.29-6.53c3.56-1.86,6.52-3.58,8.9-5.17c2.37-1.58,4.18-3.19,5.43-4.83
				c1.24-1.63,1.86-3.53,1.86-5.68c0-3.39-1.36-6.3-4.07-8.73c-2.71-2.43-6.61-3.65-11.7-3.65c-2.71,0-5.2,0.37-7.46,1.1
				c-2.26,0.74-4.38,1.73-6.36,2.97c-1.98,1.25-3.79,2.63-5.42,4.15c-1.64,1.52-3.14,3.14-4.49,4.83l-14.58-16.78
				c1.47-1.58,3.56-3.31,6.27-5.17c2.71-1.86,5.9-3.62,9.57-5.26c3.67-1.63,7.74-2.99,12.21-4.07c4.46-1.07,9.24-1.61,14.33-1.61
				c5.76,0,10.9,0.71,15.43,2.12c4.52,1.41,8.33,3.39,11.44,5.93c3.11,2.54,5.48,5.59,7.12,9.16c1.64,3.56,2.45,7.43,2.45,11.61
				c0,3.96-0.73,7.46-2.2,10.51c-1.47,3.05-3.33,5.76-5.6,8.13c-2.26,2.37-4.72,4.44-7.37,6.19c-2.66,1.75-5.23,3.31-7.71,4.66
				c-2.04,1.13-4.35,2.43-6.95,3.9c-2.6,1.47-5.17,3.08-7.72,4.83c-2.54,1.75-4.89,3.56-7.03,5.42c-2.15,1.87-3.79,3.7-4.92,5.51
				h51.37v20.51H1474.72z"/>
		</g>
		<g>
			<path class="st2" d="M1607.94,1004.35c7.01,1.25,12.68,4.61,17.03,10.09c4.35,5.48,6.53,12.18,6.53,20.09
				c0,5.31-1.05,10.11-3.14,14.41c-2.09,4.29-5.03,7.94-8.81,10.93c-3.79,2.99-8.39,5.31-13.82,6.95
				c-5.42,1.64-11.53,2.46-18.31,2.46c-8.59,0-16.19-1.39-22.8-4.15c-6.61-2.77-12.12-6.81-16.52-12.12l12.88-16.1
				c2.94,3.73,6.44,6.61,10.51,8.65c4.07,2.03,9.15,3.05,15.26,3.05c6.89,0,12.15-1.36,15.77-4.07c3.62-2.71,5.43-6.89,5.43-12.54
				c0-5.87-2.09-10.4-6.27-13.56c-4.18-3.17-10.51-4.75-18.99-4.75h-4.75v-16.95h5.26c7,0,12.43-1.55,16.27-4.66
				c3.84-3.11,5.76-7.09,5.76-11.95c0-4.63-1.59-8.08-4.74-10.34c-3.16-2.26-7.29-3.39-12.38-3.39c-5.2,0-9.86,1.19-13.98,3.56
				c-4.12,2.37-7.49,5.71-10.09,10L1549.8,964c1.69-2.6,3.95-4.94,6.78-7.03c2.82-2.09,6.02-3.9,9.57-5.43
				c3.56-1.52,7.43-2.71,11.61-3.56c4.18-0.85,8.48-1.27,12.89-1.27c5.76,0,11.02,0.74,15.76,2.21c4.74,1.47,8.84,3.5,12.29,6.1
				c3.44,2.6,6.1,5.74,7.96,9.41c1.87,3.67,2.8,7.77,2.8,12.29c0,3.39-0.51,6.61-1.52,9.66c-1.02,3.05-2.49,5.82-4.4,8.31
				c-1.92,2.49-4.21,4.58-6.87,6.27C1614.01,1002.65,1611.1,1003.78,1607.94,1004.35z"/>
		</g>
		<g>
			<path class="st2" d="M1515.9,1340.23v-25.26h-49.5v-20.17l56.79-72.9h15.43v72.72h14.92v20.35h-14.92v25.26H1515.9z
				 M1489.12,1294.62h29.33v-38.31L1489.12,1294.62z"/>
		</g>
		<g>
			<path class="st2" d="M1299.32,1485.47c5.65,0,10.9,0.93,15.77,2.79c4.86,1.87,9.04,4.49,12.54,7.89c3.5,3.39,6.24,7.46,8.23,12.2
				c1.97,4.75,2.97,10,2.97,15.77c0,6.1-1.1,11.64-3.31,16.61c-2.21,4.97-5.28,9.24-9.24,12.79c-3.96,3.57-8.64,6.33-14.07,8.31
				c-5.42,1.98-11.3,2.97-17.63,2.97c-8.81,0-16.7-1.86-23.65-5.59c-6.95-3.73-12.24-8.82-15.85-15.25l13.05-13.56
				c3.17,4.4,7.12,7.91,11.87,10.51c4.74,2.6,9.66,3.91,14.74,3.91c6.1,0,11.11-1.84,15-5.52c3.9-3.67,5.85-8.56,5.85-14.66
				c0-5.88-1.84-10.62-5.51-14.24c-3.68-3.62-8.34-5.43-13.99-5.43c-3.73,0-7.2,0.85-10.42,2.54c-3.22,1.69-5.79,4.01-7.71,6.95
				h-19.83c0-0.34,0.23-1.61,0.68-3.81c0.45-2.2,1.02-5.03,1.69-8.48c0.68-3.45,1.41-7.29,2.2-11.52c0.79-4.24,1.64-8.56,2.55-12.97
				c2.03-10.4,4.29-22.04,6.78-34.92h59.33v20.68h-42.89l-4.92,26.95c1.35-1.47,3.36-2.65,6.02-3.56
				C1292.23,1485.92,1295.48,1485.47,1299.32,1485.47z"/>
		</g>
		<g>
			<path class="st2" d="M1042.21,1602.4c0,5.88-1.13,11.36-3.39,16.44c-2.26,5.09-5.37,9.53-9.32,13.3
				c-3.95,3.79-8.62,6.75-13.98,8.9c-5.37,2.14-11.16,3.22-17.38,3.22c-6.78,0-12.91-1.25-18.39-3.73
				c-5.49-2.48-10.15-6.1-13.99-10.85c-3.84-4.74-6.78-10.54-8.81-17.37c-2.03-6.84-3.05-14.61-3.05-23.31
				c0-10.96,1.07-20.65,3.22-29.07c2.15-8.42,5.26-15.48,9.32-21.19c4.07-5.71,8.99-10.03,14.75-12.97
				c5.77-2.93,12.21-4.4,19.33-4.4c7.57,0,14.55,1.64,20.94,4.91c6.38,3.28,11.78,7.97,16.19,14.07l-13.06,14.24
				c-2.71-4.29-6.21-7.63-10.51-10c-4.29-2.37-8.93-3.56-13.9-3.56c-7.57,0-13.62,3-18.14,8.98c-4.52,5.99-6.89,14.47-7.12,25.43
				c2.38-4.07,5.74-7.29,10.09-9.66c4.35-2.37,9.41-3.57,15.17-3.57c5.88,0,11.39,1.02,16.53,3.06c5.14,2.03,9.6,4.86,13.4,8.48
				c3.78,3.62,6.75,7.88,8.9,12.8C1041.14,1591.46,1042.21,1596.75,1042.21,1602.4z M998.31,1625.12c2.94,0,5.77-0.6,8.48-1.78
				c2.72-1.19,5.09-2.82,7.12-4.91c2.03-2.1,3.65-4.52,4.83-7.29c1.19-2.77,1.78-5.68,1.78-8.73c0-3.05-0.59-5.9-1.78-8.56
				c-1.19-2.66-2.8-5-4.83-7.04c-2.03-2.03-4.38-3.61-7.03-4.74c-2.66-1.13-5.51-1.69-8.56-1.69c-3.05,0-5.93,0.56-8.64,1.69
				c-2.71,1.13-5.08,2.71-7.12,4.74c-2.03,2.04-3.62,4.38-4.74,7.04c-1.13,2.65-1.7,5.51-1.7,8.56c0,3.06,0.59,5.96,1.78,8.73
				c1.19,2.77,2.8,5.17,4.83,7.2c2.04,2.03,4.38,3.67,7.04,4.91C992.4,1624.5,995.26,1625.12,998.31,1625.12z"/>
		</g>
		<g>
			<path class="st2" d="M726.2,1461.4h-54.75v-20.68h90.52l-59.67,120.36h-25.77L726.2,1461.4z"/>
		</g>
		<g>
			<path class="st2" d="M538.9,1318.08c0,5.65-1.16,10.74-3.47,15.26c-2.32,4.52-5.48,8.41-9.49,11.69
				c-4.01,3.28-8.67,5.79-13.98,7.54c-5.31,1.75-10.96,2.63-16.95,2.63c-5.99,0-11.64-0.93-16.95-2.8
				c-5.31-1.87-9.94-4.49-13.9-7.88c-3.95-3.39-7.06-7.4-9.32-12.04c-2.26-4.63-3.39-9.72-3.39-15.25c0-3.4,0.56-6.53,1.69-9.41
				c1.13-2.88,2.6-5.51,4.41-7.88c1.8-2.38,3.81-4.46,6.02-6.27c2.2-1.81,4.43-3.28,6.69-4.41c-4.18-2.03-7.74-5.08-10.68-9.15
				c-2.94-4.07-4.41-8.53-4.41-13.39c0-5.43,1.21-10.2,3.65-14.33c2.43-4.12,5.6-7.6,9.49-10.42c3.9-2.82,8.2-4.97,12.89-6.44
				c4.69-1.47,9.35-2.2,13.98-2.2c4.52,0,9.18,0.71,13.98,2.12c4.8,1.42,9.12,3.54,12.97,6.36c3.84,2.82,7.01,6.3,9.49,10.42
				c2.49,4.13,3.73,8.9,3.73,14.33c0,2.37-0.4,4.72-1.19,7.04c-0.79,2.32-1.89,4.46-3.3,6.44c-1.42,1.98-3.08,3.76-5,5.34
				c-1.92,1.59-3.95,2.88-6.1,3.89c2.49,1.25,4.86,2.8,7.12,4.66c2.26,1.87,4.29,4.01,6.1,6.44c1.8,2.43,3.25,5.12,4.32,8.05
				C538.36,1311.36,538.9,1314.58,538.9,1318.08z M515.85,1316.73c0-2.83-0.59-5.36-1.78-7.63c-1.19-2.26-2.77-4.15-4.75-5.68
				c-1.98-1.53-4.21-2.68-6.7-3.47c-2.48-0.79-5.03-1.19-7.63-1.19c-2.71,0-5.31,0.43-7.8,1.28c-2.49,0.84-4.66,2.06-6.53,3.64
				c-1.86,1.58-3.36,3.47-4.49,5.68c-1.13,2.2-1.69,4.66-1.69,7.38c0,2.71,0.59,5.17,1.78,7.37c1.19,2.2,2.74,4.1,4.66,5.68
				c1.92,1.59,4.13,2.8,6.61,3.65c2.49,0.85,5.03,1.27,7.63,1.27c2.71,0,5.31-0.45,7.8-1.35c2.48-0.91,4.69-2.15,6.61-3.73
				c1.92-1.58,3.44-3.48,4.57-5.68C515.28,1321.73,515.85,1319.33,515.85,1316.73z M478.21,1267.4c0,2.37,0.51,4.44,1.52,6.19
				c1.02,1.75,2.35,3.22,3.99,4.4c1.64,1.19,3.45,2.09,5.42,2.72c1.97,0.62,3.98,0.93,6.02,0.93c1.92,0,3.9-0.3,5.93-0.93
				c2.03-0.63,3.87-1.55,5.51-2.8c1.63-1.24,2.97-2.74,3.98-4.49c1.02-1.75,1.52-3.81,1.52-6.19c0-4.18-1.67-7.51-5-10.01
				c-3.33-2.48-7.37-3.72-12.12-3.72c-4.63,0-8.59,1.27-11.86,3.81C479.85,1259.85,478.21,1263.22,478.21,1267.4z"/>
		</g>
		<g>
			<path class="st2" d="M370.98,984.12c0-5.88,1.13-11.36,3.39-16.44c2.26-5.08,5.34-9.52,9.24-13.31c3.9-3.78,8.53-6.75,13.9-8.9
				c5.37-2.15,11.16-3.22,17.38-3.22c6.78,0,12.91,1.25,18.39,3.73c5.48,2.49,10.14,6.1,13.98,10.85c3.84,4.75,6.8,10.54,8.9,17.38
				c2.09,6.84,3.14,14.61,3.14,23.31c0,10.96-1.1,20.66-3.31,29.07c-2.2,8.42-5.31,15.48-9.32,21.19
				c-4.01,5.71-8.9,10.03-14.66,12.97c-5.76,2.93-12.21,4.41-19.32,4.41c-7.57,0-14.58-1.64-21.02-4.91
				c-6.44-3.28-11.86-7.97-16.27-14.07l13.05-14.24c2.71,4.3,6.21,7.63,10.51,10c4.3,2.38,8.98,3.56,14.07,3.56
				c7.57,0,13.59-2.99,18.05-8.98c4.46-5.99,6.81-14.46,7.04-25.43c-2.26,4.07-5.6,7.29-10.01,9.66c-4.4,2.37-9.49,3.56-15.25,3.56
				c-5.99,0-11.53-1.02-16.61-3.05c-5.09-2.03-9.49-4.86-13.22-8.48c-3.73-3.62-6.67-7.88-8.81-12.8
				C372.05,995.05,370.98,989.77,370.98,984.12z M414.89,961.41c-3.05,0-5.91,0.59-8.56,1.78c-2.66,1.19-5,2.83-7.03,4.92
				c-2.03,2.09-3.65,4.52-4.83,7.29c-1.19,2.77-1.78,5.68-1.78,8.73c0,3.06,0.6,5.91,1.78,8.56c1.18,2.66,2.76,5,4.75,7.03
				c1.97,2.04,4.32,3.62,7.03,4.75c2.71,1.13,5.6,1.69,8.64,1.69c3.05,0,5.93-0.56,8.64-1.69c2.71-1.13,5.06-2.71,7.03-4.75
				c1.98-2.03,3.56-4.38,4.75-7.03c1.19-2.66,1.78-5.51,1.78-8.56c0-3.05-0.6-5.96-1.78-8.73c-1.19-2.77-2.8-5.17-4.83-7.2
				c-2.03-2.04-4.38-3.67-7.04-4.92C420.79,962.03,417.94,961.41,414.89,961.41z"/>
		</g>
		<g>
			<path class="st2" d="M519.08,750.53v20.51h-68.83v-20.51h24.07v-51.37c-1.02,1.36-2.63,2.74-4.83,4.15
				c-2.2,1.41-4.61,2.74-7.2,3.98c-2.6,1.25-5.28,2.26-8.05,3.06c-2.77,0.79-5.23,1.18-7.37,1.18v-21.19c2.03,0,4.52-0.64,7.46-1.95
				c2.93-1.3,5.82-2.85,8.64-4.66c2.82-1.81,5.28-3.59,7.37-5.34c2.09-1.75,3.42-3.13,3.99-4.15h23.22v76.29H519.08z"/>
			<path class="st2" d="M618.92,721.37c0,7.46-1.1,14.32-3.3,20.6c-2.21,6.27-5.26,11.7-9.16,16.27c-3.9,4.58-8.53,8.14-13.9,10.68
				c-5.37,2.54-11.16,3.81-17.38,3.81c-6.33,0-12.15-1.27-17.46-3.81c-5.31-2.54-9.92-6.1-13.81-10.68c-3.9-4.58-6.95-10-9.16-16.27
				c-2.2-6.27-3.31-13.14-3.31-20.6c0-7.46,1.1-14.32,3.31-20.6c2.2-6.27,5.26-11.69,9.16-16.27c3.9-4.57,8.5-8.16,13.81-10.76
				c5.31-2.6,11.13-3.9,17.46-3.9c6.21,0,12.01,1.3,17.38,3.9c5.37,2.6,10,6.19,13.9,10.76c3.9,4.58,6.95,10,9.16,16.27
				C617.82,707.04,618.92,713.91,618.92,721.37z M596.04,721.37c0-4.52-0.51-8.67-1.52-12.46c-1.02-3.79-2.46-7.03-4.32-9.75
				c-1.87-2.71-4.07-4.8-6.61-6.27c-2.54-1.47-5.34-2.21-8.39-2.21c-3.16,0-6.02,0.74-8.56,2.21c-2.54,1.47-4.75,3.56-6.61,6.27
				c-1.86,2.72-3.31,5.96-4.32,9.75c-1.02,3.79-1.53,7.94-1.53,12.46c0,4.52,0.51,8.64,1.53,12.38c1.02,3.73,2.46,6.95,4.32,9.66
				c1.86,2.71,4.07,4.8,6.61,6.27c2.54,1.47,5.39,2.21,8.56,2.21c3.05,0,5.85-0.74,8.39-2.21c2.54-1.47,4.74-3.56,6.61-6.27
				c1.86-2.72,3.3-5.94,4.32-9.66C595.53,730.01,596.04,725.89,596.04,721.37z"/>
		</g>
		<g>
			<path class="st2" d="M731.25,532.39v20.51h-68.83v-20.51h24.07v-51.37c-1.02,1.36-2.63,2.74-4.83,4.15
				c-2.2,1.41-4.61,2.74-7.2,3.98c-2.6,1.24-5.28,2.26-8.05,3.05c-2.77,0.79-5.23,1.19-7.37,1.19v-21.19c2.03,0,4.52-0.64,7.46-1.95
				c2.93-1.3,5.82-2.85,8.65-4.66c2.82-1.81,5.28-3.59,7.37-5.34c2.09-1.75,3.42-3.13,3.98-4.15h23.22v76.29H731.25z"/>
			<path class="st2" d="M814.99,532.39v20.51h-68.83v-20.51h24.07v-51.37c-1.02,1.36-2.63,2.74-4.83,4.15
				c-2.2,1.41-4.61,2.74-7.2,3.98c-2.6,1.24-5.28,2.26-8.05,3.05c-2.77,0.79-5.23,1.19-7.37,1.19v-21.19c2.03,0,4.52-0.64,7.46-1.95
				c2.94-1.3,5.82-2.85,8.65-4.66c2.82-1.81,5.28-3.59,7.37-5.34c2.09-1.75,3.42-3.13,3.98-4.15h23.23v76.29H814.99z"/>
		</g>
		<g>
			<path class="st2" d="M990.31,459.71v20.51h-68.83v-20.51h24.07v-51.37c-1.02,1.36-2.63,2.74-4.83,4.15
				c-2.2,1.42-4.61,2.74-7.2,3.98c-2.6,1.25-5.28,2.26-8.05,3.05c-2.77,0.79-5.23,1.19-7.37,1.19v-21.19c2.03,0,4.52-0.65,7.46-1.95
				c2.93-1.3,5.82-2.85,8.64-4.66c2.82-1.81,5.28-3.59,7.37-5.34c2.09-1.75,3.41-3.13,3.98-4.15h23.22v76.28H990.31z"/>
			<path class="st2" d="M1000.82,480.22c0-5.09,0.39-9.69,1.18-13.82c0.79-4.12,2.18-7.94,4.15-11.44c1.97-3.5,4.69-6.78,8.14-9.83
				c3.44-3.06,7.83-6.05,13.14-8.98c4.64-2.49,8.73-4.66,12.29-6.53c3.56-1.86,6.53-3.58,8.9-5.17c2.38-1.58,4.18-3.19,5.43-4.83
				c1.24-1.63,1.86-3.53,1.86-5.68c0-3.39-1.35-6.29-4.07-8.73c-2.71-2.43-6.61-3.64-11.7-3.64c-2.71,0-5.2,0.37-7.45,1.1
				c-2.26,0.74-4.38,1.73-6.36,2.97c-1.98,1.24-3.79,2.63-5.42,4.15c-1.64,1.52-3.14,3.14-4.49,4.83l-14.58-16.78
				c1.47-1.58,3.56-3.31,6.27-5.17c2.71-1.86,5.9-3.62,9.57-5.26c3.67-1.63,7.74-2.99,12.21-4.07c4.46-1.07,9.24-1.61,14.32-1.61
				c5.77,0,10.9,0.71,15.43,2.12c4.52,1.41,8.33,3.39,11.45,5.93c3.1,2.54,5.47,5.59,7.12,9.15c1.63,3.56,2.45,7.43,2.45,11.61
				c0,3.95-0.73,7.46-2.2,10.51c-1.47,3.05-3.33,5.76-5.59,8.14c-2.26,2.37-4.72,4.44-7.37,6.19c-2.66,1.75-5.23,3.31-7.71,4.66
				c-2.04,1.13-4.35,2.43-6.95,3.9c-2.6,1.47-5.17,3.08-7.71,4.83c-2.54,1.75-4.88,3.56-7.03,5.42c-2.15,1.87-3.79,3.7-4.92,5.51
				h51.37v20.51H1000.82z"/>
		</g>
	</g>
</g>
<path class="st3" d="M995.01,534.31l-22.5,38.77c-3.49,6.02,0.73,13.59,7.69,13.77l11.56,0.3l-6.07,543.33
	c-0.07,6.17,4.87,11.23,11.04,11.29l0,0c6.17,0.07,11.23-4.88,11.3-11.04l6.07-543.16l10.88,0.28c7.11,0.19,11.72-7.44,8.24-13.65
	l-22.28-39.78C1007.47,528.23,998.57,528.16,995.01,534.31z"/>
<path class="st3" d="M810.46,703.14l1,44.82c0.15,6.96,7.7,11.21,13.74,7.74l10.02-5.76l195.63,328.71
	c3.15,5.3,10.01,7.04,15.31,3.89l0,0c5.3-3.16,7.04-10.01,3.89-15.31L854.5,738.66l9.43-5.43c6.17-3.55,6.12-12.46-0.07-15.94
	l-39.74-22.35C817.93,691.46,810.3,696.04,810.46,703.14z"/>
<path class="st0" d="M1047.25,1007.53c0,26.09-21.15,47.25-47.25,47.25c-26.09,0-47.25-21.15-47.25-47.25
	c0-26.09,21.15-47.25,47.25-47.25C1026.09,960.28,1047.25,981.43,1047.25,1007.53z"/>
</svg>
