<?xml version="1.0" encoding="utf-8"?>
<!-- Generator: Adobe Illustrator 24.1.2, SVG Export Plug-In . SVG Version: 6.00 Build 0)  -->
<svg version="1.1" id="Capa_1" xmlns="http://www.w3.org/2000/svg" xmlns:xlink="http://www.w3.org/1999/xlink" x="0px" y="0px"
	 viewBox="0 0 2000 2000" style="enable-background:new 0 0 2000 2000;" xml:space="preserve">
<style type="text/css">
	.st0{fill:#F9AC85;}
	.st1{fill:#F29D77;}
	.st2{fill:#E09A96;}
	.st3{fill:#FFDF22;}
	.st4{fill:#E5E5E5;}
	.st5{fill:#FFC19F;}
	.st6{fill:#870404;}
	.st7{fill:#F0F9FC;}
	.st8{fill:#3791DB;}
	.st9{opacity:0.18;fill:#2F4675;}
	.st10{fill:#365160;}
	.st11{fill:#E0956C;}
	.st12{opacity:0.37;fill:#2B000B;}
	.st13{fill:#1784CE;}
	.st14{fill:#116299;}
	.st15{opacity:0.18;fill:#2B000B;}
	.st16{opacity:0.29;}
	.st17{fill:#660202;}
	.st18{fill:#CE6B5B;}
	.st19{fill:#FFFFFF;}
	.st20{fill:#C4735B;}
	.st21{fill:#772400;}
	.st22{fill:#F9FEFF;}
	.st23{fill:#1482B2;}
	.st24{fill:#FEFFFE;}
	.st25{fill:#B8EEF4;}
	.st26{fill:#474949;}
</style>
<g>
	<g>
		<path class="st0" d="M286.67,799.73c1.4-6.85,41.48-83.58,49.14-83.81c10.5-0.32,27.5,28.38,5.33,60.23
			c14.99,45.98,36.48,118.82,15.41,133.01c-21.08,14.19-48.87,18.56-68.8-11.03C284.13,892.75,283.71,814.19,286.67,799.73z"/>
		<path class="st1" d="M365.59,932.71c48.69,12.37,103.75,18.63,115.81,10.51c21.07-14.19-7.65-58.14-44.64-97.58
			c-6.31-6.73-21.97-16.48-39.71-28.38c-3.51,1.66-7.04,3.29-10.36,5.52C350.84,846.92,341.6,895.88,365.59,932.71z"/>
		<path class="st2" d="M420.16,800.92c1.5,1.6-3.95,9.16-12.19,16.89c-8.23,7.73-16.12,12.7-17.62,11.1
			c-1.5-1.6,3.95-9.16,12.19-16.89C410.77,804.28,418.66,799.31,420.16,800.92z"/>
		<g>
			
				<rect x="263.54" y="602.38" transform="matrix(0.729 -0.6845 0.6845 0.729 -390.7456 375.5746)" class="st3" width="30.81" height="157.79"/>
			<path class="st4" d="M222.6,617.45l-3.29,3.09c0,0-63.05-66.95-75.75-80.66l-4.59-8.04l7.9,4.98
				C159.56,550.52,222.6,617.45,222.6,617.45z"/>
			<polygon class="st4" points="226.03,616.71 218.09,624.17 204.34,606.59 209.49,601.76 			"/>
			
				<rect x="211.99" y="617.86" transform="matrix(0.7289 -0.6846 0.6846 0.7289 -364.9517 321.1254)" class="st4" width="22.07" height="7.1"/>
			<path class="st4" d="M409.97,811.71l-8.54,8.02c0,0-59.11-62.75-71.01-75.62l8.6-7.96C350.89,749,409.97,811.71,409.97,811.71z"
				/>
			<path class="st4" d="M351.79,721.93c1.86,1.99-4.91,11.37-15.13,20.97c-10.22,9.59-20.01,15.76-21.87,13.78
				c-1.86-1.98,4.91-11.37,15.12-20.97C340.13,726.11,349.92,719.94,351.79,721.93z"/>
		</g>
		<path class="st5" d="M386.38,756c8.65,5.38,5.55,18.07-0.1,26.9c7.85,1.72,22.31,4.93,19.96,14.63
			c33.78-3.21,31.21,10.44,29.93,14.75c-1.92,6.47-20.85,16.23-29.22,30.5c-5.6,9.54-5.76,20.15-1.4,57.21
			c8.85,5.56,46.5-19.33,74.16-0.07c19.89,13.86,34.03,58.01,1.78,78.42C466.8,987.63,330.9,935.27,313,924.42
			c-27.04-16.38-24.66-111.25-13.69-123.66C316.17,781.68,373.33,754.64,386.38,756z"/>
		<g>
			<path class="st1" d="M326.24,834.79c-0.95,8.88-2.72,25.41-3.03,41.43c-0.01,1.07,0.82,1.96,1.89,1.97
				c1.06,0.01,1.93-0.83,1.96-1.88c0.31-15.86,2.07-32.28,3.01-41.12c0.32-2.99,0.56-5.18,0.63-6.28
				c-0.06-4.18,27.5-29.6,55.59-46.01c0.54-0.85,1.04-1.76,1.53-2.67c-21.41,8.6-60.46,40.53-60.95,48.42
				C326.77,829.73,326.55,831.86,326.24,834.79z"/>
			<path class="st1" d="M363.22,847.52c-0.96,8.92-2.74,25.53-3.07,41.7c-0.01,1.08,0.81,1.95,1.89,1.97
				c1.06,0.01,1.93-0.83,1.96-1.89c0.3-16.02,2.07-32.52,3.03-41.37c0.31-2.87,0.53-4.96,0.6-6.04c0.34-5.54,21.3-33.18,43.39-43.42
				c0.57-0.26,0.87-0.77,0.99-1.35c-1.8,0.08-3.72,0.21-5.79,0.4l-2.73,1.44c-21.89,11.69-39.27,35.65-39.71,42.68
				C363.73,842.7,363.5,844.73,363.22,847.52z"/>
		</g>
	</g>
	<path class="st6" d="M1658.45,620.17c-10.74-7.51-42.89-33.44-28.65-91.89c5.28-21.65-9.74-30.41-22.99-38.16
		c-18.07-10.56-33.69-19.68-13.16-57.26c25.68-46.99,16.22-89.83-24.65-111.83c-31.69-17.04-64.3-48.99-90.62-87.82
		c-9.59-21.92-34.1-24.03-39.19-39.5c-179.84-45.74-472.49-5.51-567.54,24.62l-3.09-28.08c-8.19,43.38-56.79,86.1-82.51,113.73
		c-31.14,33.48-45.92,69.84-29.35,110.19c6.55,16.01,11.54,30.2,5.89,41.78c-4.77,9.8-17.35,17.69-38.44,24.12
		c-20.89,6.36-33.92,15.34-39.81,27.45c-8.33,17.08-0.51,36.14,6.37,52.95c4.85,11.85,3.14,29.27-0.55,38.06
		c-13.6,32.45-26.18,43.84-21.33,67.58c-0.41-24.86,14.67-37.02,26.89-64.04c4.56-10.09,7.4-26.83-1.67-48.76
		c-6.44-15.58-10.82-28.44-3.74-43c5.07-10.42,16.79-18.29,35.85-24.09c23.25-7.09,36.73-15.82,42.41-27.49
		c2.15-4.41,2.73-9.12,2.74-13.95c9.65,23.93,8.54,43.03-35.81,59.44c-81.51,30.18-6.4,86.92-19.32,109.26
		c-22.19,38.35-28.4,45.67-26.68,76.62c1.97,35.46,35.9,74.31,61.21,82.72c0.61-5.53-32.89-55.87-8.32-108.24
		c3.33,29.73,35.7,113.25,42.88,117.83c106.94,68.14,535.72,59.75,682.52,2.51c28.05-10.94,9.81-55.04,18.19-71.05
		c6.06-11.58,10.72,65.93,22.07,58.95c142.09-87.39,120.2-139.4,105.11-141.81c-20.99-3.35-34.52-2.41-6.91-94.43
		c13.39-44.63-74.28-25.83-35.85-96.18c23.04-42.17,15.64-79.52-23.32-107.48c-13.65-9.8-25.84-24.3-36.83-40.61
		c17.98,14.84,36.36,27.46,53.89,36.89c37.91,20.39,47.78,56.42,23.64,100.61c-23.48,42.99-1.81,55.65,15.61,65.83
		c13.47,7.87,24.24,14.12,19.95,31.13C1606.91,591.93,1652.07,617.83,1658.45,620.17z M759.92,402.88
		c-9.92-32.93,1.12-62.31,28.33-91.56c15.3-16.44,38.41-29.49,56.86-46.33C818.75,321.72,762.87,358.72,759.92,402.88z"/>
	<path class="st7" d="M943.12,841.21c8.8-3.81,44.43-9.85,66.02-11.52c2.22,58.97,1.21,152.63-21.35,205.74L943.12,841.21z"/>
	<path class="st5" d="M619.97,994.67c-47.85-20.93-94.47-60.71-126.27-81.41c-31.55,0.63-70.22,29.95-70.56,48.73
		c40.36,37.83,95.8,74.25,143.1,103.63C588.11,1044.65,601.61,1017.72,619.97,994.67z"/>
	<polygon class="st8" points="437.14,1013.01 507.32,907.16 555.03,939.35 490.03,1043.48 	"/>
	<path class="st7" d="M737.48,1026.17c-35.39-16.31-135.3-63.29-209.99-110.1c-23.61,38.23-46.13,78.43-73.2,118.85
		c104.1,59.59,268.51,141.19,313.87,138.13c36.78-2.49,150.9-111.66,265.08-201.22c2.15-38.75,7.37-113.89,4.37-151.78
		c-16.31,2.8-77.43,18.28-126,26.89C853.95,911.3,830.93,938.14,737.48,1026.17z"/>
	<path class="st9" d="M915.44,1052.19c-1.23,6.42-1.65,12.3-1.6,17.84c26.85-22.52,55.52-46.67,84.75-70.45
		c3.67-16.64,6.32-34.72,8.05-53.38C986.41,944.75,951.15,960.37,915.44,1052.19z"/>
	<path class="st5" d="M1113,2000c3.32-58.74,7.15-117.08,11.72-172.99h-160.4c3.88,57.14,7.8,115.33,11.5,172.99H1113z"/>
	<path class="st5" d="M1348.87,2000c2.41-56.76,5.61-112.9,9.96-166.16h-163.04c3.72,54.74,7.92,110.64,12.24,166.16H1348.87z"/>
	<path class="st10" d="M1383.62,2000c59.96-357.48,58.94-461.87-21.56-668.94c0,0-91.59,16.03-197.8,18.03
		c-129.28,2.44-200.13-13.53-200.13-13.53c-74.1,200.82-70.56,314.65-4.45,664.44H1383.62z"/>
	<path class="st8" d="M1396.5,1445.57c-27.31,12.07-199.55,84.6-199.55,84.6l-30.77-61.3l-28.74,60.06
		c0,0-186.22-78.86-192.88-84.81c28.67-124.11,81.52-176.61,64.73-266.32c-2.51-13.41-41.56-80.26-38.72-93.71
		c19.41-91.85,34.13-164.65,43.86-199.64c92.92-11.29,237.05-11.76,297.67-2.61c21.54,57.55,30.39,122.26,46.06,208.32
		c2.14,11.74-18.33,75.85-19.42,87.63C1327.08,1303.21,1362.19,1287.66,1396.5,1445.57z"/>
	<path class="st9" d="M1264.47,1187.65c0,18.6-36.11-2.97-80.64-2.97c-44.54,0-80.64,21.57-80.64,2.97c0-18.6,36.1-44.7,80.64-44.7
		C1228.36,1142.95,1264.47,1169.04,1264.47,1187.65z"/>
	<path class="st7" d="M1036.21,826.32c-16.85,1.34-32.97,2.91-47.96,4.74c-11.37,40.87-28.55,125.87-51.22,233.12
		c-3.32,15.7,42.28,93.77,45.21,109.42c19.61,104.75-57.09,216.19-82.33,392.4c7.78,6.94,213.57,22.11,213.57,22.11l10.83-430.97
		C1124.31,1157.13,1083.1,913.4,1036.21,826.32z"/>
	<g>
		<path class="st11" d="M1656.45,1751.78c-9.29-25.28-37.22-92.31-65.78-163.52c-3.26-8.13-39.23-10.32-34.85-2.56
			C1581.28,1630.78,1616.6,1766.98,1656.45,1751.78z"/>
		<path class="st11" d="M1699.58,1759.51c-9.29-25.28-43.45-119.85-87.26-179.31c-5.4-7.34-40.5-4.99-35.34,2.29
			C1612.11,1632.07,1663.01,1770.13,1699.58,1759.51z"/>
		<path class="st5" d="M1735.99,1743.27c-9.29-25.28-92.54-188.22-136.35-247.68c-5.4-7.34-62.32,26.61-62.96,40.81
			c-17.52,27.2,9.78,94.87,0.66,163.45c-1.58,11.84,15.4,6.89,19.38,3.38c10.25-9.04,10.11-33.31,26.51-63.47
			c10-18.38,33.33-12.95,44.91-4.06C1672.08,1681.38,1704.69,1759.87,1735.99,1743.27z"/>
	</g>
	<path class="st5" d="M1478.8,1393.09c11.24,46.38,37.66,127.65,50.42,169.84c29.17,21.3,82.23,16.47,97.18-1.51
		c-7.19-64.74-29.19-138.58-49.27-199.94C1540.9,1366.62,1510.42,1377.54,1478.8,1393.09z"/>
	<polygon class="st8" points="1514.11,1551.45 1633.33,1518.79 1619.29,1459.38 1500.07,1492.04 	"/>
	<path class="st7" d="M1505.72,1530.46c19.77-3.39,117.17-33.31,125.01-40.34c-51.23-186.1-120.48-488.04-186.47-654.21
		c-18.85-3.04-94.7-5.24-120.05-9.42c1.38,61.22,28.52,170.49,31.54,207.84C1390.33,1102.22,1463.28,1403.54,1505.72,1530.46z"/>
	<path class="st7" d="M1367.31,1173.6c1.28-13.76,25.18-88.62,22.68-102.33c-18.3-100.49-28.63-176.06-53.79-243.26
		c-18.43-2.78-38.13-1.69-67.01-2.92c-0.64,50.34-55.26,328.52-55.26,328.52l27.67,444.51c0,0,178.36-15.83,210.25-29.93
		C1410.85,1349.72,1353.69,1320.05,1367.31,1173.6z"/>
	<path class="st12" d="M1398.17,804.54c7.05-39.74,10.99-81.72,10.99-125.27c0-243.86-118.7-441.54-265.12-441.54
		c-146.42,0-265.12,197.68-265.12,441.54c0,47.69,4.67,93.52,13.07,136.54C1034.57,839.97,1260.42,833.59,1398.17,804.54z"/>
	<rect x="1071" y="777.69" class="st13" width="176.83" height="59.4"/>
	<path class="st5" d="M1076.48,718.71v123.32c0,26.52,36.37,47.9,81.14,47.9s80.97-21.38,80.97-47.9V718.71H1076.48z"/>
	<path class="st14" d="M1179.51,941.24c0,8.12-6.58,14.69-14.69,14.69c-8.11,0-14.69-6.58-14.69-14.69
		c0-8.11,6.58-14.69,14.69-14.69C1172.94,926.55,1179.51,933.13,1179.51,941.24z"/>
	<path class="st14" d="M1179.51,1006.1c0,8.12-6.58,14.69-14.69,14.69c-8.11,0-14.69-6.58-14.69-14.69
		c0-8.11,6.58-14.69,14.69-14.69C1172.94,991.41,1179.51,997.99,1179.51,1006.1z"/>
	<path class="st15" d="M1296.76,716.04c0-8.46-2.59-16.49-6.25-24.24c-89.72-6.46-195.68-4.93-280.31,2.95
		c-2.81,6.85-4.74,13.91-4.74,21.29c0,48.79,65.21,88.34,145.65,88.34C1231.55,804.38,1296.76,764.83,1296.76,716.04z"/>
	<path class="st16" d="M1237.73,937.75c-41.8,9.8-74.4-31.63-78.65-47.88c3.97,1.03,85.07-59.66,88.77-101.28
		c1.18,2.06,19.16,33.38,20.99,36.49C1275.5,852.2,1286.85,926.24,1237.73,937.75z"/>
	<path class="st8" d="M1230.38,921.9c-34.87,7.68-73.14-31.24-72.77-31.97c3.56,0.83,84.72-73.27,89.51-112.24
		c1,1.89,20.16,44.56,21.71,47.4C1272.35,846.32,1262.22,914.88,1230.38,921.9z"/>
	<path class="st16" d="M1078.38,936.71c41.66,10.35,74.77-30.59,79.23-46.78c-3.98,0.98-84.24-60.83-87.39-102.49
		c-1.21,2.05-19.59,33.13-21.46,36.21C1041.74,850.67,1029.42,924.55,1078.38,936.71z"/>
	<path class="st8" d="M1085.94,920.95c34.76,8.14,73.5-30.34,73.14-31.07c-3.57,0.78-83.72-74.31-87.99-113.34
		c-1.02,1.87-20.74,44.3-22.32,47.11C1044.96,844.83,1054.19,913.52,1085.94,920.95z"/>
	<g>
		<path class="st5" d="M1530.94,578.57c-19.01,67.74-86.02,109.23-135.67,101.62c-49.64-7.61-58.13-63.66-48.11-129.09
			c10.03-65.43,58.43-112.47,108.06-104.69C1523.03,457.05,1548.8,514.9,1530.94,578.57z"/>
		<path class="st11" d="M1467.13,592.12c-4.4,28.69-28.47,48.8-53.77,44.93c-25.3-3.88-42.25-30.28-37.85-58.97
			c4.4-28.69,28.47-48.8,53.77-44.92C1454.58,537.03,1471.53,563.43,1467.13,592.12z"/>
		<path class="st6" d="M1492.84,340.62c22.21,241.47-145.69,399.06-337.13,396.47C964.27,734.5,808.97,556.7,831.56,322.16
			c6.32-65.6,42.52-123.67,100.26-164.68c56.9-40.4,282.74-84.98,388.8-37.01C1456.06,136.62,1482.12,224.06,1492.84,340.62z"/>
		<path class="st5" d="M1432.22,276.21c16.39,38.01-4.79,359.45-43.57,405.37c-41.13,48.72-144.28,107.28-227.07,107.28
			c-76.08,0-202.36-53.3-232.92-107.87c-36.15-64.59-51.84-355.35-39.55-390.48c41.54-118.64,144.32-121.27,278.69-119.45
			C1293.5,172.76,1389.71,177.58,1432.22,276.21z"/>
		<g>
			<path class="st17" d="M1266.8,631.1c-8.14,26.25-40.51,67.94-100.49,69.2c-66.81,1.41-98.22-53.33-101.44-70.27
				c-5.64-29.69,49-21.95,105.82-22.74C1227.44,606.51,1277.25,597.4,1266.8,631.1z"/>
			<path class="st18" d="M1165.26,702.84c17.78,0.6,34.2-4.55,48.6-12.34c-9.01-11.55-21.4-15.32-37.59-18.32
				c-23.16-4.29-55.97-2.42-68.63,13.66C1120.68,698.16,1148.9,702.29,1165.26,702.84z"/>
			<path class="st19" d="M1246.01,606.48c-19.57-2.44-47.91-0.47-75.14-0.32c-30.47,0.17-60.25-1.61-80.8,0.3
				c5.67,14.55,37.28,26.56,75.9,27.85C1207.79,635.71,1243.59,622.5,1246.01,606.48z"/>
		</g>
		<path class="st20" d="M1186.37,579.97c-1.48-0.02-2.77-1.11-3-2.62c-1.63-10.74-10.01-17.78-21.34-17.94
			c-11.4-0.15-20.16,6.79-21.81,17.28c-0.27,1.68-1.85,2.83-3.52,2.57c-1.68-0.27-2.83-1.84-2.57-3.52
			c2.11-13.44,13.62-22.69,27.98-22.49c14.29,0.2,25.28,9.51,27.36,23.17c0.25,1.69-0.9,3.26-2.58,3.52L1186.37,579.97z"/>
		<path class="st21" d="M1358.29,368.31c-2.07-0.14-4.1-1.02-5.66-2.61c-19.93-20.34-59.83-28.29-92.87-18.43
			c-4.58,1.39-9.47-1.24-10.87-5.88c-1.38-4.62,1.25-9.48,5.88-10.87c39.43-11.74,85.85-2.09,110.35,22.97
			c3.37,3.45,3.31,8.97-0.14,12.35C1363.13,367.65,1360.69,368.47,1358.29,368.31z"/>
		<path class="st21" d="M959.01,376.5c-2.37,0.36-4.88-0.26-6.87-1.91c-3.72-3.08-4.23-8.57-1.16-12.29
			c22.37-26.99,67.83-40.42,108.08-31.98c4.73,1,7.75,5.63,6.75,10.35c-1,4.74-5.64,7.76-10.35,6.75
			c-33.74-7.12-72.88,4.06-91.04,26.01C963.01,375.15,961.06,376.19,959.01,376.5z"/>
		<g>
			<path class="st22" d="M1087.65,476.23c20.56,30.93,17.93,64.82-0.13,77.56c-27.21,19.2-91.51,24.25-115.43-3.98
				c-23.17-27.35-11.83-76.8,26.08-97.83C1031.36,433.58,1067.76,446.3,1087.65,476.23z"/>
			<path class="st21" d="M967.94,466.72c29.59-47.48,100.48-30.78,120.4,10.56c-20.54-30.92-58.57-40.58-89.26-23.58
				c-18.96,10.52-32.47,29.4-36.12,50.49c-2.91,16.82,0.83,35.74,10.45,47.1C962.33,543.84,946.19,501.64,967.94,466.72z"/>
			<path class="st23" d="M1078.13,494.84c8.41,21.38-1.62,45.59-22.41,54.06c-20.78,8.47-44.44-2-52.84-23.38
				c-8.41-21.38,1.63-45.58,22.41-54.05C1046.07,462.98,1069.73,473.45,1078.13,494.84z"/>
			<path class="st24" d="M1074.83,491.14c2.33,5.93-0.45,12.65-6.22,15c-5.76,2.35-12.33-0.55-14.66-6.49
				c-2.33-5.93,0.45-12.65,6.22-15C1065.93,482.3,1072.5,485.21,1074.83,491.14z"/>
		</g>
		<g>
			<path class="st22" d="M1233.29,476.49c-20.22,30.86-17.22,64.76,0.98,77.56c27.42,19.3,91.78,24.57,115.39-3.59
				c22.87-27.28,11-76.77-27.14-97.92C1289.12,434.03,1252.85,446.62,1233.29,476.49z"/>
			<path class="st21" d="M1352.9,467.38c-30.11-47.58-100.82-31.12-120.29,10.15c20.21-30.84,58.14-40.38,89.01-23.27
				c19.08,10.58,32.78,29.51,36.67,50.62c3.09,16.83-0.44,35.74-9.94,47.07C1359.35,544.53,1375.04,502.38,1352.9,467.38z"/>
			<path class="st23" d="M1319.91,498.32c8.41,21.38-1.62,45.59-22.41,54.06c-20.78,8.47-44.44-2-52.84-23.38
				c-8.41-21.38,1.63-45.58,22.41-54.05C1287.84,466.47,1311.5,476.94,1319.91,498.32z"/>
			<path class="st24" d="M1316.6,494.63c2.33,5.93-0.45,12.65-6.22,15c-5.76,2.35-12.33-0.55-14.66-6.49
				c-2.33-5.93,0.45-12.65,6.22-15C1307.71,485.79,1314.27,488.7,1316.6,494.63z"/>
		</g>
	</g>
	<path class="st6" d="M891.99,815.81c14.82,1.58,32.37-60.7,22.05-109.44c-11.96-56.47,33.69-105.41-1.73-165.89
		c-37.97-64.83,38.02-73.73,15.55-151.49c-25.05-86.73,26.22-100.93,77.76-96.48c93.18,8.03,104.92-74.64,186.19-79.92
		c-44.5,24.13-60.3,48-77.76,67.39c-19.29,21.42-75.49,31.49-110.96,32.83c44.6,8.85,125.85,9.1,169.28-43.2
		c70.68-85.1,175.01-43.87,178.85-110.16c-26.2-115.3-206.56-121.22-300.84-96.29c-164.32,43.45-208.38,153.43-214.13,250.96
		c-2.19,37.15-54.85,163.76-42.66,271.19C809.5,725.38,890.31,803.75,891.99,815.81z"/>
	<path class="st6" d="M1459.09,244.09c32.63,62.68,37.67,124.64,11.25,138.39c-26.42,13.75-74.28-25.91-106.91-88.59
		c-32.63-62.68-37.67-124.64-11.25-138.39C1378.59,141.74,1426.46,181.4,1459.09,244.09z"/>
	<path class="st9" d="M1267.39,809.98l-53.81,343.63l101.37-188.52l-36.07-20.9l62.71-125.21
		C1341.59,818.97,1300.27,815.37,1267.39,809.98z"/>
	<path class="st7" d="M1264.89,804.38c0,0-33.12,151.51-39.21,189.6c-6.09,38.09-12.11,159.63-12.11,159.63l88.16-194.79
		l-34.89-22.35l72.79-121.41C1339.63,815.06,1296.11,809.5,1264.89,804.38z"/>
	<path class="st9" d="M1044.03,820.04l80.25,338.43l-115.66-180.11l34.34-23.63l-72.21-119.98
		C970.75,834.75,1011.67,827.96,1044.03,820.04z"/>
	<path class="st7" d="M1046.08,814.26c0,0,44.74,148.49,53.77,186c9.02,37.51,24.43,158.21,24.43,158.21l-102.97-187.38l33.05-24.98
		L972.39,830.7C972.39,830.7,1015.36,821.78,1046.08,814.26z"/>
	
		<rect x="984.13" y="1388.1" transform="matrix(-0.9973 -0.0732 0.0732 -0.9973 1968.1017 2874.0396)" class="st25" width="105.11" height="25.75"/>
	
		<rect x="1262.22" y="1388.1" transform="matrix(0.9973 -0.0732 0.0732 0.9973 -98.9652 99.9353)" class="st25" width="105.11" height="25.75"/>
	<path class="st26" d="M78.09,433.35c-2.13-2.27-5.69-2.4-7.98-0.28c-2.2,2.14-2.41,5.7-0.27,7.99l34.76,37.33
		c2.13,2.27,5.69,2.39,7.98,0.28l0.51-0.55c1.78-2.15,1.72-5.34-0.24-7.44L78.09,433.35z M33.71,497.18c-3.11-0.5-6,1.63-6.46,4.67
		c-0.49,3.09,1.61,5.99,4.69,6.48l50.35,8.08c2.05,0.32,4.02-0.5,5.25-1.99c0.63-0.76,1.06-1.67,1.22-2.69
		c0.49-3.09-1.61-5.99-4.69-6.49L33.71,497.18z M152.84,405.41c-3.06-0.62-6.01,1.39-6.65,4.42l-10.02,50
		c-0.61,3.06,1.36,6.04,4.43,6.65c2.11,0.42,4.18-0.39,5.46-1.94c0.57-0.7,0.99-1.54,1.19-2.48l10.02-50
		C157.89,409,155.91,406.02,152.84,405.41z"/>
</g>
</svg>
