<?xml version="1.0" encoding="utf-8"?>
<!-- Generator: Adobe Illustrator 24.1.2, SVG Export Plug-In . SVG Version: 6.00 Build 0)  -->
<svg version="1.1" id="Capa_1" xmlns="http://www.w3.org/2000/svg" xmlns:xlink="http://www.w3.org/1999/xlink" x="0px" y="0px"
	 viewBox="0 0 2000 2000" style="enable-background:new 0 0 2000 2000;" xml:space="preserve">
<style type="text/css">
	.st0{opacity:0.11;}
	.st1{fill:#FFC19F;}
	.st2{fill:#ED3A3A;}
	.st3{fill:#FFF8B3;}
	.st4{fill:#992020;}
	.st5{fill:#752912;}
	.st6{fill:#FC4D00;}
	.st7{opacity:0.37;fill:#700606;}
	.st8{fill:#5B1707;}
	.st9{fill:#FF5F27;}
	.st10{fill:#FF8A57;}
	.st11{fill:#73DCF4;}
	.st12{fill:#133B75;}
	.st13{fill:#3AB7DD;}
	.st14{fill:#6BDDF7;}
	.st15{fill:#024FA3;}
	.st16{fill:#C3F1FC;}
	.st17{opacity:0.55;}
	.st18{opacity:0.6;}
	.st19{opacity:0.61;fill:#FFFFFF;}
	.st20{opacity:0.35;fill:#053B56;}
	.st21{opacity:0.19;fill:#601805;}
	.st22{fill:#F4B18C;}
	.st23{fill:#E0956C;}
	.st24{fill:#FF9797;}
	.st25{fill:#701608;}
	.st26{fill:#DD6B5B;}
	.st27{fill:#FFFFFF;}
	.st28{fill:#C4735B;}
	.st29{fill:#681D0C;}
	.st30{fill:#F9FEFF;}
	.st31{fill:#773220;}
	.st32{fill:#63190D;}
	.st33{fill:#FEFFFE;}
	.st34{fill:#F9951E;}
	.st35{fill:#E04B00;}
	.st36{fill:#E25B00;}
	.st37{fill:#FF9D00;}
	.st38{fill:#D81919;}
	.st39{fill:#F9E7D7;}
	.st40{fill:#FF3333;}
</style>
<g>
	<g>
		<ellipse class="st0" cx="1046.68" cy="1939.03" rx="360.45" ry="27.54"/>
		<path class="st1" d="M869.81,1288.14c2.59,40.25,13.31,415.98,26.59,576.58c1.02,12.38,95.71,9.33,96.39-2.97
			c3.83-69.5,37.97-569.64,37.97-569.64L869.81,1288.14z"/>
		<g>
			<g>
				<path class="st2" d="M871.24,1733.91c1.47-0.59,2.62-1.79,4.3-1.8c7.05-0.02,12.78,5.74,12.8,12.79l-15.84-0.32
					C872.24,1741.91,871.78,1738.48,871.24,1733.91z"/>
				<path class="st2" d="M977.61,1731.79c7.05-0.02,12.78,5.75,12.8,12.79H964.9C964.87,1737.53,970.57,1731.81,977.61,1731.79z"/>
				<path class="st2" d="M1003.13,1731.7c3.5-0.01,6.67,1.41,8.98,3.69c-0.28,4.14-0.51,7.65-0.62,9.19h-21.07
					C990.39,1737.53,996.08,1731.73,1003.13,1731.7z"/>
				<path class="st2" d="M952.1,1731.86c7.05-0.02,12.78,5.67,12.8,12.71h-25.52C939.36,1737.53,945.05,1731.89,952.1,1731.86z"/>
				<path class="st2" d="M926.58,1731.95c7.05-0.02,12.78,5.58,12.8,12.63l-25.52,0.32
					C913.84,1737.85,919.53,1731.97,926.58,1731.95z"/>
				<path class="st2" d="M901.06,1732.03c7.05-0.02,12.78,5.82,12.8,12.87h-25.52C888.32,1737.85,894.02,1732.05,901.06,1732.03z"/>
			</g>
			<path class="st3" d="M885.58,1879.06c0.47,3.7,120.51-1.34,121.03-5.83c4.28-37.45,4.36-114.56,4.88-128.66H872.51
				C876.61,1783.57,882.56,1855.36,885.58,1879.06z"/>
			<path class="st3" d="M904.84,1801c2.06-8.82,84.54,7.2,99.63,4.76c0.12,20.46,11.46,53.59,10.5,81.38
				c-0.66,19.34-16.95,33.27-34.67,36.23c-68.45,11.44-249.46,46.24-256.69-4C717.68,1878.13,825.83,1848.35,904.84,1801z"/>
			<path class="st2" d="M1015.38,1838.24c-1.21-1.55-4.61-1.73-7.17,0.7c-16.8,9.47-43.42,19.07-65.35,25.53
				c-7.47,2.2-14.87,3.85-22.13,5.05c-6.8-21.57-24.82-47.5-41.57-58.26c-3.51-2.27-8.03-1.05-10.15,2.65
				c-2.11,3.7-0.98,8.54,2.51,10.78c12.92,8.28,27.59,29.03,34.07,46.41c-44.67,3.49-81.1-7.33-95.37-23.43
				c-52.37,25.05-109.12,44.83-108.8,73.12c0.49,43.33,314.86,7.97,314.86,7.97C1016.02,1902.71,1015.81,1861.67,1015.38,1838.24z"
				/>
			<path class="st4" d="M1016.48,1912.43c-0.15,5.78-0.25,11.37-0.21,16.33c0,0-271.1,44.39-312.49,5.14
				c-1.48-1.41-3.1-8.34-2.31-10.55C776.77,1941.4,947.93,1921.91,1016.48,1912.43z"/>
			<path class="st2" d="M1011.12,1764.68c-56.56,2.77-80.63,2.23-136.6,0.59c-0.19-1.99-0.39-3.98-0.57-5.89
				c56.47,1.66,80.38,2.22,137.26-0.56C1011.18,1760.77,1011.15,1762.45,1011.12,1764.68z"/>
		</g>
		<path class="st1" d="M1215.75,1288.14c-2.59,40.25-13.31,415.98-26.59,576.58c-1.02,12.38-95.71,9.33-96.39-2.97
			c-3.83-69.5-37.97-569.64-37.97-569.64L1215.75,1288.14z"/>
		<path class="st5" d="M1527.62,603.11c-11.58-6.87-46.61-31.17-38.38-95.66c3.05-23.88-12.96-31.63-27.09-38.48
			c-19.27-9.34-35.92-17.4-19.2-60.14c20.93-53.43,6.96-98.47-36.43-117.56c-33.63-14.78-69.76-45.51-100.27-84.34
			c-11.93-22.51-21.61-44.22-28.33-60.29c-185.61-29.07-446.02,50.48-538.47,93.55l-51.87-4.03
			c-3.71,47.59-47.16,91.88-70.14,124.49c-27.83,39.5-38.9,80.29-18.04,121.84c8.26,16.49,14.74,31.19,10.28,44.29
			c-3.78,11.08-15.6,20.98-36.15,30.26c-20.34,9.18-32.51,20.3-37.17,33.99c-6.6,19.31,3.25,38.94,11.92,56.25
			c6.11,12.21,6.21,31.14,3.41,41.02c-10.3,36.44-21.76,50.1-14.41,75.1c-2.99-26.7,10.9-41.47,20.38-71.92
			c3.54-11.37,4.65-29.7-6.75-52.28c-8.1-16.04-13.85-29.39-8.24-45.84c4.01-11.78,14.98-21.56,33.54-29.94
			c22.64-10.23,35.29-21.14,39.79-34.33c1.7-4.99,1.8-10.12,1.3-15.31c12.19,24.67,13.06,45.33-29.82,67.96
			c-78.83,41.6,2.62,94.24-8.05,119.72c-18.32,43.75-23.8,52.32-18.85,85.42c5.68,37.93,32.83,59.08,59.16,65.29
			c0.04-6.01-27.89-39.58-8.63-98.68c6.45,31.62,40.12,104.93,48.62,106.41c135.45,23.48,537.29,38.72,678.95-39.31
			c27.06-14.91,18.53-79.22,25.28-97.37c4.89-13.15,18.39,60.17,25.56,78.9c153.19-104.94,76.37-150.65,63.65-159.43
			c-15.01-10.37-20.86-31.13,13.27-123.69c17.4-47.19-77.38-19.47-46.07-99.47c18.77-47.96,7.45-87.31-34.64-113.03
			c-14.75-9.01-28.51-23.25-41.26-39.57c19.63,13.95,39.43,25.48,58.03,33.65c40.25,17.7,53.92,55.35,34.25,105.6
			c-19.14,48.88,3.97,60.08,22.55,69.08c14.36,6.96,25.85,12.47,23.3,31.25C1472.86,578.5,1520.96,601.31,1527.62,603.11z
			 M601.46,469.99c-13.4-34.32-5.36-67.16,18.96-101.68c13.67-19.4,35.55-36.03,52.35-56.21
			C652.18,376.08,599.83,422.15,601.46,469.99z"/>
		<g>
			<path class="st6" d="M742.92,1274.02c32.24,17.31,58.98,29.77,92.28,39.47c62.61,14.35,437.49-19.47,440.21-49.52
				c-4.93-429.75,12.21-502.21-67.01-533.52c-42.93-2.29-257.1,10.31-389.16,16.58c-81.83,3.88-91.5,55.14-89.55,178.81
				c0.05,3.2,21.42,2.78,24.44,3.21C756.98,1026.3,745.35,1205.78,742.92,1274.02z"/>
			<path class="st7" d="M817.97,832.77c0,0,417.21-13.58,448.36-14.18c10.55,71.14,6.26,199.83,9.08,445.39
				c-2.71,30.05-377.59,63.88-440.21,49.52c-6-1.75-11.6-3.7-17.24-5.64V832.77z"/>
			<path class="st8" d="M755.45,838.43c0.54-11.52,4.35-65.02,39.97-66.76c38.47-1.87,40.99,50.83,42.18,68.98
				c5.93,90.45,1.66,288.27-5.79,466.89c-28.93-9.95-58.03-23.15-86.83-40.35C749.57,1102.53,751.54,922.66,755.45,838.43z"/>
			<path class="st9" d="M755.37,832.94c18.19,0.79,75.31-1.16,81.74,0.58c5.89,86.99,3.87,308.06-3.66,479.9
				c-28.93-9.52-63.01-20.73-91.8-37.21C746.31,1117.81,747.44,918.45,755.37,832.94z"/>
			<path class="st7" d="M839.17,1126.79c-1.09,72.69-2.71,117.96-5.72,186.62c-28.93-9.52-63.01-20.73-91.8-37.21
				c1.51-51.21,2.59-112.54,3.71-167.08C765.3,1115.99,816.06,1122.74,839.17,1126.79z"/>
			<path class="st9" d="M839.1,1128.85c-1.19,62.43-3.1,126.31-5.65,184.57c-6.2,0.21-11.49,3.07-17.62,1.82
				c-27.09-5.56-48.72-19.93-74.16-34.46c-17.5-9.99-6.59-130.23-2.48-166.24c0.58-5.1,4.76-7.67,6.35-7.6
				C742.44,1138.85,808.21,1141.4,839.1,1128.85z"/>
			<path class="st10" d="M832.49,1133.75c2.6-0.72,4.32-1.24,6.62-2.13l0.09-4.26c-23.77,9.33-68.46,9.11-85.56-4.05
				c-5.33-4.15-8.69-10.34-8.11-16.37c0,0-2.62-0.1-3.81,1.84c1.55,9.26,2.9,12.86,9.4,17.88
				C767.97,1139.68,806.76,1140.83,832.49,1133.75z"/>
		</g>
		<path class="st11" d="M1367.21,970.52c-35.78,24.94-104.29,66.75-144.14,77.56c-4.67-119.34,18.2-243.34,18.1-249.43
			c3.7,0.54,12.33,4.18,16.37,7.43C1283.93,835.36,1317.12,898.84,1367.21,970.52z"/>
		<path class="st1" d="M693.28,1209.91c-3.96,4.88-67.12-47.09-63.69-52.36c57.4-88.31,149.92-234.42,166.44-260.11
			c42.27,42.45,56.92,66.67,51.95,110.69C844.34,1040.48,756.14,1132.35,693.28,1209.91z"/>
		<path class="st11" d="M857.6,807.29c-28.46,20.27-55.1,67.51-126.09,166.37c38.42,36.95,153.34,79.25,157.6,79.04
			c40.39-65.32,7.15-257.05,10.46-258.75C885.57,796.79,865.62,801.58,857.6,807.29z"/>
		<path class="st11" d="M852.14,1274.72c276.55,73.32,305.31,9.26,403.61-5.91c-3.89-17.42-30.17-220.48-14.58-470.17
			c-94.51-13.39-237.6-11.18-342.07-4.69C879.43,869.96,858.51,1186.4,852.14,1274.72z"/>
		<path class="st12" d="M1319.7,1474.08c-159.06,56.63-416.38,62.53-559.19-23.15c0,0,81.89-224.61,93.8-251.18
			c98.56,13.46,285.78,11.76,404.38-10.17C1267.38,1231.62,1308.48,1421.66,1319.7,1474.08z"/>
		<rect x="958.02" y="754.11" class="st13" width="206.52" height="67.86"/>
		<path class="st1" d="M980.12,678.14l4.01,131.63c0.86,28.3,37.53,50.16,81.91,48.8c44.38-1.35,79.65-25.4,78.79-53.7l-4.02-131.63
			L980.12,678.14z"/>
		<path class="st14" d="M1024.12,866.47l77.78-5.08c0,0-7.6-32.56-31.65-34.83c-9.42,1.93-20.36,2.06-33.58,1.09
			C1032.55,831.14,1024.12,866.47,1024.12,866.47z"/>
		<g>
			<path class="st15" d="M1072.91,1076.12c-18.97,0.11-37.64-1-56.21-2.48l23.12-170.63c0.81-10.47,40.44-10.58,41.36,0
				l26.91,171.16C1096.37,1074.86,1084.79,1076.05,1072.91,1076.12z"/>
			<g>
				<path class="st16" d="M1032.98,953.5l1.45-10.72c18.38,12.06,38.71,25.02,58.89,37.48l2,12.69
					C1074.32,980.08,1052.62,966.33,1032.98,953.5z"/>
				<path class="st16" d="M1104.13,1048.95l1.98,12.58c-25.42-15.05-54.73-33.35-80.94-50.32l1.44-10.66
					C1051.36,1016.66,1079.19,1034.04,1104.13,1048.95z"/>
				<path class="st16" d="M1046.56,1074.97c-6.57-0.23-13.13-0.46-19.64-0.88c-3.14-2.03-6.41-4.1-9.46-6.1l1.45-10.72
					C1027.57,1062.96,1037.21,1069.01,1046.56,1074.97z"/>
			</g>
			<path class="st17" d="M1039.82,903.01c0.81-10.47,40.44-10.58,41.36,0l5.26,33.67l-48.7-17.22L1039.82,903.01z"/>
			<path class="st15" d="M1039.86,912.22c10.69,2.37,34.89,1.73,43.16-0.25c3.02-0.02,5.67-2.02,6.5-4.92l18.2-63.26
				c1.26-4.37-2.09-7.98-6.58-8.69c-6.81-1.07-13.93-3.35-41.74-3.28c-21.14,0.05-28.59,1.77-39.23,3.75
				c-4.5,0.83-7.82,4.46-6.46,8.83l19.62,63.04C1034.21,910.3,1036.94,911.57,1039.86,912.22z"/>
			<g>
				<path class="st16" d="M1048.36,832.08c14.49,10.03,32.77,22.11,52.69,34.88l-2.81,9.77c-25.56-16.32-49.18-31.99-65.11-43.36
					C1037.29,832.79,1042.17,832.34,1048.36,832.08z"/>
				<path class="st16" d="M1028.28,891.21l-4.59-14.76c16.15,10.89,35.42,23.44,55.4,36.06c-4.33,0.62-9.89,1.09-16.22,1.19
					C1050.65,905.91,1039.04,898.36,1028.28,891.21z"/>
			</g>
		</g>
		<g class="st18">
			<path d="M1258.69,1189.58c2.64,12.76,9.47,44.83,16.34,76.89c-90.1,19.23-253.45,28.52-436.27-27.18
				c7.31-19.25,13.03-33.94,15.55-39.54C952.87,1213.21,1140.1,1211.51,1258.69,1189.58z"/>
		</g>
		<path class="st12" d="M884.94,795.65c0,0,54.83-4.25,66.5-5.35c0,0,71.79,197.99,124.55,199.64
			c52.74-2.27,94.96-200.91,94.96-200.91c11.69,0.97,66.56,4.59,66.56,4.59c2.59,19.25,33.03,323.58,44.67,432.1
			c-64.04,26.9-240.53,58.04-443.05,1.21C853.72,1111.16,882.62,814.52,884.94,795.65z"/>
		<path class="st19" d="M920.59,792.84c3.44-0.28,6.74-0.54,10.01-0.8c28.34,81.82,98.33,215.67,145.31,217.07
			c47.25-1.95,88.46-136.44,115.86-218.58c3.28,0.23,6.57,0.45,10.02,0.69c-23.11,69.73-67.56,225.26-125.82,227.66
			C1017.96,1017.15,944.48,862.3,920.59,792.84z"/>
		<g>
			<path class="st20" d="M994.16,896.42c-41.76-4-49.65-84.11-46.7-104.95c0,0,9.03-22.3,9.8-26.25
				c2.67,28.09,34.52,49.96,90.02,60.02C1039.15,850.21,1026.48,899.52,994.16,896.42z"/>
			<path class="st11" d="M995.47,884.77c-40.15-3.75-48.11-78.68-47.53-94.38c0,0,9.34-32.53,10.08-36.28
				c2.53,26.71,38.15,61.43,91.51,70.93C1036.98,826.64,1026.55,887.67,995.47,884.77z"/>
		</g>
		<g>
			<path class="st20" d="M1129.59,895.64c41.71-4.48,48.68-84.67,45.49-105.49c0,0-9.29-22.19-10.1-26.13
				c-2.34,28.12-33.94,50.35-89.32,61.05C1084.06,849.95,1097.3,899.11,1129.59,895.64z"/>
			<path class="st11" d="M1128.14,884.01c40.1-4.21,47.2-79.23,46.44-94.92c0,0-9.25-31.23-10.04-34.98
				c-2.22,26.74-37.91,60.68-91.15,70.79C1085.96,826.36,1097.1,887.27,1128.14,884.01z"/>
		</g>
		<path class="st21" d="M961.93,676.72c0.89-7.72,3.24-14.9,6.08-21.87c73.56,7.28,183.06,24.5,259.9,44.71
			c0.08,3.41,0.89,6.72,0.5,10.18c-6.86,59.69-72.08,100.68-145.66,91.56C1009.16,792.19,955.07,736.41,961.93,676.72z"/>
		<g>
			<path class="st22" d="M1382.21,520.18c-11.83,66.33-69.69,110.61-115.69,106.59c-46-4.03-58.35-57.31-54.56-120.82
				c3.81-63.51,44.2-111.9,90.2-107.71C1365.02,403.97,1393.33,457.84,1382.21,520.18z"/>
			<path class="st5" d="M679.3,297.81c-11.15,240.9,179.79,387.16,381.06,374c201.27-13.16,336.88-189.6,301.26-421.15
				c-19.78-128.56-143.2-229.78-335.4-215.97C821.63,49.39,687.94,111.07,679.3,297.81z"/>
			<path class="st1" d="M765.67,240.08c-15.58,41.54,35.46,398.23,79.83,445.15c47.06,49.78,234.25,81.58,271.5,79.15
				c39.89-2.61,169.21-59.56,199.16-119.6c35.43-71.05,29.71-378.9,14.52-415.76c-51.36-124.48-162.38-121.53-307.23-112.07
				C887.94,125.81,806.08,132.28,765.67,240.08z"/>
			<path class="st1" d="M681.2,580.51c22.86,67.78,93.07,106.37,143.07,96.04c50-10.34,29.41-215.06-62.87-226.46
				C684.55,440.59,659.72,516.81,681.2,580.51z"/>
			<path class="st23" d="M737.07,573.68c5.97,28.89,40.39,51.25,64.51,41.5c9.4-3.8-13.83-104.4-29.18-103.35
				C746.43,513.61,731.09,544.79,737.07,573.68z"/>
			<path class="st24" d="M851.46,586.72c0.16,14.56,20.52,26.15,45.48,25.89c24.96-0.27,45.07-12.28,44.92-26.85
				c-0.16-14.56-20.52-26.15-45.48-25.89C871.42,560.14,851.31,572.16,851.46,586.72z"/>
			<path class="st24" d="M1239.2,564.98c1.42,12.87,18.21,21.59,37.51,19.46c19.29-2.12,33.79-14.28,32.37-27.16
				c-1.42-12.87-18.22-21.58-37.51-19.46C1252.27,539.96,1237.78,552.12,1239.2,564.98z"/>
			<g>
				<path class="st25" d="M1206.44,588.54c-5.43-22.99-40.8-15.47-98.99-13.38c-3.05,0.11-14.88,0.61-17.93,0.77
					c-58.17,2.87-94.04-1.62-97.49,21.75c-6.66,45.01,51.59,91.38,110.68,89.04l1.02-0.04
					C1162.81,683.98,1216.9,632.82,1206.44,588.54z"/>
				<path class="st26" d="M1104.06,687.59l-1.02,0.04c-19.17,0.75-39.27-3.84-58.2-13.22l-1.16-0.55l0.92-0.89
					c14.77-14.42,35.12-22.89,57.32-23.84c22.16-0.94,43.17,5.76,59.15,18.87l0.99,0.81l-1.11,0.65
					C1142.85,680.42,1123.18,686.71,1104.06,687.59z"/>
				<path class="st27" d="M1100.05,605.31c-40.66,1.73-75.04-9.42-79.99-25.97l-0.29-1.02l157.97-6.73l-0.2,1.03
					C1173.99,589.53,1140.67,603.58,1100.05,605.31z"/>
			</g>
			<path class="st28" d="M1080.32,547.29c1.6-0.11,2.93-1.35,3.09-2.99c1.16-11.68,9.8-19.74,22.02-20.54
				c12.29-0.8,22.13,6.2,24.49,17.42c0.38,1.8,2.16,2.95,3.94,2.57c1.8-0.38,2.95-2.14,2.57-3.94
				c-3.03-14.38-15.96-23.71-31.44-22.7c-15.4,1.01-26.74,11.67-28.22,26.52c-0.18,1.83,1.16,3.46,2.99,3.65L1080.32,547.29z"/>
			<path class="st29" d="M843.32,366.48c2.64-0.37,5.16-1.66,7.01-3.8c23.7-27.22,74.03-40.96,117.19-31.87
				c5.99,1.29,12-2.45,13.38-8.36c1.35-5.88-2.44-11.67-8.49-12.95c-51.49-10.8-110.03,5.67-139.14,39.2
				c-4.01,4.62-3.44,11.48,1.28,15.34C837.06,366.13,840.27,366.91,843.32,366.48z"/>
			<path class="st29" d="M1307.33,327.15c2.5-0.09,4.94-1.2,6.66-3.27c3.21-3.85,2.56-12.55-1.3-15.76
				c-28.05-23.33-77.12-28.37-116.68-12.03c-4.64,1.93-6.72,10.22-4.8,14.85c1.93,4.66,7.26,6.85,11.88,4.92
				c33.15-13.74,75.33-9.79,98.1,9.19C1302.97,326.54,1305.17,327.23,1307.33,327.15z"/>
			<path class="st5" d="M1258.66,118.42c-57.27-22.2-159.52-25.05-249.69-14.91c-98.03,11.04-197.47,36.06-247.14,77.05
				c-32.87,27.12-55.05,204.25-39.58,188.14c17.71-18.43,47.26-36.45,83.47-52.66c2.37-19.51,22.87-69.86,27.24-76.73
				c-0.71,10.25,0.42,45.89,1.22,64.87c45.52-17.65,98.27-32.38,150.34-42.02c-3.55-19.85,3.17-47.03,3.05-48.4
				c6.81,5.26,22.45,31.78,29.15,43.07c7.87-1.14,15.69-2.15,23.42-3.02c70.89-7.98,123.85-9.46,166.61-6.17
				c-9.9-61.48-12.57-80.74-12.45-76.48c9.18,12.19,23.47,48.8,27.76,77.9c16.06,1.77,30.64,4.26,44.23,7.37
				c-0.88-18.13-0.39-47.68-0.43-52.67c5.92,2.68,21.21,41.17,27.2,59.92c22.91,7.2,43.59,16.23,65.01,26.47
				C1381.45,301.34,1304.82,136.31,1258.66,118.42z"/>
			<g>
				<path class="st30" d="M1180.36,518.89c0,0,87.18,26.38,115.59-28.82c34.62-67.26-29.41-114.17-67.76-101.55
					C1192.7,400.19,1162.6,439.63,1180.36,518.89z"/>
				<path class="st31" d="M1296.26,407.21c-17.44-22.39-39.11-28.33-61.83-24.06c-23.22,4.37-45.5,25.7-50.71,46.5
					c10.91-23.77,32.01-33.63,45.28-37.99c21.13-6.98,50.21,2.58,64.61,24.81c12.81,19.78,14.11,50.66,1.41,75.35
					C1310.9,474.54,1314.44,430.54,1296.26,407.21z"/>
				<path class="st32" d="M1195.02,447.43c-6.08,23.74,5.4,49.4,25.64,57.31c20.24,7.91,41.57-4.92,47.65-28.66
					c6.08-23.74-5.4-49.4-25.64-57.31C1222.43,410.86,1201.09,423.69,1195.02,447.43z"/>
				<path class="st33" d="M1197.57,440.03c-1.69,6.58,1.5,13.7,7.11,15.9c5.62,2.19,11.54-1.37,13.22-7.95
					c1.69-6.59-1.5-13.7-7.11-15.9C1205.18,429.88,1199.26,433.44,1197.57,440.03z"/>
			</g>
			<g>
				<path class="st30" d="M1028.73,530.07c0,0-98.39,39.29-140.5-11c-51.32-61.29,16.61-117.38,63.71-110.71
					C995.52,414.54,1037.15,448.99,1028.73,530.07z"/>
				<path class="st31" d="M874.81,437.16c16.99-24.78,41.54-33.95,68.94-33.16c28.01,0.81,57.57,18.53,66.97,38.31
					c-16.58-21.86-42.95-28.42-59.24-30.72c-25.95-3.71-58.65,10.15-72.09,34.32c-11.95,21.5-8.62,52.25,10.21,74.74
					C868.19,505.98,857.11,462.99,874.81,437.16z"/>
				<path class="st32" d="M903.18,467.9c-7.59,23.87,5.6,49.38,29.48,56.97c23.87,7.59,49.38-5.6,56.97-29.48
					c7.59-23.87-5.6-49.38-29.48-56.97C936.28,430.84,910.77,444.03,903.18,467.9z"/>
				<path class="st33" d="M906.33,460.45c-2.11,6.62,1.55,13.7,8.18,15.81c6.62,2.11,13.7-1.55,15.81-8.18
					c2.11-6.62-1.55-13.7-8.18-15.81C915.51,450.16,908.44,453.83,906.33,460.45z"/>
			</g>
			<g>
				<path class="st34" d="M647.89,338.22c0,0-15.49,53.07,15.46,50.02c30.96-3.05,53.8-28.38,51.02-56.57
					c-2.78-28.19-30.12-48.57-61.08-45.52C622.33,289.2,647.89,338.22,647.89,338.22z"/>
				<path class="st34" d="M814.1,321.84c0,0,25.55,49.03-5.4,52.08c-30.96,3.05-58.3-17.33-61.08-45.52
					c-2.78-28.19,20.06-53.52,51.02-56.57C829.59,268.77,814.1,321.84,814.1,321.84z"/>
				<path class="st34" d="M751.57,328.72c1.32,13.4-7.17,25.2-18.95,26.36c-11.79,1.16-22.41-8.76-23.73-22.15
					c-1.32-13.4,7.16-25.19,18.95-26.36C739.63,305.41,750.25,315.33,751.57,328.72z"/>
			</g>
		</g>
		<g>
			<path class="st35" d="M1280.65,1103.13c1.67,8.74,4.25,24.74-0.88,23.42c-42.25-31.76-40.74-94.89-45.18-183.02l19.39-2.12
				c1.78,75.65,5.39,118.94,15.25,141.13C1272.93,1090.87,1279.49,1101.58,1280.65,1103.13z"/>
			<path class="st36" d="M1218.97,951.78l46.27-1.26l5.32-4.75c0,0-16.57-148.42-33.05-155.42c-9.95-4.23-35.23-4.55-45.66-2.34
				c-0.71,0.87-0.43,2.64-0.32,4.9c6.37,2.75,10.91,11.12,12.87,17.53C1216.15,848.8,1218.97,951.78,1218.97,951.78z"/>
			<path class="st37" d="M1223.84,947.52l46.73-1.75c0,0-7.35-107.79-19.38-142.72c-2.65-7.69-9.47-14.08-12.95-16.01
				c-5.27-2.93-48.72-4.6-46.37,0.97c7.81,2.84,15.02,9.62,18.81,26.33C1221.5,862.11,1223.84,947.52,1223.84,947.52z"/>
		</g>
		<g>
			<path class="st35" d="M851.47,1141.23c77.31-23.48,101.05-101.76,92.76-192.13l-19.44-1.64c2.04,124.71-32.78,155.42-85.56,175
				l-0.29,20.59C845.4,1142.95,847.71,1141.97,851.47,1141.23z"/>
			<path class="st36" d="M905.7,957.3l46.28-1.03l5.35-4.72c0,0-15.83-148.51-32.26-155.59c-9.93-4.28-35.2-4.73-45.65-2.56
				c-0.72,0.87-0.44,2.63-0.34,4.89c6.35,2.78,10.86,11.18,12.78,17.59C903.39,854.31,905.7,957.3,905.7,957.3z"/>
			<path class="st37" d="M910.58,953.07l46.74-1.52c0,0-7.03-113-18.89-148c-2.61-7.7-9.4-14.12-12.87-16.07
				c-5.26-2.95-48.47,0.33-46.16,5.92c7.79,2.88,14.97,9.69,18.68,26.42C908.67,867.65,910.58,953.07,910.58,953.07z"/>
		</g>
		<g>
			<path class="st23" d="M541.57,1294.11c18.29-18.44,42.59-49,96.3-99.83c6.13-5.8,39.77,9.05,32.76,13.99
				C629.9,1237,571.87,1315.2,541.57,1294.11z"/>
			<path class="st23" d="M505,1281.35c18.29-18.44,53.23-71.37,116.26-104.47c7.78-4.09,38.34,13.65,31.33,18.59
				C611.86,1224.2,530.36,1298.16,505,1281.35z"/>
			<path class="st1" d="M472.38,1249.23c18.29-18.44,133.6-103.51,196.63-136.61c7.77-4.09,43.16,47.06,38.22,60.16
				c5.4,32.72-39.4,63.81-57.73,129.91c-3.17,11.42-16.72-0.99-18.98-6.01c-5.83-12.95-2.65-17.62-5.88-52.49
				c-1.97-21.25-25.35-27.27-39.36-24.67C527.47,1240.14,492,1264.59,472.38,1249.23z"/>
		</g>
		<g>
			<g>
				<path class="st2" d="M1214.31,1733.91c-1.47-0.59-2.62-1.79-4.3-1.8c-7.05-0.02-12.78,5.74-12.8,12.79l15.84-0.32
					C1213.33,1741.91,1213.78,1738.48,1214.31,1733.91z"/>
				<path class="st2" d="M1107.95,1731.79c-7.05-0.02-12.78,5.75-12.8,12.79h25.52C1120.69,1737.53,1115,1731.81,1107.95,1731.79z"
					/>
				<path class="st2" d="M1082.43,1731.7c-3.5-0.01-6.67,1.41-8.98,3.69c0.29,4.14,0.52,7.65,0.62,9.19h21.08
					C1095.17,1737.53,1089.48,1731.73,1082.43,1731.7z"/>
				<path class="st2" d="M1133.47,1731.86c-7.05-0.02-12.78,5.67-12.8,12.71h25.52C1146.21,1737.53,1140.51,1731.89,1133.47,1731.86
					z"/>
				<path class="st2" d="M1158.98,1731.95c-7.05-0.02-12.78,5.58-12.8,12.63l25.52,0.32
					C1171.72,1737.85,1166.03,1731.97,1158.98,1731.95z"/>
				<path class="st2" d="M1184.5,1732.03c-7.04-0.02-12.78,5.82-12.8,12.87h25.52C1197.24,1737.85,1191.54,1732.05,1184.5,1732.03z"
					/>
			</g>
			<path class="st3" d="M1199.98,1879.06c-0.47,3.7-120.51-1.34-121.03-5.83c-4.28-37.45-4.36-114.56-4.88-128.66h138.98
				C1208.95,1783.57,1203,1855.36,1199.98,1879.06z"/>
			<path class="st3" d="M1180.71,1801c-2.06-8.82-84.53,7.2-99.62,4.76c-0.13,20.46-11.46,53.59-10.5,81.38
				c0.66,19.34,16.95,33.27,34.67,36.23c68.45,11.44,249.47,46.24,256.69-4C1367.88,1878.13,1259.74,1848.35,1180.71,1801z"/>
			<path class="st2" d="M1070.18,1838.24c1.21-1.55,4.61-1.73,7.17,0.7c16.8,9.47,43.42,19.07,65.36,25.53
				c7.47,2.2,14.87,3.85,22.13,5.05c6.8-21.57,24.82-47.5,41.57-58.26c3.5-2.27,8.03-1.05,10.14,2.65c2.11,3.7,0.99,8.54-2.51,10.78
				c-12.92,8.28-27.6,29.03-34.07,46.41c44.67,3.49,81.11-7.33,95.37-23.43c52.37,25.05,109.11,44.83,108.79,73.12
				c-0.49,43.33-314.86,7.97-314.86,7.97C1069.54,1902.71,1069.75,1861.67,1070.18,1838.24z"/>
			<path class="st4" d="M1069.09,1912.43c0.15,5.78,0.25,11.37,0.2,16.33c0,0,271.1,44.39,312.5,5.14c1.48-1.41,3.09-8.34,2.3-10.55
				C1308.8,1941.4,1137.63,1921.91,1069.09,1912.43z"/>
			<path class="st2" d="M1074.44,1764.68c56.56,2.77,80.63,2.23,136.59,0.59c0.19-1.99,0.39-3.98,0.57-5.89
				c-56.47,1.66-80.38,2.22-137.26-0.56C1074.38,1760.77,1074.41,1762.45,1074.44,1764.68z"/>
		</g>
		<g>
			<g>
				<path class="st38" d="M945.81,1236.32l319.53-49.81l-9.38-338.97l-40.65-20.79c-4.43-2.1-9.31-2.99-14.17-2.59l-273.66,25.57
					c-3.91,0.37-6.84,3.82-6.66,7.85l16.67,371.62C937.68,1233.62,941.53,1236.91,945.81,1236.32z"/>
				<polygon class="st39" points="954.07,1228.19 1004.28,1257.08 1261.21,1212.46 1246.11,855.85 1209.55,837.9 940.67,865.71 				
					"/>
				<path class="st40" d="M989.42,1265.96l278.63-47.75l-12.08-370.67l-283.89,33.48c-5.91,0.68-10.31,5.94-10.07,12.05
					l14.23,361.86C976.51,1261.93,982.69,1267.1,989.42,1265.96z"/>
			</g>
			<path class="st1" d="M1126.98,1140.12c89.81-7.29,143.53-14.98,199.72-32.16c53.83-16.47,37.53-90.81,27.79-128.11
				c-48.21,23.84-175.9,58.78-240.07,79.1C1102.81,1062.62,1114.5,1141.13,1126.98,1140.12z"/>
			<path class="st1" d="M996.66,1151.83c27.94,0.92,59.7-1.1,117.67-9.41c41.95-6.01,48.79-38.95,42.55-60.5
				c-3.59-12.38-49.18-71.78-69.02-80.33c-13.08-5.64-40.06-16-42.84-14.14c-13.42,8.99,0.55,26.43,21.93,36.7
				c6.01,3.59,10.86,7.96,15.1,18.38c-1.37,5.25-42.39-16.65-61.51-22.53c-15.27-4.69-58.73,1.37-60.87,6.14
				c-5.28,11.72,31.48,16.47,46.21,19.7c5.12,1.12,19.24,8.76,27.39,14.75c-12.05,1.28-33.96-1.36-42.11-1.15
				c-15.73,0.41-50.19-3.34-54.7,6.53c-3.52,7.7,17.95,15,45.05,19.32c6.57,1.05,30.87,5.65,46.63,9.11
				c-0.02,0.68-37.52,2.52-42.77,1.54c-15.55-2.89-36.35-8.76-45.34,4.33c-2.46,3.58,30.49,19.16,46.76,20.75
				c7.26,0.71,23.24,2.92,42.54,3.51c-11.12,2.32-32.06,4.05-36.48,4.35c-22.82-7.93-32.22-10.31-39.15-0.62
				C951.56,1131.26,983.34,1151.39,996.66,1151.83z"/>
		</g>
	</g>
</g>
</svg>
