<?xml version="1.0" encoding="utf-8"?>
<!-- Generator: Adobe Illustrator 24.1.2, SVG Export Plug-In . SVG Version: 6.00 Build 0)  -->
<svg version="1.1" id="Capa_1" xmlns="http://www.w3.org/2000/svg" xmlns:xlink="http://www.w3.org/1999/xlink" x="0px" y="0px"
	 viewBox="0 0 2000 2000" style="enable-background:new 0 0 2000 2000;" xml:space="preserve">
<style type="text/css">
	.st0{opacity:0.11;}
	.st1{fill:#826E6E;}
	.st2{fill:#998888;}
	.st3{fill:#B04F4D;}
	.st4{fill:#A54747;}
	.st5{fill:#C26869;}
	.st6{fill:#CE7A7E;}
	.st7{opacity:0.16;fill:#510408;}
	.st8{fill:#CF7E87;}
	.st9{fill:#A84E50;}
	.st10{fill:#938383;}
	.st11{opacity:0.15;fill:#FFFFFF;}
	.st12{fill:#6B5A5A;}
	.st13{fill:#FFFFFF;}
	.st14{fill:#8C7D7D;}
	.st15{fill:#D8D8D8;}
	.st16{fill:#939393;}
	.st17{fill:#C6C4C6;}
	.st18{fill:#AFAFAF;}
	.st19{fill:#898989;}
	.st20{fill:#3A3438;}
	.st21{fill:#6D5F6A;}
	.st22{fill:#665662;}
	.st23{fill:#847F84;}
	.st24{fill:#3D383C;}
	.st25{fill:#564F55;}
	.st26{fill:#282326;}
	.st27{fill:#606060;}
	.st28{fill:#474747;}
	.st29{fill:#020202;}
	.st30{fill:#517C51;}
	.st31{fill:#26809B;}
	.st32{fill:#B74B4B;}
	.st33{fill:#AAAAAA;}
	.st34{fill:#828282;}
	.st35{fill:#2D2929;}
	.st36{fill:#FFC19F;}
	.st37{fill:#16B2AA;}
	.st38{fill:#FCEFAE;}
	.st39{fill:#ED3A3A;}
	.st40{fill:#992020;}
	.st41{fill:#D3DAE5;}
	.st42{fill:#1B6168;}
	.st43{fill:#12847C;}
	.st44{opacity:0.19;fill:#821C08;}
	.st45{opacity:0.35;}
	.st46{fill:#FFF3C0;}
	.st47{fill:#EFE4E4;}
	.st48{fill:#EC3633;}
	.st49{opacity:0.15;fill:#601D1D;}
	.st50{fill:#EFC57B;}
	.st51{fill:#F4B18C;}
	.st52{fill:#84220F;}
	.st53{fill:#E0956C;}
	.st54{fill:#FF9797;}
	.st55{fill:#701608;}
	.st56{fill:#DD6B5B;}
	.st57{fill:#C4735B;}
	.st58{fill:#752912;}
	.st59{fill:#F9FEFF;}
	.st60{fill:#773220;}
	.st61{fill:#63190D;}
	.st62{fill:#FEFFFE;}
	.st63{fill:#F9AC85;}
	.st64{fill:#F29D77;}
	.st65{fill:#F9CD80;}
</style>
<g>
	<g>
		<path class="st0" d="M494.49,1372.92c0,3.67-20.36,6.65-45.47,6.65c-25.11,0-45.47-2.98-45.47-6.65c0-3.67,20.36-6.65,45.47-6.65
			C474.13,1366.27,494.49,1369.25,494.49,1372.92z"/>
		<path class="st0" d="M407.5,1368.87c0.26,4.41-51.24,11.1-115.04,14.93c-63.8,3.84-115.73,3.37-116-1.05
			c-0.26-4.41,51.24-11.1,115.04-14.93S407.23,1364.46,407.5,1368.87z"/>
		<g>
			<path class="st0" d="M1000.95,1363.69H241.74c-5.3,0-10.6-0.48-15.81-1.42l-127.85-23.21c-4.59-0.83-3.98-7.6,0.68-7.6h724.6
				c5.69,0,11.37,0.51,16.97,1.53l160.77,29.18C1002.01,1362.34,1001.89,1363.69,1000.95,1363.69z"/>
			<g>
				<path class="st1" d="M762.54,1186.88l43.05,135.56c3.38,7.64-0.09,16.56-7.74,19.93c-7.65,3.37-16.6-0.09-19.97-7.73
					l-69.55-123.89L762.54,1186.88z"/>
				<path class="st1" d="M201.94,1186.88l-43.05,135.56c-3.38,7.64,0.09,16.56,7.74,19.93c7.65,3.37,16.6-0.09,19.97-7.73
					l69.55-123.89L201.94,1186.88z"/>
			</g>
			<g>
				<path class="st2" d="M905.66,1198.61l44.45,139.96c3.49,7.89-0.09,17.1-7.99,20.58c-7.9,3.48-17.13-0.09-20.62-7.98
					l-71.81-127.91L905.66,1198.61z"/>
				<path class="st2" d="M326.86,1198.61l-44.45,139.96c-3.49,7.89,0.09,17.1,7.99,20.58c7.9,3.48,17.13-0.09,20.62-7.98
					l71.81-127.91L326.86,1198.61z"/>
			</g>
			<g>
				<path class="st3" d="M969.97,1078.63c-0.01-31.07-0.02-70.88-0.02-72.22c0.06-43.32-44.7-58.86-72.18-58.01
					c-29.11,0.9-67.08,18.81-67.65,63.31c-0.32,24.91-0.19,45.4-0.14,62.72C829.98,1074.43,957.12,1075.9,969.97,1078.63z"/>
				<polygon class="st3" points="1025.11,1138.5 899.93,1113.13 922.73,951.58 1043.46,975.26 				"/>
				<polygon class="st3" points="979.78,1256.44 830.03,1226.09 830.03,1028.89 979.78,1059.24 				"/>
			</g>
			<path class="st4" d="M795.21,839.12l-3.98-43.61l-70.88-11.59c-4.3-0.58-8.67-0.89-13.13-0.89H203.44
				c-53.69,0-97.21,43.52-97.21,97.21v219.49h698.2V880.24C804.43,865.52,801.06,851.62,795.21,839.12z"/>
			<path class="st5" d="M869.64,1110.52h-698.2V891.04c0-53.69,43.52-97.21,97.21-97.21h503.78c53.69,0,97.21,43.52,97.21,97.21
				V1110.52z"/>
			<g>
				<path class="st3" d="M162.05,1078.63c-0.01-31.07-0.02-70.88-0.02-72.22c0.06-43.32-44.7-58.86-72.18-58.01
					c-29.11,0.9-67.08,18.81-67.65,63.31c-0.32,24.91-0.19,45.4-0.14,62.72C22.06,1074.43,149.21,1075.9,162.05,1078.63z"/>
				<path class="st6" d="M873.44,1119.97h150.66l-154.46-32.26c-173.46-13.66-399.44-10.51-590.19,1.42l1.74,108.13
					c170.3,1.02,446.73,1.08,593.17-0.03c-0.55-3.09-0.92-6.22-0.92-9.37V1119.97z"/>
				<path class="st7" d="M290.77,1036.91c-0.58-45.57-38.15-58.71-67.41-64.47c-16.16-3.18-41.85-8.45-51.91-10.37v153.95h119.46
					C290.9,1096.53,291.16,1067,290.77,1036.91z"/>
				<polygon class="st3" points="217.19,1138.5 92.01,1113.13 92.01,948.28 232.63,975.65 				"/>
				<polygon class="st3" points="171.86,1168.61 22.11,1138.25 22.11,1028.89 171.86,1059.24 				"/>
			</g>
			<path class="st8" d="M957.77,1118.58c27.52,16.43,50.63,81.52,26.42,107.21c-71.37,4.49-641.73,4.04-750.7,0
				c-37.94-9.26-20.03-94.96,0-107.21H957.77z"/>
			<path class="st3" d="M331.65,1192.92c-15.9-0.91-124.41-3.59-140.28-11.47c-25.66-12.73-28.77-29.36-29-79.93H22.36
				c0,14.59-0.01,25.2-0.01,25.2c0,68.33,41.68,129.46,154.74,144.95c42.03,5.76,107.75,12.64,107.75,12.64L331.65,1192.92z"/>
			<path class="st5" d="M223.74,1120.48c219.11-19.4,573.74-19.96,770.26,0c28.24,10.99,24.85,83.81,0,101
				c-73.23,3.01-658.5,2.69-770.31-0.02C184.77,1215.27,203.19,1128.68,223.74,1120.48z"/>
			<path class="st9" d="M984.19,1225.79c1.63-1.13,3.15-2.54,4.59-4.13c1.93-0.06,3.72-0.12,5.22-0.18
				c24.85-17.19,28.24-90.01,0-101c-13.17-1.34-27.09-2.58-41.59-3.73c-0.27,47.48-3.33,62.64-26.28,74.03
				c-23.32,11.58-68.99,11.47-69.52,11.43H385.35c-7.82-0.06-47.91-0.88-69.16-11.43c-23.14-11.47-26.07-26.76-26.3-75.33
				c-23.11,1.5-45.25,3.18-66.14,5.03c-20.53,8.19-38.83,94.65-0.05,100.98c2.78,2.11,5.9,3.71,9.79,4.33
				C342.46,1228.43,912.82,1228.72,984.19,1225.79z"/>
			<path class="st5" d="M145.02,1031.67c-0.06-43.32,44.7-58.86,72.18-58.01c29.11,0.9,67.08,18.81,67.65,63.31
				c1.46,115.37-6.71,140.4,29.16,158.2c24.63,12.22,71.69,11.95,71.69,11.95h470.92c0,0,47.06,0.27,71.69-11.95
				c35.87-17.8,27.7-42.83,29.16-158.2c0.56-44.49,38.54-62.41,67.65-63.31c27.48-0.85,72.24,14.69,72.18,58.01
				c0,2.21,0.03,108.76,0.03,108.76c0,68.33-39.9,140.91-154.74,144.95c-17.72,0.62-625.11,0.62-642.83,0
				C184.89,1281.34,145,1208.76,145,1140.43C145,1140.43,145.02,1033.87,145.02,1031.67z"/>
		</g>
		<g>
			<path class="st0" d="M1974.56,1487.74h-740.83c-5.04,0-10.06-0.63-14.94-1.88l-151.52-38.81c-2.77-0.71-2.25-4.78,0.6-4.78
				h748.25c5.43,0,10.83,0.68,16.09,2.03l143.22,36.68C1979.33,1481.98,1978.6,1487.74,1974.56,1487.74z"/>
			<path class="st10" d="M1817.52,1450.77h-700.63c-0.89,0-1.61-0.72-1.61-1.61v-257.83c0-0.89,0.72-1.61,1.61-1.61h700.63
				c0.89,0,1.61,0.72,1.61,1.61v257.83C1819.13,1450.05,1818.41,1450.77,1817.52,1450.77z"/>
			<polygon class="st10" points="1203.93,1470.84 1131.29,1450.34 1131.29,1297.05 1203.93,1317.54 			"/>
			<polygon class="st10" points="1880.89,1335.49 1806.71,1314.44 1806.71,1191.22 1880.89,1212.26 			"/>
			<path class="st11" d="M1117.78,1200.25l130.41,36.8v-16.24L1138,1189.72h-2.69C1127.71,1189.72,1121.17,1194.01,1117.78,1200.25z
				"/>
			<path class="st12" d="M1891.77,1471.7h-700.62c-0.89,0-1.61-0.72-1.61-1.61v-257.83c0-0.89,0.72-1.61,1.61-1.61h700.62
				c0.89,0,1.61,0.72,1.61,1.61v257.83C1893.38,1470.98,1892.66,1471.7,1891.77,1471.7z"/>
			<path class="st2" d="M1679.75,1423.8h-276.59c-0.89,0-1.61-0.72-1.61-1.61v-192.1c0-0.89,0.72-1.61,1.61-1.61h276.59
				c0.89,0,1.61,0.72,1.61,1.61v192.1C1681.36,1423.07,1680.64,1423.8,1679.75,1423.8z"/>
			<path class="st13" d="M1607.11,1403.3h-205.56v-173.24c0-0.87,0.71-1.58,1.58-1.58h205.59v173.21
				C1608.72,1402.58,1608,1403.3,1607.11,1403.3z"/>
			<polygon class="st12" points="1681.23,1343.17 1681.23,1335.58 1401.48,1335.58 1401.41,1343.17 			"/>
			<polygon class="st14" points="1681.23,1335.58 1608.59,1315.08 1401.48,1315.08 1401.48,1335.58 			"/>
			<g>
				<polygon class="st15" points="1602.06,1371.74 1647.05,1384.18 1476.22,1384.18 1431.23,1371.74 				"/>
				<polygon class="st15" points="1476.22,1384.18 1433.56,1372.34 1433.56,1408.39 1476.22,1420.24 1644.79,1420.24 
					1644.79,1384.18 				"/>
				<path class="st16" d="M1476.62,1412.9c-3.86,0-6.95,2.27-7.82,5.27l7.42,2.07h8.48c0.01-0.17,0.12-0.31,0.12-0.49
					C1484.83,1415.97,1481.15,1412.9,1476.62,1412.9z"/>
				<path class="st17" d="M1429.67,1407.28l40.64,11.32c2.98,0.83,5.92-1.41,5.92-4.5v-26.37c0-2.1-1.4-3.93-3.42-4.5l-40.64-11.32
					c-2.98-0.83-5.92,1.41-5.92,4.5v26.37C1426.25,1404.87,1427.65,1406.71,1429.67,1407.28z"/>
				<path class="st18" d="M1646.3,1420.24h-164.93c-2.84,0-5.14-2.3-5.14-5.14v-25.78c0-2.84,2.3-5.14,5.14-5.14h164.93
					c2.84,0,5.14,2.3,5.14,5.14v25.78C1651.44,1417.94,1649.14,1420.24,1646.3,1420.24z"/>
				<g>
					<rect x="1487.2" y="1391.35" class="st19" width="40.75" height="1.16"/>
					<rect x="1487.2" y="1395.41" class="st19" width="40.75" height="1.16"/>
					<rect x="1487.2" y="1399.47" class="st19" width="40.75" height="1.16"/>
					<rect x="1487.2" y="1403.53" class="st19" width="40.75" height="1.16"/>
					<rect x="1487.2" y="1407.59" class="st19" width="40.75" height="1.16"/>
					<rect x="1487.2" y="1411.65" class="st19" width="40.75" height="1.16"/>
				</g>
			</g>
			<polygon class="st20" points="1408.22,1200.68 1436.79,1208.84 1436.79,1200.68 1408.22,1192.52 			"/>
			<rect x="1436.79" y="1200.68" class="st20" width="210.28" height="8.16"/>
			<polygon class="st21" points="1647.07,1200.68 1618.5,1192.52 1408.22,1192.52 1436.79,1200.68 			"/>
			<polygon class="st22" points="1504.31,1129.56 1492.81,1126.12 1492.81,1197.35 1504.31,1200.79 			"/>
			<rect x="1503.95" y="1073.31" class="st20" width="75.96" height="135.53"/>
			<rect x="1503.95" y="1065.15" class="st20" width="75.96" height="135.53"/>
			<path class="st23" d="M1820.92,1132.28l-592.66,6.22c-12.44,0-34.24-16.31-34.24-28.75V792.12c0-12.44,10.09-22.53,22.53-22.53
				h604.37c12.44,0,32.27,8.88,36.91,21.02l-14.38,319.14C1843.45,1122.19,1833.36,1132.28,1820.92,1132.28z"/>
			<path class="st11" d="M1195.77,783.42l79.2,22.35v-16.24l-65.85-18.58C1203.1,773.06,1198.22,777.57,1195.77,783.42z"/>
			<path class="st24" d="M1836.66,1138.5h-604.37c-12.44,0-22.53-10.09-22.53-22.53V798.34c0-12.44,10.09-22.53,22.53-22.53h604.37
				c12.44,0,22.53,10.09,22.53,22.53v317.63C1859.19,1128.42,1849.11,1138.5,1836.66,1138.5z"/>
			<g>
				<path class="st25" d="M1654.74,1067.28h-244.79c-9.89,0-17.91-8.02-17.91-17.91V927.53c0-9.89,8.02-17.91,17.91-17.91h244.79
					c9.89,0,17.91,8.02,17.91,17.91v121.84C1672.65,1059.26,1664.63,1067.28,1654.74,1067.28z"/>
				<path class="st26" d="M1665.01,1076.33h-244.79c-9.89,0-17.91-8.02-17.91-17.91V936.59c0-9.89,8.02-17.91,17.91-17.91h244.79
					c9.89,0,17.91,8.02,17.91,17.91v121.84C1682.92,1068.32,1674.9,1076.33,1665.01,1076.33z"/>
				<path class="st27" d="M1651.68,1054.95c0,0-2.39-1.02-3.51-1.67c-1.83-1.04-2.77-1.83-2.77-3.94v-4.74
					c0-2.11,1.71-3.82,3.82-3.82h12.83c2.11,0,4.17,1.49,5.19,3.46l-1.12,5.09C1666.13,1051.45,1653.79,1054.95,1651.68,1054.95z"/>
				<path class="st28" d="M1656.18,1042.74h8.22c1.89,0,3.43,1.54,3.43,3.43v5.51c0,0.87-0.32,1.67-0.86,2.27
					c-0.63,0.71-1.55,1.16-2.57,1.16h-11.68c-1.89,0-3.43-1.54-3.43-3.43v-5.51c0-1.89,1.54-3.43,3.43-3.43H1656.18z"/>
				<g>
					<rect x="1443.99" y="941.62" class="st29" width="38.36" height="3.88"/>
					<rect x="1443.99" y="955.17" class="st29" width="38.36" height="3.88"/>
					<rect x="1443.99" y="968.71" class="st29" width="38.36" height="3.88"/>
					<rect x="1443.99" y="982.26" class="st29" width="38.36" height="3.88"/>
					<rect x="1443.99" y="995.8" class="st29" width="38.36" height="3.88"/>
					<rect x="1443.99" y="1009.35" class="st29" width="38.36" height="3.88"/>
					<rect x="1443.99" y="1022.89" class="st29" width="38.36" height="3.88"/>
					<rect x="1495.96" y="941.62" class="st29" width="38.36" height="3.88"/>
					<rect x="1495.96" y="955.17" class="st29" width="38.36" height="3.88"/>
					<rect x="1495.96" y="968.71" class="st29" width="38.36" height="3.88"/>
					<rect x="1495.96" y="982.26" class="st29" width="38.36" height="3.88"/>
					<rect x="1495.96" y="995.8" class="st29" width="38.36" height="3.88"/>
					<rect x="1495.96" y="1009.35" class="st29" width="38.36" height="3.88"/>
					<rect x="1495.96" y="1022.89" class="st29" width="38.36" height="3.88"/>
				</g>
				<g>
					<path class="st30" d="M1525.09,1055.95c-3.84,0-6.96-3.12-6.96-6.96c0-3.84,3.12-6.96,6.96-6.96c3.84,0,6.96,3.12,6.96,6.96
						C1532.05,1052.83,1528.93,1055.95,1525.09,1055.95z M1525.09,1043.91c-2.81,0-5.09,2.28-5.09,5.09c0,2.81,2.28,5.09,5.09,5.09
						c2.8,0,5.09-2.28,5.09-5.09C1530.18,1046.19,1527.9,1043.91,1525.09,1043.91z"/>
					<path class="st31" d="M1501.98,1055.95c-3.84,0-6.96-3.12-6.96-6.96c0-3.84,3.12-6.96,6.96-6.96c3.84,0,6.96,3.12,6.96,6.96
						C1508.94,1052.83,1505.82,1055.95,1501.98,1055.95z M1501.98,1043.91c-2.8,0-5.09,2.28-5.09,5.09c0,2.81,2.28,5.09,5.09,5.09
						c2.81,0,5.09-2.28,5.09-5.09C1507.07,1046.19,1504.79,1043.91,1501.98,1043.91z"/>
					<path class="st32" d="M1476.33,1055.95c-3.84,0-6.96-3.12-6.96-6.96c0-3.84,3.12-6.96,6.96-6.96c3.83,0,6.95,3.12,6.95,6.96
						C1483.28,1052.83,1480.16,1055.95,1476.33,1055.95z M1476.33,1043.91c-2.81,0-5.09,2.28-5.09,5.09c0,2.81,2.28,5.09,5.09,5.09
						c2.8,0,5.08-2.28,5.08-5.09C1481.41,1046.19,1479.13,1043.91,1476.33,1043.91z"/>
					<path class="st33" d="M1450.01,1055.95c-3.84,0-6.96-3.12-6.96-6.96c0-3.84,3.12-6.96,6.96-6.96c3.84,0,6.96,3.12,6.96,6.96
						C1456.97,1052.83,1453.85,1055.95,1450.01,1055.95z M1450.01,1043.91c-2.8,0-5.09,2.28-5.09,5.09c0,2.81,2.28,5.09,5.09,5.09
						s5.09-2.28,5.09-5.09C1455.1,1046.19,1452.82,1043.91,1450.01,1043.91z"/>
				</g>
			</g>
			<path class="st34" d="M1628.02,1414.54c0,0-2.38-1.03-3.51-1.67c-1.83-1.04-2.77-1.83-2.77-3.94v-4.74
				c0-2.11,1.71-3.82,3.82-3.82h12.83c2.11,0,4.17,1.49,5.19,3.46l-1.12,5.09C1642.47,1411.04,1630.13,1414.54,1628.02,1414.54z"/>
			<path class="st27" d="M1632.52,1402.33h8.22c1.89,0,3.43,1.54,3.43,3.43v5.51c0,0.87-0.32,1.67-0.86,2.27
				c-0.63,0.71-1.55,1.16-2.57,1.16h-11.68c-1.89,0-3.43-1.54-3.43-3.43v-5.51c0-1.89,1.54-3.43,3.43-3.43H1632.52z"/>
			<path class="st35" d="M1719.69,1489.35c-12.47,0-28.06-1.59-46.75-4.78c-20.4-3.47-23.13-19.13-25.13-30.57
				c-0.67-3.86-1.31-37.7-2.49-40.26c-0.89-1.92-3.93-2.05-8.84-2.09l-1.63-0.02c-1.72-0.02-3.09-1.44-3.06-3.16
				c0.03-1.7,1.41-3.06,3.11-3.06l1.64,0.02c5.56,0.05,11.85,0.1,14.43,5.71c1.52,3.29,2.22,37.51,2.97,41.79
				c1.95,11.2,3.97,22.77,20.04,25.51c58.9,10.03,72.05,1.41,74.97-2.77c0.52-0.75,0.39-1.13,0.39-1.13
				c-1-2.97-12.29-6.64-20.53-9.33c-15.97-5.19-32.5-10.55-33.7-21.81v-391.38h-36.54c-1.72,0-3.11-1.4-3.11-3.11
				s1.39-3.11,3.11-3.11h39.64c1.72,0,3.11,1.4,3.11,3.11v394.16c0.75,6.92,16.65,12.08,29.41,16.22
				c12.58,4.09,22.52,7.31,24.51,13.25c0.51,1.53,0.72,3.92-1.18,6.67C1749.37,1485.98,1737.86,1489.35,1719.69,1489.35z"/>
		</g>
		<g>
			<path class="st36" d="M619.59,951.69c-12.98,20.64-43.96,54.2-56.14,69.66c7.88,8.44,29.65,22.35,42.46,3.03
				c12.04-18.17,21.56-35.41,34.5-61.85C642.29,958.69,621.81,948.16,619.59,951.69z"/>
			<path class="st37" d="M612.15,992.15c-11.65,7.29-29.76,16.16-40.79,21.32c-5.79-26.63-17.83-80.79-17.77-82.71
				c15.97,3.14,24.74,3.58,29.04,6.06C590.48,946.44,597.51,968.81,612.15,992.15z"/>
			<g>
				<g>
					<path class="st36" d="M616.22,1184.95c0.23,1.04,39.49-5.67,39.38-6.96c-0.94-11.19-4.74-33.51-5.41-39.98l-41.94,7.13
						C610.93,1156.02,614.58,1177.43,616.22,1184.95z"/>
					<path class="st38" d="M612.2,1190.16c0.09,0.65,46.03-1.07,46.11-1.86c0.7-6.87,0.07-23.37,0.33-27.35l-49.22,4.49
						C610.47,1172.82,611.52,1185.48,612.2,1190.16z"/>
					<g>
						<path class="st39" d="M662.5,1182.83c-0.41-2.38-1.44-5.44-2.19-8.22c-0.56-2.06-20.08-3.63-20.6,1.15
							c-0.13,1.22-0.19,2.31-0.18,3.3c-3.34-0.29-6.95-0.68-10.76-1.19c-8.27-1.11-15.65-2.5-20.79-3.84
							c-1.07,7.54-1.68,20.71-2.8,29.1c0,0,85.38,24.69,100.3,13.41C709.68,1213.36,689.38,1195.45,662.5,1182.83z"/>
						<path class="st40" d="M605.77,1197.86c-0.18,1.87-0.37,3.67-0.59,5.27c0,0,85.38,24.69,100.3,13.41
							c0.59-0.45,0.69-1.19,0.36-2.17C681.34,1217.25,627.03,1203.59,605.77,1197.86z"/>
						<path class="st41" d="M668.35,1185.87c0.65,0.19,1.33-0.14,1.54-0.79c0.21-0.64-0.14-1.33-0.78-1.54
							c-4.95-1.59-11.06,0.18-14.86,4.33c-0.46,0.5-0.42,1.27,0.07,1.73c0.19,0.17,0.42,0.28,0.66,0.31
							c0.38,0.05,0.78-0.08,1.06-0.39C659.23,1186.05,664.29,1184.53,668.35,1185.87z M674.74,1189.59
							c0.65,0.19,1.31-0.28,1.45-0.94c0.14-0.66-0.28-1.31-0.94-1.45c-5.26-1.14-10.71,0.35-14.96,4.05
							c-0.51,0.44-0.56,1.22-0.12,1.73c0.2,0.23,0.47,0.37,0.76,0.41c0.34,0.05,0.69-0.05,0.97-0.29
							C666.91,1188.73,672.09,1189.02,674.74,1189.59z M681.99,1191.27c-4.72-1.3-11.1,0.31-15.55,3.89
							c-0.53,0.42-0.61,1.19-0.19,1.72c0.2,0.25,0.49,0.41,0.79,0.45c0.32,0.04,0.66-0.04,0.93-0.26c3.87-3.12,9.4-4.58,13.37-3.44
							c0.67,0.19,1.32-0.21,1.5-0.86C683.02,1192.12,682.64,1191.45,681.99,1191.27z"/>
					</g>
				</g>
				<path class="st42" d="M526.61,1027.23c10.75,4.03,25.05,10.36,31.49,12.27c41.2,12.25,65.88,17.99,74.86,29.13
					c9.52,11.82,15.75,30.53,23.42,81.29c-2.87,1.19-39.64,7.62-48.74,8.4c-8.23-35.96-11.12-47.37-15.06-48.12
					c-12.86-2.46-20.54-2.15-38.91-5.09c-9.94-1.59-22.98-3.07-31.54-13.1C509.15,1076.79,516.46,1049.72,526.61,1027.23z"/>
			</g>
			<path class="st37" d="M450.46,1062.78c27.74-0.76,64.11,6.78,85.61,4.49c20.23-2.16,26.06-16.1,53.02-18.65
				c1.11-3.91-8.48-7.12-8.85-9.46c-5.69-36.05-5.88-80.86-7.97-105.16c-11.24-1.97-73.1-12.18-110.09,3.09
				C456.1,961.05,450.06,1031.46,450.46,1062.78z"/>
			<path class="st43" d="M555.69,937.45c0.17-1.77-0.24-4.12-0.58-5.82c-1.37-0.24-2.86-0.5-4.34-0.7
				c-16.55-2.22-39.58-3.27-60.82-0.62c-0.06,0.32-0.15,0.67-0.17,0.91c-1.29,13.65,12.16,27.23,30.36,28.95
				C538.35,961.9,554.41,951.11,555.69,937.45z"/>
			<path class="st36" d="M547.76,896.87v40.18c0.03,8.66-10.88,15.72-24.46,15.76c-13.58,0.05-24.67-6.94-24.7-15.6v-40.35H547.76z"
				/>
			<path class="st44" d="M561.05,925.22c0.41-1.72,0.44-3.45,0.35-5.17c-17.13-4.42-43.12-9.65-62.01-11.58
				c-0.29,0.72-0.73,1.37-0.91,2.14c-3.15,13.31,8.3,27.38,25.57,31.41C541.33,946.06,557.89,938.54,561.05,925.22z"/>
			<path class="st36" d="M436.09,1029c-0.06,1.97,30.58,13.7,30.96,11.77c5.69-29.21,14.12-78.31,16.27-86.44
				c0,0-24.15-20.59-34.52-0.68C444.04,962.79,436.96,999.82,436.09,1029z"/>
			<path class="st37" d="M427.1,1004.88c11.64,5.05,49.33,9.72,58.33,9.57c0-22.86-0.72-75.11-3.77-75.04
				c-4.83-1.35-15.77-2.22-19.48-2.33C442.57,944.11,438.11,963.2,427.1,1004.88z"/>
			<g>
				<path class="st36" d="M546.28,1203.32c0.17,1.05,39.75-3.38,39.72-4.67c-0.3-11.23-2.79-33.72-3.09-40.23l-42.29,4.7
					C542.67,1174.12,545.08,1195.72,546.28,1203.32z"/>
				<path class="st38" d="M543.65,1207.85c0.09,0.65,46.04-0.44,46.13-1.23c0.79-6.86,0.39-23.37,0.71-27.35l-49.28,3.82
					C542.16,1190.5,543.03,1203.17,543.65,1207.85z"/>
				<g>
					<path class="st39" d="M594.52,1199.14c-0.55-2.35-1.76-5.35-2.68-8.08c-0.68-2.03-20.26-2.42-20.49,2.38
						c-0.06,1.23-0.05,2.32,0.02,3.31c-3.35-0.09-6.98-0.26-10.81-0.54c-8.33-0.61-15.77-1.56-20.99-2.59
						c-0.62,7.59-0.44,20.78-1.06,29.22c0,0,86.7,19.55,100.92,7.39C643.44,1226.79,622.1,1210.14,594.52,1199.14z"/>
					<path class="st40" d="M538.78,1217.53c-0.07,1.88-0.15,3.69-0.27,5.3c0,0,86.7,19.55,100.92,7.39
						c0.57-0.48,0.62-1.23,0.23-2.19C615.38,1232.37,560.35,1221.98,538.78,1217.53z"/>
					<path class="st41" d="M600.54,1201.82c0.66,0.16,1.32-0.22,1.49-0.88c0.17-0.65-0.22-1.32-0.88-1.49
						c-5.03-1.29-11.02,0.84-14.58,5.21c-0.43,0.52-0.35,1.29,0.18,1.72c0.2,0.16,0.44,0.25,0.68,0.27
						c0.39,0.03,0.78-0.13,1.04-0.45C591.45,1202.55,596.41,1200.73,600.54,1201.82z M607.14,1205.16c0.66,0.15,1.29-0.36,1.39-1.02
						c0.1-0.67-0.36-1.29-1.02-1.39c-5.32-0.83-10.67,0.98-14.69,4.93c-0.48,0.47-0.49,1.25-0.02,1.73c0.22,0.22,0.5,0.34,0.78,0.36
						c0.34,0.02,0.68-0.09,0.95-0.35C599.27,1204.76,604.46,1204.75,607.14,1205.16z M614.48,1206.4
						c-4.79-1.01-11.06,0.98-15.29,4.81c-0.5,0.45-0.54,1.23-0.08,1.73c0.22,0.24,0.51,0.38,0.82,0.4c0.32,0.02,0.65-0.08,0.91-0.31
						c3.68-3.34,9.11-5.14,13.14-4.23c0.68,0.15,1.31-0.28,1.45-0.94C615.56,1207.19,615.14,1206.54,614.48,1206.4z"/>
				</g>
			</g>
			<g class="st45">
				<path d="M585.18,1109c-2.53-11.98-6.16-20.26-10.58-25.44c-11.59-13.6-42.36-20.14-58.28-24.63
					c-2.54,13.31-1.59,24.42,5.8,33.08c8.56,10.04,21.6,11.52,31.54,13.1C568.26,1107.45,576.12,1107.75,585.18,1109z"/>
			</g>
			<path class="st42" d="M452.13,1047.76c13.38,1.09,49.88,4.3,56.11,6.81c39.82,16.04,48.71,17.34,62.32,33.13
				c9.5,11.02,11.38,23.04,18.46,77.95c-2.05,1.54-43.63,6.13-53.21,6.45c-5.9-35.73-6.13-46.35-9.97-47.53
				c-12.51-3.86-20.18-4.41-38.11-9.35c-9.7-2.67-22.25-6.19-28.58-15.67C448.06,1082.9,451.92,1077.53,452.13,1047.76z"/>
			<path class="st37" d="M521.63,1059.88c-20.46-4.36-36.4,5.01-48.46,16.34c-8.35,7.85-23.66,7.53-23.66-0.37
				c0-7.89,0.98-28.09,1.38-34.57C462.35,1041.28,523.1,1044.03,521.63,1059.88z"/>
			<g>
				<path class="st46" d="M562.84,958.22c0,4-3.37,7.24-7.53,7.24c-4.16,0-7.53-3.24-7.53-7.24s3.37-7.24,7.53-7.24
					C559.47,950.97,562.84,954.22,562.84,958.22z"/>
				<g>
					<path class="st47" d="M509.56,981.18l11.99,87.7c0,3.64,17,6.59,35.25,6.59s35.25-2.95,35.25-6.59l11.99-87.7H509.56z"/>
					<g>
						<path class="st48" d="M556.81,1075.48c1.28,0,2.55-0.02,3.82-0.05l1.12-94.25h-9.79l1.12,94.25
							C554.31,1075.46,555.55,1075.48,556.81,1075.48z"/>
						<path class="st48" d="M597.46,981.18h-1.74l-9.36,91.2c3.54-1.01,5.69-2.21,5.69-3.5l11.93-87.09L597.46,981.18z"/>
						<path class="st48" d="M569.91,1074.97c2.7-0.22,5.25-0.5,7.61-0.83l6.17-92.67l-6.4-0.29h-3.39L569.91,1074.97z"/>
						<path class="st48" d="M517.93,981.18h-1.74l-6.55,0.62l11.93,87.09c0,1.29,2.16,2.49,5.73,3.51L517.93,981.18z"/>
						<path class="st48" d="M539.75,981.18h-3.39l-6.4,0.29l6.17,92.68c2.36,0.33,4.91,0.61,7.61,0.83L539.75,981.18z"/>
					</g>
					<path class="st49" d="M511.55,999.08c8.59,2.87,26.05,3.87,46.06,2.17c20.25-1.72,37.46-5.72,45.32-10.05l1.11-10.02h-94.48
						L511.55,999.08z"/>
					<path class="st47" d="M508.13,981.29v4.45c0,5.36,21.79,9.71,48.67,9.71s48.68-4.35,48.68-9.71v-4.45H508.13z"/>
					<path class="st13" d="M605.48,981.29c0,5.36-21.79,9.71-48.68,9.71s-48.67-4.35-48.67-9.71c0-5.36,21.79-9.71,48.67-9.71
						S605.48,975.92,605.48,981.29z"/>
				</g>
				<path class="st46" d="M601.03,980.56c0,4.09-19.8,7.41-44.22,7.41s-44.22-3.32-44.22-7.41c0-4.09,19.8-7.41,44.22-7.41
					S601.03,976.47,601.03,980.56z"/>
				<path class="st46" d="M526.17,977.02c0,3.67-3.45,6.65-7.71,6.65c-4.26,0-7.71-2.98-7.71-6.65c0-3.67,3.45-6.65,7.71-6.65
					C522.72,970.37,526.17,973.35,526.17,977.02z"/>
				<path class="st50" d="M528,977.73c0,3.67-3.19,6.65-7.14,6.65c-3.94,0-7.14-2.98-7.14-6.65c0-3.67,3.19-6.65,7.14-6.65
					C524.81,971.09,528,974.06,528,977.73z"/>
				<ellipse class="st46" cx="523.54" cy="969.92" rx="6.91" ry="6.65"/>
				<ellipse class="st46" cx="533.08" cy="972.7" rx="8.61" ry="8.28"/>
				<path class="st46" d="M551.91,965.46c0,4-3.37,7.24-7.53,7.24c-4.16,0-7.53-3.24-7.53-7.24c0-4,3.37-7.24,7.53-7.24
					C548.54,958.22,551.91,961.46,551.91,965.46z"/>
				<path class="st46" d="M571.74,963.84c0,4-3.37,7.24-7.53,7.24c-4.16,0-7.53-3.24-7.53-7.24s3.37-7.24,7.53-7.24
					C568.37,956.6,571.74,959.85,571.74,963.84z"/>
				<path class="st46" d="M602.7,976.43c0,4-3.37,7.24-7.53,7.24c-4.16,0-7.53-3.24-7.53-7.24c0-4,3.37-7.24,7.53-7.24
					C599.33,969.19,602.7,972.43,602.7,976.43z"/>
				<ellipse class="st50" cx="586.36" cy="972.62" rx="8.42" ry="7.56"/>
				<path class="st46" d="M592.78,972.7c0,4-3.37,7.24-7.53,7.24c-4.16,0-7.53-3.24-7.53-7.24c0-4,3.37-7.24,7.53-7.24
					C589.41,965.46,592.78,968.7,592.78,972.7z"/>
				<path class="st46" d="M579.93,971.58c0,4-3.37,7.24-7.53,7.24c-4.16,0-7.53-3.24-7.53-7.24c0-4,3.37-7.24,7.53-7.24
					C576.56,964.34,579.93,967.58,579.93,971.58z"/>
				<path class="st46" d="M570.02,970.49c0,4-3.37,7.24-7.53,7.24c-4.16,0-7.53-3.24-7.53-7.24c0-4,3.37-7.24,7.53-7.24
					C566.65,963.25,570.02,966.49,570.02,970.49z"/>
				<path class="st46" d="M558.8,969.19c0,4-3.37,7.24-7.53,7.24c-4.16,0-7.53-3.24-7.53-7.24c0-4,3.37-7.24,7.53-7.24
					C555.43,961.95,558.8,965.19,558.8,969.19z"/>
				<path class="st50" d="M564.83,975.4c0,4-3.37,7.24-7.53,7.24c-4.16,0-7.53-3.24-7.53-7.24c0-4,3.37-7.24,7.53-7.24
					C561.46,968.16,564.83,971.4,564.83,975.4z"/>
				<path class="st50" d="M572.95,972.62c0,3.58-3.02,6.49-6.74,6.49s-6.74-2.9-6.74-6.49c0-3.58,3.02-6.49,6.74-6.49
					S572.95,969.04,572.95,972.62z"/>
				<path class="st46" d="M551.91,972.7c0,4-3.37,7.24-7.53,7.24c-4.16,0-7.53-3.24-7.53-7.24c0-4,3.37-7.24,7.53-7.24
					C548.54,965.46,551.91,968.7,551.91,972.7z"/>
				<path class="st46" d="M571.14,970.43c0,3.45-2.91,6.25-6.5,6.25c-3.59,0-6.5-2.8-6.5-6.25c0-3.45,2.91-6.25,6.5-6.25
					C568.23,964.18,571.14,966.98,571.14,970.43z"/>
				<path class="st46" d="M563.26,974.8c0,4-3.37,7.24-7.53,7.24c-4.16,0-7.53-3.24-7.53-7.24s3.37-7.24,7.53-7.24
					C559.89,967.56,563.26,970.8,563.26,974.8z"/>
				<path class="st50" d="M549.11,975.71c0-2.91-2.45-5.27-5.48-5.27c-3.03,0-5.47,2.42-5.47,5.33c-0.99-1.37-2.63-2.22-4.49-2.22
					c-3.03,0-5.48,2.36-5.48,5.27c0,2.91,2.45,5.27,5.48,5.27c0.87,0,1.68-0.21,2.41-0.56c0.88,1.78,2.75,3.02,4.94,3.02
					c3.03,0,5.48-2.36,5.48-5.27c0-0.36-0.04-0.71-0.11-1.04C548,979.33,549.11,977.65,549.11,975.71z"/>
				<path class="st46" d="M548.21,971.82c0-3.13-2.64-5.67-5.9-5.67c-3.16,0-5.71,2.39-5.86,5.39c-1.03-0.85-2.35-1.38-3.82-1.38
					c-3.26,0-5.89,2.54-5.89,5.67s2.64,5.67,5.89,5.67c0.85,0,1.66-0.18,2.39-0.49c0.92,1.44,2.46,2.45,4.3,2.45
					c2.87,0,5.2-2.33,5.2-5.2c0-0.4-0.14-0.74-0.23-1.11C546.57,976.36,548.21,974.28,548.21,971.82z"/>
				<path class="st46" d="M529.45,976.46c0,3.8-3.42,6.88-7.63,6.88c-4.22,0-7.63-3.08-7.63-6.88s3.42-6.88,7.63-6.88
					C526.04,969.58,529.45,972.66,529.45,976.46z"/>
			</g>
			<path class="st36" d="M518,1054.97c1.97,0.12,3.85-23.16,1.89-23.35c-29.61-3.01-74.59-16.99-82.88-18.39
				c-1.47,13.06-3.38,24.12,5.55,30.57C450.92,1049.83,489.11,1053.21,518,1054.97z"/>
			<g>
				<path class="st51" d="M637.62,854.74c-3.8,20.93-22.12,34.86-36.64,33.54c-14.52-1.32-18.37-18.15-17.11-38.2
					c1.27-20.05,14.07-35.29,28.59-33.92C632.31,818.03,641.19,835.07,637.62,854.74z"/>
				<path class="st52" d="M405.07,783.33c-3.53,78.98,68.15,122.86,131.36,118.93s105.82-61.53,94.66-137.53
					c-6.19-42.2-44.94-75.63-105.3-71.47C461.54,697.69,407.81,722.11,405.07,783.33z"/>
				<path class="st36" d="M443.23,765.68c-4.96,13.1,10.8,125.78,24.76,140.64c14.81,15.76,55.56,30.19,85.65,25.26
					c18.72-3.06,53.49-18.63,63.01-37.56c11.26-22.4,9.77-119.61,5-131.26c-16.09-39.36-51.15-38.54-96.9-35.69
					C481.95,729.72,456.1,731.68,443.23,765.68z"/>
				<path class="st36" d="M416.21,873.08c7.15,21.42,29.28,33.68,45.08,30.47c15.8-3.21,9.5-67.88-19.62-71.57
					C417.41,828.91,409.49,852.95,416.21,873.08z"/>
				<path class="st53" d="M433.86,870.98c1.86,9.13,12.7,16.22,20.33,13.17c2.97-1.19-4.26-32.98-9.11-32.66
					C436.88,852.03,432,861.86,433.86,870.98z"/>
				<path class="st54" d="M470.22,879.71c0.11,4.6,6.59,8.17,14.47,7.98c7.88-0.19,14.18-4.07,14.07-8.67
					c-0.11-4.6-6.59-8.17-14.47-7.98C476.41,871.24,470.11,875.12,470.22,879.71z"/>
				<g>
					<path class="st55" d="M509.89,874.18c-2.78,14.81,20.75,34.42,41.66,32.77c20.8-1.64,34.45-19.55,33.84-34.53
						c-1.61-8.18-15.17-5.52-35.71-5.43C529.16,867.08,511.58,865.16,509.89,874.18z"/>
					<path class="st56" d="M548.96,893.46c9.64-0.1,17.07,2.11,21.91,6.49c-5.37,3.71-12.66,7.26-20.71,7.32
						c-9.06,0.06-18.07-2.95-23.31-6.9C529.15,896.04,540.33,893.55,548.96,893.46z"/>
					<path class="st13" d="M520.13,867.54c7.07-2.19,18.15-0.87,28.37-0.91c11.54-0.05,19.99-1.55,27.21-0.03
						c-2.69,6.19-12.32,10.25-25.59,10.46C534.8,877.3,522.26,874.13,520.13,867.54z"/>
				</g>
				<path class="st54" d="M592.55,871.19c0.5,4.06,5.84,6.74,11.93,5.98c6.08-0.75,10.61-4.65,10.1-8.71
					c-0.5-4.06-5.84-6.74-11.92-5.98C596.57,863.24,592.04,867.14,592.55,871.19z"/>
				<path class="st57" d="M540.93,859.51c0.5-0.03,0.93-0.42,0.98-0.94c0.38-3.69,3.12-6.22,6.97-6.46
					c3.88-0.24,6.98,1.98,7.72,5.53c0.12,0.57,0.68,0.93,1.24,0.82c0.57-0.12,0.93-0.67,0.82-1.24c-0.94-4.54-5.02-7.5-9.9-7.2
					c-4.86,0.3-8.46,3.66-8.94,8.35c-0.06,0.58,0.36,1.09,0.94,1.15L540.93,859.51z"/>
				<path class="st58" d="M466.61,802.11c0.76-0.1,1.48-0.48,2.01-1.1c6.78-7.97,21.21-11.91,33.58-9.15
					c1.72,0.39,3.44-0.7,3.83-2.43c0.39-1.73-0.7-3.44-2.43-3.83c-14.76-3.29-31.53,1.44-39.87,11.26
					c-1.15,1.35-0.98,3.38,0.37,4.52C464.81,801.99,465.73,802.23,466.61,802.11z"/>
				<path class="st58" d="M616.66,791.56c0.79-0.03,1.56-0.37,2.1-1.03c1.02-1.21,0.86-3.02-0.36-4.04
					c-8.83-7.39-24.32-9.03-36.83-3.91c-1.47,0.6-2.17,2.28-1.57,3.74c0.6,1.47,2.28,2.17,3.74,1.57c10.48-4.3,23.79-3.02,30.97,3
					C615.28,791.36,615.97,791.58,616.66,791.56z"/>
				<g>
					<path class="st59" d="M572.36,853.04c0,0,27.5,8.42,36.53-8.98c11-21.2-9.17-36.08-21.29-32.13
						C576.37,815.58,566.83,828,572.36,853.04z"/>
					<path class="st60" d="M609.07,817.9c-5.48-7.09-12.32-8.99-19.5-7.66c-7.34,1.36-14.39,8.07-16.06,14.63
						c3.47-7.49,10.14-10.59,14.34-11.95c6.68-2.18,15.85,0.86,20.37,7.9c4.02,6.26,4.41,16.01,0.37,23.79
						C613.62,839.17,614.78,825.28,609.07,817.9z"/>
					<path class="st61" d="M582.09,831.3c-1.94,7.49,1.66,15.6,8.04,18.12c6.38,2.52,13.13-1.51,15.07-9
						c1.94-7.49-1.66-15.6-8.04-18.12C590.78,819.78,584.03,823.81,582.09,831.3z"/>
					<path class="st62" d="M582.9,828.97c-0.54,2.08,0.46,4.33,2.23,5.03c1.77,0.7,3.64-0.42,4.18-2.5
						c0.54-2.08-0.46-4.33-2.23-5.03C585.31,825.77,583.44,826.89,582.9,828.97z"/>
				</g>
				<g>
					<path class="st59" d="M524.47,856.42c0,0-31.11,12.31-44.35-3.61c-16.14-19.4,5.36-37.05,20.23-34.89
						C514.1,819.91,527.21,830.83,524.47,856.42z"/>
					<path class="st60" d="M475.96,826.93c5.39-7.81,13.15-10.68,21.8-10.4c8.84,0.28,18.16,5.91,21.11,12.17
						c-5.21-6.92-13.54-9.02-18.68-9.76c-8.19-1.2-18.53,3.15-22.8,10.76c-3.79,6.78-2.78,16.49,3.15,23.61
						C473.8,848.65,470.34,835.07,475.96,826.93z"/>
					<path class="st61" d="M490.04,837.44c-2.42,7.53,1.72,15.6,9.25,18.02c7.53,2.42,15.6-1.72,18.02-9.25
						c2.42-7.53-1.72-15.6-9.25-18.02C500.53,825.76,492.46,829.91,490.04,837.44z"/>
					<path class="st62" d="M491.04,835.09c-0.67,2.09,0.48,4.33,2.57,5c2.09,0.67,4.33-0.48,5-2.57c0.67-2.09-0.48-4.33-2.57-5
						C493.95,831.85,491.71,833,491.04,835.09z"/>
				</g>
				<path class="st52" d="M428.25,786.05c-7.7-1.45-5.77-3.87-13.22-6.15c28.46-8.08,17.34-50.99,54.28-69.26
					c60.69-25.06,107.57-13.95,123.94-4.91c30.17,16.66,44.13,46.64,46.99,72.94c4.76,23.76,2.22,31.85,14.72,36.95
					c-13.18,4.24-13.68,1.61-17.77-4.71c-0.72,19.53,1.7,28.21,11.49,34.33c-16.27,4.82-23.1-6.16-24.54-21.67
					c-1.71-18.48,0.33-53.67-2.47-60.18c-1.62-3.77-22.11-24.3-27.84-24.32c-12.5-0.03-25,44.14-69.22,44.6
					c17.57-10.17,26.93-24.16,36.21-43.98c-3.41,2.18-6.81,4.81-10.17,7.98c-35.38,33.41-68.61,42.43-99.86,40.55
					c5.95,33.01,11.68,74.95-23.46,77.41c3.45-4.56,11.84-27.16,1.91-44.16C425.12,824.21,428.09,807.89,428.25,786.05z"/>
			</g>
			<path class="st36" d="M554.75,1061.6c-8.68-0.39-18.48-1.79-36.24-5.76c-12.86-2.88-14.18-13.25-11.72-19.78
				c1.41-3.75,16.98-21.06,23.33-23.23c4.19-1.43,12.8-3.99,13.62-3.35c3.94,3.11-0.81,8.18-7.68,10.84
				c-1.95,0.97-3.56,2.2-5.12,5.33c0.3,1.66,13.54-4.14,19.61-5.5c4.85-1.09,18.17,1.85,18.72,3.37c1.35,3.76-10.15,4.34-14.8,4.99
				c-1.61,0.22-6.18,2.25-8.84,3.91c3.71,0.69,10.56,0.4,13.08,0.66c4.86,0.51,15.64,0.18,16.8,3.35c0.91,2.47-5.92,4.22-14.43,4.9
				c-2.06,0.17-9.71,1-14.67,1.7c-0.01,0.21,11.57,1.69,13.22,1.51c4.89-0.52,11.48-1.84,13.95,2.44c0.67,1.17-9.91,5.2-15,5.3
				c-2.27,0.04-7.27,0.34-13.27,0.06c3.39,0.99,9.84,2.03,11.2,2.23c7.27-1.91,10.24-2.42,12.15,0.76
				C569.22,1056.32,558.88,1061.79,554.75,1061.6z"/>
			<g>
				<path class="st63" d="M630.42,908.92c-1.58-0.92-23.49-6.5-24.88-5.05c-1.89,1.99,0.73,10.3,10.79,11.54
					c6.33,10.93,16.76,27.81,23.2,26.18c6.44-1.63,12.13-6.27,9.84-15.31C648.96,924.64,633.75,910.87,630.42,908.92z"/>
				<path class="st64" d="M642.54,947.46c-6.08,11.63-14.46,23.44-18.14,24.37c-6.43,1.63-9.98-11.62-11.21-25.7
					c-0.21-2.4,0.62-7.15,1.4-12.67c0.94-0.39,1.87-0.8,2.88-1.05C628.41,929.63,639.55,936.37,642.54,947.46z"/>
				<g>
					<path class="st46" d="M615.48,907.21c0.52-1.26,0.66-2.68,0.36-4.1c-0.82-3.84-4.73-6.26-8.72-5.4
						c-3.99,0.86-6.56,4.66-5.74,8.51c0.07,0.34,0.2,0.66,0.32,0.98c-1.22-0.39-2.55-0.5-3.91-0.21c-3.99,0.86-6.56,4.66-5.74,8.51
						c0.82,3.84,4.73,6.26,8.72,5.4c0.62-0.13,1.19-0.36,1.73-0.62c0.88,2.24,3.26,3.61,5.78,3.07c1.58-0.34,2.77-1.37,3.46-2.66
						c0.63,0.03,1.27,0,1.92-0.14c3.99-0.86,6.56-4.67,5.74-8.51C618.94,909.83,617.44,908.12,615.48,907.21z"/>
					<g>
						<g>
							<path class="st65" d="M614.33,906.96c0.33-0.06,0.74,0.06,1.15,0.25c0.52-1.26,0.66-2.68,0.36-4.1
								c-0.1-0.48-0.26-0.94-0.45-1.37C615.46,902.81,614.73,905.99,614.33,906.96z"/>
						</g>
						<g>
							<path class="st65" d="M610.88,915.17c0.21,2.49-6.08,5.75-7.2,1.53c-1.78,3.37-9.9,4.78-11.75-2.42
								c0.01,0.4,0.04,0.8,0.13,1.2c0.82,3.84,4.73,6.26,8.72,5.4c0.62-0.13,1.19-0.36,1.73-0.62c0.88,2.24,3.26,3.61,5.78,3.07
								c1.58-0.34,2.77-1.37,3.46-2.66c0.63,0.03,1.27,0,1.92-0.14c3.99-0.86,6.56-4.67,5.74-8.51c-0.08-0.37-0.23-0.71-0.37-1.05
								C619.77,915.47,615.17,916.75,610.88,915.17z"/>
						</g>
					</g>
				</g>
				<path class="st36" d="M604.53,920.7c-0.46,2.62,2.55,4.23,5.25,4.67c-1.03,1.83-2.93,5.2-0.63,6.43
					c-6.51,6.01-3.41,7.89-2.35,8.4c1.59,0.75,6.79-1.23,11.03-0.37c2.83,0.57,4.93,2.39,11.38,9.7
					c-0.46,2.69-17.05-0.24-20.21,13.67c-1.4,6.18,5.34,22.1,22.22,14.77c4.16-1.81,17.86-36.81,18.87-42.18
					c1.53-8.12-17.35-24.19-21.68-24.22C621.76,911.52,606.54,917.92,604.53,920.7z"/>
				<g>
					<path class="st64" d="M630.34,922.73c1.89,1.36,5.42,3.9,8.59,6.63c0.21,0.19,0.24,0.5,0.06,0.71
						c-0.18,0.21-0.5,0.23-0.71,0.05c-3.14-2.7-6.64-5.22-8.53-6.58c-0.64-0.46-1.11-0.79-1.33-0.97c-0.8-0.74-10.55,0.19-18.64,2.8
						c-0.26-0.04-0.52-0.1-0.79-0.17c5.41-2.67,18.43-4.7,20.05-3.42C629.26,921.95,629.72,922.28,630.34,922.73z"/>
					<path class="st64" d="M626.37,932.15c1.9,1.37,5.45,3.91,8.65,6.67c0.21,0.19,0.24,0.5,0.05,0.71
						c-0.18,0.21-0.5,0.23-0.71,0.05c-3.17-2.73-6.69-5.27-8.58-6.62c-0.61-0.44-1.06-0.76-1.28-0.94
						c-1.14-0.9-10.17-1.64-16.01,0.88c-0.15,0.07-0.3,0.03-0.44-0.04c0.33-0.34,0.69-0.69,1.09-1.06l0.76-0.28
						c6.09-2.22,13.78-1.43,15.23-0.29C625.35,931.4,625.78,931.72,626.37,932.15z"/>
				</g>
			</g>
		</g>
	</g>
</g>
</svg>
